<svg width="32" height="32" viewBox="0 0 32 32" fill="none" xmlns="http://www.w3.org/2000/svg">
<path d="M15.7258 0.000408636C11.5403 0.0429212 7.54069 1.73549 4.59607 4.71033C1.65145 7.68516 -0.000218564 11.7019 3.85904e-08 15.8876C-0.000193708 18.6678 0.729162 21.3993 2.11521 23.8093C3.50127 26.2193 5.49547 28.2234 7.89859 29.6213C8.31618 29.255 8.65841 28.9472 9.14291 28.5306C11.0387 26.9009 12.58 25.471 12.6555 25.2725C12.7686 24.975 12.571 24.3383 11.4081 21.2589C10.6479 19.2458 10.0262 17.4634 10.0272 17.2964C10.0303 16.8957 10.1624 16.7958 15.3954 13.2966C20.5089 9.87737 20.2998 10.1142 19.4401 8.72132C19.0782 8.13497 18.971 7.84687 19.0739 7.74388C19.1769 7.64091 20.136 7.68172 22.329 7.885C24.0393 8.04351 25.5289 8.17353 25.6398 8.17353C25.7508 8.17353 25.9056 8.29151 25.9827 8.43563C26.0035 8.47437 26.013 8.53016 26.0091 8.61095C25.9918 8.9607 25.7189 9.77812 25.0006 11.7031C24.3837 13.3563 23.8233 14.7842 23.7548 14.8743C23.5559 15.1361 23.3184 14.9557 22.8875 14.218C22.4126 13.4048 22.0228 13.2478 21.3965 13.6176C21.1602 13.7572 19.5281 14.822 17.7692 15.9836C15.4928 17.4869 14.5488 18.1871 14.4924 18.4117C14.4396 18.6221 14.8772 19.9578 15.8065 22.4192C16.7584 24.94 17.1746 26.2134 17.1191 26.4344C17.0445 26.7316 13.0515 30.1603 11.6238 31.1913C13.0119 31.5782 14.4462 31.7744 15.8872 31.7746C17.9736 31.7746 20.0394 31.3637 21.967 30.5653C23.8945 29.7669 25.6459 28.5966 27.1212 27.1214C28.5964 25.6461 29.7667 23.8947 30.5651 21.9672C31.3635 20.0397 31.7744 17.9737 31.7744 15.8874C31.7744 13.8011 31.3635 11.7352 30.5651 9.80764C29.7667 7.88011 28.5964 6.12872 27.1212 4.65346C25.6459 3.17819 23.8945 2.00795 21.967 1.20954C20.0394 0.411135 17.9736 0.000203455 15.8872 0.000204804C15.8335 -6.82681e-05 15.7797 -6.82681e-05 15.7259 0.000204804L15.7258 0.000408636Z" fill="#1B8381"/>
</svg>
