<svg width="149" height="32" viewBox="0 0 149 32" fill="none" xmlns="http://www.w3.org/2000/svg">
<g clip-path="url(#clip0)">
<path d="M47.8238 27.092C54.1786 27.092 57.2607 23.9146 57.2607 20.197C57.2607 12.031 44.3286 14.8589 44.3286 10.76C44.3286 9.36194 45.5042 8.21807 48.5546 8.21807C50.5246 8.21807 52.6535 8.79001 54.7188 9.96565L56.3075 6.05742C54.2422 4.75467 51.3825 4.08741 48.5863 4.08741C42.2633 4.08741 39.2129 7.23307 39.2129 11.0142C39.2129 19.2755 52.1451 16.4158 52.1451 20.5783C52.1451 21.9446 50.9059 22.9613 47.8555 22.9613C45.1865 22.9613 42.3904 22.0081 40.5157 20.6418L38.7681 24.5183C40.7381 26.0434 44.2968 27.092 47.8238 27.092ZM70.1196 22.3894C69.5795 22.8025 68.8486 23.0249 68.1178 23.0249C66.7833 23.0249 65.989 22.2305 65.989 20.7689V13.8103H70.2467V9.99743H65.989V5.835H61.0322V9.99743H58.3949V13.8103H61.0322V20.8325C61.0322 24.8996 63.3835 26.9649 67.4188 26.9649C68.944 26.9649 70.4374 26.6154 71.4541 25.8846L70.1196 22.3894ZM81.8433 26.9649C87.2767 26.9649 91.2167 23.3108 91.2167 18.1634C91.2167 13.016 87.2767 9.36194 81.8433 9.36194C76.4099 9.36194 72.4381 13.016 72.4381 18.1634C72.4381 23.3108 76.4099 26.9649 81.8433 26.9649ZM81.8433 22.8978C79.3649 22.8978 77.4585 21.1184 77.4585 18.1634C77.4585 15.2084 79.3649 13.429 81.8433 13.429C84.3217 13.429 86.1964 15.2084 86.1964 18.1634C86.1964 21.1184 84.3217 22.8978 81.8433 22.8978ZM102.791 26.9649C106.382 26.9649 109.21 25.3762 110.449 22.6436L106.604 20.5465C105.683 22.1987 104.316 22.8978 102.759 22.8978C100.249 22.8978 98.2793 21.1502 98.2793 18.1634C98.2793 15.1766 100.249 13.429 102.759 13.429C104.316 13.429 105.683 14.1599 106.604 15.7803L110.449 13.715C109.21 10.9189 106.382 9.36194 102.791 9.36194C97.2308 9.36194 93.259 13.016 93.259 18.1634C93.259 23.3108 97.2308 26.9649 102.791 26.9649ZM125.92 26.7107H131.926L124.173 16.8607L131.29 9.61614H125.38L118.136 16.4794V3.13419H113.179V26.7107H118.136V22.3576L120.519 20.0063L125.92 26.7107ZM140.739 9.36194C138.007 9.36194 135.242 10.0928 133.368 11.4273L135.147 14.8907C136.386 13.9057 138.261 13.302 140.072 13.302C142.741 13.302 144.012 14.5411 144.012 16.67H140.072C134.861 16.67 132.732 18.7671 132.732 21.7857C132.732 24.7407 135.115 26.9649 139.119 26.9649C141.629 26.9649 143.408 26.1388 144.33 24.5818V26.7107H148.969V16.956C148.969 11.7768 145.95 9.36194 140.739 9.36194ZM140.358 23.6286C138.611 23.6286 137.562 22.8025 137.562 21.5633C137.562 20.4194 138.293 19.5615 140.612 19.5615H144.012V21.3091C143.44 22.866 142.01 23.6286 140.358 23.6286Z" fill="black"/>
<path d="M15.7258 0.000408636C11.5403 0.0429212 7.54069 1.73549 4.59607 4.71033C1.65145 7.68516 -0.000218564 11.7019 3.85904e-08 15.8876C-0.000193708 18.6678 0.729162 21.3993 2.11521 23.8093C3.50127 26.2193 5.49547 28.2234 7.89859 29.6213C8.31618 29.255 8.65841 28.9472 9.14291 28.5306C11.0387 26.9009 12.58 25.471 12.6555 25.2725C12.7686 24.975 12.571 24.3383 11.4081 21.2589C10.6479 19.2458 10.0262 17.4634 10.0272 17.2964C10.0303 16.8957 10.1624 16.7958 15.3954 13.2966C20.5089 9.87737 20.2998 10.1142 19.4401 8.72132C19.0782 8.13497 18.971 7.84687 19.0739 7.74388C19.1769 7.64091 20.136 7.68172 22.329 7.885C24.0393 8.04351 25.5289 8.17353 25.6398 8.17353C25.7508 8.17353 25.9056 8.29151 25.9827 8.43563C26.0035 8.47437 26.013 8.53016 26.0091 8.61095C25.9918 8.9607 25.7189 9.77812 25.0006 11.7031C24.3837 13.3563 23.8233 14.7842 23.7548 14.8743C23.5559 15.1361 23.3184 14.9557 22.8875 14.218C22.4126 13.4048 22.0228 13.2478 21.3965 13.6176C21.1602 13.7572 19.5281 14.822 17.7692 15.9836C15.4928 17.4869 14.5488 18.1871 14.4924 18.4117C14.4396 18.6221 14.8772 19.9578 15.8065 22.4192C16.7584 24.94 17.1746 26.2134 17.1191 26.4344C17.0445 26.7316 13.0515 30.1603 11.6238 31.1913C13.0119 31.5782 14.4462 31.7744 15.8872 31.7746C17.9736 31.7746 20.0394 31.3637 21.967 30.5653C23.8945 29.7669 25.6459 28.5966 27.1212 27.1214C28.5964 25.6461 29.7667 23.8947 30.5651 21.9672C31.3635 20.0397 31.7744 17.9737 31.7744 15.8874C31.7744 13.8011 31.3635 11.7352 30.5651 9.80764C29.7667 7.88011 28.5964 6.12872 27.1212 4.65346C25.6459 3.17819 23.8945 2.00795 21.967 1.20954C20.0394 0.411135 17.9736 0.000203455 15.8872 0.000204804C15.8335 -6.82681e-05 15.7797 -6.82681e-05 15.7259 0.000204804L15.7258 0.000408636Z" fill="#1b8381"/>
</g>
<defs>
<clipPath id="clip0">
<rect width="149" height="31.7746" fill="white"/>
</clipPath>
</defs>
</svg>
