<svg width="82" height="34" viewBox="0 0 82 34" fill="none" xmlns="http://www.w3.org/2000/svg">
<rect width="82" height="34" rx="5" fill="#074397"/>
<g clip-path="url(#clip0)">
<path d="M37.7454 23.798H34.2412L36.433 10.2456H39.937L37.7454 23.798Z" fill="white"/>
<path d="M50.4482 10.577C49.757 10.3028 48.6608 10 47.3052 10C43.8447 10 41.4078 11.8453 41.3929 14.4836C41.3641 16.4301 43.1376 17.5113 44.464 18.1603C45.8197 18.8235 46.2806 19.2564 46.2806 19.8475C46.2668 20.7554 45.1851 21.1739 44.1762 21.1739C42.7771 21.1739 42.0275 20.9582 40.8883 20.4531L40.4269 20.2365L39.9365 23.2787C40.7584 23.6532 42.2726 23.9854 43.8447 24C47.5216 24 49.9153 22.1832 49.9437 19.3717C49.9577 17.829 49.0212 16.6468 47.0023 15.6809C45.7766 15.0608 45.026 14.6427 45.026 14.0082C45.0404 13.4314 45.6609 12.8406 47.0444 12.8406C48.1836 12.8117 49.0206 13.0855 49.6547 13.3595L49.9716 13.5034L50.4482 10.577Z" fill="white"/>
<path d="M55.1052 18.9969C55.3938 18.2183 56.5042 15.205 56.5042 15.205C56.4897 15.2339 56.7922 14.4121 56.9653 13.9075L57.2102 15.0753C57.2102 15.0753 57.8738 18.3193 58.0179 18.9969C57.4702 18.9969 55.7973 18.9969 55.1052 18.9969ZM59.4307 10.2456H56.7202C55.8843 10.2456 55.2493 10.4905 54.8887 11.3701L49.6836 23.7978H53.3605C53.3605 23.7978 53.9658 22.1251 54.0959 21.7649C54.4993 21.7649 58.0761 21.7649 58.595 21.7649C58.6956 22.2407 59.0132 23.7978 59.0132 23.7978H62.2577L59.4307 10.2456Z" fill="white"/>
<path d="M31.3137 10.2456L27.8819 19.487L27.5069 17.6128C26.8725 15.4501 24.8826 13.1004 22.6621 11.9321L25.8055 23.7836H29.5111L35.0191 10.2456H31.3137Z" fill="white"/>
<path d="M24.6956 10.2456H19.0577L19 10.5194C23.3979 11.6441 26.3106 14.355 27.5073 17.6133L26.2817 11.3848C26.0799 10.5192 25.4598 10.2742 24.6956 10.2456Z" fill="#FAA61A"/>
</g>
<defs>
<clipPath id="clip0">
<rect width="43.2582" height="14" fill="white" transform="translate(19 10)"/>
</clipPath>
</defs>
</svg>
