<svg width="100" height="100" viewBox="0 0 100 100" fill="none" xmlns="http://www.w3.org/2000/svg">
<path d="M67.5781 62.3047C66.4996 62.3047 65.625 63.1791 65.625 64.2578V77.7344C65.625 83.1191 61.2441 87.5 55.8594 87.5H34.7719C33.6936 87.5 32.8195 88.3736 32.8187 89.4518L32.816 93.335L28.1543 88.6734C27.8525 87.9807 27.1619 87.5 26.3631 87.5H13.6719C8.28711 87.5 3.90625 83.1191 3.90625 77.7344V47.6562C3.90625 42.2715 8.28711 37.8906 13.6719 37.8906H33.3984C34.477 37.8906 35.3516 37.0162 35.3516 35.9375C35.3516 34.8588 34.477 33.9844 33.3984 33.9844H13.6719C6.1332 33.9844 0 40.1176 0 47.6562V77.7344C0 85.273 6.1332 91.4062 13.6719 91.4062H25.3629L33.3846 99.4279C33.7582 99.8016 34.2576 100 34.766 100C35.0174 100 35.2711 99.9514 35.5123 99.8516C36.2422 99.5496 36.7182 98.8379 36.7188 98.0482L36.7234 91.4062H55.8594C63.398 91.4062 69.5312 85.273 69.5312 77.7344V64.2578C69.5312 63.1791 68.6566 62.3047 67.5781 62.3047Z" fill="#1B8381"/>
<path d="M71.6123 0H66.6691C51.016 0 38.2812 12.7348 38.2812 28.3879C38.2812 44.041 51.016 56.7756 66.6689 56.7756H71.6121C74.0553 56.7756 76.4734 56.4652 78.8172 55.852L86.1193 63.15C86.493 63.5232 86.9922 63.7217 87.5004 63.7217C87.7522 63.7217 88.0061 63.673 88.2477 63.5729C88.9773 63.2705 89.4531 62.5584 89.4531 61.7686V50.4686C92.5447 47.9648 95.1129 44.8021 96.9152 41.2689C98.9623 37.2561 100 32.9223 100 28.3879C100 12.7348 87.2652 0 71.6123 0ZM86.3248 47.9561C85.8352 48.325 85.5469 48.9027 85.5469 49.5162V57.0553L80.7674 52.2783C80.3955 51.9068 79.8967 51.7066 79.3865 51.7066C79.1951 51.7066 79.0018 51.735 78.8131 51.793C76.4883 52.5074 74.0656 52.8695 71.6123 52.8695H66.6691C53.1697 52.8695 42.1875 41.8871 42.1875 28.3879C42.1875 14.8887 53.1699 3.90625 66.6691 3.90625H71.6123C85.1115 3.90625 96.0938 14.8887 96.0938 28.3879C96.0938 36.1479 92.5332 43.2803 86.3248 47.9561Z" fill="#1B8381"/>
<path d="M77.9362 21.3713C77.6544 17.2824 74.3583 13.9863 70.2692 13.7045C67.9513 13.5453 65.7392 14.3271 64.046 15.9078C62.3761 17.4666 61.4185 19.6701 61.4185 21.9535C61.4185 23.0322 62.2931 23.9066 63.3716 23.9066C64.4501 23.9066 65.3247 23.0322 65.3247 21.9535C65.3247 20.7311 65.8173 19.598 66.7114 18.7635C67.6048 17.9297 68.7724 17.517 70.0009 17.6018C72.1548 17.7502 73.8909 19.4863 74.0393 21.64C74.1893 23.8152 72.7622 25.7375 70.6462 26.2109C68.9317 26.5945 67.7345 28.0844 67.7345 29.8338V34.5262C67.7345 35.6049 68.6091 36.4793 69.6876 36.4793C70.7663 36.4793 71.6407 35.6049 71.6405 34.5262V29.9898C75.5761 29.0391 78.2165 25.4379 77.9362 21.3713Z" fill="#1B8381"/>
<path d="M71.0684 40.8711C70.7051 40.5078 70.2012 40.2988 69.6875 40.2988C69.1738 40.2988 68.6699 40.5078 68.3066 40.8711C67.9434 41.2344 67.7344 41.7383 67.7344 42.252C67.7344 42.7676 67.9436 43.2715 68.3066 43.6348C68.6699 43.998 69.1738 44.2051 69.6875 44.2051C70.2012 44.2051 70.7051 43.998 71.0684 43.6348C71.4316 43.2695 71.6406 42.7676 71.6406 42.252C71.6406 41.7383 71.4314 41.2344 71.0684 40.8711Z" fill="#1B8381"/>
<path d="M53.7109 60.5469H12.5C11.4215 60.5469 10.5469 61.4213 10.5469 62.5C10.5469 63.5787 11.4215 64.4531 12.5 64.4531H53.7109C54.7896 64.4531 55.6641 63.5787 55.6641 62.5C55.6641 61.4213 54.7895 60.5469 53.7109 60.5469Z" fill="#1B8381"/>
<path d="M55.0916 72.0566C54.7285 71.6934 54.2246 71.4844 53.7109 71.4844C53.1973 71.4844 52.6934 71.6934 52.3301 72.0566C51.9666 72.4199 51.7578 72.9238 51.7578 73.4375C51.7578 73.9512 51.9668 74.4551 52.3301 74.8184C52.6934 75.1816 53.1973 75.3906 53.7109 75.3906C54.2246 75.3906 54.7285 75.1816 55.0916 74.8184C55.4551 74.4551 55.6641 73.9531 55.6641 73.4375C55.6641 72.9238 55.4549 72.4199 55.0916 72.0566Z" fill="#1B8381"/>
<path d="M46.0287 71.4844H12.5C11.4215 71.4844 10.5469 72.3588 10.5469 73.4375C10.5469 74.5162 11.4215 75.3906 12.5 75.3906H46.0287C47.1074 75.3906 47.9818 74.5162 47.9818 73.4375C47.9818 72.3588 47.1072 71.4844 46.0287 71.4844Z" fill="#1B8381"/>
<path d="M41.0156 49.6094H12.5C11.4215 49.6094 10.5469 50.4838 10.5469 51.5625C10.5469 52.6412 11.4215 53.5156 12.5 53.5156H41.0156C42.0943 53.5156 42.9688 52.6412 42.9688 51.5625C42.9688 50.4838 42.0941 49.6094 41.0156 49.6094Z" fill="#1B8381"/>
</svg>
