<svg width="40" height="40" viewBox="0 0 40 40" fill="none" xmlns="http://www.w3.org/2000/svg">
<g clip-path="url(#clip0)">
<path d="M17.6152 0C7.90242 0 0 7.90242 0 17.6152C0 27.3284 7.90242 35.2303 17.6152 35.2303C27.3284 35.2303 35.2303 27.3284 35.2303 17.6152C35.2303 7.90242 27.3284 0 17.6152 0ZM17.6152 31.9784C9.69539 31.9784 3.25203 25.535 3.25203 17.6152C3.25203 9.69547 9.69539 3.25203 17.6152 3.25203C25.5349 3.25203 31.9783 9.69539 31.9783 17.6152C31.9783 25.5349 25.5349 31.9784 17.6152 31.9784Z" fill="#1B8381"/>
<path d="M39.5235 37.2243L30.2009 27.9018C29.5657 27.2666 28.537 27.2666 27.9017 27.9018C27.2665 28.5365 27.2665 29.5664 27.9017 30.2011L37.2242 39.5236C37.5418 39.8411 37.9576 40 38.3738 40C38.7895 40 39.2058 39.8411 39.5235 39.5236C40.1587 38.8889 40.1587 37.859 39.5235 37.2243Z" fill="#1B8381"/>
</g>
<defs>
<clipPath id="clip0">
<rect width="40" height="40" fill="white"/>
</clipPath>
</defs>
</svg>
