<svg width="40" height="40" viewBox="0 0 40 40" fill="none" xmlns="http://www.w3.org/2000/svg">
<path d="M36.4844 5.9375H3.51562C1.5732 5.9375 0 7.52047 0 9.45312V30.5469C0 32.491 1.58477 34.0625 3.51562 34.0625H36.4844C38.4105 34.0625 40 32.4977 40 30.5469V9.45312C40 7.52391 38.433 5.9375 36.4844 5.9375ZM35.992 8.28125C35.2738 8.9957 22.9127 21.2916 22.4859 21.7162C21.8219 22.3802 20.9391 22.7459 20 22.7459C19.0609 22.7459 18.1781 22.3802 17.5119 21.714C17.2248 21.4284 5.00023 9.26828 4.00797 8.28125H35.992ZM2.34375 30.0698V9.93164L12.4717 20.0062L2.34375 30.0698ZM4.00945 31.7188L14.1334 21.6591L15.8568 23.3734C16.9635 24.4802 18.4349 25.0896 20 25.0896C21.5651 25.0896 23.0365 24.4802 24.141 23.3756L25.8666 21.6591L35.9905 31.7188H4.00945ZM37.6562 30.0698L27.5283 20.0062L37.6562 9.93164V30.0698Z" fill="#1B8381"/>
</svg>
