<svg width="100" height="100" viewBox="0 0 100 100" fill="none" xmlns="http://www.w3.org/2000/svg">
<g clip-path="url(#clip0)">
<path d="M28.9146 46.2347H37.3048C38.114 46.2347 38.7696 45.5789 38.7696 44.7699C38.7696 43.9609 38.114 43.3051 37.3048 43.3051H28.9146C28.1054 43.3051 27.4497 43.9609 27.4497 44.7699C27.4497 45.5789 28.1054 46.2347 28.9146 46.2347Z" fill="#1B8381"/>
<path d="M28.9146 53.334H62.9907C63.7999 53.334 64.4556 52.6781 64.4556 51.8691C64.4556 51.0602 63.7999 50.4043 62.9907 50.4043H28.9146C28.1054 50.4043 27.4497 51.0602 27.4497 51.8691C27.4497 52.6781 28.1054 53.334 28.9146 53.334Z" fill="#1B8381"/>
<path d="M62.9906 57.5033H53.9062C53.0971 57.5033 52.4414 58.1592 52.4414 58.9681C52.4414 59.7771 53.0971 60.433 53.9062 60.433H62.9906C63.7998 60.433 64.4555 59.7771 64.4555 58.9681C64.4555 58.1592 63.7996 57.5033 62.9906 57.5033Z" fill="#1B8381"/>
<path d="M95.8739 9.83496L76.9134 0.358984C75.9565 -0.119336 74.8141 -0.119336 73.8573 0.358984L54.8964 9.83496C54.8962 9.83496 54.8962 9.83496 54.8962 9.83496C53.7306 10.4176 53.0063 11.5891 53.0063 12.8924V15.6184H32.4218C31.6126 15.6184 30.9569 16.2742 30.9569 17.0832C30.9569 17.8922 31.6126 18.548 32.4218 18.548H53.0065V23.0029C53.0065 25.1396 53.1667 27.1709 53.4872 29.1068H28.9144C28.1052 29.1068 27.4495 29.7627 27.4495 30.5717C27.4495 31.3807 28.1052 32.0365 28.9144 32.0365H54.1142C54.4981 33.4818 54.9837 34.8699 55.5702 36.206H28.9144C28.1052 36.206 27.4495 36.8619 27.4495 37.6709C27.4495 38.4799 28.1052 39.1357 28.9144 39.1357H57.0679C57.5823 40.0101 58.1458 40.8607 58.7599 41.6889C59.1642 42.2342 59.5915 42.7723 60.0436 43.3053H43.164C42.3548 43.3053 41.6991 43.9611 41.6991 44.7701C41.6991 45.5791 42.3548 46.235 43.164 46.235H62.8382C65.5999 48.834 69.0905 51.3928 73.5977 54.151C74.1489 54.4883 74.7669 54.6568 75.385 54.6568C76.0032 54.6568 76.6212 54.4883 77.1725 54.151C77.3223 54.0594 77.4692 53.9682 77.6167 53.8771V89.4502H39.2905V86.7189C39.2905 85.9099 38.6349 85.2541 37.8257 85.2541C37.0165 85.2541 36.3608 85.9099 36.3608 86.7189V96.5822C36.3608 96.8513 36.1419 97.0705 35.8726 97.0705H5.65381C5.38447 97.0705 5.16553 96.8513 5.16553 96.5822V75.4832C5.16553 75.214 5.38447 74.9949 5.65381 74.9949H35.8726C36.1419 74.9949 36.3608 75.214 36.3608 75.4832V79.883C36.3608 80.692 37.0165 81.3478 37.8257 81.3478C38.6349 81.3478 39.2905 80.692 39.2905 79.883V75.4832C39.2905 75.1889 39.2491 74.9045 39.1788 74.6318H62.9905C63.7997 74.6318 64.4554 73.976 64.4554 73.167C64.4554 72.358 63.7997 71.7021 62.9905 71.7021H34.5835V67.5326H62.9903C63.7995 67.5326 64.4552 66.8767 64.4552 66.0678C64.4552 65.2588 63.7995 64.6029 62.9903 64.6029H34.5222C34.3868 63.1351 34.0222 61.7332 33.4624 60.4334H48.6327C49.4419 60.4334 50.0975 59.7775 50.0975 58.9685C50.0975 58.1596 49.4419 57.5037 48.6327 57.5037H31.7446C29.2171 54.1984 25.2358 52.0609 20.7632 52.0609C18.4243 52.0609 16.2206 52.6469 14.2876 53.6767V18.548H25.5858C26.395 18.548 27.0507 17.8922 27.0507 17.0832C27.0507 16.2742 26.395 15.6184 25.5858 15.6184H13.7993C12.453 15.6184 11.3579 16.7135 11.3579 18.0598V55.7676C8.64443 58.2926 6.94287 61.8912 6.94287 65.8812V72.065H5.65381C3.76924 72.065 2.23584 73.5984 2.23584 75.483V96.5822C2.23584 98.4668 3.76924 100 5.65381 100H35.8726C37.7571 100 39.2905 98.4668 39.2905 96.5822V92.3797H78.1052C79.4514 92.3797 80.5466 91.2846 80.5466 89.9383V51.9953C85.7606 48.506 89.3706 45.249 92.0104 41.6889C95.8817 36.4682 97.7637 30.3559 97.7637 23.0031V12.8924C97.7639 11.5893 97.0397 10.4178 95.8739 9.83496ZM25.7946 72.0652H15.7319V65.8814C15.7319 63.107 17.9892 60.85 20.7634 60.85C23.5376 60.85 25.7948 63.107 25.7948 65.8814V72.0652H25.7946ZM9.87256 65.8814C9.87256 59.8762 14.7583 54.9906 20.7634 54.9906C26.7685 54.9906 31.654 59.8762 31.654 65.8814V72.0652H28.7245V65.8814C28.7245 61.4916 25.1532 57.9203 20.7634 57.9203C16.3735 57.9203 12.8022 61.4916 12.8022 65.8814V72.0652H9.87256V65.8814ZM94.8343 23.0031C94.8343 37.0805 87.4913 44.4019 75.6436 51.6519C75.4862 51.7482 75.2835 51.748 75.1268 51.6519C63.279 44.4017 55.936 37.0805 55.936 23.0031V12.8924C55.936 12.7061 56.0395 12.5387 56.2061 12.4555L75.1669 2.9793C75.3034 2.91094 75.4665 2.91094 75.6034 2.9793L94.5639 12.4553C94.7305 12.5385 94.8341 12.7059 94.8341 12.8922V23.0031H94.8343Z" fill="#1B8381"/>
<path d="M75.2971 10.1816C67.1232 10.1816 60.4736 16.8314 60.4736 25.0051C60.4736 33.1787 67.1234 39.8285 75.2971 39.8285C81.5504 39.8285 87.1623 35.8715 89.2615 29.9818C89.5332 29.2199 89.1355 28.3818 88.3736 28.1102C87.6117 27.8385 86.7736 28.2361 86.5019 28.998C84.8174 33.7236 80.3144 36.8986 75.2971 36.8986C68.7389 36.8986 63.4033 31.5631 63.4033 25.0049C63.4033 18.4467 68.7389 13.1111 75.2971 13.1111C81.0713 13.1111 85.9945 17.2324 87.0031 22.9104C87.1447 23.7068 87.9055 24.2387 88.7016 24.0965C89.498 23.9551 90.0291 23.1945 89.8877 22.398C88.6303 15.3193 82.4941 10.1816 75.2971 10.1816Z" fill="#1B8381"/>
<path d="M80.3785 20.9965L74.6068 26.7682L71.2507 23.4119C70.6787 22.8398 69.7513 22.8396 69.1791 23.4119C68.607 23.984 68.607 24.9115 69.1791 25.4834L73.5708 29.8754C73.8457 30.1502 74.2181 30.3045 74.6068 30.3045C74.9955 30.3045 75.3677 30.1502 75.6427 29.8754L82.4501 23.068C83.0222 22.4959 83.0222 21.5683 82.4501 20.9965C81.8781 20.4246 80.9507 20.4246 80.3785 20.9965Z" fill="#1B8381"/>
</g>
<defs>
<clipPath id="clip0">
<rect width="100" height="100" fill="white"/>
</clipPath>
</defs>
</svg>
