<svg width="100" height="100" viewBox="0 0 100 100" fill="none" xmlns="http://www.w3.org/2000/svg">
<path d="M85.9375 15.625C86.3519 15.625 86.7493 15.4604 87.0424 15.1674C87.3354 14.8743 87.5 14.4769 87.5 14.0625V10.9375C87.4977 8.86621 86.6738 6.88042 85.2092 5.4158C83.7446 3.95117 81.7588 3.12733 79.6875 3.125H23.4375C21.3662 3.12733 19.3804 3.95117 17.9158 5.4158C16.4512 6.88042 15.6273 8.86621 15.625 10.9375V81.25H18.75V10.9375C18.7514 9.69474 19.2458 8.5033 20.1245 7.62454C21.0033 6.74577 22.1947 6.25145 23.4375 6.25H73.4412C72.423 7.60046 71.8731 9.24621 71.875 10.9375V89.0625C71.875 90.3057 71.3811 91.498 70.5021 92.3771C69.623 93.2561 68.4307 93.75 67.1875 93.75C65.9443 93.75 64.752 93.2561 63.8729 92.3771C62.9939 91.498 62.5 90.3057 62.5 89.0625V85.9375C62.5 85.5231 62.3354 85.1257 62.0424 84.8326C61.7493 84.5396 61.3519 84.375 60.9375 84.375H4.6875C4.2731 84.375 3.87567 84.5396 3.58265 84.8326C3.28962 85.1257 3.125 85.5231 3.125 85.9375V89.0625C3.12733 91.1338 3.95117 93.1196 5.4158 94.5842C6.88042 96.0488 8.86621 96.8727 10.9375 96.875H67.1875C69.2588 96.8727 71.2446 96.0488 72.7092 94.5842C74.1738 93.1196 74.9977 91.1338 75 89.0625V15.625H85.9375ZM10.9375 93.75C9.69473 93.7486 8.50325 93.2543 7.62448 92.3755C6.7457 91.4967 6.2514 90.3053 6.25 89.0625V87.5H59.375V89.0625C59.3731 90.7538 59.923 92.3995 60.9412 93.75H10.9375ZM79.6875 6.25C80.9303 6.25145 82.1217 6.74577 83.0005 7.62454C83.8792 8.5033 84.3736 9.69474 84.375 10.9375V12.5H75V10.9375C75.0014 9.69474 75.4958 8.5033 76.3745 7.62454C77.2533 6.74577 78.4447 6.25145 79.6875 6.25Z" fill="#1B8381"/>
<path d="M35.9374 20.3125C35.9292 20.9368 36.0677 21.5542 36.3417 22.1152C36.6157 22.6761 37.0176 23.1649 37.5151 23.5422C37.4385 24.1603 37.5039 24.7878 37.7063 25.3769C37.9088 25.9659 38.2429 26.501 38.6834 26.9415C39.1238 27.3819 39.6589 27.7161 40.248 27.9185C40.837 28.121 41.4645 28.1864 42.0827 28.1098C42.4655 28.6011 42.9555 28.9986 43.5151 29.272C44.0748 29.5454 44.6895 29.6875 45.3124 29.6875C45.9352 29.6875 46.5499 29.5454 47.1096 29.272C47.6693 28.9986 48.1592 28.6011 48.542 28.1098C49.1602 28.1864 49.7877 28.1211 50.3768 27.9186C50.9659 27.7162 51.501 27.382 51.9414 26.9416C52.3819 26.5011 52.716 25.966 52.9185 25.3769C53.1209 24.7878 53.1863 24.1603 53.1096 23.5422C53.6009 23.1593 53.9984 22.6694 54.2718 22.1097C54.5452 21.55 54.6874 20.9354 54.6874 20.3125C54.6874 19.6896 54.5452 19.0749 54.2718 18.5153C53.9984 17.9556 53.6009 17.4657 53.1096 17.0828C53.1863 16.4646 53.1209 15.8372 52.9185 15.2481C52.716 14.659 52.3819 14.1239 51.9414 13.6834C51.501 13.243 50.9659 12.9088 50.3768 12.7064C49.7877 12.5039 49.1602 12.4386 48.542 12.5152C48.1592 12.0239 47.6693 11.6264 47.1096 11.353C46.5499 11.0796 45.9352 10.9375 45.3124 10.9375C44.6895 10.9375 44.0748 11.0796 43.5151 11.353C42.9555 11.6264 42.4655 12.0239 42.0827 12.5152C41.4645 12.4386 40.837 12.5039 40.2479 12.7064C39.6589 12.9088 39.1237 13.243 38.6833 13.6834C38.2428 14.1239 37.9087 14.659 37.7062 15.2481C37.5038 15.8372 37.4384 16.4646 37.5151 17.0828C37.0176 17.4601 36.6157 17.9488 36.3417 18.5098C36.0677 19.0708 35.9292 19.6882 35.9374 20.3125ZM39.7872 19.4055C40.0311 19.3503 40.2583 19.2374 40.4495 19.0762C40.6408 18.915 40.7906 18.7103 40.8863 18.4792C40.982 18.2481 41.0208 17.9974 40.9995 17.7482C40.9781 17.499 40.8973 17.2585 40.7637 17.0471C40.6511 16.8686 40.6025 16.6572 40.6259 16.4475C40.6493 16.2378 40.7433 16.0423 40.8926 15.8931C41.0418 15.7439 41.2373 15.6499 41.447 15.6265C41.6567 15.6031 41.8681 15.6518 42.0465 15.7644C42.258 15.898 42.4985 15.9788 42.7477 16.0002C42.9969 16.0215 43.2476 15.9827 43.4787 15.887C43.7098 15.7913 43.9145 15.6415 44.0757 15.4503C44.2369 15.259 44.3498 15.0318 44.4049 14.7879C44.4514 14.5821 44.5665 14.3982 44.7314 14.2664C44.8962 14.1347 45.1009 14.0629 45.312 14.0629C45.523 14.0629 45.7277 14.1347 45.8926 14.2664C46.0574 14.3982 46.1725 14.5821 46.219 14.7879C46.2741 15.0318 46.3871 15.259 46.5482 15.4503C46.7094 15.6415 46.9142 15.7913 47.1453 15.887C47.3764 15.9827 47.627 16.0215 47.8763 16.0002C48.1255 15.9788 48.3659 15.898 48.5774 15.7644C48.7558 15.6518 48.9672 15.6031 49.1769 15.6265C49.3866 15.6499 49.5822 15.7439 49.7314 15.8931C49.8806 16.0423 49.9746 16.2378 49.998 16.4475C50.0214 16.6572 49.9728 16.8686 49.8602 17.0471C49.7266 17.2585 49.6458 17.499 49.6245 17.7482C49.6032 17.9974 49.642 18.2481 49.7377 18.4792C49.8334 18.7103 49.9831 18.915 50.1744 19.0762C50.3656 19.2374 50.5928 19.3503 50.8368 19.4055C51.0426 19.452 51.2265 19.5671 51.3582 19.7319C51.49 19.8967 51.5618 20.1015 51.5618 20.3125C51.5618 20.5235 51.49 20.7282 51.3582 20.8931C51.2265 21.0579 51.0426 21.173 50.8368 21.2195C50.5928 21.2747 50.3656 21.3876 50.1744 21.5488C49.9831 21.71 49.8334 21.9147 49.7377 22.1458C49.642 22.3769 49.6032 22.6276 49.6245 22.8768C49.6458 23.126 49.7266 23.3664 49.8602 23.5779C49.9729 23.7564 50.0216 23.9678 49.9982 24.1776C49.9748 24.3874 49.8807 24.5829 49.7314 24.7321C49.5822 24.8813 49.3866 24.9754 49.1768 24.9987C48.9671 25.022 48.7556 24.9733 48.5772 24.8605C48.3657 24.727 48.1253 24.6462 47.8761 24.6249C47.6269 24.6036 47.3763 24.6424 47.1452 24.7381C46.9141 24.8338 46.7094 24.9836 46.5482 25.1748C46.3871 25.366 46.2742 25.5932 46.219 25.8371C46.1725 26.0429 46.0574 26.2268 45.8926 26.3586C45.7277 26.4903 45.523 26.5621 45.312 26.5621C45.1009 26.5621 44.8962 26.4903 44.7314 26.3586C44.5665 26.2268 44.4514 26.0429 44.4049 25.8371C44.3498 25.5932 44.2369 25.366 44.0757 25.1748C43.9145 24.9836 43.7098 24.8338 43.4787 24.7381C43.2477 24.6424 42.997 24.6036 42.7478 24.6249C42.4986 24.6462 42.2582 24.727 42.0467 24.8605C41.8683 24.9733 41.6569 25.022 41.4471 24.9987C41.2373 24.9754 41.0417 24.8813 40.8925 24.7321C40.7432 24.5829 40.6492 24.3874 40.6258 24.1776C40.6024 23.9678 40.651 23.7564 40.7637 23.5779C40.8973 23.3664 40.9781 23.126 40.9995 22.8768C41.0208 22.6276 40.982 22.3769 40.8863 22.1458C40.7906 21.9147 40.6408 21.71 40.4495 21.5488C40.2583 21.3876 40.0311 21.2747 39.7872 21.2195C39.5813 21.173 39.3974 21.0579 39.2657 20.8931C39.1339 20.7282 39.0622 20.5235 39.0622 20.3125C39.0622 20.1015 39.1339 19.8967 39.2657 19.7319C39.3974 19.5671 39.5813 19.452 39.7872 19.4055Z" fill="#1B8381"/>
<path d="M37.5 39.0625H53.125V42.1875H37.5V39.0625Z" fill="#1B8381"/>
<path d="M42.1875 32.8125H57.8125V35.9375H42.1875V32.8125Z" fill="#1B8381"/>
<path d="M32.8125 32.8125H39.0625V35.9375H32.8125V32.8125Z" fill="#1B8381"/>
<path d="M29.6875 46.875H67.1875V50H29.6875V46.875Z" fill="#1B8381"/>
<path d="M23.4375 46.875H26.5625V50H23.4375V46.875Z" fill="#1B8381"/>
<path d="M29.6875 53.125H54.6875V56.25H29.6875V53.125Z" fill="#1B8381"/>
<path d="M57.8125 53.125H67.1875V56.25H57.8125V53.125Z" fill="#1B8381"/>
<path d="M29.6875 59.375H67.1875V62.5H29.6875V59.375Z" fill="#1B8381"/>
<path d="M23.4375 59.375H26.5625V62.5H23.4375V59.375Z" fill="#1B8381"/>
<path d="M29.6875 65.625H39.0625V68.75H29.6875V65.625Z" fill="#1B8381"/>
<path d="M42.1875 65.625H67.1875V68.75H42.1875V65.625Z" fill="#1B8381"/>
<path d="M29.6875 71.875H54.6875V75H29.6875V71.875Z" fill="#1B8381"/>
<path d="M23.4375 71.875H26.5625V75H23.4375V71.875Z" fill="#1B8381"/>
<path d="M29.6875 78.125H67.1875V81.25H29.6875V78.125Z" fill="#1B8381"/>
<path d="M57.8125 71.875H67.1875V75H57.8125V71.875Z" fill="#1B8381"/>
<path d="M92.1875 28.125H90.625C90.625 26.4674 89.9665 24.8777 88.7944 23.7056C87.6223 22.5335 86.0326 21.875 84.375 21.875C82.7174 21.875 81.1277 22.5335 79.9556 23.7056C78.7835 24.8777 78.125 26.4674 78.125 28.125V78.125C78.1251 78.3675 78.182 78.6067 78.2912 78.8232H78.29L82.9775 88.1982C83.1073 88.4577 83.3068 88.676 83.5536 88.8285C83.8004 88.981 84.0849 89.0618 84.375 89.0618C84.6651 89.0618 84.9496 88.981 85.1964 88.8285C85.4432 88.676 85.6427 88.4577 85.7725 88.1982L90.46 78.8232H90.4588C90.568 78.6067 90.6249 78.3675 90.625 78.125V31.25H92.1875C92.6018 31.2505 92.9989 31.4152 93.2918 31.7082C93.5848 32.0011 93.7495 32.3982 93.75 32.8125V50H96.875V32.8125C96.8736 31.5697 96.3792 30.3783 95.5005 29.4995C94.6217 28.6208 93.4303 28.1264 92.1875 28.125ZM84.375 25C85.2035 25.001 85.9978 25.3305 86.5836 25.9164C87.1695 26.5022 87.499 27.2965 87.5 28.125H81.25C81.251 27.2965 81.5805 26.5022 82.1664 25.9164C82.7522 25.3305 83.5465 25.001 84.375 25ZM87.5 76.5625H81.25V53.125H87.5V76.5625ZM87.5 50H81.25V46.875H87.5V50ZM84.375 84.0061L82.2156 79.6875H86.5344L84.375 84.0061ZM87.5 43.75H81.25V31.25H87.5V43.75Z" fill="#1B8381"/>
</svg>
