<svg width="299" height="299" viewBox="0 0 299 299" fill="none" xmlns="http://www.w3.org/2000/svg">
<path d="M147.981 0.00384528C108.595 0.403889 70.9585 16.331 43.2494 44.3243C15.5403 72.3176 -0.0020567 110.115 3.63138e-07 149.503C-0.00182281 175.664 6.86147 201.368 19.9043 224.046C32.9472 246.724 51.7128 265.583 74.3264 278.738C78.256 275.291 81.4764 272.394 86.0355 268.474C103.875 253.138 118.379 239.682 119.089 237.815C120.154 235.016 118.294 229.024 107.351 200.046C100.197 181.104 94.3473 164.331 94.357 162.759C94.386 158.989 95.6295 158.049 144.872 125.122C192.99 92.9463 191.023 95.1745 182.933 82.0679C179.527 76.5503 178.518 73.8392 179.487 72.8702C180.456 71.9012 189.482 72.2851 210.117 74.1981C226.212 75.6897 240.229 76.9131 241.273 76.9131C242.317 76.9131 243.774 78.0234 244.499 79.3795C244.695 79.744 244.785 80.269 244.748 81.0293C244.584 84.3204 242.017 92.0123 235.258 110.126C229.453 125.683 224.179 139.12 223.535 139.967C221.663 142.431 219.428 140.733 215.374 133.792C210.904 126.139 207.236 124.662 201.343 128.142C199.12 129.455 183.761 139.475 167.209 150.406C145.789 164.552 136.905 171.141 136.375 173.254C135.878 175.235 139.995 187.803 148.741 210.965C157.697 234.686 161.614 246.669 161.092 248.749C160.39 251.545 122.816 283.809 109.381 293.511C122.443 297.151 135.94 298.998 149.5 299C169.133 299 188.573 295.133 206.711 287.62C224.849 280.107 241.33 269.095 255.212 255.213C269.095 241.33 280.107 224.85 287.62 206.712C295.133 188.574 299 169.133 299 149.501C299 129.868 295.133 110.428 287.62 92.2901C280.107 74.1521 269.095 57.6714 255.212 43.7892C241.33 29.9069 224.849 18.8948 206.711 11.3818C188.573 3.86879 169.133 0.00191452 149.5 0.00192721C148.994 -0.000642404 148.488 -0.000642404 147.982 0.00192721L147.981 0.00384528Z" fill="#ffffff"/>
</svg>
