<svg width="288" height="500" viewBox="0 0 288 500" fill="none" xmlns="http://www.w3.org/2000/svg">
<mask id="mask0" mask-type="alpha" maskUnits="userSpaceOnUse" x="0" y="0" width="288" height="500">
<rect width="288" height="500" rx="24" fill="#C4C4C4"/>
</mask>
<g mask="url(#mask0)">
<rect width="288" height="500" fill="#E4E9ED"/>
<path d="M195.081 167.891L156.015 142.921C156.015 142.921 138.808 132.672 108.188 161.073C108.188 161.073 81.4061 186.043 74.8123 230.88C74.8123 230.88 66.0055 268.267 89.5354 291.115L122.143 310.757C122.143 310.757 131.537 317.304 141.789 315.949C141.789 315.949 157.596 313.737 167.848 304.751C167.848 304.751 167.532 300.552 171.506 300.326C171.506 300.326 165.951 294.095 166.584 275.988C166.9 267.319 170.197 262.036 170.197 262.036L168.119 260.952C165.996 259.643 167.758 256.889 167.758 256.889C169.564 253.321 172.59 255.444 172.59 255.444C180.9 240.995 186.365 236.299 188.578 234.763L190.655 233.183C194.63 229.751 201.269 227.9 201.269 227.9C199.778 222.707 204.385 221.759 204.385 221.759C205.559 221.262 210.166 223.52 210.166 223.52C218.024 181.257 195.081 167.891 195.081 167.891ZM157.144 212.909C155.428 229.3 143.686 253.547 128.556 259.733C128.556 259.733 127.563 219.592 156.467 199.769C156.422 199.769 158.003 204.872 157.144 212.909Z" fill="#2B4346"/>
<path opacity="0.5" d="M163.693 347.24C159.041 336.268 140.75 325.928 110.4 338.3C87.7736 347.511 80.0959 363.857 86.6897 374.738C93.2383 385.53 115.775 390.497 136.73 380.428C157.686 370.359 167.938 357.174 163.693 347.24Z" fill="#162123"/>
<path opacity="0.5" d="M91.2507 315.317C88.2699 308.318 77.4308 303.261 58.101 311.118C43.694 316.988 37.3712 327.96 41.5714 334.869C45.7264 341.732 59.0043 343.132 73.4113 338.391C87.4118 333.74 93.9153 321.684 91.2507 315.317Z" fill="#162123"/>
<path opacity="0.5" d="M44.101 289.398C41.7074 283.799 33.0813 279.645 17.771 285.876C6.34475 290.482 1.37682 299.242 4.76404 304.841C8.10611 310.35 18.6742 311.569 30.0102 307.821C41.1203 304.118 46.2689 294.456 44.101 289.398Z" fill="#162123"/>
<path opacity="0.5" d="M199.325 384.086C196.886 378.352 187.854 374.243 171.686 380.835C159.627 385.757 154.253 394.833 157.73 400.522C161.163 406.166 172.227 407.25 184.241 403.231C196.028 399.303 201.538 389.279 199.325 384.086Z" fill="#162123"/>
<path opacity="0.5" d="M230.67 406.887C228.953 402.824 222.495 399.889 210.888 404.675C202.217 408.197 199.327 416.911 201.765 420.93C204.204 424.904 213.463 424.588 220.914 420.93C228.908 417.047 232.25 410.59 230.67 406.887Z" fill="#162123"/>
<path opacity="0.5" d="M249.141 425.626C248.193 423.323 244.444 421.743 237.579 424.543C232.476 426.665 230.489 430.142 232.295 432.806C233.786 434.973 237.715 436.328 242.141 434.16C246.883 431.903 250.044 427.749 249.141 425.626Z" fill="#162123"/>
<path d="M263.593 309.808L270.096 313.51C270.096 313.51 271.813 311.885 273.213 311.343C273.529 311.207 273.89 311.162 274.251 311.253C275.11 311.433 276.781 312.065 278 313.149C282.652 317.303 277.142 330.081 270.458 325.386C268.516 324.031 267.387 321.457 267.929 318.206L261.154 314.052C261.154 314.007 260.432 310.801 263.593 309.808Z" fill="#808999"/>
<path d="M263.593 309.808L270.096 313.51C270.096 313.51 271.813 311.885 273.213 311.343C273.529 311.207 273.89 311.162 274.251 311.253C275.11 311.433 276.781 312.065 278 313.149C282.652 317.303 277.142 330.081 270.458 325.386C268.516 324.031 267.387 321.457 267.929 318.206L261.154 314.052C261.154 314.007 260.432 310.801 263.593 309.808Z" stroke="black" stroke-width="0.5" stroke-miterlimit="10" stroke-linecap="round" stroke-linejoin="round"/>
<path d="M264.632 310.395C264.632 310.395 263.684 312.607 264.316 315.903" stroke="black" stroke-width="0.5" stroke-miterlimit="10" stroke-linecap="round" stroke-linejoin="round"/>
<path d="M267.477 311.977C267.477 311.977 266.665 313.828 267.477 317.846" stroke="black" stroke-width="0.5" stroke-miterlimit="10" stroke-linecap="round" stroke-linejoin="round"/>
<path d="M270.096 313.466C270.096 313.466 268.876 315.227 267.928 318.117" stroke="black" stroke-width="0.5" stroke-miterlimit="10" stroke-linecap="round" stroke-linejoin="round"/>
<path d="M277.413 312.517C277.413 312.517 268.606 314.232 270.91 325.521" stroke="black" stroke-width="0.5" stroke-miterlimit="10" stroke-linecap="round" stroke-linejoin="round"/>
<path d="M227.959 289.985C223.172 301.183 222.72 312.742 232.611 318.883C238.347 322.45 247.605 318.161 253.612 304.84C258.625 293.778 256.367 281.316 248.915 277.026C241.463 272.736 232.566 279.284 227.959 289.985Z" fill="#95A0B2"/>
<path d="M227.959 289.985C223.172 301.183 222.72 312.742 232.611 318.883C238.347 322.45 247.605 318.161 253.612 304.84C258.625 293.778 256.367 281.316 248.915 277.026C241.463 272.736 232.566 279.284 227.959 289.985Z" stroke="black" stroke-width="0.5" stroke-miterlimit="10" stroke-linecap="round" stroke-linejoin="round"/>
<path d="M226.153 294.998C226.153 294.998 232.883 302.313 238.438 299.107" stroke="black" stroke-width="0.5" stroke-miterlimit="10" stroke-linecap="round" stroke-linejoin="round"/>
<path d="M248.328 293.778C248.328 293.778 245.482 291.882 242.321 293.778C239.159 295.675 239.476 301.545 239.476 301.545C239.476 301.545 239.837 306.512 245.031 304.841" stroke="black" stroke-width="0.5" stroke-miterlimit="10" stroke-linecap="round" stroke-linejoin="round"/>
<path d="M240.515 304.841C240.515 304.841 242.05 309.672 233.56 319.38" stroke="black" stroke-width="0.5" stroke-miterlimit="10" stroke-linecap="round" stroke-linejoin="round"/>
<path d="M243.27 305.79C243.27 305.79 245.844 309.899 237.354 320.104" stroke="black" stroke-width="0.5" stroke-miterlimit="10" stroke-linecap="round" stroke-linejoin="round"/>
<path d="M243.677 293.191C243.677 293.191 245.077 301.454 239.521 301.545" stroke="black" stroke-width="0.5" stroke-miterlimit="10" stroke-linecap="round" stroke-linejoin="round"/>
<path d="M255.284 300.236C255.284 300.236 252.167 305.248 243.315 298.655" stroke="black" stroke-width="0.5" stroke-miterlimit="10" stroke-linecap="round" stroke-linejoin="round"/>
<path d="M243.36 275.717C243.36 275.717 250.948 283.077 244.264 292.965" stroke="black" stroke-width="0.5" stroke-miterlimit="10" stroke-linecap="round" stroke-linejoin="round"/>
<path d="M248.329 276.71C248.329 276.71 252.935 283.077 246.974 293.191" stroke="black" stroke-width="0.5" stroke-miterlimit="10" stroke-linecap="round" stroke-linejoin="round"/>
<path d="M166.583 276.079C137.091 298.611 130.091 267.816 130.091 267.816C179.183 235.893 163.331 196.067 163.331 196.067C163.331 196.067 180.944 187.037 189.751 210.2C189.751 210.2 193.409 221.94 189.751 234.177C189.751 234.177 183.699 236.299 172.634 255.534C172.634 255.534 169.608 253.412 167.802 256.979C167.802 256.979 166.041 259.734 168.163 261.043L170.241 262.127C170.196 262.127 166.899 267.41 166.583 276.079Z" fill="black"/>
<path d="M166.583 276.079C137.091 298.611 130.091 267.816 130.091 267.816C179.183 235.893 163.331 196.067 163.331 196.067C163.331 196.067 180.944 187.037 189.751 210.2C189.751 210.2 193.409 221.94 189.751 234.177C189.751 234.177 183.699 236.299 172.634 255.534C172.634 255.534 169.608 253.412 167.802 256.979C167.802 256.979 166.041 259.734 168.163 261.043L170.241 262.127C170.196 262.127 166.899 267.41 166.583 276.079Z" stroke="black" stroke-width="0.5" stroke-miterlimit="10" stroke-linecap="round" stroke-linejoin="round"/>
<path d="M113.245 199.77L115.232 218.553" stroke="black" stroke-width="0.5" stroke-miterlimit="10" stroke-linecap="round" stroke-linejoin="round"/>
<path d="M130.046 176.244L129.323 193.357" stroke="black" stroke-width="0.5" stroke-miterlimit="10" stroke-linecap="round" stroke-linejoin="round"/>
<path d="M146.667 162.291L146.351 175.882" stroke="black" stroke-width="0.5" stroke-miterlimit="10" stroke-linecap="round" stroke-linejoin="round"/>
<path d="M162.653 156.422V164.64" stroke="black" stroke-width="0.5" stroke-miterlimit="10" stroke-linecap="round" stroke-linejoin="round"/>
<path d="M177.693 156.827L177.286 160.53" stroke="black" stroke-width="0.5" stroke-miterlimit="10" stroke-linecap="round" stroke-linejoin="round"/>
<path d="M132.71 156.422L115.097 158.68" stroke="black" stroke-width="0.5" stroke-miterlimit="10" stroke-linecap="round" stroke-linejoin="round"/>
<path d="M153.757 146.173L132.711 146.986" stroke="black" stroke-width="0.5" stroke-miterlimit="10" stroke-linecap="round" stroke-linejoin="round"/>
<path d="M118.8 168.344L99.1094 176.742" stroke="black" stroke-width="0.5" stroke-miterlimit="10" stroke-linecap="round" stroke-linejoin="round"/>
<path d="M99.6052 194.306L84.6562 201.756" stroke="black" stroke-width="0.5" stroke-miterlimit="10" stroke-linecap="round" stroke-linejoin="round"/>
<path d="M89.2189 220.585L76.9346 229.751" stroke="black" stroke-width="0.5" stroke-miterlimit="10" stroke-linecap="round" stroke-linejoin="round"/>
<path d="M83.843 245.284L75.7588 255.715" stroke="black" stroke-width="0.5" stroke-miterlimit="10" stroke-linecap="round" stroke-linejoin="round"/>
<path d="M85.0191 273.008L81.8125 276.71" stroke="black" stroke-width="0.5" stroke-miterlimit="10" stroke-linecap="round" stroke-linejoin="round"/>
<path d="M97.6191 279.871L106.2 294.004" stroke="black" stroke-width="0.5" stroke-miterlimit="10" stroke-linecap="round" stroke-linejoin="round"/>
<path d="M95.4053 253.186L103.173 272.15" stroke="black" stroke-width="0.5" stroke-miterlimit="10" stroke-linecap="round" stroke-linejoin="round"/>
<path d="M101.909 225.146L107.013 243.749" stroke="black" stroke-width="0.5" stroke-miterlimit="10" stroke-linecap="round" stroke-linejoin="round"/>
<path d="M188.488 163.692C143.234 149.83 77.6126 259.733 119.208 309.041" stroke="black" stroke-width="0.5" stroke-miterlimit="10" stroke-linecap="round" stroke-linejoin="round"/>
<path d="M175.435 155.384C135.239 141.16 68.3531 235.802 103.942 299.604" stroke="black" stroke-width="0.5" stroke-miterlimit="10" stroke-linecap="round" stroke-linejoin="round"/>
<path d="M169.834 151.771C130.904 141.16 66.0495 233.363 98.1604 296.352" stroke="black" stroke-width="0.5" stroke-miterlimit="10" stroke-linecap="round" stroke-linejoin="round"/>
<path d="M165.228 148.837C114.284 146.579 65.0116 235.757 92.561 292.967" stroke="black" stroke-width="0.5" stroke-miterlimit="10" stroke-linecap="round" stroke-linejoin="round"/>
<path d="M128.51 259.732C128.51 259.732 128.465 263.345 130.045 267.815" stroke="black" stroke-width="0.5" stroke-miterlimit="10" stroke-linecap="round" stroke-linejoin="round"/>
<path d="M163.332 196.066L156.422 199.769" stroke="black" stroke-width="0.5" stroke-miterlimit="10" stroke-linecap="round" stroke-linejoin="round"/>
<path d="M223.082 231.15L223.489 234.22C223.534 234.446 223.489 234.717 223.398 234.943L222.088 238.239C234.779 253.41 223.94 279.283 223.94 279.283C227.598 280.502 225.205 284.25 225.205 284.25C223.895 286.959 220.779 285.65 220.779 285.65C216.127 297.57 206.869 304.253 206.869 304.253C195.758 312.877 188.397 311.387 188.397 311.387C187.042 313.239 186.048 314.277 185.371 314.774C184.784 315.225 184.016 315.316 183.339 315L176.7 312.02C168.119 308.182 168.074 304.75 168.074 304.75C168.074 304.75 167.757 300.551 171.732 300.325C171.732 300.325 166.177 294.094 166.809 275.987C167.125 267.318 170.422 262.035 170.422 262.035L168.344 260.951C166.222 259.642 167.983 256.887 167.983 256.887C169.79 253.32 172.816 255.442 172.816 255.442C181.126 240.993 186.59 236.297 188.803 234.762L190.881 233.182C194.855 229.75 201.494 227.899 201.494 227.899C200.004 222.706 204.61 221.758 204.61 221.758C205.785 221.261 210.391 223.519 210.391 223.519L222.314 230.021C222.721 230.292 222.992 230.698 223.082 231.15Z" fill="#EFF5FF"/>
<path d="M172.589 255.534L193.68 265.558C194.629 266.01 195.441 266.687 196.029 267.59C196.706 268.629 197.022 270.028 195.351 271.022C194.222 271.699 192.822 271.744 191.603 271.202L170.195 262.127" stroke="black" stroke-width="0.5" stroke-miterlimit="10" stroke-linecap="round" stroke-linejoin="round"/>
<path d="M176.653 263.75C176.653 263.75 175.615 261.628 179.182 259.731" stroke="black" stroke-width="0.5" stroke-miterlimit="10" stroke-linecap="round" stroke-linejoin="round"/>
<path d="M201.314 227.991C201.314 227.991 204.746 226.817 207.095 227.991L216.76 232.957L217.121 234.673C217.121 234.673 208.766 230.429 196.075 239.053C194.359 240.227 192.778 241.582 191.288 243.072C188.352 246.142 183.52 251.877 180.584 259.372" stroke="black" stroke-width="0.5" stroke-miterlimit="10" stroke-linecap="round" stroke-linejoin="round"/>
<path d="M217.12 234.628C217.12 234.628 214.997 240.091 208.494 254.631C208.223 255.308 207.907 255.94 207.545 256.572C206.687 258.288 204.836 262.758 208.133 263.752C208.133 263.752 210.345 265.106 213.191 257.43C213.733 255.94 214.365 254.45 215.042 253.005L221.862 238.285" stroke="black" stroke-width="0.5" stroke-miterlimit="10" stroke-linecap="round" stroke-linejoin="round"/>
<path d="M189.843 254.629C192.508 251.062 198.786 243.747 206.418 242.573C207.276 242.438 208.089 242.98 208.315 243.793C208.676 244.967 208.496 246.682 205.56 247.811C200.637 249.708 198.695 250.204 194.36 256.21C191.876 259.641 190.701 259.551 189.934 258.648C188.94 257.519 188.94 255.803 189.843 254.629Z" fill="#C3F53C"/>
<path d="M189.843 254.629C192.508 251.062 198.786 243.747 206.418 242.573C207.276 242.438 208.089 242.98 208.315 243.793C208.676 244.967 208.496 246.682 205.56 247.811C200.637 249.708 198.695 250.204 194.36 256.21C191.876 259.641 190.701 259.551 189.934 258.648C188.94 257.519 188.94 255.803 189.843 254.629Z" stroke="black" stroke-width="0.5" stroke-miterlimit="10" stroke-linecap="round" stroke-linejoin="round"/>
<path d="M222.946 257.294C223.398 262.126 223.037 266.009 220.598 272.014C220.282 272.827 219.288 273.143 218.475 272.827C217.301 272.421 216.443 271.969 217.12 268.899C218.385 263.029 218.927 263.616 217.436 256.752C216.533 252.643 218.836 252.463 220.011 252.327C221.501 252.192 222.766 255.488 222.946 257.294Z" fill="#C3F53C"/>
<path d="M222.946 257.294C223.398 262.126 223.037 266.009 220.598 272.014C220.282 272.827 219.288 273.143 218.475 272.827C217.301 272.421 216.443 271.969 217.12 268.899C218.385 263.029 218.927 263.616 217.436 256.752C216.533 252.643 218.836 252.463 220.011 252.327C221.501 252.192 222.766 255.488 222.946 257.294Z" stroke="black" stroke-width="0.5" stroke-miterlimit="10" stroke-linecap="round" stroke-linejoin="round"/>
<path d="M173.899 303.938L180.809 308.047C180.809 308.047 183.248 309.175 185.235 304.344C187.177 299.513 194.042 286.192 194.042 286.192C194.042 286.192 195.307 282.806 197.926 283.438C200.546 284.07 197.926 290.301 197.926 290.301C197.926 290.301 190.113 308.001 188.171 311.478" stroke="black" stroke-width="0.5" stroke-miterlimit="10" stroke-linecap="round" stroke-linejoin="round"/>
<path d="M220.597 285.741C220.597 285.741 213.1 282.129 210.752 279.691C208.403 277.252 211.79 274.317 213.1 274.859C216.442 276.169 223.759 279.375 223.759 279.375" stroke="black" stroke-width="0.5" stroke-miterlimit="10" stroke-linecap="round" stroke-linejoin="round"/>
<path d="M213.146 279.917C213.146 279.917 211.113 276.846 214.365 276.937" stroke="black" stroke-width="0.5" stroke-miterlimit="10" stroke-linecap="round" stroke-linejoin="round"/>
<path d="M177.829 265.332C177.829 265.332 168.706 289.805 179.59 307.28" stroke="black" stroke-width="0.5" stroke-miterlimit="10" stroke-linecap="round" stroke-linejoin="round"/>
<path d="M181.036 273.91C180.042 276.304 178.01 283.167 181.217 293.462C181.397 294.094 181.804 294.636 182.346 294.997C183.475 295.765 185.372 296.397 185.868 292.152C185.913 291.791 185.868 291.385 185.778 291.024C185.236 289.127 183.565 282.309 184.739 276.168C185.507 272.014 183.836 271.969 182.617 272.375C181.894 272.646 181.307 273.188 181.036 273.91Z" fill="#C3F53C"/>
<path d="M181.036 273.91C180.042 276.304 178.01 283.167 181.217 293.462C181.397 294.094 181.804 294.636 182.346 294.997C183.475 295.765 185.372 296.397 185.868 292.152C185.913 291.791 185.868 291.385 185.778 291.024C185.236 289.127 183.565 282.309 184.739 276.168C185.507 272.014 183.836 271.969 182.617 272.375C181.894 272.646 181.307 273.188 181.036 273.91Z" stroke="black" stroke-width="0.5" stroke-miterlimit="10" stroke-linecap="round" stroke-linejoin="round"/>
<path d="M214.184 287.547C213.417 289.218 210.3 295.088 201.313 300.19C200.771 300.506 200.139 300.551 199.597 300.325C198.152 299.784 196.029 298.429 199.642 295.584C199.642 295.584 206.642 292.875 210.3 286.779C210.3 286.779 212.197 283.348 214.184 286.599C214.32 286.87 214.32 287.231 214.184 287.547Z" fill="#C3F53C"/>
<path d="M214.184 287.547C213.417 289.218 210.3 295.088 201.313 300.19C200.771 300.506 200.139 300.551 199.597 300.325C198.152 299.784 196.029 298.429 199.642 295.584C199.642 295.584 206.642 292.875 210.3 286.779C210.3 286.779 212.197 283.348 214.184 286.599C214.32 286.87 214.32 287.231 214.184 287.547Z" stroke="black" stroke-width="0.5" stroke-miterlimit="10" stroke-linecap="round" stroke-linejoin="round"/>
<path d="M198.332 271.969C196.932 275.446 197.248 280.277 199.778 280.684C202.352 281.135 205.604 279.013 207.094 275.356C208.494 271.969 208.268 269.034 205.92 267.454C203.752 266.009 199.868 268.221 198.332 271.969Z" stroke="black" stroke-width="0.5" stroke-miterlimit="10" stroke-linecap="round" stroke-linejoin="round"/>
<path d="M202.261 274.723C202.081 275.807 202.758 276.529 203.3 276.665C204.023 276.845 204.474 276.891 205.016 275.084C205.468 273.685 204.836 272.691 204.384 272.511C203.616 272.285 202.487 273.233 202.261 274.723Z" fill="black"/>
<path d="M121.871 133.8L116.181 123.325C116.181 123.325 111.89 120.48 107.6 123.912C107.6 123.912 102.406 131.046 93.1476 148.204C93.1476 148.204 87.5925 144.908 77.0244 146.082L71.0628 112.985C71.0628 112.985 68.8047 108.469 63.7464 110.546C63.7464 110.546 53.9912 114.475 50.9653 122.06C50.9653 122.06 49.3846 123.912 51.6428 129.466L61.5786 153.487C61.5786 153.487 54.4429 156.512 45.3651 173.987L29.9193 164.234C29.9193 164.234 26.216 160.937 23.1901 165.317C23.1901 165.317 18.9899 173.129 17.1382 181.211C17.1382 181.211 16.3704 185.23 22.6029 186.404L38.6358 190.107C38.6358 190.107 33.4421 205.233 37.1454 214.896L15.3769 224.243C15.3769 224.243 12.4413 225.597 16.8221 238.285C21.2029 250.973 28.2483 243.749 28.2483 243.749L43.5586 231.919C43.5586 231.919 48.0297 240.137 60.3592 242.484L53.8106 262.397C53.8106 262.397 52.546 266.777 60.3592 266.506C60.3592 266.506 73.5468 264.023 74.9017 263.436C71.2887 246.368 74.9017 230.97 74.9017 230.97C80.4116 193.267 100.012 169.381 106.2 162.789L103.354 157.596C103.354 157.596 114.51 144.953 119.749 142.018C119.703 141.973 123.316 138 121.871 133.8ZM57.9204 223.475C56.8817 223.475 56.0236 222.301 56.0236 220.901C56.0236 219.456 56.8817 218.327 57.9204 218.327C58.9592 218.327 59.8173 219.501 59.8173 220.901C59.8624 222.301 59.0043 223.475 57.9204 223.475ZM64.8304 203.788H64.6949C64.3787 201.169 64.5594 198.731 64.9658 196.473C65.9143 191.281 68.4434 186.539 72.0564 182.656C72.0564 182.701 78.9664 195.48 64.8304 203.788Z" fill="#95A0B2"/>
<path d="M103.309 157.552C103.309 157.552 99.109 150.643 93.1475 148.205" stroke="black" stroke-width="0.5" stroke-miterlimit="10" stroke-linecap="round" stroke-linejoin="round"/>
<path d="M105.974 162.518L103.354 157.551C103.354 157.551 114.51 144.908 119.749 141.973C119.749 141.973 123.362 138.045 121.916 133.845L116.181 123.325C116.181 123.325 111.89 120.48 107.6 123.912C107.6 123.912 102.406 131.046 93.1476 148.204C93.1476 148.204 87.5925 144.908 77.0244 146.082L71.0628 112.985C71.0628 112.985 68.8047 108.469 63.7464 110.546C63.7464 110.546 53.9912 114.475 50.9653 122.06C50.9653 122.06 49.3846 123.912 51.6428 129.466L61.5786 153.487C61.5786 153.487 54.4429 156.512 45.3651 173.987L29.9193 164.234C29.9193 164.234 26.216 160.937 23.1901 165.317C23.1901 165.317 18.9899 173.129 17.1382 181.211C17.1382 181.211 16.3704 185.23 22.6029 186.404L38.6358 190.107C38.6358 190.107 33.4421 205.233 37.1454 214.896L15.3769 224.243C15.3769 224.243 12.4413 225.597 16.8221 238.285C21.2029 250.973 28.2483 243.749 28.2483 243.749L43.5586 231.919C43.5586 231.919 48.0297 240.137 60.3592 242.485L53.8106 262.397C53.8106 262.397 52.546 266.777 60.3592 266.506C60.3592 266.506 73.5468 264.023 74.9017 263.436" stroke="black" stroke-width="0.5" stroke-miterlimit="10" stroke-linecap="round" stroke-linejoin="round"/>
<path d="M21.3378 183.649C21.3378 183.649 19.8022 182.294 20.9764 178.773L25.4927 168.252C25.4927 168.252 26.9831 165.407 28.338 165.633" stroke="black" stroke-width="0.5" stroke-miterlimit="10" stroke-linecap="round" stroke-linejoin="round"/>
<path d="M18.2221 226.771C18.2221 226.771 17.9511 235.622 25.0417 244.02" stroke="black" stroke-width="0.5" stroke-miterlimit="10" stroke-linecap="round" stroke-linejoin="round"/>
<path d="M37.1002 214.851L42.9262 212.503L45.9521 214.715L19.6221 226.23" stroke="black" stroke-width="0.5" stroke-miterlimit="10" stroke-linecap="round" stroke-linejoin="round"/>
<path d="M43.5137 231.829L47.5332 228.668C47.5332 228.668 48.8429 227.856 48.2106 224.424C45.9525 212.007 45.7718 215.935 45.9525 214.671" stroke="black" stroke-width="0.5" stroke-miterlimit="10" stroke-linecap="round" stroke-linejoin="round"/>
<path d="M48.3919 237.157L45.9531 229.933" stroke="black" stroke-width="0.5" stroke-miterlimit="10" stroke-linecap="round" stroke-linejoin="round"/>
<path d="M51.3721 239.188C51.3721 239.188 63.7016 232.189 68.3082 211.915" stroke="black" stroke-width="0.5" stroke-miterlimit="10" stroke-linecap="round" stroke-linejoin="round"/>
<path d="M56.0244 241.265C56.0244 241.265 70.1604 230.564 70.883 213.767" stroke="black" stroke-width="0.5" stroke-miterlimit="10" stroke-linecap="round" stroke-linejoin="round"/>
<path d="M60.3145 242.439C60.3145 242.439 64.9211 243.433 73.2311 241.311" stroke="black" stroke-width="0.5" stroke-miterlimit="10" stroke-linecap="round" stroke-linejoin="round"/>
<path d="M57.5139 264.203C57.5139 263.932 57.3333 263.752 58.5075 259.733C59.8172 255.263 64.2883 242.665 64.2883 242.665" stroke="black" stroke-width="0.5" stroke-miterlimit="10" stroke-linecap="round" stroke-linejoin="round"/>
<path d="M42.9268 212.502C42.9268 212.502 43.3332 202.252 47.1721 192.002" stroke="black" stroke-width="0.5" stroke-miterlimit="10" stroke-linecap="round" stroke-linejoin="round"/>
<path d="M38.6367 190.107C38.6367 190.107 48.3016 192.636 50.3339 192.049C50.3339 192.049 54.7147 181.302 55.4373 181.709L52.7276 179.451L45.3208 173.987" stroke="black" stroke-width="0.5" stroke-miterlimit="10" stroke-linecap="round" stroke-linejoin="round"/>
<path d="M35.9717 202.839C35.9717 202.839 47.0366 211.012 64.8308 204.69" stroke="black" stroke-width="0.5" stroke-miterlimit="10" stroke-linecap="round" stroke-linejoin="round"/>
<path d="M36.5586 198.957C36.5586 198.957 45.4557 207.085 64.65 201.079" stroke="black" stroke-width="0.5" stroke-miterlimit="10" stroke-linecap="round" stroke-linejoin="round"/>
<path d="M61.5781 153.442L64.6944 160.486L67.63 161.57C67.63 161.57 77.882 154.165 78.2884 154.932L77.0239 146.037" stroke="black" stroke-width="0.5" stroke-miterlimit="10" stroke-linecap="round" stroke-linejoin="round"/>
<path d="M54.1719 124.227C54.1719 124.227 57.6946 112.713 69.1208 112.984" stroke="black" stroke-width="0.5" stroke-miterlimit="10" stroke-linecap="round" stroke-linejoin="round"/>
<path d="M54.1719 125.311L67.6756 160.937" stroke="black" stroke-width="0.5" stroke-miterlimit="10" stroke-linecap="round" stroke-linejoin="round"/>
<path d="M113.832 124.228C113.832 124.228 111.709 122.783 108.954 127.524L95.9922 149.875" stroke="black" stroke-width="0.5" stroke-miterlimit="10" stroke-linecap="round" stroke-linejoin="round"/>
<path d="M77.7021 150.958C77.7021 150.958 80.4119 147.527 94.4576 149.288" stroke="black" stroke-width="0.5" stroke-miterlimit="10" stroke-linecap="round" stroke-linejoin="round"/>
<path d="M80.9082 145.811C80.9082 145.811 92.6958 152.087 84.6567 175.883" stroke="black" stroke-width="0.5" stroke-miterlimit="10" stroke-linecap="round" stroke-linejoin="round"/>
<path d="M87.0059 146.262C87.0059 146.262 97.9353 158.182 87.7736 177.147" stroke="black" stroke-width="0.5" stroke-miterlimit="10" stroke-linecap="round" stroke-linejoin="round"/>
<path d="M49.5205 166.626C49.5205 166.626 60.3596 169.967 70.702 183.649" stroke="black" stroke-width="0.5" stroke-miterlimit="10" stroke-linecap="round" stroke-linejoin="round"/>
<path d="M52.3652 162.518C52.3652 162.518 66.4561 169.2 74.3596 180.263" stroke="black" stroke-width="0.5" stroke-miterlimit="10" stroke-linecap="round" stroke-linejoin="round"/>
<path d="M52.7266 179.405C52.7266 179.405 53.6298 173.76 64.6496 160.485" stroke="black" stroke-width="0.5" stroke-miterlimit="10" stroke-linecap="round" stroke-linejoin="round"/>
<path d="M68.8955 201.124C68.8955 201.124 74.4506 202.163 78.2894 214.535" stroke="black" stroke-width="0.5" stroke-miterlimit="10" stroke-linecap="round" stroke-linejoin="round"/>
<path d="M70.8828 198.595C70.8828 198.595 78.425 203.968 80.3219 207.851" stroke="black" stroke-width="0.5" stroke-miterlimit="10" stroke-linecap="round" stroke-linejoin="round"/>
<path d="M74.3154 189.476C74.3154 189.476 80.006 191.959 87.4127 190.785" stroke="black" stroke-width="0.5" stroke-miterlimit="10" stroke-linecap="round" stroke-linejoin="round"/>
<path d="M73.2314 185.546C73.2314 185.546 77.7477 188.661 89.5353 186.314" stroke="black" stroke-width="0.5" stroke-miterlimit="10" stroke-linecap="round" stroke-linejoin="round"/>
<path d="M90.6185 180.263C90.6185 180.263 85.6506 170.555 74.134 180.67C69.4371 184.824 66.095 190.332 64.966 196.473C64.3788 199.589 64.3337 203.246 65.3273 207.084C65.3273 207.084 66.5918 213.18 73.5469 214.535" stroke="black" stroke-width="0.5" stroke-miterlimit="10" stroke-linecap="round" stroke-linejoin="round"/>
<path d="M72.0562 182.701C72.0562 182.701 78.9209 195.48 64.8301 203.788" stroke="black" stroke-width="0.5" stroke-miterlimit="10" stroke-linecap="round" stroke-linejoin="round"/>
<path d="M57.9213 223.475C58.9689 223.475 59.8181 222.322 59.8181 220.901C59.8181 219.479 58.9689 218.327 57.9213 218.327C56.8737 218.327 56.0244 219.479 56.0244 220.901C56.0244 222.322 56.8737 223.475 57.9213 223.475Z" stroke="black" stroke-width="0.5" stroke-miterlimit="10" stroke-linecap="round" stroke-linejoin="round"/>
<path d="M57.8301 197.106C57.9204 196.925 57.9656 196.744 58.0559 196.564C58.2817 195.932 58.5075 195.299 58.4172 194.622" stroke="black" stroke-width="0.5" stroke-miterlimit="10" stroke-linecap="round" stroke-linejoin="round"/>
<path d="M60.042 197.557C60.1775 197.06 60.2678 196.608 60.5388 196.157C60.6291 196.021 60.6743 195.886 60.7646 195.75C60.8098 195.615 60.8549 195.434 60.8098 195.299" stroke="black" stroke-width="0.5" stroke-miterlimit="10" stroke-linecap="round" stroke-linejoin="round"/>
<path d="M58.958 192.409C59.5 193.042 60.4032 193.358 61.2162 193.267C61.2613 193.267 61.3065 193.267 61.3065 193.222C61.3516 193.177 61.3517 193.132 61.3517 193.042C61.3968 192.5 60.9452 192.003 60.6742 191.552C60.5387 191.281 60.4032 191.01 60.2226 190.784C60.2677 191.055 60.4484 191.326 60.7194 191.461C60.9903 191.597 61.2613 191.642 61.5775 191.642C61.5775 191.326 61.3968 191.01 61.2162 190.739C61.0355 190.468 60.7645 190.197 60.6742 189.881C61.2162 190.287 61.8936 190.468 62.5711 190.468" stroke="black" stroke-width="0.5" stroke-miterlimit="10" stroke-linecap="round" stroke-linejoin="round"/>
<path d="M62.4365 188.255C62.4817 187.713 62.6623 187.171 62.9785 186.72" stroke="black" stroke-width="0.5" stroke-miterlimit="10" stroke-linecap="round" stroke-linejoin="round"/>
<path d="M62.7529 184.191C62.9787 184.598 63.2949 184.914 63.7014 185.094C64.1078 185.275 64.6046 185.32 65.0111 185.546" stroke="black" stroke-width="0.5" stroke-miterlimit="10" stroke-linecap="round" stroke-linejoin="round"/>
<path d="M63.9727 182.882C63.9727 183.017 64.063 183.108 64.1533 183.198C64.5598 183.649 65.1469 183.966 65.5985 184.372" stroke="black" stroke-width="0.5" stroke-miterlimit="10" stroke-linecap="round" stroke-linejoin="round"/>
<path d="M25.5394 163.196C25.5394 163.196 31.0945 149.65 22.3328 149.424C22.3328 149.424 16.6875 150.327 12.4873 160.938C12.4873 160.938 10.6356 168.388 13.5712 171.368C13.5712 171.368 15.5132 173.581 20.5263 170.917" stroke="black" stroke-width="0.5" stroke-miterlimit="10" stroke-linecap="round" stroke-linejoin="round"/>
<path d="M28.0215 163.239C28.0215 163.239 28.7893 160.214 30.9571 161.614C33.1249 163.059 30.9571 164.91 30.9571 164.91" stroke="black" stroke-width="0.5" stroke-miterlimit="10" stroke-linecap="round" stroke-linejoin="round"/>
<path d="M17.8608 178.411C17.8608 178.411 17.2285 178.863 13.1187 179.45L11.6283 178.411C11.6283 178.411 9.37015 183.604 -2.73354 184.191C-2.73354 184.191 -3.90778 192.906 -9.77897 193.854C-10.4113 193.944 -11.0887 193.854 -11.6758 193.628L-14.8372 192.319C-15.2437 192.138 -15.6502 191.912 -16.0115 191.596C-17.0051 190.693 -18.5858 188.706 -17.6825 185.726C-17.6825 185.726 -15.334 178.411 -13.392 178.818C-13.392 178.818 -20.4374 166.988 -15.5598 149.92C-15.5598 149.92 -18.1793 148.926 -19.4439 146.759C-19.9858 145.811 -20.1213 144.727 -19.8955 143.643C-19.489 141.476 -17.818 136.961 -12.5339 135.064C-12.5339 135.064 -10.1854 134.974 -8.42408 136.509C-8.42408 136.509 -3.36582 123.911 13.1638 119.938C13.1638 119.938 15.3317 112.623 19.577 112.307C19.577 112.307 24.0933 112.217 27.616 116.009C27.616 116.009 29.9645 121.292 24.0933 126.35C24.0933 126.35 29.4677 131.407 29.1967 144.095C29.1967 144.095 34.8421 147.888 30.9581 161.659" stroke="black" stroke-width="0.5" stroke-miterlimit="10" stroke-linecap="round" stroke-linejoin="round"/>
<path d="M-8.92169 180.263C-16.4639 164.053 -9.91527 150.01 -9.91527 150.01C-9.91527 150.01 -16.4187 153.126 -15.5155 146.307C-15.1993 143.96 -14.2058 141.792 -12.7154 139.941C-10.5476 137.232 -7.38615 134.929 -5.53446 141.702C-5.53446 141.702 2.50455 123.37 18.6277 123.46C18.6277 123.46 18.0858 115.739 24.4538 113.571" stroke="black" stroke-width="0.5" stroke-miterlimit="10" stroke-linecap="round" stroke-linejoin="round"/>
<path d="M13.1641 119.938L18.6288 123.46" stroke="black" stroke-width="0.5" stroke-miterlimit="10" stroke-linecap="round" stroke-linejoin="round"/>
<path d="M12.3511 168.343C12.3962 169.426 13.3447 170.284 14.4286 170.194C16.6416 170.104 20.5707 168.659 23.6418 160.802C25.7645 155.474 23.5967 150.326 22.1966 150.146C21.6546 150.055 21.1127 150.055 20.6611 150.371C18.8545 151.591 16.3706 153.668 14.2027 157.325C12.9833 159.357 12.3511 161.705 12.2607 164.053C12.2607 165.408 12.2607 166.943 12.3511 168.343Z" fill="black"/>
<path d="M11.5825 178.412C11.5825 178.412 10.0017 178.006 10.3179 177.419C10.634 176.832 12.0792 173.626 10.1372 172.272C8.19523 170.872 6.79517 173.31 6.79517 173.31C6.79517 173.31 2.00789 157.732 18.4021 145.496C18.4021 145.496 21.6538 150.869 23.912 144.006C23.912 144.006 26.0346 143.238 29.196 144.096C29.196 144.096 23.2345 140.303 23.0539 140.664C22.8732 140.98 21.3828 140.258 21.3828 140.258L13.7503 136.059C13.7503 136.059 11.5825 136.239 10.4082 138.994C9.23398 141.748 13.2535 140.574 13.2535 140.574C-1.28901 150.327 0.2917 167.711 0.2917 167.711C0.2917 167.711 -2.91487 167.44 -2.46324 171.82C-2.46324 171.82 -2.28259 172.994 0.472352 174.574L7.96941 178.322C7.96941 178.322 9.41463 178.322 9.41463 177.916C9.36947 177.555 11.5825 178.412 11.5825 178.412Z" stroke="black" stroke-width="0.5" stroke-miterlimit="10" stroke-linecap="round" stroke-linejoin="round"/>
<path d="M0.292969 167.756C0.292969 167.756 0.699435 170.239 3.04791 171.413C5.39639 172.587 6.75128 173.31 6.75128 173.31" stroke="black" stroke-width="0.5" stroke-miterlimit="10" stroke-linecap="round" stroke-linejoin="round"/>
<path d="M13.2549 140.618C13.2549 140.618 13.9775 140.122 19.5777 143.147C19.5777 143.147 17.8615 144.953 19.5777 146.849" stroke="black" stroke-width="0.5" stroke-miterlimit="10" stroke-linecap="round" stroke-linejoin="round"/>
<path d="M23.0996 140.618C23.0996 140.618 23.7771 140.528 23.9577 143.96" stroke="black" stroke-width="0.5" stroke-miterlimit="10" stroke-linecap="round" stroke-linejoin="round"/>
<path d="M2.27956 139.264C2.27956 140.077 1.55695 142.064 -0.475382 141.522C-0.836685 141.432 -1.0625 140.574 -1.0625 139.761C-1.0625 138.948 0.0214102 137.819 0.834344 137.819C1.64728 137.819 2.27956 138.451 2.27956 139.264Z" fill="black"/>
<path d="M5.35013 178.818C5.16948 179.631 4.80817 180.986 2.77584 180.444C2.41453 180.353 2.14355 179.902 2.14355 179.089C2.14355 178.276 3.13714 177.328 3.95008 177.328C4.76301 177.328 5.53078 178.051 5.35013 178.818Z" fill="black"/>
<path d="M13.0291 129.42C13.0291 130.233 12.5323 132.49 10.5903 131.677C10.0483 131.452 9.95801 130.774 9.95801 129.962C9.95801 129.149 10.8161 127.93 11.629 127.93C12.3968 127.975 13.0291 128.607 13.0291 129.42Z" fill="black"/>
<path d="M25.1766 135.065C25.1766 135.878 24.6798 138.136 22.7378 137.323C22.1958 137.097 22.1055 136.42 22.1055 135.607C22.1055 134.794 22.9636 133.575 23.7765 133.575C24.5894 133.575 25.1766 134.252 25.1766 135.065Z" fill="black"/>
<path d="M21.6095 144.367C21.745 144.457 22.1063 144.909 21.745 145.135C21.6546 145.18 21.1578 145.225 21.0675 145.135C20.932 145.044 20.7514 144.457 20.8417 144.322C20.932 144.187 21.5191 144.277 21.6095 144.367Z" fill="black"/>
<path d="M9.55088 174.213C9.68637 174.303 10.0477 174.755 9.68637 174.98C9.59604 175.026 9.09924 175.071 9.00892 174.98C8.87343 174.89 8.69278 174.303 8.7831 174.168C8.87343 174.032 9.41539 174.123 9.55088 174.213Z" fill="black"/>
<path d="M210.211 223.61C218.024 181.256 195.081 167.936 195.081 167.936L156.015 142.966C156.015 142.966 138.808 132.716 108.188 161.118C108.188 161.118 81.4061 186.088 74.8123 230.925C74.8123 230.925 66.0055 268.312 89.5354 291.16L122.143 310.801C122.143 310.801 131.537 317.349 141.789 315.994C141.789 315.994 157.596 313.782 167.848 304.796M157.144 212.909C155.428 229.3 143.686 253.547 128.556 259.733C128.556 259.733 127.563 219.592 156.467 199.769C156.422 199.769 158.003 204.872 157.144 212.909Z" stroke="black" stroke-width="0.5" stroke-miterlimit="10" stroke-linecap="round" stroke-linejoin="round"/>
<path d="M167.847 304.842C167.847 304.842 167.531 300.642 171.505 300.417C171.505 300.417 165.95 294.185 166.582 276.079C166.899 267.409 170.195 262.127 170.195 262.127L168.118 261.043C165.995 259.733 167.757 256.979 167.757 256.979C169.563 253.412 172.589 255.534 172.589 255.534C180.899 241.085 186.364 236.389 188.577 234.854L190.654 233.274C194.629 229.842 201.268 227.991 201.268 227.991C199.777 222.798 204.384 221.85 204.384 221.85C205.558 221.353 210.165 223.611 210.165 223.611L222.088 230.113C222.494 230.339 222.81 230.745 222.855 231.242L223.262 234.312C223.307 234.538 223.262 234.809 223.172 235.035L221.862 238.331C234.553 253.502 223.714 279.375 223.714 279.375C227.372 280.594 224.978 284.342 224.978 284.342C223.668 287.051 220.552 285.742 220.552 285.742C215.9 297.662 206.642 304.345 206.642 304.345C195.532 312.969 188.17 311.479 188.17 311.479C186.815 313.33 185.822 314.369 185.144 314.866C184.557 315.317 183.789 315.408 183.112 315.091L176.473 312.111C167.892 308.273 167.847 304.842 167.847 304.842ZM167.847 304.842C167.847 304.842 167.531 300.642 171.505 300.417L173.899 303.939L171.821 302.539" stroke="black" stroke-width="0.5" stroke-miterlimit="10" stroke-linecap="round" stroke-linejoin="round"/>
</g>
</svg>
