<svg width="492" height="220" viewBox="0 0 492 220" fill="none" xmlns="http://www.w3.org/2000/svg">
<g clip-path="url(#clip0)">
<rect width="492" height="220" fill="white"/>
<path d="M384.354 194.306C391.528 188.803 410.616 177.505 424.402 173.846C429.087 175.475 436.931 174.407 439.608 172.484C441.91 176.063 460.623 205.39 461.372 206.726C469.725 188.43 459.739 170.294 444.079 165.513C453.689 163.055 505.651 171.095 533.385 178.387C491.73 160.01 477.997 161.426 477.997 161.426C471.518 157.927 455.402 154.882 442.071 158.782C459.659 151.891 484.181 138.803 486.135 134.342C469.136 135.304 448.924 141.554 436.476 154.508C431.256 151.757 423.733 152.051 419.851 155.016C415.006 154.188 373.565 153.52 350.141 162.307C370.406 163.429 417.04 161.853 417.04 161.853L419.396 165.887C419.396 165.887 369.148 177.051 338.335 189.979C366.444 189.151 368.158 187.922 368.158 187.922L384.354 194.306Z" fill="#C3F53A"/>
<path d="M403.361 92.0876C403.709 76.2754 395.196 32.7385 336.488 13C344.974 20.6924 384.22 54.7473 398.435 91.2062C400.122 92.7553 403.361 92.0876 403.361 92.0876Z" fill="#01D605"/>
<path d="M409.866 181.378C415.868 181.378 420.734 176.523 420.734 170.534C420.734 164.545 415.868 159.69 409.866 159.69C403.863 159.69 398.997 164.545 398.997 170.534C398.997 176.523 403.863 181.378 409.866 181.378Z" fill="#665A20"/>
<path d="M402.852 92.0074C405.77 75.474 411.954 70.1053 417.924 64.0155C423.894 57.9257 438.136 48.6574 451.333 52.6105C443.195 56.7238 418.754 77.958 410.08 92.9689C402.879 93.6099 402.852 92.0074 402.852 92.0074Z" fill="#C3F53A"/>
<path d="M404.217 85.8642C403.709 87.7339 403.254 89.7638 402.852 92.0075C402.852 92.0075 402.852 93.61 410.053 92.969C418.727 77.9581 443.195 56.7239 451.307 52.6106C437.654 51.649 414.792 79.1868 409.331 89.3632C408.768 90.4049 407.59 86.5052 404.217 85.8642Z" fill="#04C604"/>
<path d="M390.537 125.502C395.298 125.502 399.157 121.819 399.157 117.275C399.157 112.732 395.298 109.049 390.537 109.049C385.777 109.049 381.917 112.732 381.917 117.275C381.917 121.819 385.777 125.502 390.537 125.502Z" fill="#998730"/>
<path d="M382.372 114.657C383.844 116.821 386.548 118.29 389.627 118.29C393.509 118.29 396.775 115.993 397.792 112.841C396.266 110.571 393.589 109.048 390.537 109.048C386.762 109.048 383.523 111.399 382.372 114.657Z" fill="#665A20"/>
<path d="M390.537 125.502C395.298 125.502 399.157 121.819 399.157 117.275C399.157 112.732 395.298 109.049 390.537 109.049C385.777 109.049 381.917 112.732 381.917 117.275C381.917 121.819 385.777 125.502 390.537 125.502Z" stroke="black" stroke-width="0.33" stroke-miterlimit="10"/>
<path d="M402.852 92.0074C405.77 75.474 411.954 70.1053 417.924 64.0155C423.894 57.9257 438.136 48.6574 451.333 52.6105C443.195 56.7238 418.754 77.958 410.08 92.9689C402.879 93.6099 402.852 92.0074 402.852 92.0074Z" stroke="black" stroke-width="0.33" stroke-miterlimit="10"/>
<path d="M418.781 95.453C449.192 97.4295 468.333 120.667 469.779 151.223C464.639 142.863 448.523 122.27 435.513 115.111C429.409 109.155 418.781 95.453 418.781 95.453Z" fill="#C3F53A"/>
<path d="M469.404 146.602C468.012 133.861 463.461 122.59 456.233 113.883C444.079 105.416 435.325 100.875 422.85 100.581C426.491 105.095 431.818 111.505 435.485 115.085C445.98 120.854 458.508 135.384 465.656 145.16C467.101 145.427 468.386 145.934 469.404 146.602Z" fill="#04C604"/>
<path d="M418.781 95.453C449.192 97.4295 468.333 120.667 469.779 151.223C464.639 142.863 448.523 122.27 435.513 115.111C429.409 109.155 418.781 95.453 418.781 95.453Z" stroke="black" stroke-width="0.33" stroke-miterlimit="10"/>
<path d="M406.761 92.0875C420.012 85.5169 435.164 78.7326 449.834 80.9762C464.531 83.2199 485.305 89.0159 505.731 110.357C486.59 103.813 464.853 96.735 418.781 95.4529C411.82 95.0256 406.761 92.0875 406.761 92.0875Z" fill="#C3F53A"/>
<path d="M418.78 95.4529C464.879 96.7617 486.59 103.813 505.758 110.357C464.451 92.034 444.025 91.0458 415.032 93.6633L418.78 95.4529Z" fill="#04C604"/>
<path d="M403.361 92.0876C403.709 76.2754 395.196 32.7385 336.488 13C344.974 20.6924 384.22 54.7473 398.435 91.2062C400.122 92.7553 403.361 92.0876 403.361 92.0876Z" fill="#01D506"/>
<path d="M368.8 105.656C363.366 115.539 359.618 121.281 356.192 136.96C360.876 135.838 386.389 115.913 390.484 110.25C394.58 104.588 386.683 99.3792 386.683 99.3792L372.655 101.543L368.8 105.656Z" fill="#04C604"/>
<path d="M372.253 118.61C377.018 113.722 381.114 109.609 381.114 109.609" stroke="black" stroke-width="0.33" stroke-miterlimit="10" stroke-linecap="round"/>
<path d="M357.102 133.14C357.102 133.14 363.071 127.745 367.087 124.113C360.528 131.858 359.243 134.075 358.842 135.758C357.557 136.452 356.218 136.987 356.218 136.987L357.102 133.14Z" fill="#C3F53A"/>
<path d="M368.8 105.656C363.366 115.539 359.618 121.281 356.192 136.96C360.876 135.838 386.389 115.913 390.484 110.25C394.58 104.588 386.683 99.3792 386.683 99.3792L372.655 101.543L368.8 105.656Z" stroke="black" stroke-width="0.33" stroke-miterlimit="10"/>
<path d="M398.435 91.206C395.062 84.9826 373.137 68.5294 353.086 66.5262C333.035 64.523 309.316 69.7314 300 74.1118C316.624 74.0316 351.747 76.0349 387.513 89.7103C394.821 92.3545 398.007 91.5532 398.435 91.206Z" fill="#C3F53A"/>
<path d="M336.488 13C354.906 19.1967 368.372 27.7171 378.17 37.0121C390.19 51.1415 395.704 62.1727 394.125 62.8404C392.171 63.6684 379.535 38.214 336.488 13Z" fill="#C3F53A"/>
<path d="M386.522 113.455C391.283 113.455 395.142 109.772 395.142 105.229C395.142 100.685 391.283 97.0021 386.522 97.0021C381.761 97.0021 377.902 100.685 377.902 105.229C377.902 109.772 381.761 113.455 386.522 113.455Z" fill="#998730"/>
<path d="M385.665 109.208C382.64 109.208 379.882 108.06 377.955 106.244C378.464 110.33 382.104 113.482 386.521 113.482C391.287 113.482 395.142 109.796 395.142 105.255C395.142 104.881 395.115 104.534 395.061 104.16C393.268 107.152 389.734 109.208 385.665 109.208Z" fill="#665A20"/>
<path d="M386.522 113.455C391.283 113.455 395.142 109.772 395.142 105.229C395.142 100.685 391.283 97.0021 386.522 97.0021C381.761 97.0021 377.902 100.685 377.902 105.229C377.902 109.772 381.761 113.455 386.522 113.455Z" stroke="black" stroke-width="0.33" stroke-miterlimit="10"/>
<path d="M387.513 89.737C351.747 76.0349 316.624 74.0584 300 74.1385C334.213 68.7164 370.353 72.349 394.821 90.6452C391.823 90.6452 387.513 89.737 387.513 89.737Z" fill="#04C604"/>
<path d="M398.435 91.206C395.062 84.9826 373.137 68.5294 353.086 66.5262C333.035 64.523 309.316 69.7314 300 74.1118C316.624 74.0316 351.747 76.0349 387.513 89.7103C394.821 92.3545 398.007 91.5532 398.435 91.206Z" stroke="black" stroke-width="0.33" stroke-miterlimit="10"/>
<path d="M406.761 92.0875C420.012 85.5169 435.164 78.7326 449.834 80.9762C464.531 83.2199 485.305 89.0159 505.731 110.357C486.59 103.813 464.853 96.735 418.781 95.4529C411.82 95.0256 406.761 92.0875 406.761 92.0875Z" stroke="black" stroke-width="0.33" stroke-miterlimit="10"/>
<path d="M403.361 92.0876C403.709 76.2754 395.196 32.7385 336.488 13C344.974 20.6924 384.22 54.7473 398.435 91.2062C400.122 92.7553 403.361 92.0876 403.361 92.0876Z" stroke="black" stroke-width="0.33" stroke-miterlimit="10"/>
<path d="M371.129 178.547C371.129 178.547 368.826 187.842 368.318 190.032C367.809 192.196 369.71 195.321 375.198 195.721C380.686 196.122 384.916 195.16 385.049 192.436C385.156 189.712 385.049 181.111 385.049 181.111L371.129 178.547Z" fill="#FFAA08" stroke="black" stroke-width="0.33" stroke-miterlimit="10"/>
<path d="M375.171 195.721C378.062 195.935 380.632 195.748 382.399 195.16C382.399 195.16 382.533 187.735 382.694 183.809C379.107 184.236 373.592 182.714 371.102 178.574C371.102 178.574 368.8 187.869 368.291 190.059C367.809 192.196 369.71 195.321 375.171 195.721Z" fill="#FFD48F"/>
<path d="M371.129 178.547C371.129 178.547 368.826 187.842 368.318 190.032C367.809 192.196 369.71 195.321 375.198 195.721C380.686 196.122 384.916 195.16 385.049 192.436C385.156 189.712 385.049 181.111 385.049 181.111L371.129 178.547Z" stroke="black" stroke-width="0.33" stroke-miterlimit="10"/>
<path d="M373.887 164.711C373.887 164.711 370.996 174.006 370.487 176.09C369.978 178.173 372.736 181.432 377.635 181.939C382.561 182.447 386.014 181.672 386.068 179.322C386.121 176.971 386.63 167.703 386.63 167.703L373.887 164.711Z" fill="#FFAA08" stroke="black" stroke-width="0.33" stroke-miterlimit="10"/>
<path d="M373.993 164.872C377.152 168.21 380.74 170.16 383.497 170.748C383.47 173.339 383.095 181.859 383.095 181.859C381.676 182.153 379.803 182.179 377.661 181.966C372.735 181.458 370.005 178.173 370.513 176.116C371.022 174.06 373.913 164.738 373.913 164.738L373.993 164.872Z" fill="#FFD48F"/>
<path d="M373.887 164.711C373.887 164.711 370.996 174.006 370.487 176.09C369.978 178.173 372.736 181.432 377.635 181.939C382.561 182.447 386.014 181.672 386.068 179.322C386.121 176.971 386.63 167.703 386.63 167.703L373.887 164.711Z" stroke="black" stroke-width="0.33" stroke-miterlimit="10"/>
<path d="M377.259 151.036C377.259 151.036 374.074 160.358 373.404 162.201C372.735 164.043 374.689 166.768 379.267 167.836C383.845 168.905 387.834 168.103 387.994 166.154C388.155 164.204 389.279 153.653 389.279 153.653L377.259 151.036Z" fill="#FFAA08" stroke="black" stroke-width="0.33" stroke-miterlimit="10"/>
<path d="M380.552 154.428C378.438 156.645 374.047 164.15 373.887 164.711C375.814 166.474 377.099 168.237 384.514 168.29C384.943 165.165 385.933 159.53 386.388 156.218C384.729 156.298 381.891 155.47 380.552 154.428Z" fill="#FFD48F"/>
<path d="M377.259 151.036C377.259 151.036 374.074 160.358 373.404 162.201C372.735 164.043 374.689 166.768 379.267 167.836C383.845 168.905 387.834 168.103 387.994 166.154C388.155 164.204 389.279 153.653 389.279 153.653L377.259 151.036Z" stroke="black" stroke-width="0.33" stroke-miterlimit="10"/>
<path d="M381.516 136.426C381.516 136.426 377.366 146.789 376.697 148.792C376.028 150.796 379.053 153.146 382.185 153.867C385.317 154.588 390.511 154.749 390.752 152.799C390.966 150.849 392.893 140.192 392.893 140.192L381.516 136.426Z" fill="#FFAA08"/>
<path d="M380.874 153.493C384.943 148.979 387.084 147.884 387.861 148.044C388.637 148.205 387.245 154.401 387.245 154.401C387.245 154.401 383.042 154.588 380.874 153.493Z" fill="#FFCC6B"/>
<path d="M381.516 136.426C381.516 136.426 377.366 146.789 376.697 148.792C376.028 150.796 379.053 153.146 382.185 153.867C385.317 154.588 390.511 154.749 390.752 152.799C390.966 150.849 392.893 140.192 392.893 140.192L381.516 136.426Z" stroke="black" stroke-width="0.33" stroke-miterlimit="10"/>
<path d="M387.031 121.495C387.031 121.495 381.891 133.034 381.222 134.69C380.553 136.346 383.23 138.589 386.094 139.551C388.958 140.512 393.054 141.1 393.509 139.551C393.965 138.002 396.668 126.997 396.883 126.436C397.097 125.875 387.031 121.495 387.031 121.495Z" fill="#FFAA08" stroke="black" stroke-width="0.33" stroke-miterlimit="10"/>
<path d="M392.01 108.648C392.01 108.648 387.807 117.382 387.085 119.118C386.362 120.854 386.977 123.178 391.207 125.021C395.41 126.864 397.552 126.65 397.819 125.742C398.087 124.86 400.175 116.206 400.175 116.206L392.01 108.648Z" fill="#FFAA08" stroke="black" stroke-width="0.33" stroke-miterlimit="10"/>
<path d="M401.567 118.263C406.904 118.263 411.231 113.504 411.231 107.632C411.231 101.761 406.904 97.002 401.567 97.002C396.23 97.002 391.903 101.761 391.903 107.632C391.903 113.504 396.23 118.263 401.567 118.263Z" fill="#998730"/>
<path d="M403.2 97.1357C402.664 97.0288 402.129 96.9754 401.593 96.9754C396.239 96.9754 391.929 101.73 391.929 107.606C391.929 113.482 396.266 118.236 401.593 118.236C406.948 118.236 411.258 113.482 411.258 107.606C411.258 106.137 410.99 104.721 410.481 103.439C410.481 108.941 403.28 116.393 395.704 113.429C393.214 104.908 403.2 97.1357 403.2 97.1357Z" fill="#665A20"/>
<path d="M401.567 118.263C406.904 118.263 411.231 113.504 411.231 107.632C411.231 101.761 406.904 97.002 401.567 97.002C396.23 97.002 391.903 101.761 391.903 107.632C391.903 113.504 396.23 118.263 401.567 118.263Z" stroke="black" stroke-width="0.33" stroke-miterlimit="10"/>
<path d="M403.361 92.0875C375.975 87.066 349.017 83.7273 304.177 131.591C312.663 131.137 374.074 118.423 402.692 96.548C407.939 105.576 430.854 148.659 435.994 153.68C438.912 139.177 440.01 115.966 431.309 105.603C422.582 95.2125 411.954 91.5266 403.361 92.0875Z" fill="#C3F53A"/>
<path d="M304.177 131.591C312.663 131.137 374.074 118.423 402.692 96.548C369.925 113.322 343.824 123.739 304.177 131.591Z" fill="#04C604"/>
<path d="M403.361 92.0875C375.975 87.066 349.017 83.7273 304.177 131.591C312.663 131.137 374.074 118.423 402.692 96.548C407.939 105.576 430.854 148.659 435.994 153.68C438.912 139.177 440.01 115.966 431.309 105.603C422.582 95.2125 411.954 91.5266 403.361 92.0875Z" stroke="black" stroke-width="0.33" stroke-miterlimit="10"/>
<path d="M419.021 167.062C419.021 166.02 418.86 165.005 418.593 164.07C416.612 161.426 413.453 159.69 409.866 159.69C403.869 159.69 398.997 164.551 398.997 170.534C398.997 171.576 399.157 172.591 399.425 173.526C401.406 176.17 404.565 177.906 408.152 177.906C414.149 177.906 419.021 173.072 419.021 167.062Z" fill="#998730"/>
<path d="M409.866 181.378C415.868 181.378 420.734 176.523 420.734 170.534C420.734 164.545 415.868 159.69 409.866 159.69C403.863 159.69 398.997 164.545 398.997 170.534C398.997 176.523 403.863 181.378 409.866 181.378Z" stroke="black" stroke-width="0.33" stroke-miterlimit="10"/>
<path d="M431.604 131.591C427.534 115.111 422.261 104.347 412.57 96.922" stroke="black" stroke-width="0.33" stroke-miterlimit="10" stroke-linecap="round"/>
<path d="M432.594 135.891C432.433 135.144 432.273 134.422 432.085 133.701" stroke="black" stroke-width="0.33" stroke-miterlimit="10" stroke-linecap="round"/>
<path d="M434.763 146.602C434.228 143.637 433.665 140.806 433.103 138.108" stroke="black" stroke-width="0.33" stroke-miterlimit="10" stroke-linecap="round"/>
<path d="M385.959 95.6399C390.591 94.7852 395.195 94.2777 400.174 93.9839" stroke="black" stroke-width="0.33" stroke-miterlimit="10" stroke-linecap="round"/>
<path d="M379.16 97.1356C380.097 96.8952 381.007 96.6816 381.944 96.4679" stroke="black" stroke-width="0.33" stroke-miterlimit="10" stroke-linecap="round"/>
<path d="M316.384 125.101C344.145 110.464 360.689 102.584 374.77 98.3643" stroke="black" stroke-width="0.33" stroke-miterlimit="10" stroke-linecap="round"/>
<path d="M304.177 131.591C307.121 130.015 309.959 128.52 312.69 127.051" stroke="black" stroke-width="0.33" stroke-miterlimit="10" stroke-linecap="round"/>
<path d="M473.499 91.8204C458.294 85.3566 441.964 82.5521 422.876 87.3332" stroke="black" stroke-width="0.33" stroke-miterlimit="10" stroke-linecap="round"/>
<path d="M482.574 96.1475C480.406 94.999 478.21 93.9306 475.988 92.9156" stroke="black" stroke-width="0.33" stroke-miterlimit="10" stroke-linecap="round"/>
<path d="M487.821 99.032C486.804 98.4444 485.76 97.8568 484.716 97.2959" stroke="black" stroke-width="0.33" stroke-miterlimit="10" stroke-linecap="round"/>
<path d="M495.745 103.813C493.122 102.157 490.471 100.555 487.821 99.0322" stroke="black" stroke-width="0.33" stroke-miterlimit="10" stroke-linecap="round"/>
<path d="M408.153 84.6622C406.975 87.0126 405.904 89.4699 404.967 92.0341" stroke="black" stroke-width="0.33" stroke-miterlimit="10" stroke-linecap="round"/>
<path d="M412.115 77.8779C411.071 79.4538 410.08 81.0564 409.197 82.6857" stroke="black" stroke-width="0.33" stroke-miterlimit="10" stroke-linecap="round"/>
<path d="M431.711 58.3531C424.108 63.7217 418.085 69.5178 413.373 76.0349" stroke="black" stroke-width="0.33" stroke-miterlimit="10" stroke-linecap="round"/>
<path d="M423.421 201.185C429.254 200.311 433.659 197.449 433.259 194.794C432.86 192.139 427.806 190.696 421.973 191.571C416.139 192.445 411.734 195.307 412.134 197.962C412.534 200.617 417.587 202.06 423.421 201.185Z" fill="#C3F53A"/>
<path d="M402.691 96.5481L402.21 95.5331" stroke="black" stroke-width="0.33" stroke-miterlimit="10" stroke-linecap="round"/>
<path d="M419.798 127.371L422.877 121.495" stroke="black" stroke-width="0.33" stroke-miterlimit="10" stroke-linecap="round"/>
<path d="M354.371 93.9839L362.536 96.4679" stroke="black" stroke-width="0.33" stroke-miterlimit="10" stroke-linecap="round"/>
<path d="M418.379 124.433L419.343 122.163" stroke="black" stroke-width="0.33" stroke-miterlimit="10" stroke-linecap="round"/>
<path d="M431.711 106.19L427.106 104.962" stroke="black" stroke-width="0.33" stroke-miterlimit="10" stroke-linecap="round"/>
</g>
<defs>
<clipPath id="clip0">
<rect width="492" height="220" fill="white"/>
</clipPath>
</defs>
</svg>
