<svg width="492" height="220" viewBox="0 0 492 220" fill="none" xmlns="http://www.w3.org/2000/svg">
<rect width="492" height="220" fill="white"/>
<path d="M295.483 135.836C293.434 139.992 288.81 143.622 282.019 143.505C276.224 143.388 271.541 139.934 273.531 135.251C275.346 131.036 288.517 125.299 295.483 125.299C302.449 125.299 297.532 131.738 295.483 135.836Z" fill="black"/>
<path d="M271.073 131.035C271.073 131.035 271.483 141.572 282.546 141.572C292.791 141.572 295.308 134.196 296.596 131.035C297.883 127.874 299.874 125.064 299.64 123.132C299.288 120.557 294.078 122.313 294.078 122.313" fill="#708D22"/>
<path d="M271.073 131.035C271.073 131.035 271.483 141.572 282.546 141.572C292.791 141.572 295.308 134.196 296.596 131.035C297.883 127.874 299.874 125.064 299.64 123.132C299.288 120.557 294.078 122.313 294.078 122.313" stroke="black" stroke-width="0.33" stroke-linecap="round" stroke-linejoin="round"/>
<path d="M298.41 125.357C300.752 123.249 299.64 120.44 295.835 119.093C292.03 117.747 287.171 118.449 284.712 120.498C278.624 125.591 275.288 125.357 272.77 127.581C269.375 130.625 271.014 134.606 276.4 136.479C281.785 138.352 288.868 137.474 292.264 134.43C294.781 132.206 292.556 130.684 298.41 125.357Z" fill="#C3F53C" stroke="black" stroke-width="0.33" stroke-linecap="round" stroke-linejoin="round"/>
<path d="M288.634 130.86C288.459 127.582 285.766 124.948 282.488 124.889C279.268 124.948 276.634 127.582 276.517 130.801V131.036C276.517 132.148 277.571 133.26 279.385 133.904C282.254 134.899 285.942 134.431 287.756 132.85C288.283 132.441 288.634 131.797 288.693 131.094C288.634 131.036 288.634 130.86 288.634 130.86Z" fill="#A55700" stroke="black" stroke-width="0.33" stroke-linecap="round" stroke-linejoin="round"/>
<path d="M284.712 130.509C285.707 130.509 286.468 129.748 286.468 128.753C286.468 127.758 285.707 126.997 284.712 126.997C283.717 126.997 282.956 127.758 282.956 128.753C282.956 129.69 283.717 130.509 284.712 130.509Z" fill="white" stroke="black" stroke-width="0.33" stroke-linecap="round" stroke-linejoin="round"/>
<path d="M328.265 89.8829C334.177 89.8829 339.036 87.4243 339.036 84.3803C339.036 81.3363 334.236 78.8192 328.265 78.8192C322.294 78.8192 317.494 81.2778 317.494 84.3803C317.494 87.4829 322.294 89.8829 328.265 89.8829Z" fill="black" stroke="black" stroke-width="0.33" stroke-linecap="round" stroke-linejoin="round"/>
<path d="M329.377 87.4238C323.64 87.9506 318.782 84.2627 317.962 79.6967C317.201 75.5405 317.084 71.6184 319.952 68.9842C322.821 66.3499 325.748 67.7549 328.031 67.3451C332.187 66.5256 334.587 66.9353 336.811 69.3939C338.568 71.3842 339.329 74.4868 338.802 77.5893C337.865 82.9163 335.933 86.8384 329.377 87.4238Z" fill="#FA5000" stroke="black" stroke-width="0.33" stroke-linecap="round" stroke-linejoin="round"/>
<path opacity="0.3" d="M338.099 71.3845C338.041 71.9114 337.982 72.4382 337.924 72.9651C336.753 79.3458 334.411 84.0288 326.626 84.7898C324.343 85.024 322.001 84.6142 319.894 83.7361C322.235 86.4289 325.806 87.8338 329.377 87.4826C335.875 86.8972 337.865 82.9751 338.802 77.6481C339.211 75.4822 338.977 73.3163 338.099 71.3845Z" fill="black"/>
<path d="M327.972 62.6625H327.796C327.621 62.6625 327.504 62.7796 327.445 62.9552V69.8042C327.445 69.9798 327.562 70.1554 327.796 70.1554H327.972C328.148 70.1554 328.323 70.0384 328.323 69.8627V63.0137C328.265 62.8381 328.148 62.6625 327.972 62.6625Z" fill="black" stroke="black" stroke-width="0.33" stroke-linecap="round" stroke-linejoin="round"/>
<path d="M327.855 70.9755C328.792 70.9755 329.611 70.4486 329.611 69.8047C329.611 69.1608 328.85 68.6339 327.855 68.6339C326.86 68.6339 326.099 69.1608 326.099 69.8047C326.099 70.4486 326.918 70.9755 327.855 70.9755Z" fill="black" stroke="black" stroke-width="0.33" stroke-linecap="round" stroke-linejoin="round"/>
<path d="M328.265 65.4143C328.265 65.4143 330.723 59.7946 338.802 62.4289C338.86 62.4289 336.109 68.0486 328.265 65.4143Z" fill="#708D22" stroke="black" stroke-width="0.33" stroke-linecap="round" stroke-linejoin="round"/>
<path d="M322.469 69.9797C320.947 70.9163 319.776 72.4968 319.894 74.3115C319.952 75.6579 322.118 75.6579 322.001 74.3115C321.942 73.2578 322.586 72.2627 323.523 71.7944C324.694 71.0919 323.64 69.2772 322.469 69.9797Z" fill="#F5F9F4"/>
<path d="M303.971 116.752C317.611 116.752 328.675 113.064 328.675 108.498C328.675 103.932 317.611 100.244 304.03 100.244C290.449 100.244 279.385 103.932 279.385 108.498C279.385 113.064 290.39 116.752 303.971 116.752Z" fill="black"/>
<path d="M279.385 81.922C282.019 84.7318 301.981 104.167 324.635 81.2195C324.811 81.0439 324.987 80.9854 325.162 80.9268C325.396 80.9268 325.572 80.9854 325.748 81.1025L326.977 81.9805C327.153 82.0976 327.27 82.2732 327.328 82.4488C327.387 82.6245 327.387 82.8586 327.328 83.0342C326.216 86.8392 320.011 105.162 302.391 104.928C281.434 104.576 277.453 86.0782 276.985 83.5025C276.927 83.3269 276.985 83.1513 277.044 82.9757L277.336 82.1562C277.395 82.0391 277.453 81.922 277.57 81.8635C277.688 81.8049 277.805 81.7464 277.922 81.7464L278.683 81.6878C278.8 81.6878 278.975 81.6879 279.092 81.7464C279.151 81.8049 279.268 81.8635 279.385 81.922Z" fill="#FFB531" stroke="black" stroke-width="0.33" stroke-linecap="round" stroke-linejoin="round"/>
<path d="M326.977 81.9804L326.099 81.3365C324.05 86.8391 317.728 99.659 302.508 99.1321C287.815 98.6053 281.375 89.766 278.741 83.9121C278.683 83.8536 278.683 83.7365 278.624 83.678C278.566 83.6195 278.507 83.5609 278.39 83.5609C278.331 83.5024 278.214 83.5024 278.156 83.5024C278.097 83.5024 277.98 83.5024 277.922 83.5609L277.044 83.9121C277.746 87.4245 282.195 104.635 302.391 104.986C320.011 105.279 326.216 86.9561 327.328 83.1511C327.504 82.7414 327.328 82.2731 326.977 81.9804Z" fill="#D88D09" stroke="black" stroke-width="0.33" stroke-linecap="round" stroke-linejoin="round"/>
<path d="M281.2 96.498C284.595 98.5468 310.001 112.42 326.86 82.3902C326.977 82.2146 327.094 82.0975 327.27 82.039C327.445 81.9804 327.679 81.9804 327.855 82.039L329.494 82.6243C329.67 82.6829 329.845 82.8 329.904 82.9756C330.021 83.1512 330.08 83.3268 330.021 83.5024C329.962 87.483 328.558 108.147 310.469 113.064C289.161 118.918 280.205 101.298 279.093 98.8395C279.034 98.6639 278.975 98.4297 279.034 98.2541L279.151 97.3175C279.151 97.2004 279.21 97.0833 279.268 96.9663C279.327 96.8492 279.444 96.7907 279.561 96.7321L280.263 96.4394C280.38 96.3809 280.556 96.3809 280.673 96.3809C280.907 96.3809 281.083 96.4394 281.2 96.498Z" fill="#FFB531" stroke="black" stroke-width="0.33" stroke-linecap="round" stroke-linejoin="round"/>
<path d="M329.553 82.6244H329.494L329.143 84.1464C329.143 84.1464 323.816 103.054 309.767 107.445C292.732 112.772 280.615 98.8395 280.615 98.8395L280.439 98.6639C280.205 98.4298 279.854 98.3712 279.561 98.5468L279.268 98.7225L279.21 98.8395C280.263 101.181 289.22 118.918 310.586 113.064C328.616 108.147 330.021 87.4245 330.138 83.5025C330.138 83.3269 330.08 83.1512 330.021 82.9756C329.845 82.8 329.728 82.6829 329.553 82.6244Z" fill="#D88D09" stroke="black" stroke-width="0.33" stroke-linecap="round" stroke-linejoin="round"/>
<path d="M281.492 97.3765C284.888 99.3668 309.474 112.479 326.391 84.2639" stroke="#FFF382" stroke-width="0.33" stroke-linecap="round" stroke-linejoin="round"/>
<path d="M325.455 81.0446L325.806 81.4544C325.982 81.6886 326.099 81.9227 326.099 82.1569L326.157 82.7423C326.157 82.8008 326.157 82.9179 326.216 82.9764C326.275 83.035 326.333 83.0935 326.392 83.152C326.45 83.2106 326.567 83.2106 326.626 83.2106C326.684 83.2106 326.801 83.2106 326.86 83.152L327.972 82.5666C328.148 82.4496 328.323 82.391 328.558 82.391C328.733 82.391 328.967 82.391 329.143 82.4496L330.08 83.4447C330.08 83.4447 330.958 76.1274 330.723 75.8933L329.611 75.425C329.494 75.3079 329.377 75.2493 329.201 75.1908L325.162 80.108C325.104 80.2836 325.104 80.4007 325.162 80.5763C325.221 80.8105 325.279 80.9276 325.455 81.0446Z" fill="black" stroke="black" stroke-width="0.33" stroke-linecap="round" stroke-linejoin="round"/>
<path d="M322.762 97.0245C325.513 93.0439 327.621 88.7121 329.084 84.0876" stroke="black" stroke-width="0.33" stroke-linecap="round" stroke-linejoin="round"/>
<path d="M280.497 98.7811C283.424 101.884 286.878 104.342 290.741 106.098" stroke="black" stroke-width="0.33" stroke-linecap="round" stroke-linejoin="round"/>
<path d="M329.201 78.1166L326.743 82.7411" stroke="#8C78C0" stroke-width="0.33" stroke-linecap="round" stroke-linejoin="round"/>
<path d="M314.333 107.737L315.328 107.21" stroke="black" stroke-width="0.33" stroke-linecap="round" stroke-linejoin="round"/>
<path d="M322.996 92.3997L324.108 90.8777" stroke="black" stroke-width="0.33" stroke-linecap="round" stroke-linejoin="round"/>
<path d="M305.552 105.337L306.371 105.22" stroke="black" stroke-width="0.33" stroke-linecap="round" stroke-linejoin="round"/>
<path d="M286.702 93.9805C283.249 91.4049 280.556 88.0096 278.8 84.0876" stroke="black" stroke-width="0.33" stroke-linecap="round" stroke-linejoin="round"/>
<path d="M308.362 98.6052C306.43 99.0149 304.44 99.1906 302.449 99.132C298.586 99.0735 294.722 98.1954 291.151 96.6734" stroke="black" stroke-width="0.33" stroke-linecap="round" stroke-linejoin="round"/>
<path d="M325.396 83.034C324.987 83.9706 324.518 84.9658 323.933 86.078" stroke="black" stroke-width="0.33" stroke-linecap="round" stroke-linejoin="round"/>
<path d="M293.493 93.3369C294.02 93.5711 294.547 93.7467 295.073 93.8052" stroke="black" stroke-width="0.33" stroke-linecap="round" stroke-linejoin="round"/>
<path d="M319.835 89.5905C320.186 89.2978 320.304 88.9466 320.128 88.771C319.952 88.5954 319.601 88.6539 319.25 88.9466C318.899 89.2393 318.782 89.5905 318.957 89.7662C319.133 89.9418 319.543 89.8832 319.835 89.5905Z" fill="black"/>
<path d="M315.269 129.806C317.142 129.806 318.664 129.045 318.664 128.109C318.664 127.172 317.142 126.411 315.269 126.411C313.396 126.411 311.874 127.172 311.874 128.109C311.874 129.045 313.396 129.806 315.269 129.806Z" fill="black"/>
<path d="M315.854 129.162C317.435 129.162 318.723 127.874 318.723 126.294C318.723 124.713 317.435 123.425 315.854 123.425C314.274 123.425 312.986 124.713 312.986 126.294C312.986 127.933 314.274 129.162 315.854 129.162Z" fill="#6E55B0" stroke="black" stroke-width="0.33" stroke-linecap="round" stroke-linejoin="round"/>
<path d="M315.503 124.128C315.855 124.48 316.44 124.655 316.908 124.48" stroke="black" stroke-width="0.33" stroke-linecap="round" stroke-linejoin="round"/>
<path d="M306.372 147.602C308.245 147.602 309.767 146.841 309.767 145.905C309.767 144.968 308.245 144.207 306.372 144.207C304.498 144.207 302.976 144.968 302.976 145.905C302.976 146.841 304.44 147.602 306.372 147.602Z" fill="black"/>
<path d="M306.898 147.016C308.479 147.016 309.767 145.729 309.767 144.148C309.767 142.567 308.479 141.28 306.898 141.28C305.318 141.28 304.03 142.567 304.03 144.148C304.088 145.729 305.376 147.016 306.898 147.016Z" fill="#6E55B0" stroke="black" stroke-width="0.33" stroke-linecap="round" stroke-linejoin="round"/>
<path d="M306.547 141.982C306.722 142.157 306.957 142.274 307.191 142.333C307.425 142.391 307.718 142.391 307.952 142.333" stroke="black" stroke-width="0.33" stroke-linecap="round" stroke-linejoin="round"/>
<path d="M313.337 156.851C315.211 156.851 316.733 156.09 316.733 155.153C316.733 154.217 315.211 153.456 313.337 153.456C311.464 153.456 309.942 154.217 309.942 155.153C309.942 156.09 311.464 156.851 313.337 156.851Z" fill="black"/>
<path d="M313.337 156.265C314.918 156.265 316.206 154.977 316.206 153.397C316.206 151.816 314.918 150.528 313.337 150.528C311.757 150.528 310.469 151.816 310.469 153.397C310.469 154.977 311.757 156.265 313.337 156.265Z" fill="#6E55B0" stroke="black" stroke-width="0.33" stroke-linecap="round" stroke-linejoin="round"/>
<path d="M314.099 151.349C314.157 151.583 314.274 151.818 314.508 151.993C314.684 152.169 314.918 152.286 315.152 152.344" stroke="black" stroke-width="0.33" stroke-linecap="round" stroke-linejoin="round"/>
<path d="M362.276 174.647L346.587 165.573C339.855 161.651 328.909 161.651 322.177 165.515C318.84 167.446 317.143 169.963 317.143 172.539C317.143 175.115 318.84 177.691 322.235 179.622L337.28 188.286C344.012 192.208 354.958 192.208 361.69 188.345L393.652 169.612C394.004 169.378 394.296 169.144 394.53 168.793C394.765 168.441 394.882 168.032 394.94 167.622C394.999 167.212 394.94 166.802 394.823 166.393C394.706 165.983 394.472 165.632 394.179 165.339L377.613 165.397L362.276 174.647Z" fill="black"/>
<path d="M328.206 143.036C326.274 145.846 324.694 148.129 324.694 148.187C321.943 152.46 320.538 156.968 320.538 160.831C320.538 164.988 322.177 168.441 325.338 170.198L339.797 179.154C345.885 182.608 356.48 179.095 362.744 170.666L368.656 159.778C362.334 167.563 328.206 143.036 328.206 143.036Z" fill="#F4EDDA" stroke="black" stroke-width="0.33" stroke-linecap="round" stroke-linejoin="round"/>
<path d="M396.638 139.465C390.081 143.387 370.939 155.153 370.705 155.27C364.266 158.607 354.314 158.432 348.051 154.861L333.065 146.197C329.845 144.324 328.206 141.865 328.206 139.407C328.206 137.124 329.611 134.841 332.421 133.026C332.597 132.909 351.153 122.196 351.388 122.079C357.768 118.391 368.247 118.391 374.686 122.138L389.672 130.801C392.891 132.675 394.472 135.133 394.472 137.592" fill="#F4EDDA"/>
<path d="M396.638 139.465C390.081 143.387 370.939 155.153 370.705 155.27C364.266 158.607 354.314 158.432 348.051 154.861L333.065 146.197C329.845 144.324 328.206 141.865 328.206 139.407C328.206 137.124 329.611 134.841 332.421 133.026C332.597 132.909 351.153 122.196 351.388 122.079C357.768 118.391 368.247 118.391 374.686 122.138L389.672 130.801C392.891 132.675 394.472 135.133 394.472 137.592" stroke="black" stroke-width="0.33" stroke-linecap="round" stroke-linejoin="round"/>
<path d="M396.638 139.465C394.003 141.045 389.379 143.855 384.696 146.724L384.169 147.075L384.052 147.133L382.823 147.894L382.647 148.012L381.476 148.714L375.681 152.285L375.388 152.46L374.042 153.28L373.808 153.397L373.222 153.748L373.164 153.807L372.695 154.1L372.286 154.334L371.817 154.626L371.759 154.685L371.583 154.802L371.525 154.861L371.408 154.919L371.056 155.153L370.998 155.212L370.939 155.27L370.881 155.329H370.822H370.764H370.705C364.266 158.666 354.314 158.49 348.051 154.919L338.509 149.416L333.006 146.372C329.787 144.499 328.148 142.041 328.148 139.582V144.031C328.148 146.49 329.787 148.948 333.006 150.821L347.992 159.485C353.378 162.588 361.456 163.114 367.778 161.066L361.924 169.554C355.661 177.983 345.943 182.081 339.855 178.627L325.221 170.373C322.528 168.851 320.947 166.1 320.538 162.705V170.256C320.538 172.715 322.177 175.173 325.396 177.047L340.382 185.71C346.587 189.281 356.597 189.457 363.037 186.12C363.271 186.003 394.003 168.032 394.823 167.505C400.091 164.461 402.726 160.48 402.726 156.5" fill="#E2D1A0"/>
<path d="M396.638 139.465C394.003 141.045 389.379 143.855 384.696 146.724L384.169 147.075L384.052 147.133L382.823 147.894L382.647 148.012L381.476 148.714L375.681 152.285L375.388 152.46L374.042 153.28L373.808 153.397L373.222 153.748L373.164 153.807L372.695 154.1L372.286 154.334L371.817 154.626L371.759 154.685L371.583 154.802L371.525 154.861L371.408 154.919L371.056 155.153L370.998 155.212L370.939 155.27L370.881 155.329H370.822H370.764H370.705C364.266 158.666 354.314 158.49 348.051 154.919L338.509 149.416L333.006 146.372C329.787 144.499 328.148 142.041 328.148 139.582V144.031C328.148 146.49 329.787 148.948 333.006 150.821L347.992 159.485C353.378 162.588 361.456 163.114 367.778 161.066L361.924 169.554C355.661 177.983 345.943 182.081 339.855 178.627L325.221 170.373C322.528 168.851 320.947 166.1 320.538 162.705V170.256C320.538 172.715 322.177 175.173 325.396 177.047L340.382 185.71C346.587 189.281 356.597 189.457 363.037 186.12C363.271 186.003 394.003 168.032 394.823 167.505C400.091 164.461 402.726 160.48 402.726 156.5" stroke="black" stroke-width="0.33" stroke-linecap="round" stroke-linejoin="round"/>
<path d="M397.808 60.7306C396.403 59.0329 394.706 57.628 392.774 56.5158C383.057 50.8961 367.368 50.8961 357.709 56.4572C355.836 57.5109 354.139 58.9159 352.734 60.5549H350.451V121.728C350.451 125.416 352.909 129.103 357.768 131.913C367.485 137.533 383.174 137.533 392.833 131.972C397.633 129.221 400.033 125.533 400.033 121.903V60.7306H397.808Z" fill="#FDFBF8"/>
<path d="M402.433 122.606V155.797C402.433 159.778 399.799 137.826 394.53 140.87C388.793 144.207 381.066 145.728 373.456 145.377C367.134 145.143 360.929 143.563 356.129 140.811C350.802 137.709 348.109 133.67 348.109 129.689V122.489H350.626C352.148 120.674 353.963 119.152 356.012 118.04C366.198 112.186 382.53 111.952 393.242 117.454C393.652 117.689 394.062 117.864 394.413 118.098C396.521 119.269 398.394 120.85 399.974 122.664L402.433 122.606Z" fill="#E2D1A0" stroke="black" stroke-width="0.33" stroke-linecap="round" stroke-linejoin="round"/>
<path d="M402.433 122.254C402.433 123.484 402.199 124.713 401.731 125.825C400.794 127.991 399.272 129.923 397.399 131.328C396.521 132.03 395.584 132.674 394.589 133.26C384.052 139.348 366.842 139.348 356.188 133.201C350.861 130.099 348.168 126.059 348.168 122.079C348.168 118.157 350.685 114.235 355.719 111.249L356.012 111.074C358.529 109.669 361.222 108.556 364.032 107.913C373.983 105.337 386.218 106.391 394.413 111.191C399.799 114.235 402.433 118.274 402.433 122.254Z" fill="#F4EDDA" stroke="black" stroke-width="0.33" stroke-linecap="round" stroke-linejoin="round"/>
<path d="M399.916 121.904C399.916 123.016 399.682 124.128 399.272 125.123C398.394 127.113 397.047 128.811 395.291 130.157C394.472 130.801 393.652 131.387 392.715 131.914C383.115 137.475 367.544 137.416 357.885 131.855C353.026 129.045 350.626 125.416 350.626 121.728C350.626 118.157 352.909 114.645 357.475 111.893L357.768 111.718C360.051 110.43 362.51 109.435 365.027 108.791C374.1 106.449 385.105 107.445 392.598 111.776C397.516 114.586 399.916 118.274 399.916 121.904Z" fill="#F4EDDA" stroke="black" stroke-width="0.33" stroke-linecap="round" stroke-linejoin="round"/>
<path d="M357.534 115.347L357.827 115.172C360.11 113.884 362.568 112.889 365.085 112.303C374.159 109.962 385.164 110.957 392.657 115.23C396.755 117.572 399.096 120.557 399.74 123.601C399.857 123.016 399.916 122.489 399.916 121.904C399.916 118.274 397.516 114.586 392.657 111.776C385.164 107.445 374.159 106.449 365.085 108.791C362.568 109.435 360.11 110.43 357.827 111.718L357.534 111.893C352.968 114.645 350.626 118.157 350.626 121.728C350.626 122.313 350.685 122.899 350.802 123.426C351.504 120.499 353.729 117.63 357.534 115.347Z" fill="#E2D1A0" stroke="black" stroke-width="0.33" stroke-linecap="round" stroke-linejoin="round"/>
<path d="M402.199 156.968V123.133C402.14 124.245 401.906 125.357 401.496 126.411C400.56 128.577 399.038 130.509 397.164 131.914C396.286 132.616 395.35 133.26 394.355 133.846C389.964 136.363 384.462 137.826 378.725 138.294V145.026C383.876 144.675 389.262 143.504 393.359 141.456C391.018 143.329 380.481 149.768 380.071 150.002V175.701L394.647 167.154C399.916 164.11 402.55 160.129 402.55 156.149L402.199 156.968Z" fill="#DCC88C"/>
<path d="M363.856 146.782C363.856 145.845 362.568 145.084 360.929 145.084C359.29 145.084 357.944 145.845 357.944 146.782C357.944 147.719 359.231 148.48 360.871 148.538C362.51 148.597 363.856 147.719 363.856 146.782Z" fill="#DCC88C" stroke="black" stroke-width="0.33" stroke-linecap="round" stroke-linejoin="round"/>
<path d="M361.924 147.133L366.608 144.616L363.856 143.914L359.641 146.079L361.924 147.133Z" fill="black" stroke="black" stroke-width="0.33" stroke-linecap="round" stroke-linejoin="round"/>
<path d="M363.739 141.455V143.855L366.607 144.441V140.226" fill="black"/>
<path d="M363.739 141.455V143.855L366.607 144.441V140.226" stroke="black" stroke-width="0.33" stroke-linecap="round" stroke-linejoin="round"/>
<path d="M360.871 147.309C359.992 147.309 359.231 147.016 359.231 146.08V142.099C359.231 141.806 359.29 141.514 359.466 141.28C359.583 141.045 359.817 140.811 360.051 140.694L364.441 138.177C365.261 137.767 366.256 138.119 366.666 138.938C367.017 139.699 366.783 140.577 366.139 141.045L362.568 143.094V146.138C362.51 147.016 361.807 147.309 360.871 147.309Z" fill="#FFAA05" stroke="black" stroke-width="0.33" stroke-linecap="round" stroke-linejoin="round"/>
<path d="M365.203 138.704C365.144 138.587 365.085 138.529 364.968 138.529C364.851 138.529 364.734 138.528 364.676 138.587L361.456 140.46C361.398 140.519 361.339 140.577 361.28 140.636C361.222 140.694 361.222 140.811 361.28 140.87C361.28 140.929 361.339 141.046 361.398 141.104C361.456 141.163 361.573 141.163 361.632 141.163C361.69 141.163 361.749 141.163 361.807 141.104L365.027 139.231C365.085 139.231 365.085 139.172 365.144 139.114C365.203 139.055 365.203 139.055 365.203 138.997C365.203 138.938 365.203 138.88 365.203 138.821C365.261 138.821 365.203 138.763 365.203 138.704Z" fill="#F4EDDA"/>
<path d="M347.992 138.469C347.992 137.533 346.704 136.772 345.065 136.772C343.426 136.772 342.08 137.533 342.08 138.469C342.08 139.406 343.368 140.167 345.007 140.226C346.646 140.284 347.992 139.348 347.992 138.469Z" fill="#DCC88C" stroke="black" stroke-width="0.33" stroke-linecap="round" stroke-linejoin="round"/>
<path d="M337.982 138.001C337.982 137.065 336.694 136.304 334.996 136.304C333.299 136.304 332.011 137.065 332.011 138.001C332.011 138.938 333.299 139.699 334.938 139.699C336.577 139.699 337.982 138.938 337.982 138.001Z" fill="#DCC88C" stroke="black" stroke-width="0.33" stroke-linecap="round" stroke-linejoin="round"/>
<path d="M346.06 138.763L350.743 136.245L349.514 134.782L343.836 137.709L346.06 138.763Z" fill="black" stroke="black" stroke-width="0.33" stroke-linecap="round" stroke-linejoin="round"/>
<path d="M349.339 132.323V134.665L350.744 136.07V131.855" fill="black"/>
<path d="M349.339 132.323V134.665L350.744 136.07V131.855" stroke="black" stroke-width="0.33" stroke-linecap="round" stroke-linejoin="round"/>
<path d="M345.007 138.997C344.07 138.997 343.368 138.704 343.368 137.767V133.787C343.368 133.494 343.426 133.201 343.602 132.967C343.719 132.733 343.953 132.499 344.187 132.382L348.577 129.865C349.397 129.455 350.392 129.806 350.802 130.626C351.153 131.387 350.919 132.265 350.275 132.733L346.704 134.782V137.826C346.646 138.704 345.943 138.997 345.007 138.997Z" fill="#FFAA05" stroke="black" stroke-width="0.33" stroke-linecap="round" stroke-linejoin="round"/>
<path d="M349.339 130.392C349.28 130.275 349.222 130.216 349.104 130.216C348.987 130.216 348.87 130.216 348.812 130.275L345.592 132.148C345.534 132.148 345.534 132.206 345.475 132.265C345.475 132.323 345.417 132.382 345.417 132.382C345.417 132.441 345.417 132.499 345.417 132.558C345.417 132.616 345.417 132.675 345.475 132.675C345.475 132.733 345.534 132.792 345.592 132.792C345.651 132.85 345.709 132.85 345.709 132.85C345.768 132.85 345.826 132.85 345.885 132.85C345.943 132.85 346.002 132.85 346.002 132.792L349.222 130.919C349.339 130.86 349.397 130.801 349.397 130.684C349.397 130.567 349.397 130.45 349.339 130.392Z" fill="#F4EDDA"/>
<path d="M354.9 132.675V140.051L338.977 149.592V154.041L331.426 173.71V180.325" stroke="black" stroke-width="0.33" stroke-linecap="round" stroke-linejoin="round"/>
<path d="M399.974 164.812C402.608 166.334 403.896 168.266 403.896 170.256C403.896 172.247 402.608 174.178 400.033 175.642C394.881 178.627 386.51 178.627 381.3 175.583L399.974 164.812Z" fill="black"/>
<path d="M383.467 165.573V174.12C388.676 177.106 397.047 177.106 402.199 174.12C404.775 172.657 406.062 170.666 406.062 168.735V160.188L383.467 165.573Z" fill="#AD9D6E" stroke="black" stroke-width="0.33" stroke-linecap="round" stroke-linejoin="round"/>
<path d="M397.399 175.934C399.096 175.583 400.677 174.997 402.199 174.178C404.774 172.714 406.062 170.724 406.062 168.792V160.245L397.399 162.294" fill="#DCC88C"/>
<path d="M397.399 175.934C399.096 175.583 400.677 174.997 402.199 174.178C404.774 172.714 406.062 170.724 406.062 168.792V160.245L397.399 162.294" stroke="black" stroke-width="0.33" stroke-linecap="round" stroke-linejoin="round"/>
<path d="M402.199 154.802C404.833 156.324 406.121 158.256 406.121 160.246C406.121 162.237 404.833 164.169 402.257 165.632C397.106 168.617 388.735 168.617 383.525 165.573L402.199 154.802Z" fill="#F4EDDA" stroke="black" stroke-width="0.33" stroke-linecap="round" stroke-linejoin="round"/>
<path d="M383.467 169.788C388.676 172.773 397.047 172.773 402.199 169.846C404.775 168.383 406.062 166.393 406.062 164.461" stroke="black" stroke-width="0.33" stroke-linecap="round" stroke-linejoin="round"/>
<path d="M403.369 170.023C404.248 168.501 404.248 166.803 403.369 166.335C402.491 165.866 401.028 166.627 400.15 168.149C399.272 169.671 399.272 171.369 400.15 171.837C401.028 172.306 402.433 171.545 403.369 170.023Z" fill="#E2D1A0" stroke="black" stroke-width="0.33" stroke-linecap="round" stroke-linejoin="round"/>
<path d="M397.047 152.753V157.729L394.999 158.9V153.163" fill="black"/>
<path d="M397.047 152.753V157.729L394.999 158.9V153.163" stroke="black" stroke-width="0.33" stroke-linecap="round" stroke-linejoin="round"/>
<path d="M399.857 161.71C401.496 161.71 402.784 160.949 402.784 160.013C402.784 159.076 401.438 158.315 399.799 158.315C398.16 158.315 396.872 159.076 396.872 160.071C396.872 161.066 398.218 161.71 399.857 161.71Z" fill="#DCC88C" stroke="black" stroke-width="0.33" stroke-linecap="round" stroke-linejoin="round"/>
<path d="M397.048 157.729L401.028 159.31L398.628 160.539L394.999 158.959" fill="black"/>
<path d="M397.048 157.729L401.028 159.31L398.628 160.539L394.999 158.959" stroke="black" stroke-width="0.33" stroke-linecap="round" stroke-linejoin="round"/>
<path d="M399.916 160.831C400.794 160.831 401.555 160.539 401.555 159.602V155.095C401.555 154.802 401.496 154.509 401.321 154.275C401.204 154.041 400.97 153.807 400.735 153.69L396.755 151.407C395.994 150.939 395.35 151.465 394.882 152.226C394.413 152.987 394.296 153.807 395.116 154.275L398.277 156.09V159.661C398.277 160.539 399.038 160.831 399.916 160.831Z" fill="#FFAA05" stroke="black" stroke-width="0.33" stroke-linecap="round" stroke-linejoin="round"/>
<path d="M396.872 152.168C396.93 152.051 396.989 151.992 397.106 151.992C397.223 151.992 397.34 151.992 397.399 152.051L400.618 153.924C400.735 153.982 400.794 154.041 400.794 154.158C400.852 154.275 400.794 154.392 400.735 154.451C400.677 154.568 400.618 154.626 400.501 154.626C400.384 154.626 400.267 154.626 400.208 154.568L396.989 152.695C396.93 152.695 396.93 152.636 396.872 152.578C396.813 152.519 396.813 152.46 396.813 152.46C396.813 152.402 396.813 152.343 396.813 152.285C396.813 152.285 396.872 152.226 396.872 152.168Z" fill="#F4EDDA"/>
<path d="M390.023 156.91V161.885L387.974 163.056V157.319" fill="black"/>
<path d="M390.023 156.91V161.885L387.974 163.056V157.319" stroke="black" stroke-width="0.33" stroke-linecap="round" stroke-linejoin="round"/>
<path d="M392.774 165.866C394.413 165.866 395.701 165.105 395.701 164.11C395.701 163.115 394.355 162.412 392.716 162.412C391.077 162.412 389.789 163.173 389.789 164.168C389.789 165.164 391.135 165.866 392.774 165.866Z" fill="#DCC88C" stroke="black" stroke-width="0.33" stroke-linecap="round" stroke-linejoin="round"/>
<path d="M390.023 161.885L394.003 163.466L391.603 164.637L387.974 163.056" fill="black"/>
<path d="M390.023 161.885L394.003 163.466L391.603 164.637L387.974 163.056" stroke="black" stroke-width="0.33" stroke-linecap="round" stroke-linejoin="round"/>
<path d="M392.833 164.988C393.711 164.988 394.472 164.696 394.472 163.759V159.251C394.472 158.959 394.413 158.666 394.238 158.432C394.12 158.198 393.886 157.964 393.652 157.847L389.671 155.564C388.91 155.095 388.267 155.622 387.798 156.383C387.33 157.144 387.213 157.964 388.032 158.373L391.193 160.188V163.759C391.193 164.696 391.954 164.988 392.833 164.988Z" fill="#FFAA05" stroke="black" stroke-width="0.33" stroke-linecap="round" stroke-linejoin="round"/>
<path d="M389.789 156.324C389.906 156.148 390.14 156.09 390.315 156.207L393.535 158.08C393.594 158.08 393.594 158.138 393.652 158.197C393.711 158.256 393.711 158.256 393.711 158.314C393.711 158.373 393.711 158.431 393.711 158.49C393.711 158.548 393.711 158.607 393.652 158.607C393.652 158.665 393.594 158.665 393.535 158.724C393.477 158.782 393.418 158.782 393.418 158.782C393.359 158.782 393.301 158.782 393.242 158.782C393.184 158.782 393.125 158.782 393.125 158.724L389.906 156.851C389.847 156.851 389.847 156.792 389.789 156.734C389.73 156.675 389.73 156.616 389.73 156.616C389.73 156.558 389.73 156.499 389.73 156.441C389.73 156.441 389.73 156.382 389.789 156.324Z" fill="#F4EDDA"/>
<path d="M397.808 60.7306C396.403 59.0329 394.706 57.628 392.774 56.5158C383.057 50.8961 367.368 50.8961 357.709 56.4572C355.836 57.5109 354.139 58.9159 352.734 60.5549H350.451V121.728C350.451 125.416 352.909 129.103 357.768 131.913C367.485 137.533 383.174 137.533 392.833 131.972C397.633 129.221 400.033 125.533 400.033 121.903V60.7306H397.808Z" stroke="black" stroke-width="0.33" stroke-linecap="round" stroke-linejoin="round"/>
<path d="M376.091 133.787C370.647 133.787 365.437 132.616 361.515 130.45C356.831 127.875 354.197 124.187 354.197 120.089C354.139 117.982 355.778 116.167 357.885 116.05C359.993 115.991 361.807 117.63 361.924 119.738C361.924 119.855 361.924 119.913 361.924 120.03C361.924 122.43 367.544 126.001 376.091 126.001C384.637 126.001 390.198 122.43 390.198 120.03C390.14 117.923 391.779 116.108 393.886 115.991C395.994 115.933 397.808 117.572 397.925 119.679C397.925 119.796 397.925 119.855 397.925 119.972C397.925 124.07 395.35 127.757 390.608 130.333C386.745 132.616 381.535 133.787 376.091 133.787Z" fill="black" stroke="black" stroke-width="0.33" stroke-linecap="round" stroke-linejoin="round"/>
<path d="M369.476 89.6491C371.056 89.6491 372.344 88.3612 372.344 86.7807C372.344 85.2001 371.056 83.9123 369.476 83.9123C367.895 83.9123 366.607 85.2001 366.607 86.7807C366.607 88.3612 367.895 89.6491 369.476 89.6491Z" fill="#FF5A87" stroke="black" stroke-width="0.33" stroke-linecap="round" stroke-linejoin="round"/>
<path d="M371.115 85.2583C370.998 85.7851 371.232 86.312 371.642 86.6632Z" fill="#966696"/>
<path d="M371.115 85.2583C370.998 85.7851 371.232 86.312 371.642 86.6632" stroke="black" stroke-width="0.33" stroke-linecap="round" stroke-linejoin="round"/>
<path d="M399.038 72.5562C398.92 71.444 398.335 70.3903 397.457 69.6293L396.462 68.9854C395.759 68.6342 394.94 68.5171 394.12 68.5756C387.857 68.6927 378.608 69.3366 373.515 70.3903C370.412 70.9757 367.368 71.8538 364.441 72.966C362.861 73.6099 361.339 74.4295 359.875 75.3075C358.412 76.2442 357.124 77.2979 355.895 78.5272C355.368 79.054 354.9 79.5808 354.49 80.2248C353.846 81.0443 353.378 81.9809 353.026 82.9761C352.792 83.62 352.558 84.2639 352.441 84.9664C352.324 85.6689 352.265 86.3128 352.324 87.0152C352.324 87.6006 352.382 88.1275 352.499 88.7128C352.675 89.6495 352.909 90.5275 353.319 91.4056C353.729 92.2837 354.197 93.1032 354.724 93.9228C355.309 94.6838 355.895 95.3862 356.539 96.0887C356.831 96.4399 357.183 96.7326 357.475 97.0253C357.241 97.6107 357.007 98.2546 356.89 98.8985C356.656 100.186 356.773 101.533 357.241 102.821C357.768 104.108 358.529 105.221 359.583 106.099C360.227 106.626 360.87 107.094 361.573 107.504C361.046 107.738 360.519 108.031 360.051 108.323C359.758 108.499 359.466 108.674 359.173 108.909C358.763 109.26 358.353 109.611 358.002 109.962C357.885 110.079 357.768 110.196 357.709 110.314C357.065 111.133 356.656 112.07 356.422 113.123C356.422 113.24 356.363 113.416 356.363 113.533C356.304 114.06 356.304 114.587 356.363 115.114C356.422 115.523 356.539 115.992 356.656 116.402C356.656 116.519 356.714 116.577 356.714 116.636C356.89 117.045 357.065 117.455 357.3 117.806L357.417 118.041C357.709 118.45 358.061 118.802 358.412 119.153C358.529 119.27 358.705 119.387 358.822 119.504C359.348 119.914 359.992 120.265 360.578 120.558C361.339 120.909 362.158 121.26 362.978 121.553C364.675 122.255 366.432 122.841 368.246 123.426C372.11 124.655 376.09 125.651 380.013 126.646L381.359 126.997C383.759 127.407 386.042 125.826 386.452 123.368C386.627 122.197 386.393 121.026 385.691 120.089L384.93 119.27C384.344 118.743 383.583 118.45 382.822 118.333C379.134 117.397 375.388 116.519 371.7 115.348C370.881 115.114 370.12 114.821 369.3 114.528C372.578 113.826 375.915 113.24 379.252 112.889C380.481 112.948 381.652 112.948 382.822 112.831C384.227 112.714 385.632 112.538 387.037 112.245C387.915 112.187 388.735 111.836 389.379 111.25C390.023 110.723 390.549 109.962 390.784 109.143C391.018 108.616 391.076 107.972 391.018 107.387C390.901 106.216 390.315 105.162 389.437 104.401L388.501 103.757C387.798 103.406 386.979 103.289 386.159 103.347C383.642 103.465 381.125 103.64 378.608 103.933C378.198 103.874 377.788 103.874 377.378 103.816C379.193 103.816 380.949 103.699 382.705 103.347C385.632 102.879 388.501 102.001 391.135 100.713C392.071 100.303 392.95 99.8352 393.769 99.3083C394.647 98.7229 395.467 98.079 396.169 97.2595C396.579 96.7912 396.93 96.2058 397.281 95.6789C397.633 95.035 397.867 94.3911 398.042 93.6886C398.335 92.4008 398.277 90.9958 397.808 89.7665C397.047 87.7762 395.525 86.1957 393.535 85.3762C392.13 84.7322 390.667 84.381 389.145 84.2054C387.447 84.0298 385.808 83.9127 384.11 83.9127C382.764 83.9127 381.476 84.0298 380.188 84.1468C374.217 84.9078 368.539 87.0152 363.563 90.4105L363.388 90.5275C363.036 90.2348 362.627 89.8836 362.275 89.5324C361.924 89.1226 361.573 88.6543 361.28 88.1275C361.163 87.8348 361.046 87.5421 360.929 87.3079C360.929 87.1323 360.87 86.9567 360.87 86.7225C360.87 86.4884 360.929 86.4298 360.929 86.2542C361.046 86.0201 361.105 85.7859 361.222 85.6103C361.573 85.0835 361.983 84.6152 362.451 84.2054C363.388 83.4444 364.324 82.7419 365.378 82.1565C367.719 80.9858 370.237 80.1662 372.812 79.5808C377.847 78.5857 382.939 77.8832 388.032 77.5905C390.257 77.532 392.423 77.4735 394.647 77.4735C396.403 77.2979 397.925 76.0685 398.394 74.3709C398.628 73.7855 398.686 73.2002 398.628 72.6148L399.038 72.5562ZM386.218 92.6935C386.627 92.6935 387.037 92.752 387.447 92.752C386.042 93.3959 384.579 93.8642 383.057 94.274C380.891 94.7423 378.725 94.9179 376.559 94.9179C375.856 94.8594 375.154 94.8008 374.51 94.7423C375.856 94.2155 377.203 93.8057 378.608 93.4545C381.066 92.8691 383.642 92.6349 386.218 92.6935Z" fill="#FFAA05" stroke="black" stroke-width="0.33" stroke-linecap="round" stroke-linejoin="round"/>
<path d="M362.51 117.279C362.51 119.679 368.129 123.25 376.617 123.25C385.106 123.25 390.784 119.679 390.784 117.279C390.784 115.171 390.433 110.196 392.54 110.196C395.76 110.196 398.511 115.113 398.511 117.279C398.511 121.376 395.935 125.064 391.194 127.64C387.213 129.806 382.062 130.977 376.617 130.977C371.173 130.977 365.964 129.806 362.041 127.64C357.358 125.064 351.973 120.615 356.363 113.415" fill="#FFAA05"/>
<path d="M362.51 117.279C362.51 119.679 368.129 123.25 376.617 123.25C385.106 123.25 390.784 119.679 390.784 117.279C390.784 115.171 390.433 110.196 392.54 110.196C395.76 110.196 398.511 115.113 398.511 117.279C398.511 121.376 395.935 125.064 391.194 127.64C387.213 129.806 382.062 130.977 376.617 130.977C371.173 130.977 365.964 129.806 362.041 127.64C357.358 125.064 351.973 120.615 356.363 113.415" stroke="black" stroke-width="0.33" stroke-linecap="round" stroke-linejoin="round"/>
<path d="M364.676 121.143C366.256 121.143 367.544 119.855 367.544 118.274C367.544 116.694 366.256 115.406 364.676 115.406C363.095 115.406 361.807 116.694 361.807 118.274C361.807 119.855 363.095 121.143 364.676 121.143Z" fill="#FF5A87" stroke="black" stroke-width="0.33" stroke-linecap="round" stroke-linejoin="round"/>
<path d="M364.266 116.108C364.441 116.284 364.676 116.401 364.91 116.46C365.144 116.518 365.437 116.518 365.671 116.46" fill="#966696"/>
<path d="M364.266 116.108C364.441 116.284 364.676 116.401 364.91 116.46C365.144 116.518 365.437 116.518 365.671 116.46" stroke="black" stroke-width="0.33" stroke-linecap="round" stroke-linejoin="round"/>
<path d="M374.1 91.4633C374.1 91.4633 370.178 90.2926 368.89 92.3414C367.602 94.3903 370.237 102.995 374.92 102.703C379.603 102.41 382.179 94.5659 380.539 92.6341C378.9 90.7023 376.91 90.5267 375.447 91.4633" fill="#FA5000"/>
<path d="M374.1 91.4633C374.1 91.4633 370.178 90.2926 368.89 92.3414C367.602 94.3903 370.237 102.995 374.92 102.703C379.603 102.41 382.179 94.5659 380.539 92.6341C378.9 90.7023 376.91 90.5267 375.447 91.4633" stroke="black" stroke-width="0.33" stroke-linecap="round" stroke-linejoin="round"/>
<path d="M370.354 90.5854L371.934 91.522C371.642 92.166 371.173 92.6928 370.529 92.9855C370.237 93.1611 371.408 93.4538 372.227 93.2782C373.047 93.1026 373.573 93.044 373.866 93.1611C374.159 93.2782 374.393 95.1514 375.037 95.0929C375.681 95.0343 375.622 92.8099 375.974 92.7513C376.969 92.6928 378.022 92.7514 379.018 92.8684C379.544 92.9855 378.959 92.166 378.022 91.6391L377.086 91.1708C377.086 91.1708 378.315 89.9415 377.73 89.883C377.144 89.8244 374.92 90.8781 374.334 90.8781C373.749 90.8781 373.983 90.4684 372.286 90.2927C371.173 90.1757 370.12 90.2927 370.354 90.5854Z" fill="#82C8D2" stroke="black" stroke-width="0.33" stroke-linecap="round" stroke-linejoin="round"/>
<path d="M374.92 91.6393C374.92 91.1124 374.803 90.5271 374.569 90.0587C374.334 89.5319 373.983 89.1221 373.573 88.7709C373.281 88.5368 372.988 88.9465 373.222 89.1807C373.983 89.8246 374.393 90.7612 374.393 91.6978C374.393 91.7564 374.393 91.7564 374.393 91.8149C374.393 91.8734 374.451 91.8734 374.451 91.932L374.569 91.9905C374.627 91.9905 374.627 91.9905 374.686 91.9905C374.744 91.9905 374.744 91.9905 374.803 91.932C374.861 91.932 374.861 91.8734 374.861 91.8734C374.861 91.8734 374.92 91.8149 374.92 91.7564C374.861 91.6978 374.861 91.6393 374.92 91.6393Z" fill="#82C8D2" stroke="black" stroke-width="0.33" stroke-linecap="round" stroke-linejoin="round"/>
<path d="M372.344 94.9755C372.461 94.9755 372.578 94.8584 372.578 94.7413C372.578 94.6242 372.461 94.5071 372.344 94.5071C372.227 94.5071 372.11 94.6242 372.11 94.7413C372.052 94.8584 372.169 94.9755 372.344 94.9755Z" fill="black" stroke="black" stroke-width="0.33" stroke-linecap="round" stroke-linejoin="round"/>
<path d="M370.764 98.4296C370.881 98.4296 370.998 98.3125 370.998 98.1955C370.998 98.0784 370.881 97.9613 370.764 97.9613C370.646 97.9613 370.529 98.0784 370.529 98.1955C370.529 98.3125 370.646 98.4296 370.764 98.4296Z" fill="black" stroke="black" stroke-width="0.33" stroke-linecap="round" stroke-linejoin="round"/>
<path d="M375.271 101.064C375.388 101.064 375.505 100.947 375.505 100.83C375.505 100.713 375.388 100.596 375.271 100.596C375.154 100.596 375.037 100.713 375.037 100.83C374.978 100.947 375.095 101.064 375.271 101.064Z" fill="black" stroke="black" stroke-width="0.33" stroke-linecap="round" stroke-linejoin="round"/>
<path d="M378.959 97.4346C379.076 97.4346 379.193 97.3176 379.193 97.2005C379.193 97.0834 379.017 96.9663 378.9 96.9663C378.783 96.9663 378.725 97.0834 378.666 97.2005C378.725 97.3176 378.842 97.4346 378.959 97.4346Z" fill="black" stroke="black" stroke-width="0.33" stroke-linecap="round" stroke-linejoin="round"/>
<path d="M362.51 106.333C362.51 108.733 368.13 112.304 376.618 112.304C385.106 112.304 390.784 108.733 390.784 106.333C390.784 104.225 392.013 100.596 394.121 100.362C396.813 100.128 398.511 104.167 398.511 106.333C398.511 110.43 395.935 114.118 391.194 116.694C387.213 118.86 382.062 120.031 376.618 120.031C371.174 120.031 365.964 118.86 362.042 116.694C357.358 114.118 351.739 108.44 356.949 101.591" fill="#FFAA05"/>
<path d="M362.51 106.333C362.51 108.733 368.13 112.304 376.618 112.304C385.106 112.304 390.784 108.733 390.784 106.333C390.784 104.225 392.013 100.596 394.121 100.362C396.813 100.128 398.511 104.167 398.511 106.333C398.511 110.43 395.935 114.118 391.194 116.694C387.213 118.86 382.062 120.031 376.618 120.031C371.174 120.031 365.964 118.86 362.042 116.694C357.358 114.118 351.739 108.44 356.949 101.591" stroke="black" stroke-width="0.33" stroke-linecap="round" stroke-linejoin="round"/>
<path d="M362.217 95.1511C362.217 97.5512 367.837 101.122 376.325 101.122C384.813 101.122 390.433 97.4927 390.433 95.1511C390.433 92.9852 392.189 91.2876 394.296 91.2876C396.462 91.2876 398.16 93.0437 398.16 95.1511C398.16 99.2488 395.584 102.937 390.842 105.512C386.862 107.678 381.71 108.849 376.266 108.849C370.822 108.849 365.612 107.678 361.69 105.512C357.007 102.937 351.388 97.2 356.597 90.4095" fill="#FFAA05"/>
<path d="M362.217 95.1511C362.217 97.5512 367.837 101.122 376.325 101.122C384.813 101.122 390.433 97.4927 390.433 95.1511C390.433 92.9852 392.189 91.2876 394.296 91.2876C396.462 91.2876 398.16 93.0437 398.16 95.1511C398.16 99.2488 395.584 102.937 390.842 105.512C386.862 107.678 381.71 108.849 376.266 108.849C370.822 108.849 365.612 107.678 361.69 105.512C357.007 102.937 351.388 97.2 356.597 90.4095" stroke="black" stroke-width="0.33" stroke-linecap="round" stroke-linejoin="round"/>
<path d="M379.72 87.1909C381.3 87.1909 382.588 85.9031 382.588 84.3225C382.588 82.742 381.3 81.4542 379.72 81.4542C378.139 81.4542 376.852 82.742 376.852 84.3225C376.852 85.9031 378.139 87.1909 379.72 87.1909Z" fill="#6E55B0" stroke="black" stroke-width="0.33" stroke-linecap="round" stroke-linejoin="round"/>
<path d="M379.369 82.1562C379.544 82.3318 379.779 82.4489 380.013 82.5074C380.247 82.566 380.54 82.566 380.774 82.5074" fill="#FF769B"/>
<path d="M379.369 82.1562C379.544 82.3318 379.779 82.4489 380.013 82.5074C380.247 82.566 380.54 82.566 380.774 82.5074" stroke="black" stroke-width="0.33" stroke-linecap="round" stroke-linejoin="round"/>
<path d="M387.447 122.08C389.028 122.08 390.316 120.792 390.316 119.211C390.316 117.631 389.028 116.343 387.447 116.343C385.867 116.343 384.579 117.631 384.579 119.211C384.579 120.792 385.867 122.08 387.447 122.08Z" fill="#6E55B0" stroke="black" stroke-width="0.33" stroke-linecap="round" stroke-linejoin="round"/>
<path d="M387.096 117.045C387.271 117.22 387.505 117.338 387.74 117.396C387.974 117.455 388.266 117.455 388.501 117.396" fill="#FF769B"/>
<path d="M387.096 117.045C387.271 117.22 387.505 117.338 387.74 117.396C387.974 117.455 388.266 117.455 388.501 117.396" stroke="black" stroke-width="0.33" stroke-linecap="round" stroke-linejoin="round"/>
<path d="M359.232 78.4097C360.812 78.4097 362.1 77.1219 362.1 75.5414C362.1 73.9608 360.812 72.673 359.232 72.673C357.651 72.673 356.363 73.9608 356.363 75.5414C356.422 77.1219 357.651 78.4097 359.232 78.4097Z" fill="#6E55B0" stroke="black" stroke-width="0.33" stroke-linecap="round" stroke-linejoin="round"/>
<path d="M358.88 73.375C359.056 73.5506 359.29 73.6677 359.524 73.7263C359.758 73.7848 360.051 73.7848 360.285 73.7263" fill="#FF769B"/>
<path d="M358.88 73.375C359.056 73.5506 359.29 73.6677 359.524 73.7263C359.758 73.7848 360.051 73.7848 360.285 73.7263" stroke="black" stroke-width="0.33" stroke-linecap="round" stroke-linejoin="round"/>
<path d="M393.477 94.9755C395.057 94.9755 396.345 93.6877 396.345 92.1071C396.345 90.5266 395.057 89.2387 393.477 89.2387C391.896 89.2387 390.608 90.5266 390.608 92.1071C390.667 93.7462 391.896 94.9755 393.477 94.9755Z" fill="#6E55B0" stroke="black" stroke-width="0.33" stroke-linecap="round" stroke-linejoin="round"/>
<path d="M391.428 91.2294C391.955 91.1123 392.364 90.7611 392.54 90.2343Z" fill="#966696"/>
<path d="M391.428 91.2294C391.955 91.1123 392.364 90.7611 392.54 90.2343" stroke="black" stroke-width="0.33" stroke-linecap="round" stroke-linejoin="round"/>
<path d="M362.393 109.084C363.973 109.084 365.261 107.796 365.261 106.215C365.261 104.635 363.973 103.347 362.393 103.347C360.812 103.347 359.524 104.635 359.524 106.215C359.583 107.796 360.871 109.084 362.393 109.084Z" fill="#FA5000" stroke="black" stroke-width="0.33" stroke-linecap="round" stroke-linejoin="round"/>
<path d="M360.402 105.278C360.637 105.219 360.871 105.102 361.105 104.927C361.281 104.751 361.456 104.517 361.515 104.283" fill="#966696"/>
<path d="M360.402 105.278C360.637 105.219 360.871 105.102 361.105 104.927C361.281 104.751 361.456 104.517 361.515 104.283" stroke="black" stroke-width="0.33" stroke-linecap="round" stroke-linejoin="round"/>
<path d="M379.72 111.249C381.3 111.249 382.588 109.962 382.588 108.381C382.588 106.8 381.3 105.513 379.72 105.513C378.139 105.513 376.852 106.8 376.852 108.381C376.852 109.962 378.139 111.249 379.72 111.249Z" fill="#FF5A87" stroke="black" stroke-width="0.33" stroke-linecap="round" stroke-linejoin="round"/>
<path d="M377.613 108.967C377.788 108.791 377.905 108.498 377.905 108.264C377.964 108.03 377.905 107.737 377.788 107.503" fill="#966696"/>
<path d="M377.613 108.967C377.788 108.791 377.905 108.498 377.905 108.264C377.964 108.03 377.905 107.737 377.788 107.503" stroke="black" stroke-width="0.33" stroke-linecap="round" stroke-linejoin="round"/>
<path d="M370.12 66.2921C370.12 66.2921 366.139 65.414 365.027 67.5799C363.915 69.7458 367.193 78.1168 371.876 77.4729C376.559 76.829 378.432 68.7507 376.676 66.936C374.92 65.1213 372.871 65.1213 371.525 66.175" fill="#FA5000"/>
<path d="M370.12 66.2921C370.12 66.2921 366.139 65.414 365.027 67.5799C363.915 69.7458 367.193 78.1168 371.876 77.4729C376.559 76.829 378.432 68.7507 376.676 66.936C374.92 65.1213 372.871 65.1213 371.525 66.175" stroke="black" stroke-width="0.33" stroke-linecap="round" stroke-linejoin="round"/>
<path d="M366.315 65.765L367.954 66.526C367.719 67.1699 367.251 67.7553 366.666 68.1065C366.373 68.2821 367.602 68.5163 368.363 68.2821C369.124 68.048 369.651 67.9309 370.003 68.048C370.354 68.1651 370.705 69.9798 371.349 69.8627C371.993 69.7456 371.7 67.5211 372.051 67.4041C373.047 67.287 374.1 67.2285 375.095 67.287C375.622 67.3455 374.978 66.5845 373.983 66.1748L373.047 65.765C373.047 65.765 374.159 64.4186 373.573 64.4186C372.988 64.4186 370.822 65.6479 370.295 65.6479C369.768 65.6479 369.885 65.2381 368.246 65.1796C367.076 65.2381 366.08 65.4723 366.315 65.765Z" fill="#FFE600" stroke="black" stroke-width="0.33" stroke-linecap="round" stroke-linejoin="round"/>
<path d="M370.939 66.4097C370.881 65.8829 370.764 65.2975 370.471 64.8292C370.178 64.3609 369.827 63.9511 369.359 63.5999C369.066 63.4243 368.773 63.834 369.066 64.0096C369.476 64.3023 369.768 64.6536 370.003 65.0633C370.237 65.4731 370.354 65.9414 370.412 66.4097C370.412 66.4683 370.471 66.5268 370.529 66.5853C370.588 66.6439 370.646 66.6439 370.705 66.6439C370.764 66.6439 370.822 66.5853 370.881 66.5268C370.939 66.5268 370.939 66.4683 370.939 66.4097Z" fill="#FFE600" stroke="black" stroke-width="0.33" stroke-linecap="round" stroke-linejoin="round"/>
<path d="M368.598 69.9795C368.715 69.9795 368.832 69.8625 368.832 69.7454C368.832 69.6283 368.715 69.5112 368.598 69.5112C368.481 69.5112 368.363 69.6283 368.363 69.7454C368.305 69.8625 368.422 69.9795 368.598 69.9795Z" fill="black" stroke="black" stroke-width="0.33" stroke-linecap="round" stroke-linejoin="round"/>
<path d="M367.31 73.5504C367.427 73.5504 367.544 73.4333 367.544 73.3162C367.544 73.1991 367.369 73.0821 367.251 73.0821C367.134 73.0821 367.076 73.1991 367.017 73.3162C367.076 73.4333 367.193 73.5504 367.31 73.5504Z" fill="black" stroke="black" stroke-width="0.33" stroke-linecap="round" stroke-linejoin="round"/>
<path d="M371.993 75.8338C372.11 75.8338 372.227 75.7167 372.227 75.5997C372.227 75.4826 372.11 75.3655 371.993 75.3655C371.876 75.3655 371.759 75.4826 371.759 75.5997C371.7 75.7167 371.817 75.8338 371.993 75.8338Z" fill="black" stroke="black" stroke-width="0.33" stroke-linecap="round" stroke-linejoin="round"/>
<path d="M375.388 71.912C375.505 71.912 375.622 71.7949 375.622 71.6778C375.622 71.5607 375.505 71.4437 375.388 71.4437C375.271 71.4437 375.154 71.5607 375.154 71.6778C375.154 71.7949 375.271 71.912 375.388 71.912Z" fill="black" stroke="black" stroke-width="0.33" stroke-linecap="round" stroke-linejoin="round"/>
<path d="M400.091 43.6957V50.252C400.091 53.8814 397.691 57.5108 392.891 60.3207C387.623 63.3647 380.54 64.711 373.632 64.4184C367.895 64.1842 362.217 62.7793 357.827 60.2036C352.968 57.3937 350.509 53.7058 350.509 50.0179V43.5201H352.792C354.197 41.881 355.836 40.4761 357.768 39.4224C367.076 34.0369 382.003 33.8613 391.72 38.8956C392.072 39.0712 392.423 39.3054 392.833 39.481C394.764 40.5347 396.462 41.9981 397.867 43.6957H400.091Z" fill="#E2D1A0" stroke="black" stroke-width="0.33" stroke-linecap="round" stroke-linejoin="round"/>
<path d="M377.495 51.7159L373.632 38.8959H391.662C392.013 39.0716 392.364 39.3057 392.774 39.4813C394.706 40.535 396.403 41.9985 397.808 43.6961H400.091V50.3109C400.091 53.9403 397.691 57.5697 392.891 60.3795C387.623 63.4235 380.539 64.7699 373.632 64.4772V64.3602H377.495" fill="#DCC88C"/>
<path d="M377.495 51.7159L373.632 38.8959H391.662C392.013 39.0716 392.364 39.3057 392.774 39.4813C394.706 40.535 396.403 41.9985 397.808 43.6961H400.091V50.3109C400.091 53.9403 397.691 57.5697 392.891 60.3795C387.623 63.4235 380.539 64.7699 373.632 64.4772V64.3602H377.495" stroke="black" stroke-width="0.33" stroke-linecap="round" stroke-linejoin="round"/>
<path d="M400.091 43.4035C400.091 44.5158 399.857 45.628 399.448 46.6817C398.569 48.672 397.223 50.4282 395.467 51.716C394.647 52.3599 393.769 52.9453 392.891 53.4722C383.232 59.0333 367.544 59.0333 357.827 53.4136C352.968 50.6038 350.509 46.9158 350.509 43.2279C350.509 39.6571 352.792 36.0862 357.417 33.3349C357.534 33.2764 357.593 33.2178 357.71 33.1593C359.993 31.8715 362.451 30.8763 365.027 30.2324C374.159 27.8909 385.223 28.886 392.774 33.2178C397.633 36.0277 400.091 39.7156 400.091 43.4035Z" fill="#F4EDDA" stroke="black" stroke-width="0.33" stroke-linecap="round" stroke-linejoin="round"/>
<path d="M402.784 50.0769V56.6917C402.784 60.7309 400.15 64.77 394.823 67.814C392.481 69.1604 389.906 70.2141 387.33 70.9166C382.881 72.0873 378.315 72.6142 373.749 72.4386C367.31 72.2044 360.988 70.6239 356.071 67.814C350.685 64.7115 347.992 60.6138 347.992 56.5746V49.8427H350.509L350.627 49.7256C350.685 53.355 353.144 56.9844 357.944 59.7357C367.661 65.3554 383.408 65.414 393.067 59.7943C397.808 57.043 400.209 53.4721 400.267 49.9013L400.384 50.0183L402.784 50.0769Z" fill="#E2D1A0" stroke="black" stroke-width="0.33" stroke-linecap="round" stroke-linejoin="round"/>
<path d="M378.549 65.0039L386.51 64.2429L387.271 70.9162C384.403 71.6772 381.535 72.1455 378.549 72.3212" fill="#DCC88C"/>
<path d="M378.549 65.0039L386.51 64.2429L387.271 70.9162C384.403 71.6772 381.535 72.1455 378.549 72.3212" stroke="black" stroke-width="0.33" stroke-linecap="round" stroke-linejoin="round"/>
<path d="M402.784 50.0769V56.6917C402.784 60.7309 400.15 64.77 394.823 67.814C392.481 69.1604 389.906 70.2141 387.33 70.9166C382.881 72.0873 378.315 72.6142 373.749 72.4386C367.31 72.2044 360.988 70.6239 356.071 67.814C350.685 64.7115 347.992 60.6138 347.992 56.5746V49.8427H350.509L350.627 49.7256C350.685 53.355 353.144 56.9844 357.944 59.7357C367.661 65.3554 383.408 65.414 393.067 59.7943C397.808 57.043 400.209 53.4721 400.267 49.9013L400.384 50.0183L402.784 50.0769Z" stroke="black" stroke-width="0.33" stroke-linecap="round" stroke-linejoin="round"/>
<path d="M400.15 42.9348V49.9009C400.091 53.4717 397.691 57.0426 392.95 59.7939C383.291 65.355 367.544 65.3551 357.827 59.7354C353.027 56.9841 350.568 53.3547 350.509 49.7253V42.7592C348.87 44.6324 347.934 47.0325 347.875 49.4911V49.8424C347.992 53.823 350.744 57.7451 355.953 60.7891C366.725 66.9941 384.11 67.0527 394.764 60.8476C399.974 57.8621 402.609 53.9401 402.726 50.0765V49.7253C402.726 47.2081 401.789 44.8081 400.15 42.9348Z" fill="#F4EDDA" stroke="black" stroke-width="0.33" stroke-linecap="round" stroke-linejoin="round"/>
<path d="M401.438 52.8869V77.8242C401.438 77.9999 401.379 78.1755 401.262 78.3511C401.145 78.5267 401.028 78.6438 400.852 78.7023L390.257 84.8489C389.789 85.083 389.203 85.2001 388.676 85.2001C387.974 85.2001 387.33 85.0245 386.745 84.6732L384.52 83.3854V71.5606C384.988 71.4436 386.628 71.0923 386.628 71.0923V64.1848L384.52 62.9555V58.448L386.803 59.3261L388.735 58.5066L401.438 52.8869Z" fill="#AD9D6E" stroke="black" stroke-width="0.33" stroke-linecap="round" stroke-linejoin="round"/>
<path d="M388.618 58.5066L401.438 52.8869V77.8242C401.438 77.9999 401.379 78.1755 401.262 78.3511C401.145 78.5267 401.028 78.6438 400.852 78.7023L390.257 84.8489C389.789 85.083 389.203 85.2001 388.676 85.2001" fill="#DCC88C"/>
<path d="M388.618 58.5066L401.438 52.8869V77.8242C401.438 77.9999 401.379 78.1755 401.262 78.3511C401.145 78.5267 401.028 78.6438 400.852 78.7023L390.257 84.8489C389.789 85.083 389.203 85.2001 388.676 85.2001" stroke="black" stroke-width="0.33" stroke-linecap="round" stroke-linejoin="round"/>
<path d="M401.438 52.8863C401.438 53.062 401.379 53.2376 401.262 53.4132C401.145 53.5888 401.028 53.7059 400.852 53.7644L398.394 55.1693L390.257 59.8524C389.145 60.3793 387.857 60.3207 386.745 59.7353L385.457 59.0329L384.462 58.4475H384.52C387.447 57.8036 390.316 56.7499 392.95 55.2864C395.116 54.1156 396.989 52.4766 398.394 50.4863L399.33 51.0131L400.56 51.7156C401.028 51.9497 401.321 52.418 401.438 52.8863Z" fill="#AD9D6E" stroke="black" stroke-width="0.33" stroke-linecap="round" stroke-linejoin="round"/>
<path d="M400.618 76.5945L390.959 82.1557V62.1355L400.618 56.5744V76.5945Z" fill="black" stroke="black" stroke-width="0.33" stroke-linecap="round" stroke-linejoin="round"/>
<path d="M400.618 56.5744V76.5945L390.959 82.1557V80.9849L399.74 75.9506V57.1012L400.618 56.5744Z" fill="#AD9D6E" stroke="black" stroke-width="0.33" stroke-linecap="round" stroke-linejoin="round"/>
<path d="M397.516 66.8772L397.106 67.1113V65.5893C397.106 64.7698 396.579 64.4186 395.935 64.8283L395.116 65.2966C394.413 65.765 394.003 66.5845 393.945 67.404V68.926L393.477 69.2187C393.36 69.3358 393.184 69.4529 393.125 69.6285C393.067 69.8041 393.008 69.9797 393.008 70.1553V73.7847C393.008 74.1359 393.242 74.3116 393.477 74.136L397.516 71.7944C397.633 71.6773 397.75 71.5603 397.867 71.3846C397.926 71.209 397.984 71.0334 397.984 70.8578V67.2284C397.926 66.9357 397.75 66.7601 397.516 66.8772ZM394.823 66.8772C394.823 66.7601 394.823 66.643 394.882 66.526C394.94 66.4089 394.999 66.3503 395.116 66.2333L395.935 65.765C396.052 65.7064 396.228 65.8235 396.228 66.0576V67.5796L394.823 68.3992V66.8772ZM395.701 71.4432C395.701 71.5603 395.643 71.6188 395.643 71.7359C395.584 71.8529 395.525 71.9115 395.467 71.97H395.408C395.291 72.0286 395.116 71.97 395.116 71.7944V69.9797C395.116 69.8626 395.116 69.8041 395.174 69.687C395.233 69.6285 395.291 69.5114 395.35 69.4529H395.408C395.525 69.3943 395.701 69.4529 395.701 69.6285V71.4432Z" fill="#FF5A87"/>
<path d="M401.438 52.8863C401.379 52.3595 401.028 51.8912 400.56 51.7156L399.33 51.0131L398.921 50.779L398.394 50.4863C396.93 52.4766 395.057 54.1156 392.95 55.2864C390.316 56.7499 387.506 57.8036 384.52 58.4475H384.462L385.457 58.9743" fill="#DCC88C"/>
<path d="M401.438 52.8863C401.379 52.3595 401.028 51.8912 400.56 51.7156L399.33 51.0131L398.921 50.779L398.394 50.4863C396.93 52.4766 395.057 54.1156 392.95 55.2864C390.316 56.7499 387.506 57.8036 384.52 58.4475H384.462L385.457 58.9743" stroke="black" stroke-width="0.33" stroke-linecap="round" stroke-linejoin="round"/>
<path d="M357.183 91.0541C357.827 91.5224 358.295 92.2834 358.412 93.0444V116.284C358.412 116.928 357.885 117.045 357.183 116.518C356.539 116.05 356.129 115.289 356.012 114.528V91.2297C355.953 90.6443 356.539 90.5272 357.183 91.0541Z" fill="white"/>
<path d="M357.183 71.0342C357.827 71.5025 358.295 72.2635 358.412 73.0245V88.3031C358.412 88.947 357.885 89.0641 357.183 88.5372C356.539 88.0689 356.129 87.3079 356.012 86.5469V71.2684C355.953 70.683 356.539 70.5659 357.183 71.0342Z" fill="white"/>
<path d="M386.51 71.0926L384.403 75.6001V71.5609L386.51 71.0926Z" fill="black"/>
<path d="M383.642 34.3887L388.911 31.4618C390.198 31.9301 391.428 32.457 392.598 33.1594C393.594 33.7448 394.53 34.3887 395.408 35.1497L391.662 37.1986H391.603L390.081 38.0767C390.023 37.1401 389.379 36.2034 388.15 35.501C386.803 34.74 385.223 34.3302 383.642 34.3887Z" fill="#DCC88C"/>
<path d="M396.638 39.0131C397.399 40.301 397.808 41.7059 397.808 43.1694C397.808 46.6231 395.467 49.9013 391.252 52.3599C382.53 57.4527 368.247 57.4527 359.407 52.3599C355.075 49.9013 352.734 46.6231 352.734 43.1108C352.734 39.5985 355.075 36.3789 359.29 33.9203C368.012 28.8274 382.296 28.8274 391.135 33.9203C393.36 35.091 395.233 36.8472 396.638 39.0131Z" fill="#7E7350" stroke="black" stroke-width="0.33" stroke-linecap="round" stroke-linejoin="round"/>
<path d="M379.72 41.9987L385.515 37.3156L391.369 40.6523C393.125 41.6474 394.238 42.9938 394.589 44.3987C395.057 46.0963 393.886 47.911 391.838 48.9062L379.72 41.9987Z" fill="#DCC88C"/>
<path d="M379.72 40.4182C378.315 39.6572 376.793 39.306 375.213 39.306V33.7449L380.832 33.2766L381.652 37.4328V43.0525C381.652 42.1159 380.949 41.1792 379.72 40.4182Z" fill="#5F563C"/>
<path d="M380.949 33.218L381.769 37.3742V42.9939V43.0524H381.71H381.652C381.652 43.0524 381.652 43.0524 381.652 42.9939C381.593 41.9987 380.949 41.1206 379.72 40.4767C378.374 39.7743 376.793 39.3645 375.271 39.423V33.8033V33.7448H375.33L380.949 33.2765H381.008H381.067L380.949 33.218ZM381.652 42.2914V37.4327L380.832 33.335L375.33 33.8033V39.2474C376.91 39.2474 378.432 39.6572 379.779 40.3596C380.598 40.828 381.242 41.4719 381.652 42.2914Z" fill="black"/>
<path d="M375.271 33.7449L380.13 30.9351L380.423 30.7595C381.828 30.057 383.115 29.9399 383.993 30.4668L390.433 34.1547L385.34 36.0865L384.813 35.6182L381.769 37.3743C381.769 37.2572 381.71 37.1402 381.71 36.9646C381.418 35.9694 380.715 35.2084 379.779 34.7401C378.374 34.0962 376.793 33.7449 375.271 33.7449Z" fill="#AD9D6E"/>
<path d="M390.491 34.1547C390.491 34.2132 390.491 34.2132 390.491 34.2132C390.491 34.2132 390.491 34.2132 390.433 34.2132L385.34 36.145H385.281L384.754 35.7352L381.71 37.4913H381.652H381.593C381.593 37.4913 381.593 37.4913 381.593 37.4328C381.593 37.3157 381.593 37.1987 381.535 37.0816C381.242 36.145 380.598 35.3254 379.661 34.9157C378.315 34.1547 376.735 33.8034 375.213 33.8034V33.7449C375.213 33.7449 375.213 33.7449 375.271 33.6863L380.13 30.8765H380.188L380.481 30.7009C381.886 29.9984 383.174 29.8813 384.11 30.4082L390.491 34.1547ZM385.34 36.0279L390.257 34.1547L383.935 30.5253C383.057 29.9984 381.827 30.1155 380.422 30.818C380.305 30.8765 380.188 30.935 380.13 30.9936H380.071L375.505 33.6863C377.027 33.6863 378.491 34.0961 379.779 34.7986C380.715 35.2669 381.418 36.0864 381.71 37.0816C381.71 37.1987 381.769 37.2572 381.769 37.3743L384.754 35.6767H384.813H384.871L385.34 36.0279Z" fill="black"/>
<path d="M375.271 33.7444L380.13 30.9346L380.247 30.8761L380.364 30.8175H380.481C381.886 30.1151 383.174 29.998 384.052 30.5248L390.491 34.2128L385.398 36.1445L384.813 35.6762L383.35 36.4958H383.291L381.769 37.4324C381.71 36.4958 381.067 35.5591 379.837 34.8567C378.374 34.0957 376.793 33.7444 375.271 33.7444Z" fill="#AD9D6E"/>
<path d="M390.491 34.1547C390.491 34.2132 390.491 34.2132 390.491 34.2132C390.491 34.2132 390.491 34.2132 390.433 34.2132L385.34 36.145H385.281L384.754 35.7352L383.291 36.6133H383.232L381.71 37.4913H381.652H381.593C381.593 37.4913 381.593 37.4913 381.593 37.4328C381.535 36.4377 380.891 35.5596 379.661 34.9157C378.315 34.2132 376.735 33.8034 375.213 33.8034V33.7449C375.213 33.7449 375.213 33.6863 375.271 33.6863L380.13 30.8765H380.188L380.247 30.818L380.481 30.7009C381.886 29.9984 383.174 29.8813 384.11 30.4082L390.491 34.1547ZM385.34 36.0279L390.257 34.1547L383.935 30.5253C383.057 29.9984 381.827 30.1155 380.422 30.818L380.247 30.935L380.13 30.9936H380.071L375.505 33.6863C377.027 33.6863 378.491 34.0961 379.779 34.7986C380.949 35.501 381.652 36.3791 381.769 37.3157L383.174 36.4962L383.232 36.4377L384.696 35.5596H384.754H384.813L385.34 36.0279Z" fill="black"/>
<path d="M375.271 33.6861L380.13 30.8763L380.247 30.8178L380.364 30.7592L380.423 30.7007C381.593 30.7592 382.706 31.1105 383.701 31.6373C384.813 32.2812 385.398 33.1008 385.398 33.9788C385.34 34.7984 384.872 35.5594 384.169 36.0277C384.052 36.1448 383.876 36.2033 383.759 36.3204C383.642 36.4375 383.467 36.496 383.291 36.5545H383.232L381.71 37.4326C381.652 36.496 381.008 35.5594 379.779 34.8569C378.374 34.0959 376.852 33.6861 375.271 33.6861Z" fill="#F4EDDA"/>
<path d="M380.071 30.9351L380.188 30.8766L380.305 30.818L380.423 30.7595C381.827 30.057 383.115 29.9399 383.993 30.4668" fill="#AD9D6E"/>
<path d="M384.052 30.4086L383.935 30.5257C383.057 29.9988 381.827 30.1159 380.423 30.8184L380.247 30.9354L380.13 30.994L380.071 30.8769L380.188 30.8184L380.364 30.7013C381.769 29.9403 383.057 29.8818 384.052 30.4086Z" fill="black"/>
<path d="M375.271 33.7454L380.13 30.9355Z" fill="#AD9D6E"/>
<path d="M380.13 30.8764L380.071 30.935L380.13 30.9935L375.271 33.8034L375.154 33.6863L380.013 30.8764H380.13C380.071 30.8764 380.071 30.8764 380.13 30.8764Z" fill="black"/>
<path d="M381.71 42.9936V37.374L386.51 34.5641C388.091 33.686 389.496 33.5104 390.433 34.0958C391.252 34.5641 391.72 35.4422 391.72 36.73V37.1398L381.71 42.9936Z" fill="#DCC88C"/>
<path d="M391.311 34.9153C391.603 35.5007 391.779 36.1446 391.779 36.7886V37.1983C391.779 37.1983 391.779 37.1983 391.779 37.2569V37.3154L381.769 43.1107H381.71H381.593C381.593 43.1107 381.593 43.1107 381.593 43.0522V37.4325V37.374L386.452 34.5641C387.974 33.686 389.437 33.5104 390.433 34.0958C390.784 34.2714 391.076 34.6226 391.311 34.9153ZM391.603 37.1398V36.7886C391.72 35.7349 391.194 34.7397 390.374 34.2129C389.437 33.686 388.032 33.8616 386.51 34.6812L381.71 37.491V42.8766L391.603 37.1398Z" fill="black"/>
<path d="M381.476 37.6666L388.501 38.9544L386.159 40.3008L381.476 37.6666Z" fill="#5F563C"/>
<path d="M363.329 40.0667L372.11 32.9836L374.92 33.7446V39.3057C373.339 39.3057 371.817 39.657 370.412 40.418C369.183 41.1204 368.539 42.057 368.481 42.9937L363.329 40.0667Z" fill="#5F563C"/>
<path d="M374.978 33.686V39.3057V39.3643H374.92C373.339 39.3643 371.817 39.7155 370.471 40.4765C369.3 41.179 368.656 42.057 368.598 42.9937C368.598 42.9937 368.598 42.9937 368.598 43.0522H368.539H368.481L363.271 40.1253C363.271 40.1253 363.271 40.1253 363.271 40.0667L372.052 32.9836H372.11H372.169L374.978 33.686ZM374.861 39.2472V33.8031L372.11 33.1007L363.446 40.0667L368.422 42.9351C368.481 41.94 369.183 41.0619 370.354 40.418C371.759 39.657 373.281 39.2472 374.861 39.2472Z" fill="black"/>
<path d="M363.212 37.5498C363.915 37.901 364.734 37.7254 365.261 37.1985L368.481 37.4912C368.539 36.5546 369.125 35.618 370.412 34.9155C371.817 34.1545 373.339 33.8033 374.861 33.8033L371.466 31.813L370.003 30.9935C368.422 30.1154 367.017 29.9983 366.081 30.5252L359.7 34.2131L363.212 37.5498Z" fill="#F4EDDA" stroke="black" stroke-width="0.33" stroke-linecap="round" stroke-linejoin="round"/>
<path d="M368.48 43.0525V37.4328L363.622 34.6815C362.041 33.8034 360.636 33.6863 359.7 34.2132C358.88 34.6815 358.412 35.5596 358.412 36.8474V37.2572L368.48 43.0525Z" fill="#E2D1A0" stroke="black" stroke-width="0.33" stroke-linecap="round" stroke-linejoin="round"/>
<path d="M369.417 43.111C369.417 43.9306 370.003 44.8087 371.115 45.4526C373.632 46.7404 376.618 46.7404 379.135 45.4526C380.247 44.8087 380.774 43.9891 380.774 43.1696V33.9205H369.476L369.417 43.111Z" fill="#DCC88C" stroke="black" stroke-width="0.33" stroke-linecap="round" stroke-linejoin="round"/>
<path d="M369.417 33.8617C369.417 33.0421 369.944 32.2226 371.057 31.5787C373.574 30.2908 376.559 30.2908 379.076 31.5787C380.189 32.2226 380.774 33.0421 380.774 33.9202C380.774 34.7983 380.247 35.5593 379.135 36.2032C376.618 37.4911 373.632 37.4911 371.115 36.2032C369.944 35.5593 369.417 34.6812 369.417 33.8617Z" fill="#F4EDDA" stroke="black" stroke-width="0.33" stroke-linecap="round" stroke-linejoin="round"/>
<path d="M381.71 37.6666V37.8422C381.593 38.7203 380.949 39.5984 379.837 40.2423C378.432 41.0033 376.91 41.3545 375.33 41.3545L378.842 44.8668L385.398 52.711L391.779 49.0231V48.6133C391.779 45.7449 389.437 42.057 386.569 40.4179L386.218 40.1837V40.1252L381.71 37.6666Z" fill="#F4EDDA" stroke="black" stroke-width="0.33" stroke-linecap="round" stroke-linejoin="round"/>
<path d="M375.271 46.9748V41.3551L380.071 44.165C382.94 45.8041 385.281 49.492 385.281 52.3604V52.7701L375.271 46.9748Z" fill="#E2D1A0" stroke="black" stroke-width="0.33" stroke-linecap="round" stroke-linejoin="round"/>
<path d="M363.856 40.3594L368.539 37.6666V37.6666C368.598 38.6032 369.242 39.5398 370.471 40.2423C371.876 41.0033 373.398 41.3545 374.978 41.3545L372.52 43.5204L371.934 43.9887L370.12 46.2717L365.027 52.711L358.588 49.0231V48.6133C358.588 46.3303 360.051 43.5204 362.1 41.6472C362.627 41.1789 363.154 40.7691 363.798 40.4179L363.973 40.3008L363.856 40.3594Z" fill="#F4EDDA" stroke="black" stroke-width="0.33" stroke-linecap="round" stroke-linejoin="round"/>
<path d="M360.344 44.1643C362.334 45.3351 366.022 47.4425 368.246 48.7303L365.261 52.5353L358.822 48.8474V48.4376C358.88 46.8571 359.407 45.3351 360.344 44.1643Z" fill="#E2D1A0"/>
<path d="M374.978 46.9748V41.3551L370.12 44.165C367.251 45.8041 364.968 49.492 364.968 52.3604V52.7701L374.978 46.9748Z" fill="#5F563C" stroke="black" stroke-width="0.33" stroke-linecap="round" stroke-linejoin="round"/>
<path d="M373.632 32.9247C374.51 32.4564 375.564 32.4564 376.5 32.9247C376.852 33.1003 377.027 33.393 377.086 33.7442C377.086 33.8613 377.086 33.9784 377.027 34.0955C376.91 34.3296 376.734 34.4467 376.5 34.5638C375.622 35.0321 374.569 35.0321 373.632 34.5638C373.398 34.4467 373.222 34.2711 373.105 34.0369C373.047 33.9198 373.047 33.8028 373.047 33.6857C373.047 33.3345 373.281 33.0418 373.632 32.9247Z" fill="#DCC88C" stroke="black" stroke-width="0.33" stroke-linecap="round" stroke-linejoin="round"/>
<path d="M373.632 33.5692C374.51 33.1009 375.564 33.1009 376.5 33.5692C376.735 33.6863 376.91 33.8619 377.027 34.096C376.91 34.3302 376.735 34.4473 376.5 34.5643C375.622 35.0326 374.569 35.0326 373.632 34.5643C373.398 34.4473 373.222 34.2716 373.105 34.0375C373.222 33.8619 373.398 33.6863 373.632 33.5692Z" fill="#F4EDDA" stroke="black" stroke-width="0.33" stroke-linecap="round" stroke-linejoin="round"/>
<path d="M330.255 120.909L335.992 137.065C336.05 137.241 336.05 137.475 336.05 137.651C335.992 138.002 335.758 138.295 335.523 138.47C335.231 138.646 334.88 138.763 334.587 138.704C334.353 138.704 334.177 138.587 333.943 138.47C333.767 138.353 333.65 138.119 333.533 137.943L327.796 121.728C327.855 121.962 328.031 122.138 328.206 122.255C328.382 122.372 328.616 122.489 328.85 122.489C329.553 122.606 330.196 122.138 330.372 121.436C330.372 121.26 330.372 121.084 330.255 120.909Z" fill="#E2D1A0" stroke="black" stroke-width="0.33" stroke-linecap="round" stroke-linejoin="round"/>
<path d="M328.85 118.86C329.026 118.86 329.143 118.918 329.318 118.977C329.435 119.035 329.611 119.152 329.67 119.269C329.787 119.387 329.845 119.562 329.904 119.738C329.962 119.913 329.962 120.03 329.904 120.206C329.728 120.909 329.084 121.377 328.382 121.26C328.206 121.26 328.089 121.201 327.913 121.143C327.796 121.084 327.621 120.967 327.562 120.85C327.387 120.557 327.27 120.265 327.328 119.913C327.445 119.211 328.089 118.743 328.85 118.86Z" fill="black"/>
<path d="M331.309 123.601L329.904 119.621C329.962 119.796 329.962 120.03 329.962 120.206C329.787 120.909 329.143 121.377 328.44 121.26C327.972 121.201 327.621 120.909 327.445 120.499L328.909 124.655C329.787 124.596 330.606 124.187 331.309 123.601Z" fill="black"/>
<path d="M328.265 124.012C330.489 124.012 332.245 122.255 332.245 120.031C332.245 117.807 330.489 116.05 328.265 116.05C326.04 116.05 324.284 117.807 324.284 120.031C324.284 122.255 326.04 124.012 328.265 124.012Z" fill="#F4EDDA" stroke="black" stroke-width="0.33" stroke-linecap="round" stroke-linejoin="round"/>
<path d="M327.387 119.503C328.031 119.503 328.616 118.977 328.616 118.274C328.616 117.572 328.089 117.045 327.387 117.045C326.743 117.045 326.157 117.572 326.157 118.274C326.157 118.918 326.684 119.503 327.387 119.503Z" fill="#F4EDDA"/>
<path d="M341.143 165.398C342.665 161.124 341.085 156.617 337.631 155.329C334.177 154.041 330.021 156.5 328.499 160.773C326.977 165.046 328.558 169.554 332.011 170.842C335.465 172.13 339.563 169.671 341.143 165.398Z" fill="#AD9D6E" stroke="black" stroke-width="0.33" stroke-linecap="round" stroke-linejoin="round"/>
<path d="M340.207 165.573C341.494 162.061 340.207 158.373 337.338 157.319C334.47 156.265 331.133 158.256 329.845 161.768C328.557 165.28 329.845 168.968 332.714 170.022C335.582 171.076 338.977 169.085 340.207 165.573Z" fill="#DCC88C" stroke="black" stroke-width="0.33" stroke-linecap="round" stroke-linejoin="round"/>
<path d="M338.216 164.636C339.504 161.124 338.216 157.436 335.348 156.382C332.48 155.329 329.143 157.319 327.855 160.831C326.567 164.343 327.855 168.031 330.723 169.085C333.592 170.139 336.928 168.148 338.216 164.636Z" fill="#E2D1A0" stroke="black" stroke-width="0.33" stroke-linecap="round" stroke-linejoin="round"/>
<path d="M444.873 192.969C452.015 192.969 457.752 189.632 457.752 185.535C457.752 181.437 452.015 178.1 444.873 178.1C437.732 178.1 431.995 181.437 431.995 185.535C431.995 189.632 437.79 192.969 444.873 192.969Z" fill="black" stroke="black" stroke-width="0.33" stroke-linecap="round" stroke-linejoin="round"/>
<path d="M446.864 123.074C437.732 123.016 430.356 130.392 430.297 139.524C430.297 144.792 437.732 149.065 446.864 149.065C455.996 149.065 463.43 144.792 463.43 139.524C463.43 130.392 455.996 123.016 446.864 123.074Z" fill="#FDFBF8"/>
<path d="M446.864 191.74C454.005 191.74 459.742 188.403 459.742 184.306C459.742 180.208 453.947 176.871 446.864 176.871C439.781 176.871 433.985 180.208 433.985 184.306C433.985 188.403 439.722 191.74 446.864 191.74Z" fill="#E5EFFF" stroke="black" stroke-width="0.33" stroke-linecap="round" stroke-linejoin="round"/>
<path d="M466.181 141.982C466.181 135.836 457.518 129.455 446.922 129.455C436.327 129.455 427.663 135.836 427.663 141.982C427.722 143.738 428.365 145.436 429.536 146.724L434.044 182.842C434.044 186.94 439.839 190.276 446.922 190.276C454.005 190.276 459.801 186.94 459.801 182.842L464.601 146.373C465.537 145.143 466.123 143.563 466.181 141.982Z" fill="#FDFBF8"/>
<path d="M431.995 155.564L435.273 181.906C435.273 185.594 440.483 188.579 446.864 188.579C453.244 188.579 458.454 185.594 458.454 181.906L461.908 155.564H431.995V155.564Z" fill="#FFAA05"/>
<path d="M446.864 175.408C450.844 175.408 454.415 176.461 456.757 178.042" stroke="black" stroke-width="0.33" stroke-linecap="round" stroke-linejoin="round"/>
<path d="M429.244 145.085L433.985 182.9C433.985 186.998 439.78 190.335 446.864 190.335C453.947 190.335 459.742 186.998 459.742 182.9L464.952 143.621" stroke="black" stroke-width="0.33" stroke-linecap="round" stroke-linejoin="round"/>
<path d="M446.981 163.817C455.234 163.817 461.966 160.012 461.966 155.329C461.966 150.646 455.234 146.841 446.981 146.841C438.727 146.841 432.053 150.646 432.053 155.329C432.053 160.012 438.727 163.817 446.981 163.817Z" fill="#BF8004"/>
<path d="M464.425 143.563C463.137 148.48 455.761 152.285 446.863 152.285C438.258 152.285 431.117 148.772 429.478 144.089H429.185C429.185 144.148 429.185 144.148 429.185 144.206L429.478 146.782C431.117 151.465 438.258 154.978 446.922 154.978C456.756 154.978 464.718 150.353 464.718 144.733C464.718 144.324 464.659 143.914 464.601 143.504L464.425 143.563Z" fill="black" stroke="black" stroke-width="0.33" stroke-linecap="round" stroke-linejoin="round"/>
<path d="M465.362 138.763C464.542 133.319 456.581 128.987 446.922 128.987C437.263 128.987 429.302 133.261 428.482 138.763C427.956 139.758 427.663 140.812 427.663 141.924C427.663 148.071 436.327 153.047 446.922 153.047C457.518 153.047 466.181 148.071 466.181 141.924C466.123 140.812 465.889 139.758 465.362 138.763ZM446.864 149.066C437.732 149.066 430.297 144.793 430.297 139.524C430.297 134.256 437.732 129.982 446.864 129.982C455.996 129.982 463.43 134.256 463.43 139.524C463.43 144.793 455.996 149.066 446.864 149.066Z" fill="#F4EDDA" stroke="black" stroke-width="0.33" stroke-linecap="round" stroke-linejoin="round"/>
<path d="M465.01 137.534C465.245 138.237 465.362 138.939 465.362 139.7C465.362 144.442 459.976 148.481 452.483 149.886C450.61 150.237 448.737 150.413 446.864 150.413" stroke="black" stroke-width="0.33" stroke-linecap="round" stroke-linejoin="round"/>
<path d="M430.473 144.675C429.127 143.329 428.366 141.573 428.307 139.641C428.307 139.114 428.366 138.529 428.541 138.002" stroke="black" stroke-width="0.33" stroke-linecap="round" stroke-linejoin="round"/>
<path d="M446.864 149.066C455.996 149.066 463.43 144.792 463.43 139.524C463.43 134.256 455.996 129.982 446.864 129.982C437.732 129.982 430.297 134.256 430.297 139.524C430.297 144.792 437.732 149.066 446.864 149.066Z" stroke="black" stroke-width="0.33" stroke-linecap="round" stroke-linejoin="round"/>
<path d="M446.864 123.074C437.732 123.016 430.356 130.392 430.297 139.524C430.297 144.792 437.732 149.065 446.864 149.065C455.996 149.065 463.43 144.792 463.43 139.524C463.43 130.392 455.996 123.016 446.864 123.074Z" stroke="black" stroke-width="0.33" stroke-linecap="round" stroke-linejoin="round"/>
<path d="M446.863 128.343C448.912 128.343 450.551 127.407 450.551 126.236C450.551 125.065 448.912 124.128 446.863 124.128C444.815 124.128 443.176 125.065 443.176 126.236C443.176 127.407 444.815 128.343 446.863 128.343Z" stroke="black" stroke-width="0.33" stroke-linecap="round" stroke-linejoin="round"/>
<path d="M439.312 168.676C439.546 168.617 439.78 168.5 440.014 168.325C440.19 168.149 440.366 167.915 440.424 167.681" fill="#966696"/>
<path d="M439.312 168.676C439.546 168.617 439.78 168.5 440.014 168.325C440.19 168.149 440.366 167.915 440.424 167.681" stroke="black" stroke-width="0.33" stroke-linecap="round" stroke-linejoin="round"/>
<path d="M446.864 185.242C447.098 185.184 447.332 185.066 447.566 184.891C447.742 184.715 447.917 184.481 447.976 184.247" fill="#966696"/>
<path d="M446.864 185.242C447.098 185.184 447.332 185.066 447.566 184.891C447.742 184.715 447.917 184.481 447.976 184.247" stroke="black" stroke-width="0.33" stroke-linecap="round" stroke-linejoin="round"/>
<path d="M454.24 167.33C454.123 167.212 454.005 167.212 453.888 167.212C453.713 167.212 453.537 167.33 453.42 167.564C453.362 167.681 453.362 167.739 453.42 167.856C453.596 168.442 454.006 168.91 454.532 169.261C454.825 169.437 455.176 169.613 455.527 169.671C455.586 169.671 455.703 169.671 455.762 169.671C455.82 169.613 455.879 169.554 455.937 169.495C455.996 169.437 455.996 169.32 456.054 169.261C456.054 169.203 456.054 169.086 455.996 169.027C455.879 168.793 455.82 168.5 455.762 168.208C455.762 168.091 455.703 168.032 455.645 167.915C455.586 167.856 455.469 167.798 455.352 167.798C455.001 167.739 454.591 167.564 454.24 167.33Z" fill="#FA5000" stroke="black" stroke-width="0.33" stroke-linecap="round" stroke-linejoin="round"/>
<path d="M443.937 182.491H443.995C444.171 182.55 444.405 182.491 444.522 182.315C444.581 182.257 444.581 182.14 444.581 182.023C444.581 181.906 444.522 181.847 444.463 181.73C444.112 181.262 443.585 180.911 443 180.793C442.649 180.676 442.298 180.676 441.888 180.735C441.829 180.735 441.712 180.793 441.654 180.852C441.595 180.911 441.536 180.969 441.536 181.086C441.536 181.145 441.536 181.262 441.536 181.32C441.536 181.379 441.595 181.496 441.654 181.554C441.829 181.73 442.005 181.964 442.122 182.198C442.18 182.315 442.239 182.374 442.356 182.433C442.473 182.491 442.59 182.491 442.649 182.491C443.117 182.374 443.585 182.374 443.937 182.491Z" fill="#6E55B0" stroke="black" stroke-width="0.33" stroke-linecap="round" stroke-linejoin="round"/>
<path d="M439.195 165.866H439.254C439.371 165.866 439.429 165.866 439.546 165.866C439.663 165.807 439.722 165.749 439.781 165.69C439.839 165.632 439.898 165.515 439.839 165.397C439.839 165.28 439.781 165.222 439.722 165.105C439.078 164.344 438.141 163.934 437.146 164.051C437.088 164.051 436.971 164.11 436.912 164.168C436.795 164.285 436.678 164.461 436.737 164.636C436.737 164.695 436.795 164.812 436.854 164.871C437.029 165.046 437.205 165.28 437.322 165.515C437.38 165.632 437.439 165.69 437.556 165.749C437.673 165.807 437.79 165.807 437.849 165.807C438.376 165.749 438.785 165.749 439.195 165.866Z" fill="#5F563C" stroke="black" stroke-width="0.33" stroke-linecap="round" stroke-linejoin="round"/>
<path d="M445.986 171.426L447.098 172.07" stroke="black" stroke-width="0.33" stroke-linecap="round" stroke-linejoin="round"/>
<path d="M407.818 125.006V147.777L401.028 143.621C399.623 142.801 397.808 143.27 396.989 144.675C396.169 146.08 396.638 147.894 398.101 148.714L409.34 155.387C409.809 155.621 410.277 155.797 410.804 155.797C411.331 155.797 411.799 155.68 412.267 155.387C412.736 155.153 413.087 154.743 413.321 154.334C413.555 153.865 413.731 153.397 413.731 152.87V125.064H407.818V125.006Z" fill="#FFAA05" stroke="black" stroke-width="0.33" stroke-linecap="round" stroke-linejoin="round"/>
<path d="M406.706 130.567C406.765 131.269 407.233 131.913 407.877 132.206C409.633 133.084 411.741 133.084 413.497 132.206C414.141 131.913 414.609 131.269 414.667 130.567V105.395H406.648L406.706 130.567Z" fill="#E2D1A0" stroke="black" stroke-width="0.33" stroke-linecap="round" stroke-linejoin="round"/>
<path d="M411.565 132.85C412.267 132.791 412.911 132.557 413.497 132.265C414.141 131.972 414.609 131.328 414.667 130.626V105.454H411.565" fill="#DCC88C"/>
<path d="M411.565 132.85C412.267 132.791 412.911 132.557 413.497 132.265C414.141 131.972 414.609 131.328 414.667 130.626V105.454H411.565" stroke="black" stroke-width="0.33" stroke-linecap="round" stroke-linejoin="round"/>
<path d="M406.648 105.396C406.706 104.693 407.175 104.049 407.818 103.756C409.575 102.878 411.682 102.878 413.438 103.756C414.082 104.049 414.55 104.693 414.609 105.396C414.55 106.098 414.082 106.742 413.438 107.035C411.682 107.913 409.575 107.913 407.818 107.035C407.175 106.742 406.765 106.098 406.648 105.396Z" fill="black" stroke="black" stroke-width="0.33" stroke-linecap="round" stroke-linejoin="round"/>
<path d="M446.688 90.5269L412.15 70.9165C411.272 70.3897 410.102 70.3897 409.223 70.9165C408.755 71.1507 408.404 71.5604 408.17 71.9702C407.936 72.4385 407.76 72.9068 407.76 73.4337V105.103C407.819 105.63 408.17 106.04 408.638 106.274C409.926 106.918 411.506 106.918 412.794 106.274C413.263 106.04 413.555 105.63 413.672 105.103V78.5265L443.82 95.6197C444.171 95.8539 444.522 95.971 444.932 96.0295C445.342 96.0881 445.693 96.0881 446.103 95.971C446.512 95.8539 446.864 95.6783 447.156 95.4441C447.449 95.21 447.742 94.9173 447.917 94.5661C448.093 94.2148 448.21 93.8636 448.269 93.4538C448.327 93.0441 448.269 92.6343 448.152 92.2831C448.034 91.9318 447.859 91.5806 447.625 91.2294C447.332 90.9367 447.039 90.7025 446.688 90.5269Z" fill="#FFAA05" stroke="black" stroke-width="0.33" stroke-linecap="round" stroke-linejoin="round"/>
<path d="M409.399 74.0776H409.282C408.989 74.0776 408.755 74.3117 408.755 74.6044V99.4247C408.755 99.7174 408.989 99.9516 409.282 99.9516H409.399C409.692 99.9516 409.926 99.7174 409.926 99.4247V74.6044C409.926 74.3117 409.75 74.0776 409.399 74.0776C409.399 74.0776 409.457 74.0776 409.399 74.0776Z" fill="#F4EDDA"/>
<path d="M443.234 96.732L444.99 125.767C445.049 126.118 445.225 126.411 445.517 126.528C446.337 126.938 447.332 126.938 448.151 126.528C448.327 126.47 448.444 126.352 448.503 126.235C448.62 126.118 448.678 125.943 448.678 125.767L450.434 96.7905L443.234 96.732Z" fill="#FFAA05" stroke="black" stroke-width="0.33" stroke-linecap="round" stroke-linejoin="round"/>
<path d="M446.864 126.821C447.332 126.821 447.742 126.704 448.151 126.528C448.327 126.47 448.444 126.352 448.503 126.235C448.62 126.118 448.678 125.943 448.678 125.767L450.434 96.7906H446.805" fill="#BF8004"/>
<path d="M446.864 126.821C447.332 126.821 447.742 126.704 448.151 126.528C448.327 126.47 448.444 126.352 448.503 126.235C448.62 126.118 448.678 125.943 448.678 125.767L450.434 96.7906H446.805" stroke="black" stroke-width="0.33" stroke-linecap="round" stroke-linejoin="round"/>
<path d="M442.532 90.1757V96.6149C442.59 97.3759 443.117 98.0783 443.819 98.371C445.751 99.3662 448.034 99.3662 449.966 98.371C450.668 98.0783 451.137 97.3759 451.195 96.6149V90.1757H442.532Z" fill="#DCC88C" stroke="black" stroke-width="0.33" stroke-linecap="round" stroke-linejoin="round"/>
<path d="M448.737 94.6834V98.9567C449.147 98.8396 449.556 98.664 449.966 98.4884C450.669 98.1957 451.137 97.4933 451.196 96.7323V94.7419L448.737 94.6834Z" fill="black"/>
<path d="M451.195 90.2336C451.137 90.9946 450.668 91.697 449.966 91.9897C448.034 92.9849 445.751 92.9849 443.819 91.9897C443.117 91.697 442.649 90.9946 442.532 90.2336V90.175C442.59 89.414 443.058 88.7116 443.761 88.4189C445.693 87.4237 447.976 87.4237 449.907 88.4189C450.61 88.7701 451.137 89.414 451.195 90.2336Z" fill="#F4EDDA"/>
<path d="M450.727 92.7522C450.61 92.6936 450.434 92.6351 450.259 92.6937C450.083 92.6937 449.966 92.7522 449.849 92.8693C449.498 93.1034 449.205 93.3961 448.971 93.8059C448.737 94.1571 448.62 94.5669 448.62 95.0352C448.62 95.2108 448.62 95.3279 448.678 95.5035C448.737 95.6206 448.854 95.7376 448.971 95.8547L453.537 98.489L455.293 95.5035L450.727 92.7522Z" fill="#F4EDDA" stroke="black" stroke-width="0.33" stroke-linecap="round" stroke-linejoin="round"/>
<path d="M457.049 94.566C457.108 94.7417 457.108 94.9758 457.049 95.1514L455.703 98.6637C455.645 98.8394 455.469 99.015 455.293 99.132L454.708 99.4833L454.181 100.596L453.771 101.415L452.074 100.42C451.957 100.361 451.839 100.244 451.781 100.186L450.903 98.8979C450.844 98.7808 450.786 98.6637 450.727 98.5467C450.669 98.371 450.727 98.1954 450.786 98.0198L452.132 94.5075C452.191 94.3319 452.366 94.1563 452.542 94.0392L454.884 92.6928C455.001 92.6343 455.176 92.5757 455.352 92.5757C455.527 92.5757 455.644 92.6343 455.82 92.6928L457.518 93.6294L457.049 94.566Z" fill="#F4EDDA" stroke="black" stroke-width="0.33" stroke-linecap="round" stroke-linejoin="round"/>
<path d="M454.122 100.595L453.713 101.415L452.015 100.419C451.898 100.361 451.781 100.244 451.722 100.185L450.844 98.8974C450.786 98.7803 450.727 98.6633 450.669 98.5462C451.722 99.1901 453.244 100.068 454.122 100.595Z" fill="black"/>
<path d="M457.459 93.7464C457.342 93.6879 457.166 93.6293 456.991 93.6293C456.815 93.6293 456.698 93.6879 456.522 93.7464L454.181 95.0928C454.005 95.2099 453.888 95.3855 453.771 95.5611L452.366 99.0734C452.308 99.1905 452.308 99.3661 452.308 99.5417C452.308 99.7173 452.366 99.8344 452.483 99.9515L453.361 101.239C453.42 101.356 453.537 101.415 453.654 101.473C453.771 101.532 453.947 101.591 454.122 101.591C454.298 101.591 454.415 101.532 454.591 101.473L456.932 100.127C457.108 100.01 457.225 99.8929 457.342 99.6588L458.688 96.1465C458.747 96.0294 458.747 95.8538 458.747 95.6782C458.747 95.5026 458.688 95.3855 458.571 95.2684L457.693 93.9806C457.635 93.922 457.518 93.8635 457.459 93.7464Z" fill="#E2D1A0" stroke="black" stroke-width="0.33" stroke-linecap="round" stroke-linejoin="round"/>
<path d="M456.405 96.4986C456.522 96.5571 456.581 96.6742 456.639 96.7328C456.698 96.8498 456.698 96.9669 456.698 97.084C456.698 97.3767 456.581 97.6694 456.405 97.9621C456.23 98.2547 456.054 98.4304 455.761 98.606C455.644 98.6645 455.586 98.7231 455.469 98.7231C455.352 98.7231 455.234 98.7231 455.117 98.6645C455 98.606 454.942 98.4889 454.883 98.4304C454.825 98.3133 454.825 98.1962 454.825 98.0791C454.825 97.7864 454.942 97.4938 455.117 97.2011C455.293 96.9084 455.469 96.7328 455.761 96.5571C455.878 96.4986 455.937 96.4401 456.054 96.4401C456.171 96.4401 456.288 96.4401 456.405 96.4986Z" fill="#DCC88C" stroke="black" stroke-width="0.33" stroke-linecap="round" stroke-linejoin="round"/>
<path d="M440.717 88.0685V89.8247C440.717 90.7613 441.303 91.6394 442.532 92.3418C445.283 93.7467 448.444 93.7467 451.196 92.3418C452.366 91.6394 452.952 90.7613 452.952 89.8832V88.127L440.717 88.0685Z" fill="#E2D1A0" stroke="black" stroke-width="0.33" stroke-linecap="round" stroke-linejoin="round"/>
<path d="M453.01 88.1267C453.01 89.0048 452.425 89.9414 451.254 90.5854C448.503 91.9903 445.342 91.9903 442.59 90.5854C441.42 89.8829 440.776 89.0048 440.776 88.0682C440.776 87.1901 441.361 86.312 442.532 85.6096C444.932 84.2047 448.795 84.2632 451.195 85.6096C452.366 86.3706 453.01 87.2487 453.01 88.1267Z" fill="#F4EDDA" stroke="black" stroke-width="0.33" stroke-linecap="round" stroke-linejoin="round"/>
<path d="M411.565 79.4633C411.565 79.4633 411.74 77.473 413.672 78.5852" stroke="black" stroke-width="0.33" stroke-linecap="round" stroke-linejoin="round"/>
<path d="M404.95 148.422C404.95 148.422 407.818 149.358 407.818 147.778" stroke="black" stroke-width="0.33" stroke-linecap="round" stroke-linejoin="round"/>
<path d="M375.271 196.54C381.827 196.54 387.096 193.906 387.096 190.686C387.096 187.467 381.827 184.832 375.271 184.832C368.715 184.832 363.446 187.467 363.446 190.686C363.446 193.906 368.715 196.54 375.271 196.54Z" fill="black" stroke="black" stroke-width="0.33" stroke-linecap="round" stroke-linejoin="round"/>
<path d="M383.525 189.164C382.062 186.764 377.554 185.067 372.227 185.067C366.725 185.067 362.1 186.94 360.812 189.399H360.402V190.862C360.402 194.082 365.671 196.716 372.227 196.716C378.784 196.716 384.052 194.082 384.052 190.862V189.34L383.525 189.164Z" fill="#A9BB7A" stroke="black" stroke-width="0.33" stroke-linecap="round" stroke-linejoin="round"/>
<path d="M372.168 196.716C378.666 196.716 383.993 194.082 383.993 190.862V189.399L383.466 189.164C381.944 186.764 377.495 185.067 372.168 185.067" fill="#708D22"/>
<path d="M372.168 196.716C378.666 196.716 383.993 194.082 383.993 190.862V189.399L383.466 189.164C381.944 186.764 377.495 185.067 372.168 185.067" stroke="black" stroke-width="0.33" stroke-linecap="round" stroke-linejoin="round"/>
<path d="M361.573 193.496C360.812 192.852 360.402 191.915 360.344 190.92V189.398L361.573 188.813" fill="#CBD6AF"/>
<path d="M361.573 193.496C360.812 192.852 360.402 191.915 360.344 190.92V189.398L361.573 188.813" stroke="black" stroke-width="0.33" stroke-linecap="round" stroke-linejoin="round"/>
<path d="M372.169 195.252C378.725 195.252 383.993 192.618 383.993 189.398C383.993 186.179 378.666 183.544 372.169 183.544C365.671 183.544 360.344 186.179 360.344 189.398C360.344 192.618 365.671 195.252 372.169 195.252Z" fill="white" stroke="black" stroke-width="0.33" stroke-linecap="round" stroke-linejoin="round"/>
<path d="M361.983 188.696C362.334 187.701 363.037 186.823 363.973 186.296C364.325 186.121 364.676 186.121 365.027 186.238L369.534 188.462C370.003 188.696 369.652 189.048 369.066 189.048H362.685C362.276 189.106 361.924 188.931 361.983 188.696ZM370.764 184.365C369.125 184.482 367.486 184.774 365.964 185.36C365.612 185.477 365.612 185.711 365.905 185.887L370.413 188.111C370.822 188.345 371.583 188.17 371.583 187.877V184.716C371.583 184.482 371.232 184.365 370.764 184.365ZM369.008 189.692H362.685C362.276 189.692 361.924 189.867 361.983 190.101C362.334 191.097 363.037 191.975 363.973 192.501C364.149 192.56 364.325 192.619 364.5 192.619C364.676 192.619 364.851 192.619 365.027 192.501L369.534 190.277C370.003 190.043 369.71 189.692 369.008 189.692ZM372.754 184.716V187.877C372.754 188.17 373.515 188.345 373.925 188.111L378.432 185.887C378.725 185.77 378.725 185.477 378.374 185.36C376.852 184.774 375.213 184.482 373.574 184.365C373.105 184.365 372.754 184.482 372.754 184.716ZM374.803 190.277L379.31 192.501C379.486 192.56 379.662 192.619 379.837 192.619C380.013 192.619 380.188 192.56 380.364 192.501C381.301 191.975 382.003 191.155 382.354 190.101C382.413 189.867 382.062 189.692 381.652 189.692H375.33C374.686 189.692 374.393 190.043 374.803 190.277ZM375.271 189.106H381.652C382.062 189.106 382.413 188.931 382.354 188.696C382.003 187.701 381.301 186.823 380.364 186.296C380.188 186.238 380.013 186.179 379.837 186.179C379.662 186.179 379.486 186.179 379.31 186.296L374.803 188.521C374.393 188.755 374.686 189.106 375.271 189.106ZM370.354 190.687L365.905 192.911C365.612 193.028 365.612 193.321 365.964 193.438C367.486 194.023 369.125 194.316 370.764 194.433C371.174 194.433 371.583 194.316 371.583 194.082V190.921C371.583 190.628 370.822 190.453 370.354 190.687ZM372.754 190.921V194.082C372.754 194.316 373.105 194.433 373.574 194.433C375.213 194.316 376.852 194.023 378.374 193.438C378.725 193.321 378.725 193.087 378.432 192.911L373.925 190.687C373.515 190.511 372.754 190.628 372.754 190.921Z" fill="#C3F53C" stroke="black" stroke-width="0.33" stroke-linecap="round" stroke-linejoin="round"/>
<path d="M385.34 185.535C383.818 183.135 379.369 181.437 374.042 181.437C368.539 181.437 363.915 183.31 362.568 185.769H362.159V187.233C362.159 190.452 367.427 193.086 373.983 193.086C380.54 193.086 385.808 190.452 385.808 187.233V185.769L385.34 185.535Z" fill="#A9BB7A" stroke="black" stroke-width="0.33" stroke-linecap="round" stroke-linejoin="round"/>
<path d="M374.042 193.145C380.54 193.145 385.867 190.511 385.867 187.291V185.769L385.34 185.535C383.818 183.135 379.369 181.437 374.042 181.437" fill="#708D22"/>
<path d="M374.042 193.145C380.54 193.145 385.867 190.511 385.867 187.291V185.769L385.34 185.535C383.818 183.135 379.369 181.437 374.042 181.437" stroke="black" stroke-width="0.33" stroke-linecap="round" stroke-linejoin="round"/>
<path d="M363.388 189.866C362.686 189.222 362.217 188.286 362.159 187.291V185.769L363.388 185.183" fill="#CBD6AF"/>
<path d="M363.388 189.866C362.686 189.222 362.217 188.286 362.159 187.291V185.769L363.388 185.183" stroke="black" stroke-width="0.33" stroke-linecap="round" stroke-linejoin="round"/>
<path d="M374.042 191.623C380.598 191.623 385.867 188.988 385.867 185.769C385.867 182.549 380.598 179.915 374.042 179.915C367.486 179.915 362.217 182.549 362.217 185.769C362.217 188.988 367.486 191.623 374.042 191.623Z" fill="white" stroke="black" stroke-width="0.33" stroke-linecap="round" stroke-linejoin="round"/>
<path d="M363.856 185.125C364.207 184.13 364.91 183.252 365.846 182.725C366.022 182.666 366.198 182.608 366.373 182.608C366.549 182.608 366.724 182.608 366.9 182.725L371.407 184.949C371.876 185.184 371.525 185.535 370.939 185.535H364.558C364.149 185.476 363.797 185.301 363.856 185.125ZM372.637 180.793C370.998 180.91 369.359 181.203 367.837 181.788C367.485 181.905 367.485 182.14 367.778 182.315L372.286 184.54C372.754 184.774 373.456 184.598 373.456 184.306V181.086C373.398 180.91 373.047 180.735 372.637 180.793ZM370.881 186.062H364.558C364.149 186.062 363.797 186.237 363.856 186.471C364.207 187.467 364.91 188.345 365.846 188.872C366.022 188.93 366.198 188.989 366.373 188.989C366.549 188.989 366.724 188.989 366.9 188.872L371.407 186.647C371.817 186.471 371.525 186.062 370.881 186.062ZM374.569 181.086V184.247C374.569 184.54 375.33 184.715 375.739 184.481L380.247 182.257C380.539 182.14 380.539 181.847 380.188 181.73C378.666 181.144 377.027 180.852 375.388 180.735C375.037 180.735 374.686 180.852 374.686 181.086H374.569ZM376.617 186.647L381.125 188.872C381.476 188.989 381.827 188.989 382.179 188.813C383.115 188.286 383.818 187.467 384.169 186.413C384.227 186.179 383.876 186.003 383.466 186.003H377.144C376.559 186.062 376.208 186.471 376.617 186.647ZM377.144 185.476H383.525C383.935 185.476 384.286 185.301 384.227 185.067C383.876 184.071 383.174 183.193 382.237 182.666C382.061 182.608 381.886 182.549 381.71 182.549C381.535 182.549 381.359 182.549 381.183 182.666L376.676 184.891C376.208 185.125 376.5 185.476 377.144 185.476ZM372.168 187.115L367.661 189.34C367.368 189.457 367.368 189.75 367.72 189.867C369.3 190.452 370.881 190.745 372.52 190.862C372.929 190.862 373.339 190.745 373.339 190.511V187.35C373.398 187.057 372.637 186.881 372.168 187.115ZM374.569 187.35V190.511C374.569 190.745 374.92 190.862 375.388 190.862C377.027 190.745 378.666 190.452 380.188 189.867C380.539 189.75 380.539 189.515 380.247 189.34L375.798 187.115C375.33 186.881 374.627 187.057 374.627 187.35H374.569Z" fill="#C3F53C" stroke="black" stroke-width="0.33" stroke-linecap="round" stroke-linejoin="round"/>
<path d="M362.276 185.124C363.68 187.583 368.246 189.398 373.69 189.398C379.778 189.398 384.754 187.115 385.457 184.246C384.052 181.788 379.486 179.973 374.042 179.973C367.954 179.973 362.978 182.197 362.276 185.124Z" fill="black" stroke="black" stroke-width="0.33" stroke-linecap="round" stroke-linejoin="round"/>
<path d="M384.11 181.496C382.588 179.096 378.139 177.398 372.812 177.398C367.31 177.398 362.685 179.213 361.339 181.73H360.929V183.194C360.929 186.413 366.198 189.047 372.754 189.047C379.31 189.047 384.579 186.413 384.579 183.194V181.73L384.11 181.496Z" fill="#A9BB7A" stroke="black" stroke-width="0.33" stroke-linecap="round" stroke-linejoin="round"/>
<path d="M372.813 189.106C379.31 189.106 384.637 186.472 384.637 183.252V181.789L384.111 181.554C382.589 179.154 378.14 177.457 372.813 177.457" fill="#708D22"/>
<path d="M372.813 189.106C379.31 189.106 384.637 186.472 384.637 183.252V181.789L384.111 181.554C382.589 179.154 378.14 177.457 372.813 177.457" stroke="black" stroke-width="0.33" stroke-linecap="round" stroke-linejoin="round"/>
<path d="M362.158 185.828C361.456 185.184 360.988 184.247 360.929 183.252V181.789L362.158 181.203" fill="#CBD6AF"/>
<path d="M362.158 185.828C361.456 185.184 360.988 184.247 360.929 183.252V181.789L362.158 181.203" stroke="black" stroke-width="0.33" stroke-linecap="round" stroke-linejoin="round"/>
<path d="M372.813 187.584C379.369 187.584 384.637 184.95 384.637 181.73C384.637 178.511 379.31 175.876 372.813 175.876C366.315 175.876 360.988 178.511 360.988 181.73C360.988 184.95 366.256 187.584 372.813 187.584Z" fill="white" stroke="black" stroke-width="0.33" stroke-linecap="round" stroke-linejoin="round"/>
<path d="M362.627 181.085C362.978 180.09 363.681 179.212 364.617 178.685C364.968 178.509 365.32 178.509 365.671 178.626L370.178 180.851C370.647 181.085 370.295 181.436 369.71 181.436H363.329C362.861 181.436 362.568 181.261 362.627 181.085ZM371.408 176.695C369.769 176.812 368.13 177.104 366.549 177.69C366.198 177.807 366.198 178.041 366.49 178.217L370.998 180.441C371.466 180.675 372.169 180.5 372.169 180.207V177.046C372.169 176.87 371.817 176.695 371.408 176.695ZM369.652 182.022H363.329C362.92 182.022 362.568 182.197 362.627 182.431C362.978 183.426 363.681 184.305 364.617 184.831C364.793 184.89 364.968 184.949 365.144 184.949C365.32 184.949 365.495 184.948 365.671 184.831L370.178 182.607C370.588 182.431 370.295 182.022 369.652 182.022ZM373.398 177.046V180.207C373.398 180.5 374.159 180.675 374.569 180.441L379.076 178.217C379.369 178.1 379.369 177.807 379.018 177.69C377.496 177.104 375.857 176.812 374.218 176.695C373.808 176.695 373.398 176.87 373.398 177.046ZM375.388 182.607L379.896 184.831C380.071 184.89 380.247 184.949 380.423 184.949C380.598 184.949 380.774 184.89 380.949 184.831C381.886 184.305 382.589 183.485 382.94 182.431C382.998 182.197 382.647 182.022 382.237 182.022H375.915C375.33 182.022 374.979 182.431 375.388 182.607ZM375.915 181.436H382.296C382.706 181.436 383.057 181.261 382.998 181.026C382.647 180.031 381.945 179.153 381.008 178.626C380.832 178.568 380.657 178.509 380.481 178.509C380.306 178.509 380.13 178.509 379.954 178.626L375.447 180.851C374.979 181.085 375.271 181.436 375.915 181.436ZM370.998 183.075L366.549 185.3C366.256 185.417 366.256 185.71 366.608 185.827C368.188 186.412 369.769 186.705 371.466 186.822C371.876 186.822 372.286 186.705 372.286 186.471V183.309C372.169 183.017 371.466 182.841 370.998 183.075ZM373.398 183.309V186.471C373.398 186.705 373.749 186.822 374.218 186.822C375.857 186.705 377.496 186.412 379.018 185.827C379.369 185.71 379.369 185.475 379.076 185.3L374.569 183.075C374.159 182.841 373.398 183.017 373.398 183.309Z" fill="#C3F53C" stroke="black" stroke-width="0.33" stroke-linecap="round" stroke-linejoin="round"/>
</svg>
