<svg width="322" height="540" viewBox="0 0 322 540" fill="none" xmlns="http://www.w3.org/2000/svg">
<g clip-path="url(#clip0)">
<rect width="322" height="540" rx="16" fill="#F0EBE6"/>
<path opacity="0.15" d="M36.2422 361.906L109.216 350.062L142.838 398.297L69.7682 410.141L36.2422 361.906Z" fill="black"/>
<path opacity="0.15" d="M295.089 394.859L165.379 354.265L35 447.966L147.804 483.306L175.981 480.632L295.089 394.859Z" fill="black"/>
<path d="M295.09 388.077L291.842 390.465L295.09 391.516L258.794 417.592L295.09 391.516V388.077Z" fill="#CFF4CF" stroke="black" stroke-width="0.33" stroke-linecap="round" stroke-linejoin="round"/>
<path d="M175.981 473.85L291.842 390.465L175.981 473.85L147.804 476.525L110.171 464.776L147.804 476.525V479.963L35 444.527L147.804 479.963L175.981 477.193L258.793 417.591L175.981 477.193V473.85Z" fill="#04C604"/>
<path d="M175.981 473.85L291.842 390.465L175.981 473.85ZM175.981 473.85L147.804 476.525L110.171 464.776L147.804 476.525V479.963L35 444.527L147.804 479.963L175.981 477.193L258.793 417.591L175.981 477.193V473.85Z" stroke="#026302" stroke-width="0.33" stroke-linecap="round" stroke-linejoin="round"/>
<path d="M291.841 390.465L175.98 473.85V477.193L258.793 417.591L295.089 391.516L291.841 390.465Z" fill="#04C604" stroke="#026302" stroke-width="0.33" stroke-linecap="round" stroke-linejoin="round"/>
<path d="M147.804 476.525L110.171 464.776L35 441.184V444.527L147.804 479.963V476.525Z" fill="#04C604" stroke="#026302" stroke-width="0.33" stroke-linecap="round" stroke-linejoin="round"/>
<path d="M147.805 476.525L175.982 473.85L291.842 390.465L165.38 350.826L38.248 442.235L110.171 464.776L147.805 476.525Z" fill="#E7FBB0" stroke="black" stroke-width="0.33" stroke-linecap="round" stroke-linejoin="round"/>
<path d="M110.171 464.776L38.248 442.235L110.171 464.776Z" fill="#FFAA08" stroke="black" stroke-width="0.33" stroke-linecap="round" stroke-linejoin="round"/>
<path d="M291.843 390.465L295.09 388.077L165.38 347.483V350.826L291.843 390.465Z" fill="#04C604" stroke="#026302" stroke-width="0.33" stroke-linecap="round" stroke-linejoin="round"/>
<path d="M165.379 347.483L35 441.184L38.2475 442.235L165.379 350.826V347.483Z" fill="#04C604" stroke="#026302" stroke-width="0.33" stroke-linecap="round" stroke-linejoin="round"/>
<path d="M173.02 369.356L61.5527 449.494" stroke="black" stroke-width="0.33" stroke-linecap="round" stroke-linejoin="round"/>
<path d="M159.074 360.76L150.573 358.085L157.737 352.927L166.238 355.602L159.074 360.76Z" fill="#C3F53A" stroke="black" stroke-width="0.33" stroke-linecap="round" stroke-linejoin="round"/>
<path d="M257.457 415.204L127.746 374.609" stroke="black" stroke-width="0.33" stroke-linecap="round" stroke-linejoin="round"/>
<path d="M166.334 394.381L160.126 392.471C159.171 392.184 158.98 391.611 159.553 391.134L160.317 390.561C160.89 390.083 162.227 389.988 163.087 390.274L169.295 392.184C170.251 392.471 170.442 393.044 169.869 393.522L169.104 394.095C168.531 394.572 167.29 394.668 166.334 394.381Z" fill="#FFAA08" stroke="black" stroke-width="0.33" stroke-linecap="round" stroke-linejoin="round"/>
<path d="M186.106 400.59L179.897 398.679C178.942 398.393 178.751 397.82 179.324 397.342L180.088 396.769C180.662 396.292 181.999 396.196 182.858 396.483L189.067 398.393C190.022 398.679 190.213 399.253 189.64 399.73L188.876 400.303C188.303 400.781 187.061 400.876 186.106 400.59Z" fill="#FFAA08" stroke="black" stroke-width="0.33" stroke-linecap="round" stroke-linejoin="round"/>
<path d="M205.878 406.798L199.67 404.888C198.715 404.601 198.524 404.028 199.097 403.551L200.243 402.786C200.816 402.309 201.771 402.5 202.726 402.786L208.935 404.697C209.89 404.983 210.081 405.556 209.508 406.034L208.744 406.607C208.075 406.894 206.834 407.085 205.878 406.798Z" fill="#CDF4CD" stroke="black" stroke-width="0.33" stroke-linecap="round" stroke-linejoin="round"/>
<path d="M227.847 414.058L221.639 412.147C220.683 411.861 220.492 411.288 221.066 410.81L221.83 410.237C222.403 409.759 223.74 409.664 224.6 409.95L230.808 411.861C231.763 412.147 231.954 412.72 231.381 413.198L230.617 413.771C229.948 414.249 228.707 414.344 227.847 414.058Z" fill="#FFAA08" stroke="black" stroke-width="0.33" stroke-linecap="round" stroke-linejoin="round"/>
<path d="M245.516 423.8L115.806 383.11" stroke="black" stroke-width="0.33" stroke-linecap="round" stroke-linejoin="round"/>
<path d="M154.491 402.978L148.282 401.067C147.327 400.781 147.136 400.208 147.709 399.73L148.473 399.157C149.046 398.679 150.384 398.584 151.243 398.87L157.452 400.781C158.407 401.067 158.598 401.64 158.025 402.118L157.261 402.691C156.592 403.169 155.35 403.264 154.491 402.978Z" fill="#CDF4CD" stroke="black" stroke-width="0.33" stroke-linecap="round" stroke-linejoin="round"/>
<path d="M174.166 409.186L167.958 407.276C167.003 406.989 166.812 406.416 167.385 405.939L168.149 405.366C168.722 404.888 170.059 404.792 170.919 405.079L177.127 406.989C178.083 407.276 178.274 407.849 177.701 408.327L176.936 408.9C176.363 409.282 175.122 409.473 174.166 409.186Z" fill="#FFAA08" stroke="black" stroke-width="0.33" stroke-linecap="round" stroke-linejoin="round"/>
<path d="M209.167 416.32L210.222 416.654C211.033 416.912 212.056 416.729 212.867 416.148C213.674 415.57 213.641 415.049 212.83 414.792L211.77 414.456L209.167 416.32ZM210.318 416.162L211.91 415.023L212.32 415.153C212.756 415.291 212.742 415.571 212.221 415.944C211.701 416.316 211.164 416.431 210.728 416.292L210.318 416.162Z" fill="black"/>
<path d="M113.61 429.054L107.401 427.143C106.446 426.857 106.255 426.284 106.828 425.806L107.592 425.233C108.165 424.755 109.503 424.66 110.362 424.946L116.571 426.857C117.526 427.143 117.717 427.716 117.144 428.194L116.38 428.767C115.807 429.245 114.565 429.34 113.61 429.054Z" fill="#FFAA08" stroke="black" stroke-width="0.33" stroke-linecap="round" stroke-linejoin="round"/>
<path d="M133.286 435.262L127.077 433.352C126.122 433.065 125.931 432.492 126.504 432.014L127.268 431.441C127.841 430.964 129.178 430.868 130.038 431.155L136.247 433.065C137.202 433.352 137.393 433.925 136.82 434.402L136.056 434.975C135.482 435.453 134.241 435.549 133.286 435.262Z" fill="#FFAA08" stroke="black" stroke-width="0.33" stroke-linecap="round" stroke-linejoin="round"/>
<path d="M153.058 441.47L146.85 439.56C145.894 439.274 145.703 438.7 146.276 438.223L147.423 437.459C147.996 436.981 148.951 437.172 149.906 437.459L156.115 439.369C157.07 439.656 157.261 440.229 156.688 440.706L155.924 441.279C155.255 441.661 154.013 441.757 153.058 441.47Z" fill="black" stroke="black" stroke-width="0.33" stroke-linecap="round" stroke-linejoin="round"/>
<path d="M172.83 447.679L166.621 445.769C165.666 445.482 165.475 444.909 166.048 444.431L166.812 443.858C167.385 443.381 168.722 443.285 169.582 443.572L175.791 445.482C176.746 445.769 176.937 446.342 176.364 446.819L175.6 447.392C175.026 447.87 173.785 447.966 172.83 447.679Z" fill="#CDF4CD" stroke="black" stroke-width="0.33" stroke-linecap="round" stroke-linejoin="round"/>
<path d="M233.673 432.396L103.867 391.707" stroke="black" stroke-width="0.33" stroke-linecap="round" stroke-linejoin="round"/>
<path d="M207.598 451.118L77.792 410.428" stroke="black" stroke-width="0.33" stroke-linecap="round" stroke-linejoin="round"/>
<path d="M195.658 459.714L65.8516 419.024" stroke="black" stroke-width="0.33" stroke-linecap="round" stroke-linejoin="round"/>
<path d="M150.479 358.181L267.676 394.954" stroke="black" stroke-width="0.33" stroke-linecap="round" stroke-linejoin="round"/>
<path d="M149.715 362.097L263.952 397.629" stroke="black" stroke-width="0.33" stroke-linecap="round" stroke-linejoin="round"/>
<path d="M155.732 373.081C159.847 373.081 163.183 371.499 163.183 369.547C163.183 367.595 159.847 366.013 155.732 366.013C151.618 366.013 148.282 367.595 148.282 369.547C148.282 371.499 151.618 373.081 155.732 373.081Z" fill="#C3F53A" stroke="black" stroke-width="0.33" stroke-linecap="round" stroke-linejoin="round"/>
<path d="M136.342 387.026C140.456 387.026 143.792 385.444 143.792 383.492C143.792 381.541 140.456 379.958 136.342 379.958C132.227 379.958 128.892 381.541 128.892 383.492C128.892 385.444 132.227 387.026 136.342 387.026Z" fill="black" stroke="black" stroke-width="0.33" stroke-linecap="round" stroke-linejoin="round"/>
<path d="M124.403 395.528C128.518 395.528 131.854 393.945 131.854 391.993C131.854 390.042 128.518 388.459 124.403 388.459C120.289 388.459 116.953 390.042 116.953 391.993C116.953 393.945 120.289 395.528 124.403 395.528Z" fill="#C3F53A" stroke="black" stroke-width="0.33" stroke-linecap="round" stroke-linejoin="round"/>
<path d="M112.558 404.124C116.672 404.124 120.008 402.542 120.008 400.59C120.008 398.638 116.672 397.056 112.558 397.056C108.443 397.056 105.107 398.638 105.107 400.59C105.107 402.542 108.443 404.124 112.558 404.124Z" fill="#C3F53A" stroke="black" stroke-width="0.33" stroke-linecap="round" stroke-linejoin="round"/>
<path d="M86.4825 422.845C90.5971 422.845 93.9327 421.263 93.9327 419.311C93.9327 417.359 90.5971 415.777 86.4825 415.777C82.3678 415.777 79.0322 417.359 79.0322 419.311C79.0322 421.263 82.3678 422.845 86.4825 422.845Z" fill="#C3F53A" stroke="black" stroke-width="0.33" stroke-linecap="round" stroke-linejoin="round"/>
<path d="M134.146 408.9L203.968 430.773" stroke="black" stroke-width="0.33" stroke-linecap="round" stroke-linejoin="round"/>
<path d="M130.42 411.574L200.242 433.447" stroke="black" stroke-width="0.33" stroke-linecap="round" stroke-linejoin="round"/>
<path d="M96.2256 436.217L165.952 458.09" stroke="black" stroke-width="0.33" stroke-linecap="round" stroke-linejoin="round"/>
<path d="M92.501 438.892L162.227 460.765" stroke="black" stroke-width="0.33" stroke-linecap="round" stroke-linejoin="round"/>
<path d="M81.708 448.348L151.53 470.221" stroke="black" stroke-width="0.33" stroke-linecap="round" stroke-linejoin="round"/>
<path opacity="0.25" d="M91.1631 400.781L142.36 393.999L131.184 373.464L91.1631 400.781Z" fill="black"/>
<path d="M126.696 414.249L196.518 436.122" stroke="black" stroke-width="0.33" stroke-linecap="round" stroke-linejoin="round"/>
<path d="M122.97 416.923L175.885 433.543" stroke="black" stroke-width="0.33" stroke-linecap="round" stroke-linejoin="round"/>
<path d="M218.581 398.202L229.183 390.943L177.414 374.609L166.716 382.06L218.581 398.202Z" stroke="black" stroke-width="0.33" stroke-linecap="round" stroke-linejoin="round"/>
<path d="M81.9956 383.397L78.748 382.442V385.594L81.9956 383.397Z" fill="#FFAA08" stroke="black" stroke-width="0.33" stroke-linecap="round" stroke-linejoin="round"/>
<path d="M118.292 373.463C122.407 373.463 125.742 372.009 125.742 370.216C125.742 368.422 122.407 366.968 118.292 366.968C114.177 366.968 110.842 368.422 110.842 370.216C110.842 372.009 114.177 373.463 118.292 373.463Z" fill="black" stroke="black" stroke-width="0.33" stroke-linecap="round" stroke-linejoin="round"/>
<path d="M36.2432 333.92L109.217 322.076L142.839 385.88L69.7692 397.724L36.2432 333.92Z" fill="#FFAA08" stroke="black" stroke-width="0.33" stroke-linecap="round" stroke-linejoin="round"/>
<path d="M144.08 383.206L71.1056 395.05L44.2656 344.14L117.24 332.296L144.08 383.206Z" fill="#04C604" stroke="black" stroke-width="0.33" stroke-linecap="round" stroke-linejoin="round"/>
<path d="M114.756 344.618L74.1622 351.208C73.1115 351.399 71.9653 351.017 71.5832 350.253L71.3922 349.871C71.0101 349.202 71.5832 348.534 72.6339 348.343L113.228 341.752C114.279 341.561 115.425 341.943 115.807 342.707L115.998 343.089C116.38 343.758 115.807 344.426 114.756 344.618Z" fill="black" stroke="black" stroke-width="0.33" stroke-linecap="round" stroke-linejoin="round"/>
<path d="M67.1906 352.354L58.3077 353.787C57.257 353.978 56.1108 353.596 55.7287 352.832L55.5377 352.45C55.1556 351.781 55.7287 351.113 56.7794 350.921L65.6624 349.489C66.7131 349.298 67.8592 349.68 68.2413 350.444L68.4323 350.826C68.8144 351.495 68.2413 352.163 67.1906 352.354Z" fill="#2C542C" stroke="black" stroke-width="0.33" stroke-linecap="round" stroke-linejoin="round"/>
<path d="M67.1906 351.686L58.3077 353.118C57.257 353.309 56.1108 352.927 55.7287 352.163L55.5377 351.781C55.1556 351.113 55.7287 350.444 56.7794 350.253L65.6624 348.82C66.7131 348.629 67.8592 349.011 68.2413 349.775L68.4323 350.157C68.8144 350.826 68.2413 351.59 67.1906 351.686Z" fill="#9BE89B" stroke="#000E07" stroke-width="0.33" stroke-linecap="round" stroke-linejoin="round"/>
<path d="M83.0451 349.775L74.1622 351.208C73.1115 351.399 71.9653 351.017 71.5832 350.253L71.3922 349.871C71.0101 349.202 71.5832 348.534 72.6339 348.343L81.5169 346.91C82.5675 346.719 83.7137 347.101 84.0958 347.865L84.2868 348.247C84.6689 348.916 84.0958 349.584 83.0451 349.775Z" fill="#04C604" stroke="black" stroke-width="0.33" stroke-linecap="round" stroke-linejoin="round"/>
<path d="M83.0451 349.107L74.1622 350.539C73.1115 350.73 71.9653 350.348 71.5832 349.584L71.3922 349.298C71.0101 348.629 71.5832 347.961 72.6339 347.77L81.5169 346.337C82.5675 346.146 83.7137 346.528 84.0958 347.292L84.2868 347.674C84.6689 348.247 84.0958 349.011 83.0451 349.107Z" fill="#C3F53A" stroke="black" stroke-width="0.33" stroke-linecap="round" stroke-linejoin="round"/>
<path d="M114.852 319.401L41.8779 331.245L44.2658 344.14L117.24 332.296L114.852 319.401Z" fill="black" stroke="black" stroke-width="0.33" stroke-linecap="round" stroke-linejoin="round"/>
<path opacity="0.5" d="M73.3026 361.906L64.4197 363.339C63.369 363.53 62.2228 363.052 61.8407 362.383L60.5035 359.9C60.1215 359.231 60.6946 358.563 61.7452 358.372L70.6282 356.939C71.6789 356.748 72.8251 357.13 73.2071 357.894L74.5443 360.378C74.9264 361.046 74.3533 361.715 73.3026 361.906Z" fill="#237723" stroke="#237723" stroke-width="0.33" stroke-linecap="round" stroke-linejoin="round"/>
<path opacity="0.5" d="M89.1591 359.327L80.2761 360.76C79.2254 360.951 78.0793 360.569 77.6972 359.804L76.36 357.321C75.9779 356.652 76.551 355.984 77.6017 355.793L86.4846 354.36C87.5353 354.169 88.6815 354.551 89.0636 355.315L90.4008 357.799C90.7829 358.467 90.2098 359.136 89.1591 359.327Z" fill="#237723" stroke="#237723" stroke-width="0.33" stroke-linecap="round" stroke-linejoin="round"/>
<path opacity="0.5" d="M105.015 356.844L96.1316 358.276C95.0809 358.467 93.9347 358.085 93.5527 357.321L92.2154 354.838C91.8334 354.169 92.4065 353.5 93.4571 353.309L102.34 351.877C103.391 351.686 104.537 352.068 104.919 352.832L106.256 355.315C106.638 355.888 106.065 356.652 105.015 356.844Z" fill="#237723" stroke="#237723" stroke-width="0.33" stroke-linecap="round" stroke-linejoin="round"/>
<path opacity="0.5" d="M120.871 354.169L111.988 355.602C110.937 355.793 109.791 355.411 109.409 354.647L108.072 352.163C107.69 351.495 108.263 350.826 109.314 350.635L118.197 349.202C119.247 349.011 120.393 349.393 120.775 350.157L122.113 352.641C122.495 353.309 121.922 354.073 120.871 354.169Z" fill="#237723" stroke="#237723" stroke-width="0.33" stroke-linecap="round" stroke-linejoin="round"/>
<path opacity="0.5" d="M77.9843 370.884L69.1013 372.317C68.0506 372.508 66.9045 372.126 66.5224 371.362L65.1852 368.878C64.8031 368.21 65.3762 367.541 66.4269 367.35L75.3098 365.917C76.3605 365.726 77.5067 366.108 77.8888 366.872L79.226 369.356C79.608 370.025 79.035 370.693 77.9843 370.884Z" fill="#237723" stroke="#237723" stroke-width="0.33" stroke-linecap="round" stroke-linejoin="round"/>
<path opacity="0.5" d="M93.8388 368.305L84.9558 369.738C83.9051 369.929 82.7589 369.547 82.3769 368.783L81.0397 366.3C80.6576 365.631 81.2307 364.962 82.2814 364.771L91.1643 363.339C92.215 363.148 93.3612 363.53 93.7433 364.294L95.0805 366.777C95.4625 367.446 94.8894 368.114 93.8388 368.305Z" fill="#237723" stroke="#237723" stroke-width="0.33" stroke-linecap="round" stroke-linejoin="round"/>
<path opacity="0.5" d="M109.695 365.727L100.812 367.159C99.7616 367.35 98.6154 366.968 98.2333 366.204L96.8961 363.721C96.514 363.052 97.0871 362.384 98.1378 362.192L107.021 360.76C108.071 360.569 109.218 360.951 109.6 361.715L110.937 364.198C111.319 364.867 110.746 365.536 109.695 365.727Z" fill="#237723" stroke="#237723" stroke-width="0.33" stroke-linecap="round" stroke-linejoin="round"/>
<path opacity="0.5" d="M125.551 363.148L116.668 364.58C115.617 364.771 114.471 364.389 114.089 363.625L112.752 361.142C112.37 360.473 112.943 359.805 113.993 359.614L122.876 358.181C123.927 357.99 125.073 358.467 125.455 359.136L126.792 361.619C127.174 362.288 126.601 362.957 125.551 363.148Z" fill="#237723" stroke="#237723" stroke-width="0.33" stroke-linecap="round" stroke-linejoin="round"/>
<path opacity="0.5" d="M82.7597 379.863L73.8767 381.295C72.826 381.487 71.6798 381.104 71.2978 380.34L69.9606 377.952C69.5785 377.284 70.1516 376.615 71.2023 376.424L80.0852 374.991C81.1359 374.8 82.2821 375.182 82.6642 375.947L84.0014 378.43C84.2879 379.003 83.8103 379.672 82.7597 379.863Z" fill="#237723" stroke="#237723" stroke-width="0.33" stroke-linecap="round" stroke-linejoin="round"/>
<path opacity="0.5" d="M98.6151 377.284L89.7322 378.717C88.6815 378.908 87.5353 378.526 87.1532 377.762L85.816 375.278C85.434 374.609 86.0071 373.941 87.0577 373.75L95.9407 372.317C96.9914 372.126 98.1376 372.508 98.5196 373.272L99.8568 375.756C100.239 376.424 99.6658 377.093 98.6151 377.284Z" fill="#237723" stroke="#237723" stroke-width="0.33" stroke-linecap="round" stroke-linejoin="round"/>
<path opacity="0.5" d="M114.47 374.705L105.587 376.138C104.536 376.329 103.39 375.947 103.008 375.183L101.671 372.795C101.288 372.126 101.862 371.457 102.912 371.266L111.795 369.834C112.846 369.643 113.992 370.025 114.374 370.789L115.711 373.272C116.093 373.845 115.52 374.514 114.47 374.705Z" fill="#237723" stroke="#237723" stroke-width="0.33" stroke-linecap="round" stroke-linejoin="round"/>
<path opacity="0.5" d="M130.326 372.126L121.443 373.559C120.392 373.75 119.246 373.272 118.864 372.604L117.527 370.12C117.145 369.452 117.718 368.783 118.769 368.592L127.652 367.159C128.702 366.968 129.849 367.35 130.231 368.114L131.568 370.598C131.95 371.266 131.377 371.935 130.326 372.126Z" fill="#237723" stroke="#237723" stroke-width="0.33" stroke-linecap="round" stroke-linejoin="round"/>
<path opacity="0.5" d="M87.4394 388.841L78.5564 390.274C77.5057 390.465 76.3595 390.083 75.9775 389.319L74.6402 386.835C74.2582 386.167 74.8313 385.498 75.8819 385.307L84.7649 383.874C85.8156 383.683 86.9618 384.065 87.3438 384.83L88.6811 387.313C89.0631 387.982 88.49 388.65 87.4394 388.841Z" fill="#237723" stroke="#237723" stroke-width="0.33" stroke-linecap="round" stroke-linejoin="round"/>
<path opacity="0.5" d="M103.296 386.262L94.4128 387.695C93.3622 387.886 92.216 387.504 91.8339 386.74L90.4967 384.257C90.1146 383.588 90.6877 382.919 91.7384 382.728L100.621 381.296C101.672 381.105 102.818 381.487 103.2 382.251L104.538 384.734C104.92 385.403 104.346 386.071 103.296 386.262Z" fill="#237723" stroke="#237723" stroke-width="0.33" stroke-linecap="round" stroke-linejoin="round"/>
<path opacity="0.5" d="M119.15 383.683L110.268 385.116C109.217 385.307 108.071 384.925 107.689 384.161L106.447 381.773C106.065 381.104 106.638 380.436 107.689 380.245L116.572 378.812C117.622 378.621 118.768 379.003 119.15 379.767L120.488 382.251C120.774 382.824 120.201 383.492 119.15 383.683Z" fill="#237723" stroke="#237723" stroke-width="0.33" stroke-linecap="round" stroke-linejoin="round"/>
<path opacity="0.5" d="M135.006 381.104L126.123 382.537C125.072 382.728 123.926 382.346 123.544 381.582L122.207 379.099C121.825 378.43 122.398 377.761 123.448 377.57L132.331 376.138C133.382 375.947 134.528 376.329 134.91 377.093L136.247 379.576C136.63 380.245 136.056 380.913 135.006 381.104Z" fill="#237723" stroke="#237723" stroke-width="0.33" stroke-linecap="round" stroke-linejoin="round"/>
<path d="M71.9648 361.333L63.0818 362.765C62.0311 362.956 60.8849 362.574 60.5029 361.81L59.1656 359.327C58.7836 358.658 59.3567 357.99 60.4073 357.799L69.2903 356.366C70.341 356.175 71.4872 356.557 71.8692 357.321L73.2065 359.804C73.493 360.473 73.0154 361.142 71.9648 361.333Z" fill="#2C542C" stroke="black" stroke-width="0.33" stroke-linecap="round" stroke-linejoin="round"/>
<path d="M87.8222 358.754L78.9392 360.187C77.8885 360.378 76.7423 359.995 76.3603 359.231L75.0231 356.748C74.641 356.079 75.2141 355.411 76.2648 355.22L85.1477 353.787C86.1984 353.596 87.3446 353.978 87.7267 354.742L89.0639 357.226C89.4459 357.894 88.8728 358.563 87.8222 358.754Z" fill="#2C542C" stroke="black" stroke-width="0.33" stroke-linecap="round" stroke-linejoin="round"/>
<path d="M103.677 356.175L94.7937 357.608C93.743 357.799 92.5968 357.321 92.2148 356.652L90.8775 354.169C90.4955 353.5 91.0686 352.832 92.1193 352.641L101.002 351.208C102.053 351.017 103.199 351.399 103.581 352.163L104.918 354.647C105.3 355.315 104.727 355.984 103.677 356.175Z" fill="#2C542C" stroke="black" stroke-width="0.33" stroke-linecap="round" stroke-linejoin="round"/>
<path d="M119.533 353.596L110.65 355.029C109.599 355.22 108.453 354.838 108.071 354.074L106.734 351.59C106.352 350.922 106.925 350.253 107.976 350.062L116.859 348.629C117.909 348.438 119.056 348.82 119.438 349.584L120.775 352.068C121.157 352.736 120.584 353.405 119.533 353.596Z" fill="#36D136" stroke="black" stroke-width="0.33" stroke-linecap="round" stroke-linejoin="round"/>
<path d="M76.6464 370.216L67.7634 371.648C66.7127 371.839 65.5666 371.457 65.1845 370.693L63.8473 368.21C63.4652 367.541 64.0383 366.873 65.089 366.682L73.9719 365.249C75.0226 365.058 76.1688 365.44 76.5509 366.204L77.8881 368.687C78.2702 369.452 77.6971 370.12 76.6464 370.216Z" fill="#2C542C" stroke="black" stroke-width="0.33" stroke-linecap="round" stroke-linejoin="round"/>
<path d="M92.5028 367.732L83.6199 369.165C82.5692 369.356 81.423 368.974 81.0409 368.21L79.7037 365.727C79.3217 365.058 79.8948 364.389 80.9454 364.198L89.8284 362.766C90.8791 362.575 92.0253 362.957 92.4073 363.721L93.7445 366.204C94.1266 366.873 93.5535 367.541 92.5028 367.732Z" fill="#2C542C" stroke="black" stroke-width="0.33" stroke-linecap="round" stroke-linejoin="round"/>
<path d="M108.357 365.153L99.4744 366.586C98.4237 366.777 97.2775 366.395 96.8954 365.631L95.5582 363.147C95.1761 362.479 95.7492 361.81 96.7999 361.619L105.683 360.186C106.734 359.995 107.88 360.378 108.262 361.142L109.599 363.625C109.981 364.294 109.408 364.962 108.357 365.153Z" fill="#2C542C" stroke="black" stroke-width="0.33" stroke-linecap="round" stroke-linejoin="round"/>
<path d="M124.213 362.574L115.33 364.007C114.279 364.198 113.133 363.816 112.751 363.052L111.414 360.569C111.032 359.9 111.605 359.231 112.655 359.04L121.538 357.608C122.589 357.416 123.735 357.799 124.117 358.563L125.455 361.046C125.837 361.715 125.263 362.383 124.213 362.574Z" fill="#36D136" stroke="black" stroke-width="0.33" stroke-linecap="round" stroke-linejoin="round"/>
<path d="M81.3271 379.194L72.4441 380.627C71.3934 380.818 70.2472 380.436 69.8652 379.672L68.5279 377.188C68.1459 376.52 68.719 375.851 69.7696 375.66L78.6526 374.227C79.7033 374.036 80.8495 374.514 81.2315 375.182L82.5688 377.666C82.9508 378.334 82.3777 379.099 81.3271 379.194Z" fill="#2C542C" stroke="black" stroke-width="0.33" stroke-linecap="round" stroke-linejoin="round"/>
<path d="M97.1817 376.615L88.2988 378.048C87.2481 378.239 86.1019 377.857 85.7198 377.093L84.4781 374.705C84.0961 374.036 84.6692 373.368 85.7198 373.177L94.6028 371.744C95.6535 371.553 96.7997 371.935 97.1817 372.699L98.519 375.183C98.8055 375.756 98.2324 376.52 97.1817 376.615Z" fill="#2C542C" stroke="black" stroke-width="0.33" stroke-linecap="round" stroke-linejoin="round"/>
<path d="M113.134 374.036L104.251 375.469C103.2 375.66 102.054 375.278 101.672 374.514L100.335 372.03C99.9525 371.362 100.526 370.693 101.576 370.502L110.459 369.069C111.51 368.878 112.656 369.26 113.038 370.025L114.375 372.508C114.757 373.272 114.184 373.941 113.134 374.036Z" fill="#2C542C" stroke="black" stroke-width="0.33" stroke-linecap="round" stroke-linejoin="round"/>
<path d="M128.989 371.553L120.106 372.986C119.056 373.177 117.909 372.795 117.527 372.031L116.19 369.547C115.808 368.879 116.381 368.21 117.432 368.019L126.315 366.586C127.365 366.395 128.512 366.777 128.894 367.541L130.231 370.025C130.613 370.693 130.04 371.362 128.989 371.553Z" fill="#36D136" stroke="black" stroke-width="0.33" stroke-linecap="round" stroke-linejoin="round"/>
<path d="M86.1015 388.173L77.2185 389.605C76.1678 389.796 75.0216 389.414 74.6396 388.65L73.3024 386.167C72.9203 385.498 73.4934 384.83 74.5441 384.639L83.427 383.206C84.4777 383.015 85.6239 383.397 86.006 384.161L87.3432 386.644C87.7252 387.313 87.1521 387.982 86.1015 388.173Z" fill="#2C542C" stroke="black" stroke-width="0.33" stroke-linecap="round" stroke-linejoin="round"/>
<path d="M101.958 385.594L93.0751 387.026C92.0245 387.217 90.8783 386.835 90.4962 386.071L89.2545 383.683C88.8724 383.015 89.4455 382.346 90.4962 382.155L99.3792 380.722C100.43 380.531 101.576 380.913 101.958 381.678L103.295 384.161C103.582 384.734 103.009 385.403 101.958 385.594Z" fill="#2C542C" stroke="black" stroke-width="0.33" stroke-linecap="round" stroke-linejoin="round"/>
<path d="M117.813 383.015L108.93 384.448C107.88 384.639 106.734 384.257 106.351 383.493L105.014 381.009C104.632 380.341 105.205 379.672 106.256 379.481L115.139 378.048C116.19 377.857 117.336 378.239 117.718 379.003L119.055 381.487C119.437 382.251 118.864 382.92 117.813 383.015Z" fill="#166F16" stroke="black" stroke-width="0.33" stroke-linecap="round" stroke-linejoin="round"/>
<path d="M133.67 380.436L124.787 381.869C123.736 382.06 122.59 381.678 122.208 380.913L120.871 378.43C120.489 377.761 121.062 377.093 122.112 376.902L130.995 375.469C132.046 375.278 133.192 375.66 133.574 376.424L134.912 378.908C135.294 379.576 134.721 380.34 133.67 380.436Z" fill="#36D136" stroke="black" stroke-width="0.33" stroke-linecap="round" stroke-linejoin="round"/>
<path d="M72.2528 360.091L63.3699 361.524C62.3192 361.715 61.173 361.333 60.7909 360.569L59.4537 358.085C59.0717 357.417 59.6448 356.748 60.6954 356.557L69.5784 355.124C70.6291 354.933 71.7753 355.315 72.1573 356.08L73.4945 358.563C73.8766 359.232 73.3035 359.9 72.2528 360.091Z" fill="#B5EEB5" stroke="black" stroke-width="0.33" stroke-linecap="round" stroke-linejoin="round"/>
<path d="M88.1073 357.512L79.2244 358.945C78.1737 359.136 77.0275 358.754 76.6454 357.99L75.3082 355.506C74.9261 354.838 75.4992 354.169 76.5499 353.978L85.4329 352.545C86.4836 352.354 87.6297 352.832 88.0118 353.5L89.349 355.984C89.7311 356.652 89.158 357.321 88.1073 357.512Z" fill="#B5EEB5" stroke="black" stroke-width="0.33" stroke-linecap="round" stroke-linejoin="round"/>
<path d="M103.964 354.933L95.0808 356.366C94.0301 356.557 92.8839 356.175 92.5019 355.411L91.1647 352.927C90.7826 352.259 91.3557 351.59 92.4064 351.399L101.289 349.966C102.34 349.775 103.486 350.157 103.868 350.921L105.205 353.405C105.588 354.073 105.014 354.742 103.964 354.933Z" fill="#B5EEB5" stroke="black" stroke-width="0.33" stroke-linecap="round" stroke-linejoin="round"/>
<path d="M119.819 352.354L110.936 353.787C109.886 353.978 108.739 353.596 108.357 352.832L107.02 350.348C106.638 349.68 107.211 349.011 108.262 348.82L117.145 347.387C118.195 347.196 119.342 347.578 119.724 348.343L121.061 350.826C121.443 351.495 120.87 352.163 119.819 352.354Z" fill="#CDF4CD" stroke="black" stroke-width="0.33" stroke-linecap="round" stroke-linejoin="round"/>
<path d="M76.9335 369.069L68.0505 370.502C66.9999 370.693 65.8537 370.311 65.4716 369.547L64.1344 367.064C63.7523 366.395 64.3254 365.726 65.3761 365.535L74.2591 364.103C75.3097 363.912 76.4559 364.294 76.838 365.058L78.1752 367.541C78.5573 368.21 77.9842 368.878 76.9335 369.069Z" fill="#B5EEB5" stroke="black" stroke-width="0.33" stroke-linecap="round" stroke-linejoin="round"/>
<path d="M92.8837 366.491L84.0007 367.923C82.9501 368.114 81.8039 367.637 81.4218 366.968L80.0846 364.485C79.7025 363.816 80.2756 363.148 81.3263 362.957L90.2093 361.524C91.2599 361.333 92.4061 361.715 92.7882 362.479L94.1254 364.962C94.5075 365.631 93.9344 366.3 92.8837 366.491Z" fill="#B5EEB5" stroke="black" stroke-width="0.33" stroke-linecap="round" stroke-linejoin="round"/>
<path d="M108.74 363.912L99.8572 365.344C98.8065 365.535 97.6603 365.153 97.2782 364.389L95.941 362.001C95.559 361.333 96.1321 360.664 97.1827 360.473L106.066 359.04C107.116 358.849 108.263 359.231 108.645 359.996L109.982 362.479C110.268 363.052 109.791 363.721 108.74 363.912Z" fill="#B5EEB5" stroke="black" stroke-width="0.33" stroke-linecap="round" stroke-linejoin="round"/>
<path d="M124.595 361.333L115.712 362.765C114.661 362.956 113.515 362.574 113.133 361.81L111.796 359.327C111.413 358.658 111.987 357.99 113.037 357.799L121.92 356.366C122.971 356.175 124.117 356.557 124.499 357.321L125.836 359.804C126.218 360.473 125.645 361.142 124.595 361.333Z" fill="#CDF4CD" stroke="black" stroke-width="0.33" stroke-linecap="round" stroke-linejoin="round"/>
<path d="M81.7091 377.952L72.8261 379.385C71.7754 379.576 70.6292 379.194 70.2472 378.43L69.0055 376.042C68.6234 375.374 69.1965 374.705 70.2472 374.514L79.1302 373.081C80.1808 372.89 81.327 373.272 81.7091 374.036L83.0463 376.52C83.3328 377.093 82.7598 377.857 81.7091 377.952Z" fill="#B5EEB5" stroke="black" stroke-width="0.33" stroke-linecap="round" stroke-linejoin="round"/>
<path d="M97.5644 375.374L88.6814 376.806C87.6307 376.997 86.4845 376.615 86.1025 375.851L84.7652 373.368C84.3832 372.699 84.9563 372.031 86.0069 371.84L94.8899 370.407C95.9406 370.216 97.0868 370.598 97.4688 371.362L98.8061 373.845C99.1881 374.514 98.615 375.278 97.5644 375.374Z" fill="#B5EEB5" stroke="black" stroke-width="0.33" stroke-linecap="round" stroke-linejoin="round"/>
<path d="M113.419 372.795L104.536 374.227C103.485 374.418 102.339 374.036 101.957 373.272L100.715 370.884C100.333 370.216 100.906 369.547 101.957 369.356L110.84 367.923C111.891 367.732 113.037 368.114 113.419 368.878L114.756 371.362C115.043 372.03 114.47 372.699 113.419 372.795Z" fill="#B5EEB5" stroke="black" stroke-width="0.33" stroke-linecap="round" stroke-linejoin="round"/>
<path d="M129.276 370.311L120.393 371.744C119.343 371.935 118.196 371.553 117.814 370.789L116.477 368.306C116.095 367.637 116.668 366.968 117.719 366.777L126.602 365.345C127.653 365.154 128.799 365.536 129.181 366.3L130.518 368.783C130.9 369.452 130.327 370.12 129.276 370.311Z" fill="#CDF4CD" stroke="black" stroke-width="0.33" stroke-linecap="round" stroke-linejoin="round"/>
<path d="M86.3886 386.931L77.5056 388.364C76.4549 388.555 75.3087 388.173 74.9267 387.408L73.5895 384.925C73.2074 384.256 73.7805 383.588 74.8312 383.397L83.7141 381.964C84.7648 381.773 85.911 382.155 86.2931 382.919L87.6303 385.403C88.0123 386.071 87.4393 386.74 86.3886 386.931Z" fill="#B5EEB5" stroke="black" stroke-width="0.33" stroke-linecap="round" stroke-linejoin="round"/>
<path d="M102.244 384.352L93.3611 385.785C92.3104 385.976 91.1642 385.594 90.7821 384.83L89.4449 382.346C89.0629 381.678 89.636 381.009 90.6866 380.818L99.5696 379.385C100.62 379.194 101.766 379.576 102.149 380.34L103.486 382.824C103.868 383.492 103.295 384.161 102.244 384.352Z" fill="#B5EEB5" stroke="black" stroke-width="0.33" stroke-linecap="round" stroke-linejoin="round"/>
<path d="M118.195 381.773L109.312 383.301C108.262 383.492 107.115 383.11 106.733 382.346L105.396 379.863C105.014 379.194 105.587 378.526 106.638 378.335L115.521 376.902C116.571 376.711 117.718 377.093 118.1 377.857L119.437 380.34C119.723 380.913 119.246 381.678 118.195 381.773Z" fill="#FFAA08" stroke="black" stroke-width="0.33" stroke-linecap="round" stroke-linejoin="round"/>
<path d="M134.051 379.194L125.168 380.627C124.117 380.818 122.971 380.436 122.589 379.672L121.252 377.189C120.87 376.52 121.443 375.851 122.493 375.66L131.376 374.228C132.427 374.036 133.573 374.419 133.955 375.183L135.292 377.666C135.674 378.335 135.101 379.099 134.051 379.194Z" fill="#CDF4CD" stroke="black" stroke-width="0.33" stroke-linecap="round" stroke-linejoin="round"/>
<path d="M117.24 332.296L111.127 320.547" stroke="#9BE89B" stroke-width="0.33" stroke-linecap="round" stroke-linejoin="round"/>
<path d="M36.5303 321.216L41.8792 331.245L114.853 319.401L109.6 309.372L36.5303 321.216Z" fill="#04C604" stroke="black" stroke-width="0.33" stroke-linecap="round" stroke-linejoin="round"/>
<path d="M109.6 309.372L84.6699 313.384L89.9233 323.508L114.853 319.401L109.6 309.372Z" fill="#039503" stroke="black" stroke-width="0.33" stroke-linecap="round" stroke-linejoin="round"/>
<path d="M36.5297 321.216L36.2432 333.92L69.7692 397.724L71.1064 395.05L44.2665 344.14L41.8786 331.245L36.5297 321.216Z" fill="#B5EEB5" stroke="black" stroke-width="0.33" stroke-linecap="round" stroke-linejoin="round"/>
<path d="M144.081 383.206L142.839 385.88L69.7695 397.724L71.1068 395.05L144.081 383.206Z" fill="#B5EEB5" stroke="black" stroke-width="0.33" stroke-linecap="round" stroke-linejoin="round"/>
<path d="M85.7197 315.39L110.649 311.378" stroke="black" stroke-width="0.33" stroke-linecap="round" stroke-linejoin="round"/>
<path d="M86.7705 317.395L111.7 313.384" stroke="black" stroke-width="0.33" stroke-linecap="round" stroke-linejoin="round"/>
<path d="M87.918 319.401L112.752 315.39" stroke="black" stroke-width="0.33" stroke-linecap="round" stroke-linejoin="round"/>
<path d="M88.873 321.503L113.803 317.396" stroke="black" stroke-width="0.33" stroke-linecap="round" stroke-linejoin="round"/>
<path d="M89.9238 323.509L114.853 319.401" stroke="black" stroke-width="0.33" stroke-linecap="round" stroke-linejoin="round"/>
<path d="M104.824 303.259L103.678 300.107" stroke="black" stroke-width="0.33" stroke-linecap="round" stroke-linejoin="round"/>
<path d="M109.79 303.068L111.223 296" stroke="black" stroke-width="0.33" stroke-linecap="round" stroke-linejoin="round"/>
<path d="M115.043 305.265L117.431 303.164" stroke="black" stroke-width="0.33" stroke-linecap="round" stroke-linejoin="round"/>
<path d="M41.8779 331.245L44.2658 344.14L77.5053 338.695L56.0143 328.953L41.8779 331.245Z" fill="#2C542C" stroke="black" stroke-width="0.33" stroke-linecap="round" stroke-linejoin="round"/>
<path d="M168.341 357.99C170.06 356.653 172.161 356.462 173.499 356.844C174.836 357.226 175.313 358.276 173.594 359.614C171.684 361.046 169.678 361.237 168.436 360.76C167.099 360.378 166.526 359.423 168.341 357.99ZM172.352 359.232C173.499 358.372 173.307 357.799 172.543 357.512C171.779 357.226 170.633 357.417 169.487 358.372C168.245 359.327 168.436 359.9 169.2 360.187C169.964 360.282 171.111 360.187 172.352 359.232Z" fill="black"/>
<path d="M177.033 358.085L179.421 358.849C180.663 359.232 180.854 359.996 179.899 360.664C178.944 361.428 177.606 361.619 176.269 361.237L175.027 360.855L173.213 362.193L172.066 361.81L177.033 358.085ZM177.224 360.569C177.702 360.76 178.37 360.664 178.753 360.282C179.23 359.9 179.039 359.614 178.561 359.518L177.32 359.136L175.983 360.187L177.224 360.569Z" fill="black"/>
<path d="M182.477 360.76L180.757 360.187L181.617 359.518L186.297 360.951L185.438 361.619L183.718 361.046L179.707 364.103L178.561 363.721L182.477 360.76Z" fill="black"/>
<path d="M187.158 361.237L188.305 361.619L183.433 365.344L182.287 364.962L187.158 361.237Z" fill="black"/>
<path d="M186.966 363.816C188.686 362.479 190.787 362.288 192.124 362.67C193.461 363.052 193.939 364.103 192.22 365.44C190.309 366.873 188.303 367.064 187.062 366.586C185.629 366.204 185.056 365.249 186.966 363.816ZM190.978 365.058C192.124 364.198 191.933 363.625 191.169 363.339C190.405 363.148 189.259 363.243 188.112 364.198C186.871 365.153 187.062 365.727 187.826 366.013C188.59 366.204 189.641 366.013 190.978 365.058Z" fill="black"/>
<path d="M195.563 363.912L196.71 364.294L195.659 367.446L198.907 364.963L200.053 365.345L195.181 369.07L194.035 368.688L194.99 365.536L191.743 368.019L190.597 367.637L195.563 363.912Z" fill="black"/>
<path d="M199.287 368.305C198.714 368.879 198.619 369.261 199.383 369.547C200.051 369.738 200.624 369.738 201.006 369.452C201.389 369.165 201.293 368.974 200.338 368.305C199.383 367.637 199.383 367.159 200.051 366.682C200.815 366.109 202.153 365.822 203.49 366.204C204.541 366.491 205.114 367.159 204.35 367.923L203.012 367.732C203.203 367.35 203.299 367.064 202.63 366.873C202.057 366.682 201.58 366.777 201.197 366.968C200.911 367.159 201.006 367.35 201.962 368.019C202.917 368.688 202.917 369.165 202.248 369.738C201.389 370.407 199.86 370.598 198.523 370.216C197.186 369.834 196.899 369.07 197.854 368.114L199.287 368.305Z" fill="black"/>
<path d="M75.3066 334.397C77.8856 334.015 79.0318 329.335 81.4196 328.953C83.8075 328.571 85.0492 333.824 87.9147 333.538C90.5892 333.251 89.5385 328.858 91.8309 328.38C93.6457 328.093 94.0277 330.29 95.8425 330.099C97.6573 329.908 97.5618 326.947 100.523 326.183" fill="black"/>
<path d="M75.3066 334.397C77.8856 334.015 79.0318 329.335 81.4196 328.953C83.8075 328.571 85.0492 333.824 87.9147 333.538C90.5892 333.251 89.5385 328.858 91.8309 328.38C93.6457 328.093 94.0277 330.29 95.8425 330.099C97.6573 329.908 97.5618 326.947 100.523 326.183" stroke="#FFAA08" stroke-width="0.33" stroke-linecap="round" stroke-linejoin="round"/>
<path d="M101.192 326.47C101.561 326.47 101.861 326.213 101.861 325.896C101.861 325.58 101.561 325.323 101.192 325.323C100.823 325.323 100.523 325.58 100.523 325.896C100.523 326.213 100.823 326.47 101.192 326.47Z" fill="black" stroke="#FFAA08" stroke-width="0.33" stroke-linecap="round" stroke-linejoin="round"/>
<path d="M257.456 404.028L253.73 397.056L252.011 398.202L234.054 392.28L223.356 399.826L241.6 405.461L239.212 407.085L257.456 404.028Z" stroke="black" stroke-width="0.33" stroke-linecap="round" stroke-linejoin="round"/>
<path d="M84.6689 447.584L91.0685 445.482" stroke="black" stroke-width="0.33" stroke-linecap="round" stroke-linejoin="round"/>
<path d="M87.0566 443.954L88.7759 448.921" stroke="black" stroke-width="0.33" stroke-linecap="round" stroke-linejoin="round"/>
<path opacity="0.15" d="M242.363 429.436L187.632 445.291C187.537 445.291 187.441 445.387 187.346 445.482L182.666 446.819H182.57H182.475H182.379C182.379 446.819 182.284 446.819 182.284 446.915L182.188 447.01C182.188 447.01 182.188 447.106 182.093 447.106C182.093 447.106 182.093 447.201 181.997 447.201V447.297V447.393V447.488V447.584V447.679V447.775V447.87V447.966V448.061C181.997 448.061 181.997 448.061 181.997 448.157C181.997 448.252 182.093 448.252 182.093 448.348L182.188 448.443L194.987 459.714V463.057L233.002 494.004C233.289 494.195 233.671 494.291 233.958 494.195L238.638 492.858C238.733 492.858 238.829 492.858 238.924 492.858L339.216 463.726C339.789 463.535 340.076 462.962 339.98 462.484C339.789 461.911 339.216 461.624 338.643 461.72L241.79 489.802L202.533 457.708V454.365L198.999 451.213L210.079 461.338L203.966 455.893L192.886 445.96L237.11 433.161" fill="black"/>
<path opacity="0.5" d="M202.439 457.899V454.556L194.988 459.905V463.248L202.439 457.899Z" fill="#237723"/>
<path d="M242.937 459.619C245.42 465.636 247.044 472.609 247.044 478.817C247.044 484.644 245.611 488.655 243.414 490.375C247.521 490.757 250.291 486.076 250.291 477.862C250.291 471.367 248.572 463.917 245.802 457.613L242.937 459.619Z" fill="#039503" stroke="black" stroke-width="0.33" stroke-linecap="round" stroke-linejoin="round"/>
<path d="M242.938 459.619L245.708 457.613C243.606 452.837 241.027 448.73 238.066 446.151C234.723 443.19 231.762 442.712 229.565 444.432C231.189 444.527 232.908 445.387 234.819 447.106C238.066 449.876 240.836 454.461 242.938 459.619Z" fill="#84CB84" stroke="black" stroke-width="0.33" stroke-linecap="round" stroke-linejoin="round"/>
<path d="M226.031 455.989C226.031 450.163 227.463 446.151 229.66 444.432C225.553 444.05 222.783 448.73 222.783 456.944C222.879 462.102 223.738 467.26 225.362 472.227L228.228 470.125C226.89 465.541 226.126 460.86 226.031 455.989Z" fill="#68DD68" stroke="black" stroke-width="0.33" stroke-linecap="round" stroke-linejoin="round"/>
<path d="M228.323 470.125L225.457 472.227C227.654 479.008 231.092 485.217 235.009 488.656C238.352 491.617 241.313 492.094 243.51 490.375C241.886 490.279 240.166 489.42 238.256 487.7C234.149 484.071 230.519 477.385 228.323 470.125Z" fill="#84CB84" stroke="black" stroke-width="0.33" stroke-linecap="round" stroke-linejoin="round"/>
<path d="M226.029 455.989C226.125 460.765 226.889 465.541 228.322 470.125L242.936 459.619C240.739 454.461 237.969 449.876 234.912 447.106C233.002 445.387 231.283 444.527 229.659 444.432C227.462 446.151 226.029 450.163 226.029 455.989Z" fill="#68DD68" stroke="black" stroke-width="0.33" stroke-linecap="round" stroke-linejoin="round"/>
<path d="M247.043 478.817C247.043 472.609 245.515 465.732 242.936 459.619L228.322 470.125C230.519 477.385 234.149 483.975 238.16 487.7C239.975 489.42 241.79 490.279 243.414 490.375C245.611 488.655 247.043 484.644 247.043 478.817Z" fill="#84CB84" stroke="black" stroke-width="0.33" stroke-linecap="round" stroke-linejoin="round"/>
<path d="M206.45 417.592C203.107 414.631 200.146 414.153 197.949 415.872C199.573 415.968 201.292 416.828 203.203 418.547C209.889 424.564 215.333 438.701 215.333 450.258C215.333 456.085 213.9 460.096 211.703 461.815C215.811 462.198 218.581 457.517 218.581 449.303C218.581 437.745 213.136 423.609 206.45 417.592Z" fill="#84CB84" stroke="black" stroke-width="0.33" stroke-linecap="round" stroke-linejoin="round"/>
<path d="M194.319 427.43C194.319 421.603 195.752 417.592 197.948 415.872C193.841 415.49 191.071 420.171 191.071 428.385C191.071 439.847 196.516 453.983 203.202 460.096C206.545 463.057 209.506 463.535 211.703 461.815C210.079 461.72 208.36 460.86 206.449 459.141C199.763 453.123 194.319 438.892 194.319 427.43Z" fill="#68DD68" stroke="black" stroke-width="0.33" stroke-linecap="round" stroke-linejoin="round"/>
<path d="M215.236 450.258C215.236 438.796 209.792 424.66 203.106 418.547C201.195 416.827 199.476 415.968 197.852 415.872C195.56 417.592 194.223 421.603 194.223 427.43C194.223 438.892 199.667 453.028 206.353 459.141C208.263 460.86 209.983 461.72 211.607 461.815C213.899 460.001 215.236 456.084 215.236 450.258Z" fill="#68DD68" stroke="black" stroke-width="0.33" stroke-linecap="round" stroke-linejoin="round"/>
<path d="M222.783 457.995C222.21 457.995 221.732 457.517 221.732 456.944C221.732 453.697 220.204 449.494 218.294 447.87C217.816 447.393 217.339 447.202 217.052 447.297C216.67 447.488 216.192 448.443 216.192 450.163C216.192 450.736 215.715 451.118 215.142 451.118C214.664 451.118 214.187 450.64 214.187 450.163C214.187 447.679 214.951 446.055 216.192 445.482C216.765 445.196 218.007 445.005 219.631 446.342C221.923 448.443 223.738 453.028 223.738 456.944C223.834 457.517 223.356 457.995 222.783 457.995Z" fill="#FFAA08" stroke="black" stroke-width="0.33" stroke-linecap="round" stroke-linejoin="round"/>
<path d="M204.063 415.872L263.378 398.68L284.965 416.063L286.397 414.631L264.238 396.865C263.951 396.674 263.665 396.578 263.283 396.674L200.242 415.013C201.579 414.822 202.917 415.204 204.063 415.872Z" fill="#04C604" stroke="black" stroke-width="0.33" stroke-linecap="round" stroke-linejoin="round"/>
<path d="M315.051 442.426C314.765 442.235 314.478 442.139 314.096 442.235L241.695 463.248L217.816 441.757L209.888 434.594L203.775 429.149L192.695 419.216L192.6 419.12H192.695C193.269 417.878 194.319 416.828 195.561 416.255L182.475 420.075H182.38H182.284H182.189C182.189 420.075 182.093 420.075 182.093 420.171L181.998 420.266C181.998 420.266 181.998 420.362 181.902 420.362C181.902 420.362 181.902 420.457 181.807 420.457V420.553V420.648V420.744V420.839V420.935V421.03V421.126V421.221V421.317C181.807 421.317 181.807 421.317 181.807 421.412C181.807 421.508 181.902 421.508 181.902 421.604L181.998 421.699L232.812 467.356C233.099 467.547 233.481 467.642 233.767 467.547L314 444.241L336.16 462.102L337.593 460.669L315.051 442.426Z" fill="#04C604" stroke="black" stroke-width="0.33" stroke-linecap="round" stroke-linejoin="round"/>
<path d="M197.949 415.872C198.236 415.681 198.522 415.49 198.809 415.299L196.898 415.872C197.185 415.872 197.567 415.872 197.949 415.872Z" fill="#FFAA08" stroke="black" stroke-width="0.33" stroke-linecap="round" stroke-linejoin="round"/>
<path d="M200.814 416.827C201.674 417.305 202.438 417.878 203.202 418.547C207.596 422.463 211.417 430.009 213.614 437.841L207.214 432.11L209.984 434.593L217.912 441.757C216.288 432.206 211.799 422.272 206.45 417.592C205.781 416.923 205.017 416.35 204.158 415.872L200.814 416.827Z" fill="#84CB84" stroke="black" stroke-width="0.33" stroke-linecap="round" stroke-linejoin="round"/>
<path d="M200.05 415.013L199 415.299C198.904 415.299 198.904 415.395 198.809 415.395L200.241 414.917L200.05 415.013Z" fill="#FFAA08" stroke="black" stroke-width="0.33" stroke-linecap="round" stroke-linejoin="round"/>
<path d="M200.815 416.827L204.062 415.872C202.916 415.108 201.579 414.822 200.242 414.917L198.809 415.395C198.522 415.586 198.236 415.681 197.949 415.968C198.904 415.968 199.955 416.35 200.815 416.827Z" fill="#84CB84" stroke="black" stroke-width="0.33" stroke-linecap="round" stroke-linejoin="round"/>
<path d="M217.816 441.757L209.888 434.689L217.816 441.757Z" fill="#FFAA08" stroke="black" stroke-width="0.33" stroke-linecap="round" stroke-linejoin="round"/>
<path d="M196.42 415.968L196.134 416.063C195.943 416.159 195.847 416.159 195.656 416.254L196.802 415.872C196.707 415.968 196.611 415.968 196.42 415.968Z" fill="#FFAA08" stroke="black" stroke-width="0.33" stroke-linecap="round" stroke-linejoin="round"/>
<path d="M194.987 421.221C195.273 420.171 195.56 419.215 196.133 418.26L192.886 419.215L192.79 419.311L203.87 429.245L207.117 432.206L194.987 421.221Z" fill="#68DD68" stroke="black" stroke-width="0.33" stroke-linecap="round" stroke-linejoin="round"/>
<path d="M192.79 419.12L196.038 418.165C196.515 417.305 197.088 416.445 197.948 415.872C197.566 415.872 197.184 415.872 196.897 415.872L195.751 416.254C194.414 416.923 193.459 417.878 192.79 419.12Z" fill="#68DD68" stroke="black" stroke-width="0.33" stroke-linecap="round" stroke-linejoin="round"/>
<path d="M192.79 419.215L203.87 429.244L192.79 419.215Z" fill="#FFAA08" stroke="black" stroke-width="0.33" stroke-linecap="round" stroke-linejoin="round"/>
<path d="M194.988 421.221L207.119 432.206L213.518 437.937C211.417 430.009 207.501 422.559 203.107 418.642C202.439 417.974 201.579 417.401 200.719 416.923L195.943 418.26C195.561 419.12 195.179 420.171 194.988 421.221Z" fill="#68DD68" stroke="black" stroke-width="0.33" stroke-linecap="round" stroke-linejoin="round"/>
<path d="M197.948 415.872C197.184 416.541 196.516 417.305 196.038 418.165L200.814 416.827C199.954 416.35 198.999 415.968 197.948 415.872Z" fill="#68DD68" stroke="black" stroke-width="0.33" stroke-linecap="round" stroke-linejoin="round"/>
<path d="M233.672 467.737C233.577 467.737 233.577 467.737 233.481 467.737V476.238C233.577 476.238 233.577 476.238 233.672 476.238C233.768 476.238 233.864 476.238 233.959 476.238L236.633 475.474C237.016 475.379 237.302 475.188 237.493 474.901L241.409 470.03C241.6 469.743 241.791 469.361 241.791 468.979V465.541L234.055 467.833C233.864 467.737 233.768 467.737 233.672 467.737Z" fill="#026302" stroke="black" stroke-width="0.33" stroke-linecap="round" stroke-linejoin="round"/>
<path d="M233.002 467.451L182.188 421.794L182.093 421.699C182.093 421.603 181.997 421.603 181.997 421.508C181.997 421.508 181.997 421.508 181.997 421.412V421.317V421.221V429.627V429.722V429.818V429.913C181.997 430.009 182.093 430.009 182.093 430.104L182.188 430.2L233.002 475.856C233.098 475.952 233.289 476.047 233.48 476.143V467.737C233.289 467.642 233.098 467.546 233.002 467.451Z" fill="#013101" stroke="black" stroke-width="0.33" stroke-linecap="round" stroke-linejoin="round"/>
<path d="M334.631 463.344L320.208 449.494C319.73 449.016 319.73 448.252 320.113 447.775C320.495 447.297 321.163 447.297 321.641 447.584L338.261 458.663C339.598 459.523 340.075 461.433 339.12 462.771C338.261 464.108 336.35 464.585 335.013 463.63C335.013 463.63 335.013 463.63 334.917 463.63C334.917 463.535 334.726 463.439 334.631 463.344Z" fill="black"/>
<path d="M283.818 417.687L269.396 403.837C268.918 403.36 268.918 402.596 269.3 402.118C269.682 401.641 270.351 401.641 270.828 401.927L287.448 413.007C288.69 414.058 288.881 415.968 287.83 417.21C286.97 418.26 285.347 418.642 284.105 417.974C284.105 417.878 283.914 417.783 283.818 417.687Z" fill="black"/>
<path d="M241.696 465.445L233.959 467.738C233.864 467.738 233.768 467.738 233.672 467.738C233.577 467.738 233.577 467.738 233.481 467.738V469.457C233.577 469.457 233.577 469.457 233.672 469.457C233.768 469.457 233.864 469.457 233.959 469.457L241.696 467.164V465.445Z" fill="#CFF4CF" stroke="black" stroke-width="0.33" stroke-linecap="round" stroke-linejoin="round"/>
<path d="M181.901 422.941V423.036V423.132C181.901 423.132 181.901 423.132 181.901 423.227C181.901 423.323 181.997 423.323 181.997 423.418L182.092 423.514L232.907 469.17C233.002 469.266 233.193 469.361 233.384 469.457V467.737C233.193 467.737 233.002 467.642 232.907 467.451L182.092 421.794L181.997 421.699C181.997 421.603 181.901 421.603 181.901 421.508C181.901 421.508 181.901 421.508 181.901 421.412V421.317V421.221V427.907V422.941C181.901 422.845 181.901 422.941 181.901 422.941Z" fill="#B5EEB5"/>
<path d="M181.901 422.941V423.036V423.132C181.901 423.132 181.901 423.132 181.901 423.227C181.901 423.323 181.997 423.323 181.997 423.418L182.092 423.514L232.907 469.17C233.002 469.266 233.193 469.361 233.384 469.457V467.737C233.193 467.737 233.002 467.642 232.907 467.451L182.092 421.794L181.997 421.699C181.997 421.603 181.901 421.603 181.901 421.508C181.901 421.508 181.901 421.508 181.901 421.412V421.317V421.221V427.907V422.941ZM181.901 422.941C181.901 422.845 181.901 422.941 181.901 422.941Z" stroke="black" stroke-width="0.33" stroke-linecap="round" stroke-linejoin="round"/>
<path d="M169.392 380.627L177.988 378.143L182 384.734L186.489 382.633L190.501 387.599L202.44 384.256L205.688 390.178L208.84 388.937L212.278 394.668L216.481 392.471" stroke="black" stroke-width="0.33" stroke-linecap="round" stroke-linejoin="round"/>
<path d="M178.342 378.501C178.425 378.25 178.207 377.953 177.856 377.838C177.505 377.723 177.154 377.833 177.072 378.083C176.99 378.334 177.207 378.631 177.558 378.746C177.909 378.861 178.26 378.751 178.342 378.501Z" fill="black" stroke="black" stroke-width="0.33" stroke-linecap="round" stroke-linejoin="round"/>
<path d="M187.098 382.817C187.181 382.567 186.963 382.27 186.612 382.155C186.261 382.04 185.91 382.15 185.828 382.4C185.745 382.651 185.963 382.947 186.314 383.063C186.665 383.178 187.016 383.068 187.098 382.817Z" fill="black" stroke="black" stroke-width="0.33" stroke-linecap="round" stroke-linejoin="round"/>
<path d="M191.15 387.732C191.232 387.481 191.015 387.185 190.664 387.07C190.313 386.954 189.962 387.064 189.879 387.315C189.797 387.565 190.015 387.862 190.366 387.977C190.717 388.092 191.068 387.982 191.15 387.732Z" fill="black" stroke="black" stroke-width="0.33" stroke-linecap="round" stroke-linejoin="round"/>
<path d="M203.194 384.506C203.276 384.255 203.059 383.959 202.708 383.843C202.357 383.728 202.006 383.838 201.923 384.089C201.841 384.339 202.059 384.636 202.41 384.751C202.76 384.866 203.112 384.756 203.194 384.506Z" fill="black" stroke="black" stroke-width="0.33" stroke-linecap="round" stroke-linejoin="round"/>
<path d="M206.426 390.329C206.509 390.079 206.291 389.782 205.94 389.667C205.589 389.552 205.238 389.662 205.156 389.912C205.074 390.163 205.291 390.459 205.642 390.575C205.993 390.69 206.344 390.58 206.426 390.329Z" fill="black" stroke="black" stroke-width="0.33" stroke-linecap="round" stroke-linejoin="round"/>
<path d="M209.495 388.985C209.577 388.735 209.359 388.438 209.008 388.323C208.658 388.208 208.306 388.318 208.224 388.568C208.142 388.819 208.36 389.115 208.71 389.231C209.061 389.346 209.412 389.236 209.495 388.985Z" fill="black" stroke="black" stroke-width="0.33" stroke-linecap="round" stroke-linejoin="round"/>
<path d="M218.602 392.64C218.783 392.089 218.361 391.455 217.66 391.225C216.958 390.994 216.242 391.254 216.061 391.806C215.88 392.357 216.302 392.991 217.004 393.221C217.706 393.452 218.421 393.191 218.602 392.64Z" fill="#CDF4CD" stroke="black" stroke-width="0.33" stroke-linecap="round" stroke-linejoin="round"/>
<path d="M212.958 394.942C213.04 394.691 212.822 394.395 212.471 394.28C212.121 394.164 211.769 394.274 211.687 394.525C211.605 394.775 211.822 395.072 212.173 395.187C212.524 395.302 212.875 395.192 212.958 394.942Z" fill="black" stroke="black" stroke-width="0.33" stroke-linecap="round" stroke-linejoin="round"/>
<path d="M182.542 384.988C182.624 384.738 182.406 384.441 182.055 384.326C181.704 384.211 181.353 384.321 181.271 384.571C181.189 384.822 181.406 385.118 181.757 385.234C182.108 385.349 182.459 385.239 182.542 384.988Z" fill="black" stroke="black" stroke-width="0.33" stroke-linecap="round" stroke-linejoin="round"/>
<path opacity="0.5" d="M238.258 432.588L283.628 419.407C284.201 419.216 284.583 418.642 284.487 418.069C284.296 417.496 283.723 417.114 283.15 417.21H283.055L243.607 428.672" fill="#237723"/>
</g>
<defs>
<clipPath id="clip0">
<rect width="322" height="540" rx="16" fill="white"/>
</clipPath>
</defs>
</svg>
