<svg width="492" height="220" viewBox="0 0 492 220" fill="none" xmlns="http://www.w3.org/2000/svg">
<rect width="492" height="220" fill="#E5E5E5"/>
<rect width="2614" height="1393" transform="translate(-231 -117)" fill="white"/>
<g clip-path="url(#clip0)">
<rect width="492" height="220" fill="white"/>
<path d="M516.323 109.637C516.323 121.16 512.599 132.396 505.659 141.628C504.1 143.697 502.413 145.67 500.566 147.516C500.153 147.93 499.739 148.312 499.325 148.726C489.393 158.053 476.311 163.273 462.686 163.273H314.987C285.479 163.273 261.35 139.145 261.35 109.637C261.35 103.78 262.305 97.9862 264.183 92.4474C264.247 92.1928 264.342 91.9381 264.438 91.7153C266.475 86.0492 269.436 80.7652 273.223 76.0859L273.287 75.9904C283.473 63.4168 298.784 56.0637 314.987 56H462.686C492.195 56 516.323 80.1285 516.323 109.637Z" fill="#F5DEDB" stroke="black" stroke-width="0.33" stroke-miterlimit="10"/>
<g opacity="0.1">
<path opacity="0.1" d="M307.092 149.204C303.782 149.204 300.79 151.432 298.944 154.01L298.912 154.074C296.97 156.907 297.447 159.422 300.376 159.613C318.966 160.568 337.715 160.663 356.4 160.663H365.44H374.544C379.064 160.663 383.553 160.663 388.073 160.695C398.068 160.759 408.095 160.822 418.154 160.822C437.507 160.822 456.893 160.568 476.119 159.549C479.494 159.326 480.703 156.811 478.761 154.106L478.73 154.042C476.533 151.241 473.159 149.586 469.594 149.522H469.467C454.601 150.222 439.608 150.413 424.616 150.413C412.392 150.413 400.169 150.286 388.041 150.19C382.852 150.159 377.664 150.127 372.475 150.159H364.517H356.655C340.102 150.127 323.55 150.031 307.092 149.204Z" fill="#662640" stroke="#383838" stroke-width="0.33" stroke-miterlimit="10"/>
</g>
<path d="M507.251 110.273C507.124 109.732 506.996 109.223 506.869 108.682C494.486 59.2469 434.515 66.9821 434.515 66.9821C433.528 66.5682 433.083 65.4541 433.465 64.4992C433.719 63.8625 434.324 63.4169 435.025 63.3214C435.661 63.2259 450.368 61.1887 466.697 65.7406C476.374 68.4463 484.555 72.9346 491.08 79.0781C499.198 86.7496 504.641 96.9995 507.219 109.541C507.315 109.764 507.315 110.019 507.251 110.273Z" fill="white"/>
<path d="M400.201 98.6546L381.993 135.134C379.733 139.686 374.703 140.259 369.451 137.235C367.414 136.025 365.568 134.497 363.976 132.715C357.514 125.68 354.395 115.366 356.623 109.095C356.75 108.745 356.909 108.363 357.068 108.013L372.793 76.5633L375.276 71.5657C377.536 67.0456 382.566 66.4408 387.818 69.4648C389.855 70.6745 391.701 72.2024 393.293 73.985C400.137 81.4018 403.256 92.5111 400.201 98.6546Z" fill="#BD82BD" stroke="#383838" stroke-width="0.33" stroke-miterlimit="10"/>
<path d="M408.222 93.9752L390.014 130.455C389.41 131.728 388.455 132.778 387.245 133.51L379.192 138.158C380.401 137.426 381.356 136.375 381.961 135.102L400.201 98.6545C403.256 92.511 400.169 81.4017 393.293 73.953C391.702 72.1705 389.855 70.6744 387.818 69.4647C384.157 67.3638 380.624 67.0137 378.046 68.5098L386.067 63.8305C388.646 62.3344 392.211 62.6846 395.84 64.7855C397.877 65.9951 399.723 67.523 401.315 69.2738C408.159 76.7224 411.278 87.8317 408.222 93.9752Z" fill="#8F628F" stroke="#383838" stroke-width="0.33" stroke-miterlimit="10"/>
<path opacity="0.3" d="M384.921 80.2557L369.419 137.203L356.591 109.064C356.718 108.713 356.877 108.331 357.037 107.981L372.762 76.5314L384.921 80.2557Z" fill="#383838"/>
<path d="M369.483 82.8341L358.628 146.625L323.804 135.643L308.811 130.9L314.764 95.8215L319.634 67.1092L369.483 82.8341Z" fill="#FFAAC1" stroke="#383838" stroke-width="0.33" stroke-miterlimit="10"/>
<path d="M369.483 82.8342L378.459 82.3567L367.605 146.148L358.628 146.625L369.483 82.8342Z" fill="#FF9CB7" stroke="#383838" stroke-width="0.33" stroke-miterlimit="10"/>
<path d="M319.634 67.1092L328.611 66.6317L378.459 82.3566L369.483 82.8341L319.634 67.1092Z" fill="#FF7B9F" stroke="#383838" stroke-width="0.33" stroke-miterlimit="10"/>
<path opacity="0.3" d="M333.895 122.656C333.895 130.487 329.598 137.681 322.69 141.341L307.697 136.63L313.618 101.488C324.95 101.997 333.895 111.324 333.895 122.656Z" fill="#383838"/>
<path d="M316.419 149.204C328.11 149.204 337.587 139.726 337.587 128.035C337.587 116.344 328.11 106.867 316.419 106.867C304.728 106.867 295.251 116.344 295.251 128.035C295.251 139.726 304.728 149.204 316.419 149.204Z" fill="#F0AAA5" stroke="#383838" stroke-width="0.33" stroke-miterlimit="10"/>
<path d="M451.1 90.2192C450.877 90.06 450.686 89.9327 450.463 89.8054C448.521 88.6913 446.771 88.5958 445.497 89.3279L442.441 91.1105L437.73 93.848L349.938 136.184C348.697 136.916 347.901 138.476 347.901 140.673C347.901 145.097 351.02 150.509 354.872 152.737C356.877 153.883 358.66 153.978 359.933 153.151C359.901 153.183 359.87 153.183 359.838 153.214L433.56 119.059L455.397 106.358C456.638 105.626 457.434 104.066 457.434 101.901C457.434 97.6997 454.665 92.6703 451.1 90.2192Z" fill="#662640" stroke="#383838" stroke-width="0.33" stroke-miterlimit="10"/>
<path d="M354.936 136.948C358.66 139.113 361.684 144.333 361.652 148.599C361.62 152.864 358.596 154.615 354.872 152.45C351.148 150.286 348.124 145.065 348.156 140.8C348.187 136.534 351.211 134.784 354.936 136.948Z" fill="#754557" stroke="#141414" stroke-width="0.33" stroke-miterlimit="10"/>
<path d="M434.229 106.613C434.229 108.491 433.56 109.796 432.478 110.433L413.888 121.224C416.88 115.144 418.981 108.109 420.286 102.634L424.297 100.31L426.907 98.8139C427.99 98.1773 429.486 98.2728 431.141 99.2278C431.332 99.3233 431.491 99.4506 431.682 99.5779C433.242 101.679 434.229 104.289 434.229 106.613Z" fill="#370F1E"/>
<path d="M446.993 65.0404L418.663 114.125L472.841 89.5827L446.993 65.0404Z" fill="#FFE600" stroke="#383838" stroke-width="0.33" stroke-miterlimit="10"/>
<path d="M472.841 89.5826L479.398 128.99L418.663 114.125L472.841 89.5826Z" fill="#BFAD00" stroke="#383838" stroke-width="0.33" stroke-miterlimit="10"/>
<path d="M434.133 128.194L434.038 154.201L411.405 141.15L411.501 115.143L434.133 128.194Z" fill="#FF5B86" stroke="#383838" stroke-width="0.33" stroke-miterlimit="10"/>
<path d="M434.133 128.194L456.988 114.92L456.925 140.927L434.038 154.201L434.133 128.194Z" fill="#BF4465" stroke="#383838" stroke-width="0.33" stroke-miterlimit="10"/>
<path d="M411.501 115.143L434.356 101.869L456.989 114.92L434.133 128.194L411.501 115.143Z" fill="#CC6984" stroke="#383838" stroke-width="0.33" stroke-miterlimit="10"/>
<path opacity="0.6" d="M390.492 177.852C429.239 177.852 460.649 176.242 460.649 174.255C460.649 172.269 429.239 170.658 390.492 170.658C351.745 170.658 320.335 172.269 320.335 174.255C320.335 176.242 351.745 177.852 390.492 177.852Z" fill="#662640" stroke="#383838" stroke-width="0.33" stroke-miterlimit="10"/>
<path d="M392.657 141.341L383.68 146.562C382.566 147.198 381.261 147.453 379.987 147.326C379.86 147.326 379.733 147.294 379.605 147.294L388.582 142.073C388.709 142.105 388.837 142.105 388.964 142.105C390.237 142.232 391.542 141.978 392.657 141.341Z" fill="#F5DEDB"/>
<path d="M367.796 108.459L376.772 103.238L377.154 103.27L368.178 108.491L367.796 108.459Z" fill="#F5DEDB"/>
<path d="M397.559 149.745L388.582 154.966C393.771 151.941 395.553 143.761 392.529 133.766C388.518 120.587 377.632 109.287 368.178 108.491L377.154 103.302C386.577 104.098 397.495 115.43 401.506 128.577C404.53 138.54 402.715 146.721 397.559 149.745Z" fill="#B8A7A4" stroke="#383838" stroke-width="0.33" stroke-miterlimit="10"/>
<path d="M368.178 108.459C377.6 109.255 388.518 120.587 392.529 133.733C396.54 146.88 392.147 156.907 382.693 156.111C382.566 156.111 382.439 156.079 382.311 156.079L379.605 147.23C379.733 147.262 379.86 147.262 379.987 147.262C385.94 147.771 388.709 141.469 386.163 133.16C383.616 124.852 376.772 117.754 370.852 117.245C370.724 117.245 370.597 117.213 370.47 117.213L367.764 108.363L368.178 108.459Z" fill="#F5DEDB" stroke="#383838" stroke-width="0.33" stroke-miterlimit="10"/>
<path opacity="0.07" d="M498.975 148.885C489.075 158.244 475.96 163.433 462.336 163.433H314.637C285.129 163.433 261 139.304 261 109.796C261 103.939 261.955 98.1455 263.833 92.6068C276.916 111.801 297.543 125.648 319.571 133.638C345.386 143.028 398.704 145.193 426.143 145.925C450.431 146.594 474.846 146.18 498.975 148.885Z" fill="black" stroke="black" stroke-width="0.33" stroke-miterlimit="10"/>
</g>
<defs>
<clipPath id="clip0">
<rect width="492" height="220" fill="white"/>
</clipPath>
</defs>
</svg>
