<svg width="322" height="540" viewBox="0 0 322 540" fill="none" xmlns="http://www.w3.org/2000/svg">
<rect width="322" height="540" rx="16" fill="#FFC757"/>
<path d="M73.3662 323.712C70.7788 327.696 66.4666 330.517 61.8258 331.264C56.8565 332.053 52.0104 330.476 47 330.725C49.6284 326.409 53.6121 321.762 58.335 320.185C66.672 317.405 74.0233 322.675 74.0233 322.675L73.3662 323.712Z" fill="#2B7A55" stroke="#000E07" stroke-width="0.33" stroke-miterlimit="10" stroke-linecap="round" stroke-linejoin="round"/>
<path d="M53.8584 326.865C53.8584 326.865 63.3042 322.425 74.0232 322.674" stroke="#000E07" stroke-width="0.33" stroke-miterlimit="10" stroke-linecap="round" stroke-linejoin="round"/>
<path d="M85.5635 482.02C87.4116 485.63 90.4507 488.618 94.0647 490.444C97.6788 492.27 101.868 492.892 105.851 492.187C106.303 488.286 105.646 484.51 103.552 481.19C101.457 477.87 98.1716 475.339 94.4343 474.094" fill="#005F32"/>
<path d="M72.0521 478.783C65.1525 480.36 57.4726 477.331 52.9551 471.314C56.8977 468.119 61.7849 466.5 66.6721 466.998C71.6003 467.455 76.3232 469.945 79.8141 473.845" fill="#005F32"/>
<path d="M116.406 487.912C142.966 487.912 164.498 482.58 164.498 476.003C164.498 469.426 142.966 464.094 116.406 464.094C89.8458 464.094 68.3145 469.426 68.3145 476.003C68.3145 482.58 89.8458 487.912 116.406 487.912Z" fill="#005F32"/>
<path d="M161.787 490.61C173.4 490.61 182.814 487.34 182.814 483.307C182.814 479.273 173.4 476.003 161.787 476.003C150.174 476.003 140.76 479.273 140.76 483.307C140.76 487.34 150.174 490.61 161.787 490.61Z" fill="#005F32"/>
<path d="M85.9335 487.249C97.5465 487.249 106.961 483.979 106.961 479.945C106.961 475.912 97.5465 472.642 85.9335 472.642C74.3205 472.642 64.9062 475.912 64.9062 479.945C64.9062 483.979 74.3205 487.249 85.9335 487.249Z" fill="#005F32"/>
<path d="M165.894 473.347C177.507 473.347 186.922 470.077 186.922 466.044C186.922 462.01 177.507 458.741 165.894 458.741C154.281 458.741 144.867 462.01 144.867 466.044C144.867 470.077 154.281 473.347 165.894 473.347Z" fill="#005F32"/>
<path d="M139.651 464.716C140.925 460.318 143.758 456.417 147.537 453.844C151.274 451.271 155.956 450.11 160.432 450.525C161.295 454.259 161.048 458.16 159.529 461.687C158.009 465.214 155.34 468.243 152.054 470.152" fill="#005F32"/>
<path d="M71.0664 416.083L81.4979 476.003C81.4979 480.692 97.1451 484.51 116.406 484.51C135.709 484.51 151.315 480.692 151.315 476.003L161.746 416.083H71.0664Z" fill="#579578" stroke="#000E07" stroke-width="0.33" stroke-miterlimit="10" stroke-linecap="round" stroke-linejoin="round"/>
<path d="M116.406 445.669C97.6788 445.669 81.6619 442.806 75.0088 438.781L75.5016 441.52C82.4012 445.42 98.1305 448.159 116.447 448.159C134.764 448.159 150.452 445.42 157.393 441.52L157.886 438.781C151.191 442.806 135.133 445.669 116.406 445.669Z" fill="#2B7A55" stroke="#000E07" stroke-width="0.33" stroke-miterlimit="10" stroke-linecap="round" stroke-linejoin="round"/>
<path d="M150.986 285.784C148.358 284.415 145.319 284.083 142.403 284.083C139.446 284.041 136.489 284.29 133.573 284C135.298 287.029 136.859 289.934 139.569 292.092C142.937 294.789 147.455 295.743 151.685 295.121C153.163 294.914 154.6 294.499 155.956 293.918C156.079 292.88 155.997 291.884 155.668 290.93C154.847 288.648 153.04 286.822 150.986 285.784Z" fill="#2B7A55" stroke="#000E07" stroke-width="0.33" stroke-miterlimit="10" stroke-linecap="round" stroke-linejoin="round"/>
<path d="M140.268 286.905C140.268 286.905 150.822 289.477 155.915 293.876" stroke="#000E07" stroke-width="0.33" stroke-miterlimit="10" stroke-linecap="round" stroke-linejoin="round"/>
<path d="M153.738 312.176L152.875 302.798C152.834 302.217 152.916 301.594 153.163 301.055L155.709 295.163C155.832 294.872 156.161 294.665 156.489 294.748C156.9 294.831 157.105 295.246 156.982 295.66L154.682 302.466L156.366 311.139" fill="#708D22"/>
<path d="M153.738 312.176L152.875 302.798C152.834 302.217 152.916 301.594 153.163 301.055L155.709 295.163C155.832 294.872 156.161 294.665 156.489 294.748C156.9 294.831 157.105 295.246 156.982 295.66L154.682 302.466L156.366 311.139" stroke="#000E07" stroke-width="0.33" stroke-miterlimit="10" stroke-linecap="round" stroke-linejoin="round"/>
<path d="M128.111 313.047C124.333 314.458 119.979 314.209 116.406 312.383C112.587 310.433 110.041 306.864 106.468 304.499C110.41 302.881 115.462 301.719 119.487 303.047C126.591 305.37 129.015 312.715 129.015 312.715L128.111 313.047Z" fill="#2B7A55" stroke="#000E07" stroke-width="0.33" stroke-miterlimit="10" stroke-linecap="round" stroke-linejoin="round"/>
<path d="M113.121 305.329C113.121 305.329 121.828 307.072 129.056 312.674" stroke="#000E07" stroke-width="0.33" stroke-miterlimit="10" stroke-linecap="round" stroke-linejoin="round"/>
<path d="M77.9663 313.462C82.1964 313.296 86.3854 311.305 89.137 308.026C92.0529 304.541 93.1207 300.018 95.667 296.241C91.1494 296.283 85.7694 297.196 82.3607 300.142C76.3235 305.288 76.8985 313.462 76.8985 313.462H77.9663Z" fill="#2B7A55" stroke="#000E07" stroke-width="0.33" stroke-miterlimit="10" stroke-linecap="round" stroke-linejoin="round"/>
<path d="M89.5066 299.769C89.5066 299.769 81.7035 305.039 76.8574 313.504" stroke="#000E07" stroke-width="0.33" stroke-miterlimit="10" stroke-linecap="round" stroke-linejoin="round"/>
<path d="M102.608 300.557C106.838 301.013 111.232 299.561 114.395 296.739C117.762 293.71 119.446 289.394 122.485 285.992C118.009 285.411 112.546 285.535 108.768 287.983C102.115 292.258 101.54 300.432 101.54 300.432L102.608 300.557Z" fill="#2B7A55" stroke="#000E07" stroke-width="0.33" stroke-miterlimit="10" stroke-linecap="round" stroke-linejoin="round"/>
<path d="M115.913 288.606C115.913 288.606 107.453 292.714 101.498 300.432" stroke="#000E07" stroke-width="0.33" stroke-miterlimit="10" stroke-linecap="round" stroke-linejoin="round"/>
<path d="M57.8423 303.503C56.5692 299.935 56.2817 296.283 55.9121 292.507C61.0457 292.922 66.3025 294.208 70.3683 297.403C75.4609 301.387 77.35 307.86 75.1734 313.587C73.8181 313.794 72.4218 313.919 71.0254 313.836C68.8488 313.753 66.6721 313.296 64.7419 312.259C61.4153 310.475 59.1155 307.114 57.8423 303.503Z" fill="#2B7A55" stroke="#000E07" stroke-width="0.33" stroke-miterlimit="10" stroke-linecap="round" stroke-linejoin="round"/>
<path d="M75.2139 313.587C75.2139 313.587 69.9982 303.669 61.5791 297.486" stroke="#000E07" stroke-width="0.33" stroke-miterlimit="10" stroke-linecap="round" stroke-linejoin="round"/>
<path d="M142.115 297.03C141.951 293.42 140.883 290.141 139.856 286.697C135.503 288.938 131.396 291.967 128.973 296.241C125.975 301.553 126.632 307.943 130.575 312.134C131.848 311.844 133.08 311.387 134.271 310.848C136.16 309.977 137.885 308.773 139.199 307.155C141.499 304.416 142.321 300.64 142.115 297.03Z" fill="#2B7A55" stroke="#000E07" stroke-width="0.33" stroke-miterlimit="10" stroke-linecap="round" stroke-linejoin="round"/>
<path d="M130.575 312.176C130.575 312.176 131.109 301.677 136.243 293.17" stroke="#000E07" stroke-width="0.33" stroke-miterlimit="10" stroke-linecap="round" stroke-linejoin="round"/>
<path d="M161.007 435.337C161.048 435.171 164.539 416.083 164.539 416.083H68.3145C68.3145 416.083 71.8053 435.171 71.8464 435.337V435.378C73.4481 441.146 92.7915 445.669 116.406 445.669C140.021 445.669 159.405 441.146 161.007 435.337Z" fill="#579578" stroke="#000E07" stroke-width="0.33" stroke-miterlimit="10" stroke-linecap="round" stroke-linejoin="round"/>
<path d="M138.173 335.787L132.177 326.285C131.889 325.787 131.643 325.247 131.52 324.708L129.589 316.242C129.507 315.869 129.712 315.454 130.082 315.33C130.493 315.164 130.945 315.413 131.068 315.828L133.778 324.542L140.062 332.011" fill="#708D22"/>
<path d="M138.173 335.787L132.177 326.285C131.889 325.787 131.643 325.247 131.52 324.708L129.589 316.242C129.507 315.869 129.712 315.454 130.082 315.33C130.493 315.164 130.945 315.413 131.068 315.828L133.778 324.542L140.062 332.011" stroke="#000E07" stroke-width="0.33" stroke-miterlimit="10" stroke-linecap="round" stroke-linejoin="round"/>
<path d="M131.109 322.923C131.766 322.716 132.423 322.55 133.121 322.342L131.109 315.828C130.986 315.413 130.534 315.164 130.123 315.33C129.753 315.454 129.548 315.869 129.63 316.242L131.109 322.923Z" fill="#475916" stroke="#475916" stroke-width="0.33" stroke-miterlimit="10" stroke-linecap="round" stroke-linejoin="round"/>
<path d="M138.173 335.787L132.177 326.285C131.889 325.787 131.643 325.247 131.52 324.708L129.589 316.242C129.507 315.869 129.712 315.454 130.082 315.33C130.493 315.164 130.945 315.413 131.068 315.828L133.778 324.542L140.062 332.011" stroke="#000E07" stroke-width="0.33" stroke-miterlimit="10" stroke-linecap="round" stroke-linejoin="round"/>
<path d="M116.406 427.992C142.966 427.992 164.498 422.66 164.498 416.083C164.498 409.505 142.966 404.173 116.406 404.173C89.8458 404.173 68.3145 409.505 68.3145 416.083C68.3145 422.66 89.8458 427.992 116.406 427.992Z" fill="#ADCCBD" stroke="#000E07" stroke-width="0.33" stroke-miterlimit="10" stroke-linecap="round" stroke-linejoin="round"/>
<path d="M116.406 425.959C141.447 425.959 161.746 421.537 161.746 416.083C161.746 410.628 141.447 406.207 116.406 406.207C91.3658 406.207 71.0664 410.628 71.0664 416.083C71.0664 421.537 91.3658 425.959 116.406 425.959Z" fill="#579578" stroke="#000E07" stroke-width="0.33" stroke-miterlimit="10" stroke-linecap="round" stroke-linejoin="round"/>
<path d="M130.863 308.939C127.044 308.483 123.224 309.437 119.857 311.18C116.489 312.964 114.148 315.911 111.479 318.732C116.16 321.637 121.787 321.845 126.633 320.309C131.315 318.815 135.422 315.869 139.2 312.591C136.777 310.558 133.82 309.313 130.863 308.939Z" fill="#2B7A55" stroke="#000E07" stroke-width="0.33" stroke-miterlimit="10" stroke-linecap="round" stroke-linejoin="round"/>
<path d="M111.479 318.732C111.479 318.732 125.319 312.466 131.725 313.172" stroke="#000E07" stroke-width="0.33" stroke-miterlimit="10" stroke-linecap="round" stroke-linejoin="round"/>
<path d="M160.103 418.739C155.75 414.34 137.844 411.062 116.406 411.062C94.9683 411.062 77.0623 414.34 72.709 418.739C78.0479 422.888 95.5843 425.959 116.406 425.959C137.228 425.959 154.764 422.93 160.103 418.739Z" fill="#5C502B" stroke="#000E07" stroke-width="0.33" stroke-miterlimit="10" stroke-linecap="round" stroke-linejoin="round"/>
<path d="M153.491 332.924L151.109 341.97C150.904 342.842 150.411 343.589 149.713 344.128L137.146 354.336C136.448 354.876 135.462 354.751 134.928 354.046C134.558 353.548 134.517 352.884 134.846 352.344L135.585 351.017C135.831 350.56 136.201 350.187 136.612 349.938L147.495 342.8C148.234 342.302 148.809 341.597 149.097 340.767L152.095 332.509C152.218 332.219 152.464 332.011 152.793 332.011C153.286 332.011 153.614 332.468 153.491 332.924Z" fill="#708D22" stroke="#000E07" stroke-width="0.33" stroke-miterlimit="10" stroke-linecap="round" stroke-linejoin="round"/>
<path d="M186.634 322.55C185.074 316.325 180.926 311.636 176.039 309.769H175.997C175.71 309.686 175.464 309.562 175.176 309.479L170.823 307.985C170.412 307.86 170.084 307.57 169.837 307.238L169.755 307.113C169.303 306.449 168.482 306.117 167.702 306.325C166.921 306.532 166.346 307.196 166.264 308.026V308.192C166.223 308.607 166.059 309.022 165.771 309.313L162.65 312.715C162.445 312.923 162.239 313.13 162.075 313.338L162.034 313.379C158.625 317.363 157.229 323.504 158.79 329.729C160.35 335.953 164.498 340.642 169.385 342.51H169.426C169.714 342.593 169.96 342.717 170.248 342.8L174.601 344.294C175.012 344.418 175.34 344.709 175.587 345.041L175.669 345.165C176.121 345.829 176.942 346.161 177.722 345.954C178.503 345.746 179.078 345.082 179.16 344.252V344.086C179.201 343.671 179.365 343.257 179.653 342.966L182.774 339.563C182.979 339.356 183.184 339.148 183.349 338.941L183.39 338.899C186.799 334.874 188.195 328.733 186.634 322.55Z" fill="#FFAA05" stroke="#000E07" stroke-width="0.33" stroke-miterlimit="10" stroke-linecap="round" stroke-linejoin="round"/>
<path opacity="0.3" d="M175.923 324.397C176.333 318.475 173.125 313.425 168.758 313.116C164.391 312.807 160.519 317.357 160.109 323.279C159.699 329.2 162.906 334.251 167.273 334.559C171.641 334.868 175.513 330.318 175.923 324.397Z" fill="#FCEE21" stroke="#FFAA05" stroke-width="0.33" stroke-miterlimit="10" stroke-linecap="round" stroke-linejoin="round"/>
<path d="M178.462 340.725C178.626 340.518 178.832 340.352 178.996 340.144" stroke="#000E07" stroke-width="0.33" stroke-miterlimit="10" stroke-linecap="round" stroke-linejoin="round"/>
<path d="M179.775 336.7C179.94 336.493 180.104 336.285 180.309 336.078" stroke="#000E07" stroke-width="0.33" stroke-miterlimit="10" stroke-linecap="round" stroke-linejoin="round"/>
<path d="M183.965 333.712C184.088 333.505 184.17 333.297 184.293 333.09" stroke="#000E07" stroke-width="0.33" stroke-miterlimit="10" stroke-linecap="round" stroke-linejoin="round"/>
<path d="M183.021 329.065C183.062 328.774 183.103 328.442 183.144 328.152" stroke="#000E07" stroke-width="0.33" stroke-miterlimit="10" stroke-linecap="round" stroke-linejoin="round"/>
<path d="M179.652 332.592C179.776 332.385 179.858 332.177 179.981 331.97" stroke="#000E07" stroke-width="0.33" stroke-miterlimit="10" stroke-linecap="round" stroke-linejoin="round"/>
<path d="M175.792 338.443C175.915 338.235 176.038 338.069 176.162 337.862" stroke="#000E07" stroke-width="0.33" stroke-miterlimit="10" stroke-linecap="round" stroke-linejoin="round"/>
<path d="M179.488 325.289C179.488 324.957 179.488 324.583 179.529 324.251" stroke="#000E07" stroke-width="0.33" stroke-miterlimit="10" stroke-linecap="round" stroke-linejoin="round"/>
<path d="M183.185 323.131C183.144 322.882 183.103 322.674 183.062 322.425" stroke="#000E07" stroke-width="0.33" stroke-miterlimit="10" stroke-linecap="round" stroke-linejoin="round"/>
<path d="M178.461 317.28C178.338 316.989 178.174 316.699 178.051 316.408" stroke="#000E07" stroke-width="0.33" stroke-miterlimit="10" stroke-linecap="round" stroke-linejoin="round"/>
<path d="M171.603 319.687C174.601 321.637 181.377 323.878 181.377 323.878C181.541 317.695 180.227 313.587 178.297 310.848C177.558 310.433 176.818 310.06 176.079 309.769H176.038C175.751 309.686 175.504 309.562 175.217 309.479L170.863 307.985C170.453 307.86 170.124 307.57 169.878 307.238L169.796 307.113C169.344 306.449 168.522 306.117 167.742 306.325C166.962 306.532 166.387 307.196 166.305 308.026V308.192C166.264 308.607 166.099 309.022 165.812 309.313L164.744 310.474C164.908 311.636 165.237 312.757 165.771 313.753C167.003 316.242 169.221 318.151 171.603 319.687Z" fill="#475916" stroke="#475916" stroke-width="0.33" stroke-miterlimit="10" stroke-linecap="round" stroke-linejoin="round"/>
<path d="M186.634 322.55C185.074 316.325 180.926 311.636 176.039 309.769H175.997C175.71 309.686 175.464 309.562 175.176 309.479L170.823 307.985C170.412 307.86 170.084 307.57 169.837 307.238L169.755 307.113C169.303 306.449 168.482 306.117 167.702 306.325C166.921 306.532 166.346 307.196 166.264 308.026V308.192C166.223 308.607 166.059 309.022 165.771 309.313L162.65 312.715C162.445 312.923 162.239 313.13 162.075 313.338L162.034 313.379C158.625 317.363 157.229 323.504 158.79 329.729C160.35 335.953 164.498 340.642 169.385 342.51H169.426C169.714 342.593 169.96 342.717 170.248 342.8L174.601 344.294C175.012 344.418 175.34 344.709 175.587 345.041L175.669 345.165C176.121 345.829 176.942 346.161 177.722 345.954C178.503 345.746 179.078 345.082 179.16 344.252V344.086C179.201 343.671 179.365 343.257 179.653 342.966L182.774 339.563C182.979 339.356 183.184 339.148 183.349 338.941L183.39 338.899C186.799 334.874 188.195 328.733 186.634 322.55Z" stroke="#000E07" stroke-width="0.33" stroke-miterlimit="10" stroke-linecap="round" stroke-linejoin="round"/>
<path d="M186.593 316.159C186.593 316.159 179.488 316.699 175.956 316.076C173.204 315.579 170.412 314.707 168.235 312.881C166.058 311.055 164.58 308.234 164.99 305.412C165.032 305.37 179.2 296.698 186.593 316.159Z" fill="#2B7A55" stroke="#000E07" stroke-width="0.33" stroke-miterlimit="10" stroke-linecap="round" stroke-linejoin="round"/>
<path d="M165.031 305.37C165.031 305.37 172.013 307.072 179.036 311.304" stroke="#000E07" stroke-width="0.33" stroke-miterlimit="10" stroke-linecap="round" stroke-linejoin="round"/>
<path d="M152.095 322.923C151.684 320.185 150.575 317.612 149.302 315.205C148.029 312.798 146.509 310.557 145.195 308.192C142.731 310.35 140.513 313.172 139.405 316.491C138.296 319.811 138.172 323.587 139.322 326.948C140.472 330.31 143.019 333.09 146.099 333.961C146.427 334.044 146.756 334.127 147.125 334.169C148.686 333.629 150.082 332.426 150.945 330.891C152.218 328.608 152.547 325.662 152.095 322.923Z" fill="#2B7A55" stroke="#000E07" stroke-width="0.33" stroke-miterlimit="10" stroke-linecap="round" stroke-linejoin="round"/>
<path d="M144.826 315.163C144.826 315.163 144.538 325.039 147.126 334.169" stroke="#000E07" stroke-width="0.33" stroke-miterlimit="10" stroke-linecap="round" stroke-linejoin="round"/>
<path d="M171.274 294.166C171.11 294.125 170.987 294.166 170.863 294.249L166.592 297.486C166.223 297.777 165.935 298.109 165.689 298.524L161.5 306.076L143.142 318.691C141.828 319.604 140.883 320.89 140.431 322.425L131.478 352.718C131.273 353.465 130.821 354.087 130.246 354.585L124.497 359.482C123.142 360.602 121.129 360.187 120.349 358.61L111.478 341.099L110.739 325.87C110.698 324.832 110.246 323.836 109.507 323.131L99.3216 313.255L100.513 301.719C100.554 301.262 100.225 300.889 99.8145 300.847C99.4448 300.806 99.0752 301.096 98.9931 301.47L96.4058 313.089C96.2415 313.877 96.4468 314.707 97.0218 315.288L107.659 326.326L107.412 340.186L113.901 363.59C114.271 365.001 113.737 366.494 112.505 367.283L110.821 368.403C109.794 369.067 108.48 369.026 107.494 368.279L90.6151 355.456L86.0564 330.6C85.9332 329.895 85.5636 329.231 85.0297 328.733L78.048 322.342L77.0213 315.371C76.9802 315.039 76.7338 314.79 76.4053 314.749C75.9946 314.707 75.666 315.039 75.666 315.413V322.882C75.666 323.546 75.9124 324.168 76.3231 324.666L81.6621 330.683L84.8244 357.49C84.9476 358.693 85.5225 359.814 86.3439 360.685L107.7 382.346C108.603 383.259 109.137 384.504 109.137 385.832V420.813V420.855C109.137 421.726 112.423 422.431 116.447 422.431C120.472 422.431 123.758 421.726 123.758 420.855V376.495C123.758 374.13 124.579 371.847 126.057 370.022L136.325 357.324C137.269 356.12 137.967 354.751 138.296 353.216L145.935 322.84L163.676 308.358C164.292 307.819 164.826 307.155 165.155 306.408L168.892 297.984L171.562 295.121C171.808 294.747 171.726 294.291 171.274 294.166Z" fill="url(#paint0_linear)" stroke="#000E07" stroke-width="0.33" stroke-miterlimit="10" stroke-linecap="round" stroke-linejoin="round"/>
<path d="M120.349 358.652L116.078 350.228H110.205L113.901 363.507C114.024 364.005 114.066 364.503 113.983 364.959L116.858 363.465C117.146 363.341 117.392 363.175 117.68 363.05L117.721 363.009C119.158 362.179 120.472 361.142 121.622 359.897C121.088 359.648 120.637 359.233 120.349 358.652Z" fill="#475916" stroke="#475916" stroke-width="0.33" stroke-miterlimit="10" stroke-linecap="round" stroke-linejoin="round"/>
<path d="M171.274 294.166C171.11 294.125 170.987 294.166 170.863 294.249L166.592 297.486C166.223 297.777 165.935 298.109 165.689 298.524L161.5 306.076L143.142 318.691C141.828 319.604 140.883 320.89 140.431 322.425L131.478 352.718C131.273 353.465 130.821 354.087 130.246 354.585L124.497 359.482C123.142 360.602 121.129 360.187 120.349 358.61L111.478 341.099L110.739 325.87C110.698 324.832 110.246 323.836 109.507 323.131L99.3216 313.255L100.513 301.719C100.554 301.262 100.225 300.889 99.8145 300.847C99.4448 300.806 99.0752 301.096 98.9931 301.47L96.4058 313.089C96.2415 313.877 96.4468 314.707 97.0218 315.288L107.659 326.326L107.412 340.186L113.901 363.59C114.271 365.001 113.737 366.494 112.505 367.283L110.821 368.403C109.794 369.067 108.48 369.026 107.494 368.279L90.6151 355.456L86.0564 330.6C85.9332 329.895 85.5636 329.231 85.0297 328.733L78.048 322.342L77.0213 315.371C76.9802 315.039 76.7338 314.79 76.4053 314.749C75.9946 314.707 75.666 315.039 75.666 315.413V322.882C75.666 323.546 75.9124 324.168 76.3231 324.666L81.6621 330.683L84.8244 357.49C84.9476 358.693 85.5225 359.814 86.3439 360.685L107.7 382.346C108.603 383.259 109.137 384.504 109.137 385.832V420.813V420.855C109.137 421.726 112.423 422.431 116.447 422.431C120.472 422.431 123.758 421.726 123.758 420.855V376.495C123.758 374.13 124.579 371.847 126.057 370.022L136.325 357.324C137.269 356.12 137.967 354.751 138.296 353.216L145.935 322.84L163.676 308.358C164.292 307.819 164.826 307.155 165.155 306.408L168.892 297.984L171.562 295.121C171.808 294.747 171.726 294.291 171.274 294.166Z" stroke="#000E07" stroke-width="0.33" stroke-miterlimit="10" stroke-linecap="round" stroke-linejoin="round"/>
<path d="M144.169 324.832L153.368 322.923L154.847 320.6C155.011 320.351 155.34 320.185 155.627 320.268C156.079 320.351 156.325 320.849 156.161 321.305L155.093 324.044C154.888 324.542 154.477 324.957 153.943 325.081L146.099 327.322C145.155 327.571 144.456 328.359 144.21 329.272" fill="#7E8D2E"/>
<path d="M144.169 324.832L153.368 322.923L154.847 320.6C155.011 320.351 155.34 320.185 155.627 320.268C156.079 320.351 156.325 320.849 156.161 321.305L155.093 324.044C154.888 324.542 154.477 324.957 153.943 325.081L146.099 327.322C145.155 327.571 144.456 328.359 144.21 329.272" stroke="#000E07" stroke-width="0.33" stroke-miterlimit="10" stroke-linecap="round" stroke-linejoin="round"/>
<path d="M167.701 357.117C166.592 350.27 162.567 344.834 157.516 342.344L157.475 342.302C157.187 342.178 156.9 342.053 156.612 341.929L152.054 339.896C151.643 339.73 151.314 339.398 151.068 338.983L150.986 338.817C150.575 338.028 149.713 337.613 148.85 337.779C147.988 337.904 147.29 338.609 147.125 339.481L147.084 339.647C147.002 340.103 146.756 340.518 146.427 340.809L142.772 344.17C142.526 344.377 142.32 344.585 142.074 344.792L142.033 344.834C138.008 348.817 135.914 355.291 137.022 362.096C138.131 368.943 142.156 374.379 147.207 376.869L147.249 376.91C147.536 377.035 147.823 377.159 148.111 377.284L152.67 379.317C153.08 379.483 153.409 379.815 153.655 380.23L153.737 380.396C154.148 381.184 155.011 381.599 155.873 381.433C156.735 381.309 157.434 380.603 157.598 379.732L157.639 379.566C157.721 379.11 157.967 378.695 158.296 378.404L161.951 375.043C162.198 374.836 162.403 374.628 162.649 374.421L162.69 374.379C166.715 370.395 168.81 363.963 167.701 357.117Z" fill="#FFAA05" stroke="#000E07" stroke-width="0.33" stroke-miterlimit="10" stroke-linecap="round" stroke-linejoin="round"/>
<path opacity="0.3" d="M156.032 358.106C157.023 351.791 154.032 346.064 149.35 345.313C144.668 344.563 140.069 349.073 139.078 355.388C138.086 361.703 141.077 367.43 145.759 368.181C150.441 368.931 155.04 364.421 156.032 358.106Z" fill="#FCEE21" stroke="#FFAA05" stroke-width="0.33" stroke-miterlimit="10" stroke-linecap="round" stroke-linejoin="round"/>
<path d="M157.188 375.914C157.393 375.707 157.598 375.541 157.804 375.333" stroke="#000E07" stroke-width="0.33" stroke-miterlimit="10" stroke-linecap="round" stroke-linejoin="round"/>
<path d="M158.994 371.723C159.199 371.516 159.405 371.308 159.61 371.101" stroke="#000E07" stroke-width="0.33" stroke-miterlimit="10" stroke-linecap="round" stroke-linejoin="round"/>
<path d="M163.799 368.86C163.922 368.653 164.086 368.445 164.21 368.238" stroke="#000E07" stroke-width="0.33" stroke-miterlimit="10" stroke-linecap="round" stroke-linejoin="round"/>
<path d="M163.225 363.798C163.307 363.466 163.348 363.134 163.43 362.843" stroke="#000E07" stroke-width="0.33" stroke-miterlimit="10" stroke-linecap="round" stroke-linejoin="round"/>
<path d="M159.24 367.283C159.363 367.076 159.528 366.868 159.651 366.661" stroke="#000E07" stroke-width="0.33" stroke-miterlimit="10" stroke-linecap="round" stroke-linejoin="round"/>
<path d="M154.559 373.176C154.723 372.968 154.887 372.761 155.01 372.595" stroke="#000E07" stroke-width="0.33" stroke-miterlimit="10" stroke-linecap="round" stroke-linejoin="round"/>
<path d="M159.733 359.399C159.774 359.025 159.816 358.652 159.857 358.278" stroke="#000E07" stroke-width="0.33" stroke-miterlimit="10" stroke-linecap="round" stroke-linejoin="round"/>
<path d="M163.964 357.407C163.923 357.158 163.923 356.868 163.882 356.619" stroke="#000E07" stroke-width="0.33" stroke-miterlimit="10" stroke-linecap="round" stroke-linejoin="round"/>
<path d="M159.405 350.685C159.282 350.353 159.158 350.021 159.035 349.689" stroke="#000E07" stroke-width="0.33" stroke-miterlimit="10" stroke-linecap="round" stroke-linejoin="round"/>
<path d="M157.517 342.344L157.476 342.302C157.188 342.178 156.901 342.053 156.614 341.929L152.055 339.896C151.644 339.73 151.316 339.398 151.069 338.983L150.987 338.817C150.576 338.028 149.714 337.613 148.852 337.779C147.989 337.904 147.291 338.609 147.127 339.481L147.086 339.647V339.688C147.086 339.73 147.044 339.771 147.044 339.813C146.921 340.186 146.757 340.518 146.428 340.809L142.773 344.17C142.527 344.377 142.322 344.585 142.075 344.792L142.034 344.834C139.118 347.738 137.188 351.93 136.818 356.66C140.022 355.415 142.938 353.465 145.114 350.809C147.291 348.153 148.605 344.751 148.564 341.307C151.357 343.589 155.874 345.29 161.87 345.373C160.515 344.17 159.078 343.132 157.517 342.344Z" fill="#475916" stroke="#475916" stroke-width="0.33" stroke-miterlimit="10" stroke-linecap="round" stroke-linejoin="round"/>
<path d="M167.701 357.117C166.592 350.27 162.567 344.834 157.516 342.344L157.475 342.302C157.187 342.178 156.9 342.053 156.612 341.929L152.054 339.896C151.643 339.73 151.314 339.398 151.068 338.983L150.986 338.817C150.575 338.028 149.713 337.613 148.85 337.779C147.988 337.904 147.29 338.609 147.125 339.481L147.084 339.647C147.002 340.103 146.756 340.518 146.427 340.809L142.772 344.17C142.526 344.377 142.32 344.585 142.074 344.792L142.033 344.834C138.008 348.817 135.914 355.291 137.022 362.096C138.131 368.943 142.156 374.379 147.207 376.869L147.249 376.91C147.536 377.035 147.823 377.159 148.111 377.284L152.67 379.317C153.08 379.483 153.409 379.815 153.655 380.23L153.737 380.396C154.148 381.184 155.011 381.599 155.873 381.433C156.735 381.309 157.434 380.603 157.598 379.732L157.639 379.566C157.721 379.11 157.967 378.695 158.296 378.404L161.951 375.043C162.198 374.836 162.403 374.628 162.649 374.421L162.69 374.379C166.715 370.395 168.81 363.963 167.701 357.117Z" stroke="#000E07" stroke-width="0.33" stroke-miterlimit="10" stroke-linecap="round" stroke-linejoin="round"/>
<path d="M149.262 335.497C152.383 340.352 162.281 344.336 176.778 340.186C176.778 340.186 166.593 321.388 149.262 335.497Z" fill="#2B7A55" stroke="#000E07" stroke-width="0.33" stroke-miterlimit="10" stroke-linecap="round" stroke-linejoin="round"/>
<path d="M149.262 335.497C149.262 335.497 159.159 332.011 170.207 337.613" stroke="#000E07" stroke-width="0.33" stroke-miterlimit="10" stroke-linecap="round" stroke-linejoin="round"/>
<path d="M124.004 354.751C127.864 354.876 131.807 354.544 135.503 353.34C139.199 352.137 142.649 350.021 145.113 346.991C147.577 343.962 148.933 339.937 148.481 336.078C142.813 335.082 136.776 336.451 132.094 339.812C127.413 343.174 124.907 349.025 124.004 354.751Z" fill="#2B7A55" stroke="#000E07" stroke-width="0.33" stroke-miterlimit="10" stroke-linecap="round" stroke-linejoin="round"/>
<path d="M133.244 346.991C133.244 346.991 138.871 340.393 148.481 336.078" stroke="#000E07" stroke-width="0.33" stroke-miterlimit="10" stroke-linecap="round" stroke-linejoin="round"/>
<path d="M124.168 343.298C124.826 336.41 122.32 330.102 118.049 326.409L118.008 326.368C117.762 326.16 117.515 325.953 117.269 325.787L113.367 322.674C112.998 322.384 112.751 322.01 112.628 321.554L112.587 321.388C112.382 320.517 111.642 319.894 110.78 319.811C109.918 319.728 109.096 320.185 108.685 321.015L108.603 321.181C108.398 321.596 108.069 321.927 107.7 322.135L103.305 324.459C103.018 324.583 102.772 324.749 102.484 324.874L102.443 324.915C97.5558 327.695 93.9007 333.422 93.2025 340.31C92.5044 347.199 95.0506 353.506 99.3218 357.199L99.3629 357.241C99.6093 357.448 99.8557 357.656 100.102 357.822L104.004 360.934C104.373 361.224 104.62 361.598 104.743 362.054L104.784 362.22C104.989 363.092 105.729 363.714 106.591 363.797C107.453 363.88 108.275 363.424 108.685 362.594L108.768 362.428C108.973 362.013 109.302 361.681 109.671 361.473L114.065 359.15C114.353 359.025 114.599 358.859 114.887 358.735L114.928 358.693C119.856 355.871 123.511 350.186 124.168 343.298Z" fill="#FFAA05" stroke="#000E07" stroke-width="0.33" stroke-miterlimit="10" stroke-linecap="round" stroke-linejoin="round"/>
<path opacity="0.3" d="M112.658 341.186C115.217 335.338 113.776 329.028 109.441 327.091C105.105 325.155 99.5162 328.326 96.9577 334.174C94.3993 340.022 95.8399 346.332 100.176 348.269C104.511 350.205 110.1 347.034 112.658 341.186Z" fill="#FCEE21" stroke="#FFAA05" stroke-width="0.33" stroke-miterlimit="10" stroke-linecap="round" stroke-linejoin="round"/>
<path d="M109.261 358.735C109.507 358.61 109.754 358.486 110 358.361" stroke="#000E07" stroke-width="0.33" stroke-miterlimit="10" stroke-linecap="round" stroke-linejoin="round"/>
<path d="M112.053 355.124C112.299 354.958 112.546 354.834 112.792 354.668" stroke="#000E07" stroke-width="0.33" stroke-miterlimit="10" stroke-linecap="round" stroke-linejoin="round"/>
<path d="M117.433 353.631C117.638 353.465 117.802 353.299 118.008 353.133" stroke="#000E07" stroke-width="0.33" stroke-miterlimit="10" stroke-linecap="round" stroke-linejoin="round"/>
<path d="M118.172 348.568C118.336 348.278 118.459 347.987 118.624 347.697" stroke="#000E07" stroke-width="0.33" stroke-miterlimit="10" stroke-linecap="round" stroke-linejoin="round"/>
<path d="M113.449 350.892C113.655 350.726 113.819 350.56 114.024 350.394" stroke="#000E07" stroke-width="0.33" stroke-miterlimit="10" stroke-linecap="round" stroke-linejoin="round"/>
<path d="M107.412 355.415C107.617 355.249 107.823 355.124 108.028 354.958" stroke="#000E07" stroke-width="0.33" stroke-miterlimit="10" stroke-linecap="round" stroke-linejoin="round"/>
<path d="M115.913 343.464C116.036 343.132 116.201 342.759 116.324 342.427" stroke="#000E07" stroke-width="0.33" stroke-miterlimit="10" stroke-linecap="round" stroke-linejoin="round"/>
<path d="M120.473 342.593C120.514 342.344 120.555 342.095 120.596 341.804" stroke="#000E07" stroke-width="0.33" stroke-miterlimit="10" stroke-linecap="round" stroke-linejoin="round"/>
<path d="M117.803 334.916C117.762 334.584 117.721 334.21 117.68 333.878" stroke="#000E07" stroke-width="0.33" stroke-miterlimit="10" stroke-linecap="round" stroke-linejoin="round"/>
<path d="M85.3585 352.137C86.9191 345.414 85.2353 338.816 81.4981 334.584L81.457 334.542C81.2516 334.293 81.0463 334.086 80.7999 333.878L77.3501 330.268C77.0216 329.936 76.8573 329.521 76.7751 329.065L76.7341 328.899C76.6109 328.027 75.9948 327.322 75.1324 327.114C74.2699 326.907 73.4075 327.28 72.9147 328.027L72.8325 328.193C72.5861 328.567 72.2165 328.857 71.8058 329.023L67.124 330.724C66.8365 330.807 66.549 330.932 66.2615 331.056L66.1794 331.098C60.9637 333.214 56.5693 338.401 55.0497 345.124C53.5302 351.846 55.173 358.444 58.9102 362.677L58.9513 362.718C59.1566 362.967 59.362 363.175 59.6084 363.382L63.0582 366.992C63.3867 367.324 63.551 367.739 63.6331 368.196L63.6742 368.362C63.7974 369.233 64.4134 369.938 65.2759 370.146C66.1383 370.353 67.0008 369.98 67.4936 369.233L67.5757 369.067C67.8221 368.694 68.1918 368.403 68.6025 368.237L73.2843 366.536C73.5718 366.453 73.8593 366.328 74.1467 366.204L74.2289 366.162C79.4446 364.046 83.7979 358.859 85.3585 352.137Z" fill="#FFAA05" stroke="#000E07" stroke-width="0.33" stroke-miterlimit="10" stroke-linecap="round" stroke-linejoin="round"/>
<path d="M81.4979 334.542L81.4568 334.501C81.2515 334.252 81.0461 334.044 80.7997 333.837L77.391 330.268C76.9803 333.505 77.8017 336.825 79.4034 339.646C80.964 342.344 83.2638 344.543 85.8922 346.244C85.728 341.68 84.1263 337.53 81.4979 334.542Z" fill="#475916" stroke="#475916" stroke-width="0.33" stroke-miterlimit="10" stroke-linecap="round" stroke-linejoin="round"/>
<path opacity="0.3" d="M74.1885 348.524C77.4868 343.067 76.881 336.62 72.8355 334.124C68.79 331.627 62.8367 334.027 59.5384 339.484C56.2402 344.94 56.8459 351.388 60.8915 353.884C64.937 356.381 70.8903 353.981 74.1885 348.524Z" fill="#FCEE21" stroke="#FFAA05" stroke-width="0.33" stroke-miterlimit="10" stroke-linecap="round" stroke-linejoin="round"/>
<path d="M74.7213 327.654L74.9266 326.99C74.1463 326.907 73.4071 327.239 72.9553 327.944L72.8732 328.11C72.6268 328.484 72.2571 328.774 71.8465 328.94L67.1646 330.642C66.8771 330.725 66.5896 330.849 66.3022 330.974L66.22 331.015C62.4417 332.551 59.0741 335.704 56.9385 339.895C59.8133 339.48 62.6881 339.107 65.3576 337.904C69.7109 335.995 73.2017 332.177 74.7213 327.654Z" fill="#475916" stroke="#475916" stroke-width="0.33" stroke-miterlimit="10" stroke-linecap="round" stroke-linejoin="round"/>
<path d="M68.5615 365.457C68.8079 365.374 69.0954 365.25 69.3418 365.167" stroke="#000E07" stroke-width="0.33" stroke-miterlimit="10" stroke-linecap="round" stroke-linejoin="round"/>
<path d="M71.8057 362.262C72.0931 362.137 72.3396 362.054 72.627 361.93" stroke="#000E07" stroke-width="0.33" stroke-miterlimit="10" stroke-linecap="round" stroke-linejoin="round"/>
<path d="M77.3086 361.473C77.5139 361.349 77.7193 361.183 77.9246 361.058" stroke="#000E07" stroke-width="0.33" stroke-miterlimit="10" stroke-linecap="round" stroke-linejoin="round"/>
<path d="M78.7051 356.577C78.9104 356.287 79.0747 356.038 79.28 355.747" stroke="#000E07" stroke-width="0.33" stroke-miterlimit="10" stroke-linecap="round" stroke-linejoin="round"/>
<path d="M73.7363 358.278C73.9417 358.154 74.147 357.988 74.3524 357.863" stroke="#000E07" stroke-width="0.33" stroke-miterlimit="10" stroke-linecap="round" stroke-linejoin="round"/>
<path d="M67.124 361.888C67.3294 361.764 67.5758 361.639 67.7811 361.515" stroke="#000E07" stroke-width="0.33" stroke-miterlimit="10" stroke-linecap="round" stroke-linejoin="round"/>
<path d="M77.1445 351.182C77.3088 350.85 77.5141 350.518 77.6784 350.186" stroke="#000E07" stroke-width="0.33" stroke-miterlimit="10" stroke-linecap="round" stroke-linejoin="round"/>
<path d="M81.7852 350.975C81.8673 350.726 81.9494 350.477 81.9905 350.228" stroke="#000E07" stroke-width="0.33" stroke-miterlimit="10" stroke-linecap="round" stroke-linejoin="round"/>
<path d="M80.1016 342.966C80.1016 342.634 80.1426 342.261 80.1426 341.929" stroke="#000E07" stroke-width="0.33" stroke-miterlimit="10" stroke-linecap="round" stroke-linejoin="round"/>
<path d="M85.3585 352.137C86.9191 345.414 85.2353 338.816 81.4981 334.584L81.457 334.542C81.2516 334.293 81.0463 334.086 80.7999 333.878L77.3501 330.268C77.0216 329.936 76.8573 329.521 76.7751 329.065L76.7341 328.899C76.6109 328.027 75.9948 327.322 75.1324 327.114C74.2699 326.907 73.4075 327.28 72.9147 328.027L72.8325 328.193C72.5861 328.567 72.2165 328.857 71.8058 329.023L67.124 330.724C66.8365 330.807 66.549 330.932 66.2615 331.056L66.1794 331.098C60.9637 333.214 56.5693 338.401 55.0497 345.124C53.5302 351.846 55.173 358.444 58.9102 362.677L58.9513 362.718C59.1566 362.967 59.362 363.175 59.6084 363.382L63.0582 366.992C63.3867 367.324 63.551 367.739 63.6331 368.196L63.6742 368.362C63.7974 369.233 64.4134 369.938 65.2759 370.146C66.1383 370.353 67.0008 369.98 67.4936 369.233L67.5757 369.067C67.8221 368.694 68.1918 368.403 68.6025 368.237L73.2843 366.536C73.5718 366.453 73.8593 366.328 74.1467 366.204L74.2289 366.162C79.4446 364.046 83.7979 358.859 85.3585 352.137Z" stroke="#000E07" stroke-width="0.33" stroke-miterlimit="10" stroke-linecap="round" stroke-linejoin="round"/>
<path d="M77.1441 324.334L76.0763 326.036C75.9531 326.243 75.6656 326.368 75.4192 326.285C75.1317 326.202 74.9263 325.87 75.0085 325.579L75.7067 322.592V321.388" fill="url(#paint1_linear)"/>
<path d="M77.1441 324.334L76.0763 326.036C75.9531 326.243 75.6656 326.368 75.4192 326.285C75.1317 326.202 74.9263 325.87 75.0085 325.579L75.7067 322.592V321.388" stroke="#000E07" stroke-width="0.33" stroke-miterlimit="10" stroke-linecap="round" stroke-linejoin="round"/>
<path d="M107.494 368.237L109.26 369.607C110.698 370.686 112.628 370.81 114.188 369.897L121.622 365.499" stroke="#000E07" stroke-width="0.33" stroke-miterlimit="10" stroke-linecap="round" stroke-linejoin="round"/>
<path d="M120.719 383.217V386.33" stroke="#000E07" stroke-width="0.33" stroke-miterlimit="10" stroke-linecap="round" stroke-linejoin="round"/>
<path d="M118.706 389.899V392.679" stroke="#000E07" stroke-width="0.33" stroke-miterlimit="10" stroke-linecap="round" stroke-linejoin="round"/>
<path d="M120.103 395.459V396.911" stroke="#000E07" stroke-width="0.33" stroke-miterlimit="10" stroke-linecap="round" stroke-linejoin="round"/>
<path d="M117.885 401.932V404.588" stroke="#000E07" stroke-width="0.33" stroke-miterlimit="10" stroke-linecap="round" stroke-linejoin="round"/>
<path d="M120.513 410.024V410.854" stroke="#000E07" stroke-width="0.33" stroke-miterlimit="10" stroke-linecap="round" stroke-linejoin="round"/>
<path d="M119.691 413.717V415.46" stroke="#000E07" stroke-width="0.33" stroke-miterlimit="10" stroke-linecap="round" stroke-linejoin="round"/>
<path d="M114.518 383.425V384.255" stroke="#000E07" stroke-width="0.33" stroke-miterlimit="10" stroke-linecap="round" stroke-linejoin="round"/>
<path d="M117.762 378.113V376.163" stroke="#000E07" stroke-width="0.33" stroke-miterlimit="10" stroke-linecap="round" stroke-linejoin="round"/>
<path d="M114.065 422.93L113.203 421.477C112.915 421.021 112.422 420.772 111.889 420.855L110.698 421.062L109.712 420.315C109.342 420.025 108.849 419.942 108.398 420.149L105.975 421.187" fill="#5C502B"/>
<path d="M114.065 422.93L113.203 421.477C112.915 421.021 112.422 420.772 111.889 420.855L110.698 421.062L109.712 420.315C109.342 420.025 108.849 419.942 108.398 420.149L105.975 421.187" stroke="#000E07" stroke-width="0.33" stroke-miterlimit="10" stroke-linecap="round" stroke-linejoin="round"/>
<path d="M119.979 423.054L121.704 421.187C122.156 420.689 122.895 420.523 123.511 420.813L125.113 421.477L126.181 420.398C126.592 419.983 127.167 419.817 127.741 419.942L129.302 420.315" fill="#5C502B"/>
<path d="M119.979 423.054L121.704 421.187C122.156 420.689 122.895 420.523 123.511 420.813L125.113 421.477L126.181 420.398C126.592 419.983 127.167 419.817 127.741 419.942L129.302 420.315" stroke="#000E07" stroke-width="0.33" stroke-miterlimit="10" stroke-linecap="round" stroke-linejoin="round"/>
<path d="M109.137 417.535L107.946 417.037C107.535 416.871 107.083 416.829 106.632 416.954L104.496 417.535" fill="#5C502B"/>
<path d="M109.137 417.535L107.946 417.037C107.535 416.871 107.083 416.829 106.632 416.954L104.496 417.535" stroke="#000E07" stroke-width="0.33" stroke-miterlimit="10" stroke-linecap="round" stroke-linejoin="round"/>
<path d="M123.717 417.535L124.908 416.995C125.236 416.829 125.565 416.788 125.935 416.871L127.249 417.161" fill="#5C502B"/>
<path d="M123.717 417.535L124.908 416.995C125.236 416.829 125.565 416.788 125.935 416.871L127.249 417.161" stroke="#000E07" stroke-width="0.33" stroke-miterlimit="10" stroke-linecap="round" stroke-linejoin="round"/>
<path d="M90.6973 419.319H90.9848" stroke="#000E07" stroke-width="0.33" stroke-miterlimit="10" stroke-linecap="round" stroke-linejoin="round"/>
<path d="M136.981 421.27H137.68" stroke="#000E07" stroke-width="0.33" stroke-miterlimit="10" stroke-linecap="round" stroke-linejoin="round"/>
<path d="M142.731 418.821H143.347" stroke="#000E07" stroke-width="0.33" stroke-miterlimit="10" stroke-linecap="round" stroke-linejoin="round"/>
<path d="M100.267 422.639H100.965" stroke="#000E07" stroke-width="0.33" stroke-miterlimit="10" stroke-linecap="round" stroke-linejoin="round"/>
<path d="M133.203 418.489H133.614" stroke="#000E07" stroke-width="0.33" stroke-miterlimit="10" stroke-linecap="round" stroke-linejoin="round"/>
<path d="M96.1594 345.539C92.2989 345.041 88.4795 344.128 85.0297 342.344C81.58 340.56 78.4587 337.987 76.4874 334.584C74.5161 331.223 73.7769 327.032 74.8447 323.256C80.5943 323.173 86.3439 325.455 90.4508 329.522C94.5577 333.588 96.1183 339.73 96.1594 345.539Z" fill="#2B7A55" stroke="#000E07" stroke-width="0.33" stroke-miterlimit="10" stroke-linecap="round" stroke-linejoin="round"/>
<path d="M88.1921 336.41C88.1921 336.41 83.6335 329.023 74.8037 323.255" stroke="#000E07" stroke-width="0.33" stroke-miterlimit="10" stroke-linecap="round" stroke-linejoin="round"/>
<path d="M166.387 471.771C166.921 474.634 169.672 477.041 173.04 478.327C176.366 479.613 180.227 479.862 183.964 479.696C184.293 477.082 183.718 474.385 181.746 472.269C179.775 470.152 176.777 468.617 173.492 467.995" fill="#005F32"/>
<path d="M110.328 317.363C109.506 314.666 108.151 312.134 106.262 310.06C104.373 307.985 101.95 306.366 99.2802 305.661C96.6518 304.955 93.9002 305.038 91.2308 305.578C88.5613 306.117 86.015 307.03 83.4688 307.985C86.1793 310.557 89.1362 312.923 92.2575 314.998C95.3787 317.072 98.8285 318.691 102.525 319.272C105.276 319.687 108.069 319.479 110.738 318.732C110.574 318.234 110.451 317.819 110.328 317.363Z" fill="#2B7A55" stroke="#000E07" stroke-width="0.33" stroke-miterlimit="10" stroke-linecap="round" stroke-linejoin="round"/>
<path d="M91.1895 309.064C91.1895 309.064 102.155 310.723 110.738 318.649" stroke="#000E07" stroke-width="0.33" stroke-miterlimit="10" stroke-linecap="round" stroke-linejoin="round"/>
<path d="M273.535 466.75L253.822 479.365C252.097 480.444 250.085 480.942 248.072 480.734L188.81 474.551L185.484 474.219L163.06 462.6C162.074 462.061 161.992 460.65 162.937 460.027L182.65 447.413C184.375 446.334 186.387 445.836 188.399 446.043L247.662 452.226L250.988 452.558L273.412 464.177C274.439 464.675 274.521 466.127 273.535 466.75Z" fill="#005F32"/>
<path d="M197.312 329.854L262.118 336.576L251.071 377.201C250.372 379.732 250.044 382.346 250.044 385.002V474.924L188.482 472.02C186.634 471.812 185.196 470.235 185.196 468.368V378.238C185.196 375.582 185.566 372.968 186.223 370.437L197.312 329.854Z" fill="url(#paint2_linear)" stroke="#000E07" stroke-width="0.33" stroke-miterlimit="10" stroke-linecap="round" stroke-linejoin="round"/>
<path d="M262.118 336.576L272.796 362.138C273.741 364.378 274.233 366.827 274.233 369.275V460.94C274.233 462.185 273.576 463.389 272.55 464.052L250.044 474.924V385.002C250.044 382.346 250.414 379.732 251.071 377.201L262.118 336.576Z" fill="url(#paint3_linear)" stroke="#000E07" stroke-width="0.33" stroke-miterlimit="10" stroke-linecap="round" stroke-linejoin="round"/>
<path d="M262.118 378.321V375.126C262.118 374.047 261.79 373.01 261.133 372.18L257.436 367.159C255.752 364.876 255.219 361.972 255.958 359.233L262.077 336.576" stroke="#000E07" stroke-width="0.33" stroke-miterlimit="10" stroke-linecap="round" stroke-linejoin="round"/>
<path d="M272.673 366.578L251.604 380.023" stroke="#000E07" stroke-width="0.33" stroke-miterlimit="10" stroke-linecap="round" stroke-linejoin="round"/>
<path d="M262.118 336.576L254.848 343.921L190.042 337.198L197.311 329.854L262.118 336.576Z" fill="#ADCCBD" stroke="#000E07" stroke-width="0.33" stroke-miterlimit="10" stroke-linecap="round" stroke-linejoin="round"/>
<path d="M206.264 402.182C201.418 397.285 199.365 390.812 200.35 385.21V385.127C200.391 384.836 200.473 384.504 200.556 384.214L201.582 379.317C201.664 378.861 201.623 378.404 201.418 377.989L201.336 377.823C200.966 377.035 201.131 376.08 201.747 375.458C202.363 374.836 203.307 374.67 204.087 375.043L204.252 375.126C204.662 375.334 205.114 375.375 205.566 375.292L210.412 374.255C210.7 374.172 211.028 374.13 211.316 374.047H211.398C216.942 373.051 223.349 375.126 228.195 380.023C233.041 384.919 235.094 391.393 234.109 396.995V397.078C234.068 397.368 233.986 397.7 233.903 397.99L232.877 402.887C232.795 403.343 232.836 403.8 233.041 404.215L233.123 404.381C233.493 405.169 233.328 406.124 232.712 406.746C232.096 407.369 231.152 407.535 230.371 407.161L230.207 407.078C229.797 406.871 229.345 406.829 228.893 406.912L224.047 407.95C223.759 408.033 223.431 408.074 223.143 408.157H223.061C217.517 409.111 211.11 407.078 206.264 402.182Z" fill="#FFAA05" stroke="#000E07" stroke-width="0.33" stroke-miterlimit="10" stroke-linecap="round" stroke-linejoin="round"/>
<path d="M227.497 404.547C227.21 404.588 226.963 404.671 226.676 404.713" stroke="#000E07" stroke-width="0.33" stroke-miterlimit="10" stroke-linecap="round" stroke-linejoin="round"/>
<path d="M223.062 403.551C222.774 403.593 222.487 403.634 222.199 403.676" stroke="#000E07" stroke-width="0.33" stroke-miterlimit="10" stroke-linecap="round" stroke-linejoin="round"/>
<path d="M217.969 405.792C217.722 405.792 217.476 405.75 217.229 405.75" stroke="#000E07" stroke-width="0.33" stroke-miterlimit="10" stroke-linecap="round" stroke-linejoin="round"/>
<path d="M214.232 402.389C213.944 402.265 213.616 402.14 213.328 401.974" stroke="#000E07" stroke-width="0.33" stroke-miterlimit="10" stroke-linecap="round" stroke-linejoin="round"/>
<path d="M219.365 401.186C219.119 401.186 218.872 401.144 218.626 401.144" stroke="#000E07" stroke-width="0.33" stroke-miterlimit="10" stroke-linecap="round" stroke-linejoin="round"/>
<path d="M226.84 400.771C226.593 400.771 226.347 400.812 226.101 400.812" stroke="#000E07" stroke-width="0.33" stroke-miterlimit="10" stroke-linecap="round" stroke-linejoin="round"/>
<path d="M212.753 396.995C212.425 396.829 212.096 396.621 211.768 396.455" stroke="#000E07" stroke-width="0.33" stroke-miterlimit="10" stroke-linecap="round" stroke-linejoin="round"/>
<path d="M208.687 399.277C208.482 399.111 208.318 398.945 208.112 398.738" stroke="#000E07" stroke-width="0.33" stroke-miterlimit="10" stroke-linecap="round" stroke-linejoin="round"/>
<path d="M205.935 391.6C205.73 391.31 205.566 391.019 205.36 390.729" stroke="#000E07" stroke-width="0.33" stroke-miterlimit="10" stroke-linecap="round" stroke-linejoin="round"/>
<path d="M250.044 419.527L274.233 404.049V460.94C274.233 462.185 273.576 463.389 272.55 464.053L252.672 476.75C250.988 477.829 248.976 478.286 247.005 478.078L188.523 471.978C186.675 471.771 185.237 470.194 185.237 468.327V437.91L250.044 419.527Z" fill="#708D22" stroke="#000E07" stroke-width="0.33" stroke-miterlimit="10" stroke-linecap="round" stroke-linejoin="round"/>
<path d="M274.233 404.049V460.94C274.233 462.185 273.576 463.389 272.55 464.053L252.672 476.75C251.851 477.248 250.988 477.622 250.085 477.871V419.527L274.233 404.049Z" fill="#475916" stroke="#475916" stroke-width="0.33" stroke-miterlimit="10" stroke-linecap="round" stroke-linejoin="round"/>
<path d="M250.044 419.527L274.233 404.049V460.94C274.233 462.185 273.576 463.389 272.55 464.053L252.672 476.75C250.988 477.829 248.976 478.286 247.005 478.078L188.523 471.978C186.675 471.771 185.237 470.194 185.237 468.327V437.91L250.044 419.527Z" stroke="#000E07" stroke-width="0.33" stroke-miterlimit="10" stroke-linecap="round" stroke-linejoin="round"/>
<path d="M250.044 419.527L185.237 437.951V430.607L250.044 412.141V419.527Z" fill="#FFAA05" stroke="#000E07" stroke-width="0.33" stroke-miterlimit="10" stroke-linecap="round" stroke-linejoin="round"/>
<path d="M250.044 412.14L274.233 396.704V404.049L250.044 419.527V412.14Z" fill="#C98604" stroke="#000E07" stroke-width="0.33" stroke-miterlimit="10" stroke-linecap="round" stroke-linejoin="round"/>
<path d="M250.044 419.527V474.924" stroke="#000E07" stroke-width="0.33" stroke-miterlimit="10" stroke-linecap="round" stroke-linejoin="round"/>
<path d="M201.83 449.405V441.396L203.185 441.52V448.077L206.101 448.367V449.778L201.83 449.405Z" fill="#FFAA05" stroke="black" stroke-width="0.33" stroke-miterlimit="10" stroke-linecap="round" stroke-linejoin="round"/>
<path d="M207.087 449.944V441.935L211.563 442.392V443.803L208.442 443.471V445.255L211.276 445.545V446.915L208.442 446.624V448.616L211.563 448.948V450.359L207.087 449.944Z" fill="#FFAA05" stroke="black" stroke-width="0.33" stroke-miterlimit="10" stroke-linecap="round" stroke-linejoin="round"/>
<path d="M212.918 450.525V442.516L214.314 442.64L216.368 448.035L218.421 443.055L219.859 443.221V451.23L218.503 451.106V446.209H218.462L216.45 450.898L216.245 450.857L214.232 445.753V450.649L212.918 450.525Z" fill="#FFAA05" stroke="black" stroke-width="0.33" stroke-miterlimit="10" stroke-linecap="round" stroke-linejoin="round"/>
<path d="M225.321 451.728C224.951 451.853 224.582 451.894 224.171 451.853C223.76 451.811 223.391 451.687 223.021 451.479C222.651 451.272 222.323 451.023 222.035 450.649C221.748 450.276 221.502 449.82 221.337 449.239C221.173 448.658 221.091 447.994 221.091 447.247C221.091 446.583 221.173 446.002 221.337 445.462C221.502 444.964 221.748 444.55 222.035 444.218C222.323 443.927 222.651 443.678 223.021 443.554C223.391 443.429 223.76 443.388 224.171 443.429C224.582 443.471 224.951 443.595 225.321 443.803C225.691 444.01 226.019 444.301 226.307 444.674C226.594 445.047 226.84 445.504 227.005 446.043C227.169 446.583 227.251 447.205 227.251 447.869C227.251 448.616 227.169 449.239 227.005 449.778C226.84 450.318 226.594 450.732 226.307 451.023C226.019 451.396 225.691 451.604 225.321 451.728ZM222.98 449.654C223.309 450.152 223.678 450.401 224.171 450.442C224.664 450.484 225.075 450.318 225.362 449.903C225.691 449.488 225.814 448.782 225.814 447.786C225.814 446.915 225.649 446.251 225.321 445.753C224.992 445.255 224.623 445.006 224.13 444.964C223.637 444.923 223.267 445.089 222.939 445.545C222.61 445.96 222.446 446.624 222.446 447.496C222.528 448.45 222.693 449.156 222.98 449.654Z" fill="#FFAA05" stroke="black" stroke-width="0.33" stroke-miterlimit="10" stroke-linecap="round" stroke-linejoin="round"/>
<path d="M228.483 452.143V444.134L229.839 444.259L232.467 449.778V444.549L233.863 444.674V452.683L232.508 452.558L229.88 447.039V452.268L228.483 452.143Z" fill="#FFAA05" stroke="black" stroke-width="0.33" stroke-miterlimit="10" stroke-linecap="round" stroke-linejoin="round"/>
<path d="M201.378 456.21L202.815 456.002C202.897 456.625 203.062 457.081 203.226 457.413C203.431 457.704 203.76 457.87 204.212 457.911C204.581 457.953 204.91 457.911 205.115 457.787C205.362 457.662 205.444 457.455 205.444 457.123C205.444 456.791 205.321 456.542 205.115 456.334C204.91 456.127 204.376 455.878 203.596 455.504C202.856 455.172 202.323 454.799 202.035 454.384C201.748 453.969 201.583 453.513 201.583 452.973C201.583 452.351 201.789 451.853 202.24 451.438C202.651 451.023 203.267 450.857 204.006 450.94C204.663 451.023 205.238 451.23 205.731 451.645C206.224 452.06 206.512 452.641 206.635 453.388L205.321 453.637C205.115 452.849 204.663 452.434 204.006 452.392C203.637 452.351 203.39 452.392 203.226 452.558C203.062 452.724 202.98 452.89 202.98 453.139C202.98 453.388 203.062 453.554 203.267 453.72C203.472 453.886 203.965 454.135 204.787 454.55C205.567 454.923 206.101 455.338 206.388 455.712C206.676 456.085 206.84 456.583 206.84 457.206C206.84 457.911 206.594 458.492 206.142 458.907C205.649 459.322 205.033 459.488 204.253 459.405C203.431 459.322 202.815 459.032 202.323 458.492C201.748 457.87 201.46 457.164 201.378 456.21Z" fill="#FFAA05" stroke="black" stroke-width="0.33" stroke-miterlimit="10" stroke-linecap="round" stroke-linejoin="round"/>
<path d="M208.605 459.613V451.604L213.082 452.06V453.471L209.961 453.139V454.924L212.794 455.214V456.583L209.961 456.293V458.285L213.082 458.617V460.028L208.605 459.613Z" fill="#FFAA05" stroke="black" stroke-width="0.33" stroke-miterlimit="10" stroke-linecap="round" stroke-linejoin="round"/>
<path d="M215.383 460.318V452.309L219.859 452.766V454.177L216.738 453.845V455.629L219.572 455.919V457.289L216.738 456.998V458.99L219.859 459.322V460.733L215.383 460.318Z" fill="#FFAA05" stroke="black" stroke-width="0.33" stroke-miterlimit="10" stroke-linecap="round" stroke-linejoin="round"/>
<path d="M221.666 460.94V452.932L224.048 453.181C224.459 453.222 224.828 453.347 225.198 453.554C225.568 453.762 225.896 454.011 226.184 454.343C226.471 454.674 226.717 455.131 226.882 455.67C227.046 456.21 227.128 456.832 227.128 457.496C227.128 458.243 227.046 458.866 226.882 459.364C226.717 459.903 226.471 460.276 226.142 460.525C225.855 460.774 225.526 460.982 225.157 461.065C224.787 461.148 224.418 461.189 224.007 461.148L221.666 460.94ZM223.062 459.654L224.007 459.737C224.253 459.779 224.459 459.737 224.664 459.696C224.828 459.654 225.034 459.53 225.198 459.405C225.362 459.239 225.485 458.99 225.568 458.658C225.65 458.326 225.691 457.87 225.691 457.33C225.691 456.459 225.526 455.795 225.239 455.338C224.952 454.882 224.541 454.674 224.089 454.591L223.103 454.508L223.062 459.654Z" fill="#FFAA05" stroke="black" stroke-width="0.33" stroke-miterlimit="10" stroke-linecap="round" stroke-linejoin="round"/>
<path d="M228.442 458.948L229.88 458.741C229.962 459.363 230.126 459.82 230.29 460.152C230.496 460.442 230.824 460.608 231.276 460.65C231.646 460.691 231.974 460.65 232.18 460.525C232.426 460.401 232.508 460.193 232.508 459.861C232.508 459.529 232.385 459.28 232.18 459.073C231.974 458.865 231.44 458.617 230.66 458.243C229.921 457.911 229.387 457.538 229.099 457.123C228.812 456.708 228.648 456.251 228.648 455.712C228.648 455.089 228.853 454.591 229.305 454.176C229.715 453.761 230.332 453.595 231.071 453.678C231.728 453.761 232.303 453.969 232.796 454.384C233.288 454.799 233.576 455.38 233.699 456.127L232.385 456.376C232.18 455.587 231.728 455.172 231.071 455.131C230.701 455.089 230.455 455.131 230.29 455.297C230.126 455.463 230.044 455.629 230.044 455.878C230.044 456.127 230.126 456.293 230.332 456.459C230.537 456.625 231.03 456.874 231.851 457.289C232.631 457.662 233.165 458.077 233.453 458.451C233.74 458.824 233.905 459.322 233.905 459.944C233.905 460.65 233.658 461.231 233.206 461.646C232.714 462.061 232.097 462.227 231.317 462.144C230.496 462.061 229.88 461.77 229.387 461.231C228.853 460.65 228.525 459.903 228.442 458.948Z" fill="#FFAA05" stroke="black" stroke-width="0.33" stroke-miterlimit="10" stroke-linecap="round" stroke-linejoin="round"/>
<path d="M116.981 499.739L111.766 492.602L169.139 486.626L174.354 493.763L116.981 499.739Z" fill="#005F32"/>
<path d="M169.139 486.626L111.766 492.602L113.532 475.215L170.905 469.281L169.139 486.626Z" fill="#579578" stroke="black" stroke-width="0.33" stroke-miterlimit="10"/>
<path d="M174.354 493.764L116.981 499.739L113.531 475.215L170.904 469.281L174.354 493.764Z" fill="white" stroke="black" stroke-width="0.33" stroke-miterlimit="10"/>
<path d="M133.285 491.191L131.725 479.904L136.16 479.447C137.269 479.323 138.213 479.572 138.994 480.153C139.774 480.734 140.267 481.564 140.39 482.642C140.554 483.721 140.349 484.634 139.733 485.34C139.158 486.045 138.296 486.46 137.105 486.585L134.764 486.834L135.339 490.942L133.285 491.191ZM134.517 484.842L136.817 484.593C137.269 484.551 137.639 484.344 137.926 484.053C138.172 483.721 138.296 483.348 138.213 482.891C138.131 482.352 137.926 481.978 137.597 481.73C137.269 481.522 136.858 481.439 136.406 481.481L134.107 481.73L134.517 484.842Z" fill="black"/>
<path d="M142.115 487.207L141.335 481.688L143.347 481.481L144.087 486.751C144.169 487.29 144.333 487.664 144.538 487.871C144.785 488.079 145.113 488.162 145.524 488.12C146.017 488.079 146.386 487.913 146.674 487.622C146.92 487.332 147.044 486.917 146.961 486.336L146.263 481.232L148.276 481.024L149.467 489.573L147.536 489.78L147.413 488.95H147.372C146.961 489.697 146.304 490.153 145.36 490.236C144.415 490.319 143.635 490.112 143.101 489.573C142.608 488.992 142.28 488.203 142.115 487.207Z" fill="black"/>
<path d="M151.684 486.211L151.15 482.477L149.877 482.601L149.631 480.817L150.945 480.692L150.658 478.617L152.588 478.41L152.875 480.485L154.97 480.277L155.216 482.062L153.163 482.269L153.656 485.796C153.738 486.253 153.82 486.543 154.025 486.709C154.189 486.875 154.518 486.917 154.97 486.875L155.627 486.792L155.914 488.825L155.052 488.908C153.943 489.033 153.122 488.867 152.67 488.41C152.136 488.037 151.808 487.249 151.684 486.211Z" fill="black"/>
<path d="M266.842 486.834L261.996 493.847L203.596 491.067L208.442 484.095L266.842 486.834Z" fill="#005F32"/>
<path d="M266.841 486.834L208.442 484.095L205.32 467.663L263.72 470.401L266.841 486.834Z" fill="#579578" stroke="black" stroke-width="0.33" stroke-miterlimit="10"/>
<path d="M261.996 493.847L203.596 491.066L205.321 467.663L263.72 470.401L261.996 493.847Z" fill="white" stroke="black" stroke-width="0.33" stroke-miterlimit="10"/>
<path d="M227.58 481.689L229.757 482.269C229.469 483.514 228.935 484.469 228.114 485.174C227.292 485.838 226.266 486.17 225.034 486.129C223.596 486.046 222.487 485.506 221.666 484.51C220.845 483.514 220.516 482.021 220.639 480.112C220.763 478.41 221.338 477.082 222.364 476.17C223.391 475.257 224.541 474.8 225.855 474.883C227.005 474.925 227.95 475.34 228.689 476.045C229.428 476.792 229.839 477.746 229.88 478.908L227.744 479.116C227.703 478.452 227.498 477.912 227.21 477.456C226.923 476.999 226.43 476.792 225.773 476.75C225.034 476.709 224.418 476.999 223.843 477.58C223.309 478.161 222.98 479.033 222.898 480.153C222.816 481.481 222.98 482.435 223.432 483.099C223.884 483.763 224.5 484.095 225.239 484.137C226.43 484.22 227.251 483.39 227.58 481.689Z" fill="black"/>
<path d="M235.917 486.378L235.958 485.589H235.917C235.876 485.631 235.876 485.672 235.835 485.714C235.794 485.755 235.712 485.838 235.588 485.921C235.465 486.046 235.301 486.129 235.137 486.212C234.972 486.295 234.767 486.378 234.479 486.419C234.192 486.461 233.905 486.502 233.576 486.502C232.549 486.461 231.81 486.17 231.358 485.714C230.906 485.216 230.66 484.635 230.742 483.971C230.783 483.265 231.071 482.726 231.523 482.394C231.974 482.062 232.755 481.771 233.781 481.564C234.767 481.398 235.383 481.232 235.629 481.108C235.876 480.983 235.999 480.817 236.04 480.568C236.04 480.319 235.958 480.112 235.712 479.946C235.506 479.78 235.137 479.655 234.644 479.655C234.069 479.614 233.658 479.738 233.412 479.946C233.165 480.195 232.919 480.485 232.755 480.9L231.071 480.112C231.317 479.448 231.769 478.908 232.385 478.493C233.001 478.078 233.781 477.912 234.726 477.954C235.753 477.995 236.574 478.286 237.19 478.867C237.806 479.406 238.094 480.236 238.011 481.357L237.642 486.544L235.917 486.378ZM234.11 482.933C233.576 483.016 233.206 483.182 233.042 483.307C232.878 483.473 232.755 483.639 232.755 483.888C232.714 484.427 233.124 484.718 233.946 484.759C234.562 484.801 235.054 484.676 235.383 484.469C235.712 484.261 235.876 483.971 235.917 483.639L236.04 482.228H235.999C235.958 482.311 235.917 482.352 235.835 482.394C235.794 482.435 235.629 482.518 235.342 482.601C235.013 482.726 234.603 482.85 234.11 482.933Z" fill="black"/>
<path d="M239.736 486.543L240.558 475.298L242.693 475.381L241.872 486.626L239.736 486.543Z" fill="black"/>
<path d="M244.09 486.751L244.911 475.506L247.047 475.589L246.225 486.834L244.09 486.751Z" fill="black"/>
<defs>
<linearGradient id="paint0_linear" x1="123.695" y1="422.42" x2="123.695" y2="294.169" gradientUnits="userSpaceOnUse">
<stop stop-color="#A08C4B"/>
<stop offset="1" stop-color="#708D22"/>
</linearGradient>
<linearGradient id="paint1_linear" x1="74.9953" y1="323.829" x2="77.1517" y2="323.829" gradientUnits="userSpaceOnUse">
<stop stop-color="#7B8D2B"/>
<stop offset="1" stop-color="#708D22"/>
</linearGradient>
<linearGradient id="paint2_linear" x1="215.999" y1="441.857" x2="226.905" y2="336.822" gradientUnits="userSpaceOnUse">
<stop offset="0.5999" stop-color="#ADCCBD"/>
<stop offset="0.6109" stop-color="#B2CFC1"/>
<stop offset="0.6797" stop-color="#CDE0D4"/>
<stop offset="0.7495" stop-color="#E1ECE3"/>
<stop offset="0.8203" stop-color="#ECF3EB"/>
<stop offset="0.8938" stop-color="#F0F5EE"/>
<stop offset="0.8956" stop-color="#EEF4ED"/>
<stop offset="0.8963" stop-color="#E7F0E7"/>
<stop offset="0.8968" stop-color="#DCE8DE"/>
<stop offset="0.8972" stop-color="#CBDED1"/>
<stop offset="0.8975" stop-color="#B5D0C0"/>
<stop offset="0.8978" stop-color="#99BFAB"/>
<stop offset="0.8981" stop-color="#7AAB93"/>
<stop offset="0.8983" stop-color="#579578"/>
</linearGradient>
<linearGradient id="paint3_linear" x1="227.963" y1="355.815" x2="270.029" y2="428.976" gradientUnits="userSpaceOnUse">
<stop offset="0.132" stop-color="#579578"/>
<stop offset="0.2029" stop-color="#5D997D"/>
<stop offset="0.2978" stop-color="#6EA48B"/>
<stop offset="0.3786" stop-color="#82B19B"/>
</linearGradient>
</defs>
</svg>
