<svg width="322" height="540" viewBox="0 0 322 540" fill="none" xmlns="http://www.w3.org/2000/svg">
<g clip-path="url(#clip0)">
<rect width="322" height="540" rx="16" fill="#ADCCBD"/>
<path d="M138.806 431.547C138.773 431.079 138.406 430.712 137.904 430.712C137.436 430.745 137.069 431.113 137.069 431.614C137.069 431.647 137.069 431.647 137.069 431.681C137.069 431.781 137.804 441.037 137.47 451.228C137.069 464.528 135.097 473.349 131.823 476.691C130.753 477.76 129.617 478.261 128.281 478.194C120.562 477.76 114.815 457.911 111.64 441.906L109.869 441.739C110.571 445.314 111.406 449.257 112.409 453.167C116.853 470.576 122.166 479.564 128.181 479.898H128.548C130.286 479.898 131.923 479.163 133.059 477.894C141.647 469.139 138.94 433.084 138.806 431.547Z" fill="#FA5000" stroke="#002212" stroke-width="0.33" stroke-miterlimit="10"/>
<path d="M109.267 375.143L107.663 351.485C106.961 344.401 100.679 339.222 93.6284 339.923C87.0457 340.558 82 346.105 82 352.755C82 353.256 83.5037 376.412 83.5037 376.412L109.267 375.143Z" fill="#FA5000" stroke="#002212" stroke-width="0.33" stroke-miterlimit="10"/>
<path d="M84.5402 375.209C84.1058 368.226 83.1367 353.322 83.1367 352.721C83.1367 346.238 88.3829 341.026 94.8654 341.026C100.88 341.026 105.926 345.604 106.527 351.585L108.064 374.04L84.5402 375.209Z" fill="#FA5000" stroke="#FFAA05" stroke-width="0.33" stroke-miterlimit="10"/>
<path d="M109.267 375.142C109.1 372.636 105.591 370.531 100.145 370.063C93.3279 369.462 86.1103 371.634 84.0385 374.908C83.7378 375.343 83.5707 375.878 83.5039 376.412L83.7712 380.155L109.534 378.15L109.267 375.142Z" fill="#4E535C" stroke="#002212" stroke-width="0.33" stroke-linecap="round" stroke-linejoin="round"/>
<path d="M97.5934 385.425C104.737 384.925 110.34 381.849 110.11 378.553C109.879 375.258 103.901 372.992 96.7581 373.492C89.6149 373.992 84.0112 377.068 84.2419 380.364C84.4726 383.659 90.4502 385.925 97.5934 385.425Z" fill="#202226" stroke="#002212" stroke-width="0.33" stroke-miterlimit="4.0098" stroke-linecap="round" stroke-linejoin="round"/>
<path d="M135.865 440.068L101.982 436.593L101.681 431.681L134.862 435.089C134.929 435.089 135.029 435.089 135.096 435.089C136.299 435.089 137.235 434.12 137.235 432.917C137.235 431.814 136.399 430.912 135.33 430.778L101.414 427.303L98.8076 384.398C98.7073 383.229 97.638 382.327 96.4685 382.46C95.3324 382.561 94.4636 383.53 94.497 384.666L97.7717 438.698C97.8385 439.734 98.6405 440.602 99.7098 440.703L135.43 444.345C135.497 444.345 135.597 444.345 135.664 444.345C136.867 444.345 137.836 443.409 137.836 442.206C137.836 441.104 137.001 440.168 135.865 440.068Z" fill="#82B19B" stroke="#002212" stroke-width="0.33" stroke-miterlimit="10"/>
<path d="M96.6367 397.23L99.1763 438.33C99.2097 438.865 99.6106 439.266 100.145 439.333L133.326 442.641" stroke="#579578" stroke-width="0.33" stroke-linecap="round" stroke-linejoin="round"/>
<path d="M98.709 429.876L131.289 433.184" stroke="#579578" stroke-width="0.33" stroke-linecap="round" stroke-linejoin="round"/>
<path d="M98.4732 404.949C99.0412 405.049 99.6093 405.283 100.111 405.65L98.8408 384.432C98.7405 383.262 97.6712 382.36 96.5017 382.494C95.3656 382.594 94.4968 383.563 94.5302 384.699L95.7666 405.383C96.6019 404.915 97.5376 404.782 98.4732 404.949Z" fill="#002212" stroke="#002212" stroke-width="0.33" stroke-miterlimit="10"/>
<path d="M135.699 440.068L125.04 438.965C125.908 440.302 125.842 442.006 124.939 443.276L135.265 444.345C135.331 444.345 135.432 444.345 135.499 444.345C136.702 444.345 137.671 443.409 137.671 442.206C137.671 441.104 136.835 440.168 135.699 440.068Z" fill="#002212" stroke="#002212" stroke-width="0.33" stroke-miterlimit="10"/>
<path d="M123.834 433.919L134.694 435.055C134.761 435.055 134.861 435.055 134.928 435.055C136.131 435.055 137.066 434.086 137.066 432.884C137.066 431.781 136.231 430.879 135.162 430.745L123.867 429.575C124.77 430.912 124.77 432.616 123.834 433.919Z" fill="#002212" stroke="#002212" stroke-width="0.33" stroke-miterlimit="10"/>
<path d="M182.277 539.644L167.407 274.263C167.307 272.559 164.834 271.289 161.86 271.456C158.886 271.623 156.581 273.127 156.681 274.864L171.517 539.644" fill="#82B19B"/>
<path d="M182.277 539.644L167.407 274.263C167.307 272.559 164.834 271.289 161.86 271.456C158.886 271.623 156.581 273.127 156.681 274.864L171.517 539.644" stroke="#002212" stroke-width="0.33" stroke-miterlimit="10"/>
<path d="M176.597 539.644L161.561 271.456C160.224 271.556 158.954 271.99 157.852 272.726L172.821 539.611L176.597 539.644Z" fill="#579578"/>
<path d="M182.277 539.644L167.407 274.263C167.307 272.559 164.834 271.289 161.86 271.456C158.886 271.623 156.581 273.127 156.681 274.864L171.517 539.644" stroke="#002212" stroke-width="0.33" stroke-miterlimit="10"/>
<path d="M163.498 396.862L164.267 410.328C164.166 408.591 166.505 407.054 169.446 406.887C172.386 406.72 174.893 407.989 174.993 409.727L174.258 396.261L163.498 396.862Z" fill="#002212" stroke="#002212" stroke-width="0.33" stroke-linecap="round" stroke-linejoin="round"/>
<path d="M167.242 463.893L168.011 477.359C167.91 475.621 170.25 474.084 173.19 473.917C176.131 473.75 178.637 475.02 178.737 476.757L178.002 463.291L167.242 463.893Z" fill="#002212" stroke="#002212" stroke-width="0.33" stroke-linecap="round" stroke-linejoin="round"/>
<path d="M219.971 471.578L221.374 469.707L220.539 469.373C220.539 469.239 220.539 469.105 220.505 468.938L215.159 422.291C214.858 419.785 212.753 417.579 210.447 417.312L131.287 408.925L128.447 407.856L126.91 409.961C126.275 410.796 126.041 411.832 126.175 412.868L131.521 459.515C131.822 462.021 133.927 464.227 136.233 464.494L216.83 473.015C217.866 473.149 218.901 472.781 219.603 472.046C219.737 471.946 219.87 471.778 219.971 471.578Z" fill="#004B27" stroke="#002212" stroke-width="0.33" stroke-linecap="round" stroke-linejoin="round"/>
<path d="M218.434 470.91L137.838 462.389C135.532 462.155 133.427 459.916 133.126 457.41L127.78 410.763C127.479 408.257 129.116 406.452 131.455 406.686L212.052 415.207C214.358 415.441 216.463 417.68 216.764 420.186L222.11 466.833C222.377 469.339 220.74 471.144 218.434 470.91Z" fill="#2B7A55" stroke="#002212" stroke-width="0.33" stroke-linecap="round" stroke-linejoin="round"/>
<path d="M149.932 435.189C149.632 435.189 149.331 435.156 149.03 435.122C147.125 434.955 145.354 434.12 144.018 432.783C142.648 431.447 141.679 429.542 141.111 427.136L141.077 426.969L144.686 426.401L144.72 426.535C145.121 428.105 145.622 429.275 146.19 430.01C146.791 430.745 147.66 431.213 148.596 431.246C148.796 431.28 148.997 431.28 149.197 431.28C149.698 431.313 150.233 431.179 150.667 430.912C151.135 430.611 151.302 430.11 151.202 429.408C151.135 428.673 150.768 428.038 150.2 427.571C149.632 427.103 148.328 426.401 146.39 425.532C144.519 424.697 143.116 423.728 142.247 422.725C141.378 421.689 140.81 420.453 140.643 419.083C140.409 417.479 140.777 416.143 141.679 415.107C142.447 414.238 143.55 413.77 144.953 413.77C145.221 413.77 145.488 413.77 145.789 413.804C147.426 413.971 148.963 414.606 150.2 415.641C151.57 416.777 152.539 418.348 152.973 420.052L153.006 420.219L149.665 420.888L149.632 420.787C148.896 418.883 147.76 417.847 146.223 417.68C146.056 417.68 145.889 417.646 145.722 417.646C145.288 417.613 144.853 417.747 144.519 418.014C144.185 418.381 144.018 418.883 144.152 419.35C144.218 419.885 144.519 420.386 144.987 420.687C146.223 421.456 147.493 422.124 148.83 422.725C150.834 423.694 152.271 424.697 153.107 425.666C153.976 426.769 154.544 428.072 154.677 429.475C154.911 431.28 154.544 432.75 153.508 433.853C152.639 434.755 151.436 435.189 149.932 435.189Z" fill="#E6EEE2"/>
<path d="M144.953 413.937C145.22 413.937 145.487 413.937 145.754 413.971C147.358 414.138 148.862 414.772 150.098 415.808C151.435 416.944 152.404 418.448 152.838 420.152L149.764 420.754C148.996 418.816 147.826 417.746 146.222 417.579C146.055 417.546 145.888 417.546 145.721 417.546C145.253 417.512 144.785 417.646 144.418 417.947C144.05 418.314 143.883 418.883 144.017 419.417C144.084 420.019 144.418 420.52 144.919 420.854C146.155 421.623 147.459 422.291 148.762 422.892C150.767 423.861 152.17 424.83 152.972 425.799C153.841 426.869 154.376 428.172 154.509 429.508C154.743 431.279 154.376 432.716 153.407 433.752C152.571 434.621 151.435 435.089 149.965 435.089C149.664 435.089 149.363 435.055 149.063 435.022C147.191 434.855 145.454 434.019 144.151 432.716C142.781 431.38 141.845 429.508 141.277 427.136L144.618 426.601C145.053 428.205 145.554 429.375 146.122 430.11C146.724 430.878 147.626 431.346 148.628 431.413C148.829 431.447 149.029 431.447 149.23 431.447C149.764 431.48 150.299 431.346 150.767 431.046C151.268 430.711 151.468 430.177 151.368 429.408C151.301 428.64 150.9 427.971 150.332 427.47C149.731 426.969 148.461 426.301 146.49 425.398C144.618 424.563 143.248 423.627 142.413 422.625C141.544 421.623 141.01 420.386 140.842 419.083C140.642 417.513 140.976 416.209 141.845 415.207C142.48 414.338 143.549 413.937 144.953 413.937ZM144.919 413.636C143.449 413.636 142.313 414.104 141.511 415.006C140.575 416.076 140.208 417.446 140.442 419.116C140.609 420.486 141.177 421.79 142.112 422.825C143.014 423.861 144.418 424.83 146.289 425.666C148.227 426.535 149.53 427.236 150.065 427.704C150.6 428.138 150.934 428.773 151.001 429.475C151.101 430.143 150.934 430.578 150.533 430.845C150.098 431.079 149.631 431.213 149.163 431.179C148.996 431.179 148.795 431.179 148.595 431.146C147.693 431.112 146.857 430.678 146.289 429.943C145.754 429.208 145.253 428.072 144.852 426.535L144.785 426.301L144.518 426.334L141.177 426.869L140.876 426.902L140.943 427.203C141.511 429.642 142.513 431.58 143.917 432.95C145.287 434.32 147.091 435.156 149.029 435.323C149.33 435.356 149.631 435.389 149.965 435.389C151.502 435.389 152.738 434.922 153.607 433.986C154.643 432.883 155.044 431.38 154.777 429.508C154.643 428.105 154.075 426.735 153.173 425.632C152.337 424.63 150.867 423.627 148.862 422.658C147.559 422.057 146.256 421.389 145.053 420.653C144.618 420.386 144.351 419.918 144.284 419.417C144.184 418.983 144.318 418.515 144.618 418.214C144.953 417.98 145.32 417.847 145.721 417.88C145.855 417.88 146.022 417.88 146.189 417.913C147.693 418.081 148.762 419.05 149.497 420.921L149.597 421.155L149.831 421.121L152.905 420.52L153.206 420.453L153.106 420.152C152.638 418.415 151.669 416.844 150.266 415.675C148.996 414.605 147.425 413.971 145.754 413.77C145.521 413.67 145.22 413.636 144.919 413.636Z" fill="#002212"/>
<path d="M157.719 435.657L154.945 415.207L158.554 415.608L160.759 432.148L167.843 432.884L168.345 436.793L157.719 435.657Z" fill="#E6EEE2"/>
<path d="M155.112 415.374L158.42 415.708L160.659 432.248L167.709 433.017L168.177 436.626L157.818 435.523L155.112 415.374ZM154.778 415.04L154.811 415.407L157.518 435.523L157.551 435.757L157.785 435.79L168.144 436.893L168.511 436.927L168.478 436.559L167.976 432.95L167.943 432.716L167.709 432.683L160.892 431.981L158.687 415.675L158.654 415.441L158.42 415.407L155.112 415.073L154.744 415.04H154.778Z" fill="#002212"/>
<path d="M177.233 438.096C176.999 438.096 176.732 438.096 176.498 438.063C175.496 437.963 174.493 437.628 173.591 437.161C172.589 436.626 171.72 435.891 170.951 435.056C170.016 434.02 169.314 432.783 168.779 431.48C168.144 429.876 167.71 428.172 167.476 426.468C167.242 424.964 167.242 423.461 167.476 421.99C167.643 420.854 168.078 419.785 168.746 418.849C169.314 418.114 170.049 417.513 170.918 417.145C171.586 416.878 172.255 416.744 172.99 416.744C173.224 416.744 173.424 416.744 173.658 416.778C174.66 416.911 175.663 417.212 176.565 417.747C177.568 418.315 178.47 419.05 179.238 419.919C180.14 420.954 180.876 422.124 181.377 423.394C182.012 424.864 182.413 426.434 182.613 428.005C182.847 429.609 182.88 431.28 182.647 432.884C182.413 434.254 181.978 435.356 181.377 436.091C180.809 436.827 180.074 437.361 179.205 437.695C178.603 437.996 177.935 438.13 177.233 438.096ZM173.825 420.654C172.889 420.654 172.188 421.088 171.653 422.024C171.052 423.06 170.918 424.663 171.185 426.802C171.519 429.208 172.121 431.046 173.023 432.249C173.925 433.452 174.894 434.086 176.03 434.22C176.131 434.22 176.264 434.254 176.365 434.254C177.3 434.287 178.136 433.752 178.537 432.917C179.105 431.915 179.238 430.144 178.904 427.704C178.603 425.566 178.002 423.862 177.1 422.659C176.198 421.456 175.195 420.787 174.126 420.687C174.026 420.654 173.925 420.654 173.825 420.654Z" fill="#E6EEE2"/>
<path d="M173.022 416.911C173.255 416.911 173.456 416.911 173.69 416.945C174.692 417.045 175.661 417.379 176.53 417.88C177.533 418.448 178.401 419.184 179.136 420.019C180.039 421.055 180.74 422.191 181.242 423.461C181.843 424.931 182.277 426.468 182.478 428.038C182.745 429.642 182.745 431.28 182.511 432.884C182.278 434.254 181.877 435.289 181.275 436.025C180.74 436.726 180.005 437.261 179.17 437.595C178.535 437.829 177.867 437.929 177.198 437.929C176.965 437.929 176.731 437.929 176.497 437.896C175.494 437.796 174.525 437.495 173.656 436.994C172.687 436.459 171.785 435.757 171.05 434.922C170.148 433.886 169.413 432.683 168.912 431.413C168.277 429.809 167.842 428.139 167.642 426.435C167.408 424.964 167.408 423.461 167.642 421.99C167.809 420.888 168.243 419.818 168.878 418.916C169.881 417.613 171.418 416.878 173.022 416.911ZM176.396 434.354C177.365 434.354 178.268 433.819 178.669 432.95C179.27 431.915 179.404 430.144 179.07 427.637C178.769 425.466 178.167 423.728 177.232 422.525C176.296 421.289 175.294 420.62 174.158 420.487C174.057 420.487 173.924 420.453 173.824 420.453C172.854 420.453 172.086 420.921 171.551 421.89C170.95 422.959 170.783 424.597 171.083 426.769C171.418 429.208 172.019 431.046 172.921 432.282C173.824 433.519 174.859 434.187 176.029 434.287C176.163 434.354 176.296 434.354 176.396 434.354ZM173.055 416.577C172.32 416.577 171.618 416.711 170.95 416.978C170.081 417.346 169.312 417.947 168.711 418.716C168.009 419.651 167.575 420.754 167.408 421.924C167.174 423.427 167.174 424.964 167.408 426.468C167.608 428.206 168.076 429.876 168.711 431.514C169.212 432.85 169.947 434.053 170.85 435.156C171.618 436.025 172.52 436.726 173.523 437.294C174.425 437.796 175.427 438.096 176.463 438.23C176.697 438.263 176.965 438.263 177.198 438.263C177.9 438.263 178.602 438.13 179.27 437.896C180.139 437.562 180.907 436.96 181.509 436.225C182.144 435.457 182.578 434.354 182.812 432.95C183.046 431.313 183.046 429.642 182.779 428.038C182.578 426.435 182.177 424.864 181.542 423.394C181.008 422.124 180.273 420.921 179.37 419.885C178.602 419.016 177.7 418.248 176.664 417.68C175.762 417.145 174.759 416.811 173.723 416.711C173.489 416.611 173.255 416.611 173.055 416.577ZM176.396 434.053C176.296 434.053 176.163 434.053 176.062 434.02C174.993 433.919 173.991 433.251 173.155 432.115C172.32 430.979 171.685 429.141 171.351 426.735C171.083 424.63 171.217 423.06 171.785 422.024C172.286 421.155 172.955 420.721 173.824 420.721C173.924 420.721 174.024 420.721 174.124 420.721C175.16 420.821 176.129 421.489 176.998 422.625C177.867 423.761 178.502 425.499 178.769 427.637C179.103 430.043 178.969 431.781 178.401 432.75C178.067 433.585 177.265 434.087 176.396 434.053Z" fill="#002212"/>
<path d="M198.952 440.034L193.806 427.303L191.968 439.299L188.292 438.898L182.211 418.114L185.853 418.515L189.796 432.082L191.834 419.15L193.706 419.35L199.319 433.051L199.654 419.985L203.229 420.353L202.594 440.402L198.952 440.034Z" fill="#E6EEE2"/>
<path d="M182.38 418.281L185.721 418.649L189.764 432.583H189.831L191.903 419.317L193.574 419.484L199.354 433.585H199.421L199.789 420.119L203.064 420.453L202.462 440.235L199.054 439.867L193.841 427.003H193.707L191.836 439.132L188.428 438.765L182.38 418.281ZM182.012 417.947L182.146 418.348L188.16 438.831L188.227 439.032L188.428 439.065L191.836 439.433L192.103 439.466L192.137 439.199L193.874 427.838L198.786 440.034L198.853 440.201L199.02 440.235L202.429 440.602L202.729 440.636V440.335L203.331 420.554V420.286L203.064 420.253L199.789 419.919L199.488 419.885V420.186L199.154 432.449L193.841 419.451L193.774 419.284L193.607 419.25L191.936 419.083L191.669 419.05L191.636 419.317L189.731 431.48L185.989 418.615L185.922 418.415L185.721 418.382L182.38 418.014L181.945 417.981L182.012 417.947Z" fill="#002212"/>
<path d="M151.437 458.479C151.169 458.479 150.869 458.479 150.601 458.446L145.222 457.878L142.615 438.531L148.196 439.132C149.165 439.232 150.1 439.533 150.936 440.001C151.871 440.502 152.707 441.17 153.408 441.939C154.244 442.874 154.945 443.944 155.413 445.113C156.015 446.483 156.382 447.954 156.583 449.457C156.817 450.961 156.817 452.498 156.583 453.968C156.349 455.238 155.914 456.207 155.313 456.842C154.745 457.443 154.01 457.911 153.208 458.179C152.64 458.379 152.038 458.479 151.437 458.479ZM150.167 454.737C150.334 454.77 150.535 454.77 150.702 454.77C150.969 454.77 151.27 454.737 151.537 454.67C151.938 454.57 152.272 454.336 152.539 454.002C152.874 453.5 153.074 452.899 153.108 452.264C153.174 451.228 153.141 450.192 152.974 449.156C152.707 447.085 152.138 445.481 151.37 444.478C150.601 443.476 149.666 442.908 148.63 442.808L146.525 442.574L148.129 454.503L150.167 454.737Z" fill="#E6EEE2"/>
<path d="M142.781 438.664L148.195 439.232C149.13 439.333 150.032 439.633 150.868 440.068C151.77 440.569 152.605 441.237 153.307 442.006C154.142 442.941 154.811 444.011 155.279 445.147C155.847 446.517 156.248 447.987 156.448 449.457C156.682 450.928 156.682 452.465 156.448 453.935C156.214 455.171 155.813 456.107 155.212 456.742C154.644 457.343 153.942 457.778 153.173 458.045C152.605 458.212 152.004 458.312 151.436 458.312C151.169 458.312 150.901 458.312 150.601 458.279L145.321 457.711L142.781 438.664ZM150.667 454.904C150.968 454.904 151.269 454.871 151.536 454.804C151.971 454.67 152.338 454.436 152.605 454.069C152.973 453.534 153.173 452.899 153.207 452.264C153.274 451.228 153.24 450.159 153.073 449.123C152.806 446.985 152.238 445.414 151.436 444.378C150.634 443.342 149.698 442.774 148.596 442.641L146.323 442.407L147.961 454.637L150.099 454.871C150.3 454.904 150.5 454.904 150.667 454.904ZM142.447 438.364L142.514 438.731L145.087 457.778L145.12 458.012L145.354 458.045L150.634 458.613C150.935 458.646 151.202 458.646 151.503 458.646C152.138 458.646 152.739 458.546 153.341 458.379C154.176 458.112 154.911 457.644 155.512 457.009C156.147 456.341 156.582 455.338 156.816 454.069C157.05 452.565 157.05 451.028 156.816 449.491C156.615 447.987 156.214 446.483 155.613 445.08C155.112 443.91 154.443 442.808 153.574 441.839C152.839 441.037 152.004 440.368 151.068 439.867C150.2 439.399 149.264 439.099 148.261 438.998L142.848 438.43L142.447 438.364ZM148.261 454.403L146.691 442.741L148.629 442.941C149.631 443.042 150.534 443.61 151.269 444.579C152.004 445.548 152.572 447.118 152.839 449.19C153.006 450.192 153.04 451.228 152.973 452.264C152.94 452.866 152.772 453.434 152.438 453.901C152.204 454.202 151.87 454.436 151.503 454.536C151.235 454.603 150.968 454.637 150.701 454.637C150.534 454.637 150.367 454.637 150.166 454.603L148.261 454.403Z" fill="#002212"/>
<path d="M167.242 460.551C167.008 460.551 166.774 460.551 166.54 460.518C165.571 460.417 164.635 460.117 163.8 459.649C162.864 459.114 162.029 458.446 161.294 457.644C160.425 456.642 159.723 455.505 159.256 454.269C158.654 452.732 158.253 451.162 158.019 449.524C157.785 448.121 157.785 446.684 158.019 445.28C158.186 444.211 158.587 443.175 159.222 442.307C159.757 441.605 160.458 441.07 161.294 440.703C161.929 440.435 162.564 440.335 163.232 440.335C163.432 440.335 163.666 440.335 163.867 440.368C164.836 440.469 165.771 440.803 166.607 441.271C167.542 441.805 168.411 442.507 169.113 443.342C169.948 444.311 170.65 445.448 171.151 446.651C171.753 448.054 172.12 449.524 172.321 451.028C172.555 452.565 172.555 454.102 172.354 455.639C172.221 456.742 171.82 457.778 171.151 458.68C170.617 459.348 169.915 459.883 169.08 460.217C168.511 460.451 167.877 460.551 167.242 460.551ZM164 444.044C163.132 444.044 162.463 444.479 161.962 445.347C161.394 446.316 161.26 447.853 161.528 449.858C161.828 452.131 162.43 453.868 163.265 455.004C164.101 456.14 165.036 456.742 166.106 456.842C166.206 456.842 166.34 456.842 166.44 456.842C167.309 456.842 168.111 456.374 168.478 455.606C169.013 454.637 169.146 452.999 168.846 450.694C168.578 448.655 168.01 447.051 167.141 445.915C166.273 444.779 165.337 444.178 164.335 444.044C164.234 444.044 164.134 444.044 164 444.044Z" fill="#E6EEE2"/>
<path d="M163.266 440.469C163.466 440.469 163.667 440.469 163.867 440.502C164.803 440.602 165.705 440.903 166.541 441.404C167.476 441.939 168.312 442.641 169.013 443.443C169.849 444.412 170.517 445.514 171.018 446.684C171.62 448.087 171.987 449.524 172.188 451.028C172.422 452.531 172.422 454.102 172.221 455.606C172.087 456.675 171.687 457.711 171.052 458.58C170.517 459.248 169.849 459.749 169.047 460.083C168.445 460.317 167.81 460.417 167.209 460.417C166.975 460.417 166.775 460.417 166.541 460.384C165.605 460.284 164.703 459.983 163.867 459.549C162.932 459.047 162.096 458.379 161.395 457.577C160.526 456.608 159.858 455.472 159.39 454.236C158.788 452.732 158.387 451.161 158.187 449.524C157.986 448.121 157.986 446.717 158.187 445.314C158.321 444.245 158.755 443.276 159.356 442.407C159.891 441.738 160.559 441.17 161.361 440.836C161.996 440.602 162.631 440.502 163.266 440.469ZM166.474 457.043C167.376 457.043 168.245 456.541 168.646 455.706C169.214 454.703 169.347 453.033 169.013 450.694C168.746 448.622 168.145 447.018 167.276 445.849C166.407 444.679 165.438 444.044 164.369 443.944C164.268 443.944 164.135 443.91 164.034 443.944C163.099 443.944 162.397 444.412 161.863 445.314C161.294 446.316 161.127 447.853 161.428 449.925C161.729 452.231 162.33 453.968 163.166 455.138C164.001 456.307 165.004 456.942 166.106 457.043C166.24 457.009 166.34 457.009 166.474 457.043ZM163.266 440.201C162.564 440.201 161.896 440.335 161.261 440.602C160.426 440.97 159.691 441.538 159.156 442.24C158.488 443.142 158.087 444.178 157.92 445.28C157.686 446.717 157.686 448.154 157.92 449.591C158.12 451.228 158.554 452.832 159.156 454.369C159.624 455.606 160.325 456.775 161.194 457.778C161.929 458.58 162.765 459.281 163.734 459.783C164.603 460.25 165.538 460.551 166.507 460.651C166.741 460.685 166.975 460.685 167.209 460.685C167.877 460.685 168.546 460.585 169.18 460.351C170.016 460.016 170.751 459.482 171.286 458.78C171.954 457.878 172.388 456.775 172.522 455.673C172.756 454.135 172.722 452.532 172.488 450.994C172.288 449.491 171.887 447.987 171.319 446.584C170.818 445.381 170.116 444.245 169.247 443.242C168.512 442.407 167.643 441.705 166.708 441.137C165.839 440.636 164.903 440.335 163.901 440.201C163.7 440.201 163.466 440.168 163.266 440.201ZM166.44 456.742C166.34 456.742 166.24 456.742 166.14 456.742C165.104 456.642 164.202 456.04 163.4 454.937C162.598 453.835 161.996 452.131 161.695 449.858C161.428 447.853 161.562 446.383 162.096 445.414C162.564 444.579 163.199 444.211 164.001 444.211C164.101 444.211 164.202 444.211 164.302 444.211C165.271 444.311 166.206 444.913 167.008 446.016C167.81 447.118 168.412 448.722 168.679 450.727C168.98 452.999 168.88 454.637 168.345 455.572C168.011 456.307 167.242 456.742 166.44 456.742Z" fill="#002212"/>
<path d="M187.759 462.389L182.913 450.326L181.176 461.654L177.701 461.32L171.92 441.638L175.395 442.006L179.104 454.804L181.009 442.607L182.813 442.775L188.126 455.74L188.427 443.376L191.835 443.744L191.234 462.723L187.759 462.389Z" fill="#E6EEE2"/>
<path d="M172.12 441.805L175.294 442.14L179.103 455.305H179.17L181.142 442.741L182.712 442.908L188.159 456.241H188.226L188.56 443.51L191.667 443.844L191.099 462.556L187.858 462.222L182.946 450.059H182.813L181.042 461.52L177.8 461.186L172.086 441.805H172.12ZM171.719 441.505L171.852 441.906L177.566 461.286L177.633 461.453L177.834 461.487L181.075 461.821L181.342 461.854L181.376 461.587L183.013 450.894L187.624 462.356L187.691 462.523H187.858L191.099 462.857L191.4 462.89V462.59L191.968 443.877V443.61L191.701 443.576L188.593 443.242L188.293 443.209V443.51L187.992 455.038L182.98 442.808L182.913 442.641L182.746 442.607L181.175 442.44L180.908 442.407L180.874 442.674L179.07 454.102L175.595 442.006L175.528 441.839L175.328 441.805L172.153 441.471L171.719 441.505Z" fill="#002212"/>
<path d="M205.836 464.294L198.418 451.629L200.056 463.692L196.647 463.325L194.041 443.977L197.416 444.345L204.734 456.976L203.13 444.946L206.538 445.314L209.145 464.661L205.836 464.294Z" fill="#E6EEE2"/>
<path d="M194.207 444.145L197.315 444.479L204.933 457.577H204.967L203.296 445.08L206.437 445.414L209.01 464.461L205.936 464.127L198.25 451.028H198.217L199.888 463.525L196.78 463.191L194.207 444.145ZM193.873 443.81L193.94 444.178L196.513 463.224L196.546 463.458L196.78 463.492L199.888 463.826L200.255 463.859L200.222 463.492L198.718 452.331L205.735 464.327L205.802 464.461H205.936L209.01 464.795L209.378 464.828L209.344 464.461L206.771 445.414L206.738 445.18L206.504 445.147L203.363 444.813L202.995 444.779L203.062 445.147L204.566 456.308L197.582 444.345L197.515 444.211H197.382L194.274 443.877L193.873 443.81Z" fill="#002212"/>
<path d="M127.879 446.784L130.084 447.219L129.984 446.417L132.223 445.147L141.011 446.016L141.88 445.347L132.156 444.345L127.879 446.784Z" fill="#579578" stroke="#002212" stroke-width="0.33" stroke-linecap="round" stroke-linejoin="round"/>
<path d="M125.74 426L127.879 446.784L132.156 444.345H132.189L129.817 423.527L125.74 426Z" fill="#579578" stroke="#002212" stroke-width="0.33" stroke-linecap="round" stroke-linejoin="round"/>
<path d="M139.139 424.496L129.816 423.527L132.189 444.345L141.879 445.347L139.139 424.496Z" fill="#82B19B" stroke="#002212" stroke-width="0.33" stroke-linecap="round" stroke-linejoin="round"/>
<path d="M141.009 446.016L132.221 445.147L129.982 446.417L130.083 447.219L132.355 445.916L141.043 446.784L141.009 446.016Z" fill="#002212" stroke="#002212" stroke-width="0.33" stroke-linecap="round" stroke-linejoin="round"/>
<path d="M103.953 352.721C103.953 357.733 100.177 361.81 95.1318 361.81C90.0861 361.81 85.7422 357.733 85.7422 352.721C85.7422 347.709 89.8188 343.632 94.8311 343.632C99.8433 343.632 103.953 347.709 103.953 352.721Z" fill="#FFAA05"/>
<path d="M96.8518 382.58C100.755 382.312 103.818 380.632 103.694 378.828C103.57 377.024 100.306 375.778 96.4029 376.047C92.4999 376.315 89.4364 377.995 89.5604 379.799C89.6843 381.603 92.9488 382.848 96.8518 382.58Z" stroke="#4E535C" stroke-width="0.33" stroke-linecap="round" stroke-linejoin="round"/>
<path d="M101.18 414.94C101.08 414.94 100.946 414.906 100.846 414.873C93.5612 411.899 90.0526 403.612 92.9263 396.294C93.1268 395.86 93.628 395.659 94.0624 395.826C94.4968 395.994 94.6973 396.495 94.5302 396.929C91.9907 403.378 95.0982 410.663 101.514 413.302C101.948 413.47 102.182 413.971 102.015 414.405C101.881 414.773 101.547 414.973 101.18 414.94Z" fill="#FA5000" stroke="#002212" stroke-width="0.33" stroke-miterlimit="10"/>
<path d="M106.194 381.425L93.7637 379.587L95.1337 400.003L107.597 401.875L106.194 381.425Z" fill="#4E535C" stroke="#002212" stroke-width="0.33" stroke-linecap="round" stroke-linejoin="round"/>
<path d="M95.1328 400.003L106.661 388.475" stroke="#002212" stroke-width="0.33" stroke-linecap="round" stroke-linejoin="round"/>
<path d="M97.6367 400.371L106.859 391.182" stroke="#002212" stroke-width="0.33" stroke-linecap="round" stroke-linejoin="round"/>
<path d="M100.145 400.772L107.028 393.855" stroke="#002212" stroke-width="0.33" stroke-linecap="round" stroke-linejoin="round"/>
<path d="M102.65 401.139L107.228 396.528" stroke="#002212" stroke-width="0.33" stroke-linecap="round" stroke-linejoin="round"/>
<path d="M105.123 401.507L107.395 399.235" stroke="#002212" stroke-width="0.33" stroke-linecap="round" stroke-linejoin="round"/>
<path d="M95.132 400.003L93.762 379.587L91.2559 381.859L92.6593 402.276L95.132 400.003Z" fill="#202226" stroke="#002212" stroke-width="0.33" stroke-linecap="round" stroke-linejoin="round"/>
<path d="M95.1309 400.003L92.6582 402.275L105.089 404.147L107.595 401.874L95.1309 400.003Z" fill="#202226" stroke="#002212" stroke-width="0.33" stroke-linecap="round" stroke-linejoin="round"/>
<path d="M95.1309 400.003L92.6582 402.275" stroke="#4E535C" stroke-width="0.33" stroke-linecap="round" stroke-linejoin="round"/>
<path d="M98.7334 385.849C99.3956 385.446 99.5202 384.442 99.0118 383.606C98.5034 382.771 97.5545 382.42 96.8923 382.823C96.2301 383.226 96.1055 384.23 96.6139 385.065C97.1223 385.901 98.0713 386.252 98.7334 385.849Z" fill="#FFAA05" stroke="#002212" stroke-width="0.33" stroke-miterlimit="10"/>
<path d="M99.0557 390.833C99.7179 390.43 99.8425 389.426 99.3341 388.59C98.8257 387.755 97.8767 387.404 97.2146 387.807C96.5524 388.21 96.4278 389.214 96.9362 390.049C97.4446 390.885 98.3935 391.236 99.0557 390.833Z" fill="#2BD130" stroke="#002212" stroke-width="0.33" stroke-miterlimit="10"/>
<path d="M95.2324 402.676L99.0417 403.244" stroke="#4E535C" stroke-width="0.33" stroke-linecap="round" stroke-linejoin="round"/>
<path d="M101.314 420.754H101.247C98.5739 420.453 96.2014 418.849 94.965 416.443C94.7645 416.009 94.9316 415.508 95.366 415.274C95.8004 415.073 96.3016 415.24 96.5355 415.675C97.5046 417.546 99.3424 418.816 101.448 419.05C101.915 419.117 102.249 419.551 102.183 420.019C102.082 420.42 101.748 420.754 101.314 420.754Z" fill="#FA5000" stroke="#002212" stroke-width="0.33" stroke-miterlimit="10"/>
<path d="M102.183 433.451H102.116C99.1757 433.218 96.6028 431.279 95.5335 428.506C95.333 428.072 95.5669 427.57 96.0013 427.37C96.4357 427.169 96.9369 427.403 97.1374 427.838C97.1374 427.871 97.1708 427.905 97.1708 427.905C98.0062 430.043 99.9443 431.513 102.25 431.714C102.718 431.747 103.085 432.182 103.018 432.65C102.985 433.117 102.617 433.451 102.183 433.451Z" fill="#FA5000" stroke="#002212" stroke-width="0.33" stroke-miterlimit="10"/>
<path d="M98.7756 427.704C98.0071 427.704 97.2051 427.637 96.4366 427.537C95.9688 427.504 95.6012 427.069 95.668 426.601C95.7014 426.134 96.1358 425.766 96.6036 425.833C96.6371 425.833 96.6705 425.833 96.7039 425.833C98.4081 426.134 100.179 426.033 101.883 425.599C102.351 425.532 102.785 425.833 102.886 426.301C102.952 426.735 102.719 427.136 102.284 427.27C101.115 427.537 99.9451 427.704 98.7756 427.704Z" fill="#FA5000" stroke="#002212" stroke-width="0.33" stroke-miterlimit="10"/>
<path d="M109.232 427.337C109.165 426.869 108.731 426.535 108.263 426.602C107.795 426.668 107.461 427.103 107.528 427.571C107.528 427.638 108.029 431.647 109.032 437.361L110.803 437.528C110.101 433.552 109.566 430.043 109.232 427.337Z" fill="#FA5000" stroke="#002212" stroke-width="0.33" stroke-miterlimit="10"/>
<path d="M173.188 299.926L228.457 400.906C232.032 407.455 228.39 414.205 221.907 413.069L121.696 395.492C115.213 394.356 110.736 386.17 113.643 380.756L158.619 297.353C161.493 291.939 169.613 293.376 173.188 299.926Z" fill="#ADCCBD" stroke="#002212" stroke-width="0.33" stroke-miterlimit="10"/>
<path d="M175.329 298.155L230.597 399.168C234.173 405.717 230.53 412.467 224.048 411.331L123.836 393.755C117.354 392.619 112.876 384.432 115.783 379.019L160.727 295.582C163.634 290.202 171.753 291.605 175.329 298.155Z" fill="#E6EEE2" stroke="#002212" stroke-width="0.33" stroke-miterlimit="10"/>
<path d="M124.002 385.501C123.467 385.401 123.1 384.799 123.033 384.666C122.866 384.432 122.799 384.131 122.833 383.864L167.675 300.661C168.043 300.794 168.377 301.095 168.544 301.463L223.813 402.476C223.913 402.643 223.98 402.844 224.013 403.044L124.002 385.501Z" fill="#FFAA05" stroke="#002212" stroke-width="0.33" stroke-miterlimit="10"/>
<path d="M178.167 365.953L167.675 364.115L164.768 325.588L175.26 327.459L178.167 365.953Z" fill="#002212" stroke="#002212" stroke-width="0.33" stroke-linecap="round" stroke-linejoin="round"/>
<path d="M179.605 385.2L169.113 383.363L168.277 372.369L178.77 374.207L179.605 385.2Z" fill="#002212" stroke="#002212" stroke-width="0.33" stroke-linecap="round" stroke-linejoin="round"/>
</g>
<defs>
<clipPath id="clip0">
<rect width="322" height="540" rx="16" fill="white"/>
</clipPath>
</defs>
</svg>
