<?xml version="1.0" encoding="UTF-8" standalone="no"?>
<svg
   xmlns:dc="http://purl.org/dc/elements/1.1/"
   xmlns:cc="http://creativecommons.org/ns#"
   xmlns:rdf="http://www.w3.org/1999/02/22-rdf-syntax-ns#"
   xmlns:svg="http://www.w3.org/2000/svg"
   xmlns="http://www.w3.org/2000/svg"
   xmlns:sodipodi="http://sodipodi.sourceforge.net/DTD/sodipodi-0.dtd"
   xmlns:inkscape="http://www.inkscape.org/namespaces/inkscape"
   inkscape:version="1.0 (4035a4fb49, 2020-05-01)"
   id="svg8"
   version="1.1"
   viewBox="0 0 145.00296 30.922239"
   height="30.922239mm"
   width="145.00296mm"
   sodipodi:docname="Full lockup.svg">
  <defs
     id="defs2" />
  <sodipodi:namedview
     fit-margin-bottom="0"
     fit-margin-right="0"
     fit-margin-left="0"
     fit-margin-top="0"
     showborder="true"
     inkscape:pagecheckerboard="true"
     showgrid="false"
     inkscape:document-rotation="0"
     inkscape:current-layer="layer1"
     inkscape:document-units="px"
     inkscape:cy="106.74574"
     inkscape:cx="262.33923"
     inkscape:zoom="0.49497475"
     inkscape:pageshadow="2"
     inkscape:pageopacity="0.0"
     borderopacity="1.0"
     bordercolor="#666666"
     pagecolor="#ffffff"
     id="base"
     inkscape:snap-global="false"
     inkscape:window-width="1344"
     inkscape:window-height="730"
     inkscape:window-x="0"
     inkscape:window-y="0"
     inkscape:window-maximized="0" />
  <metadata
     id="metadata5">
    <rdf:RDF>
      <cc:Work
         rdf:about="">
        <dc:format>image/svg+xml</dc:format>
        <dc:type
           rdf:resource="http://purl.org/dc/dcmitype/StillImage" />
        <dc:title></dc:title>
      </cc:Work>
    </rdf:RDF>
  </metadata>
  <g
     transform="translate(-736.52575,-216.76745)"
     id="layer1"
     inkscape:groupmode="layer"
     inkscape:label="Layer 1">
    <g
       id="g860">
      <path
         id="path837"
         style="font-style:normal;font-variant:normal;font-weight:bold;font-stretch:normal;font-size:30.9219px;line-height:1.25;font-family:Montserrat;-inkscape-font-specification:'Montserrat Bold';fill:#000000;fill-opacity:1;stroke:none;stroke-width:0.999999"
         d="M 416.40039 14.375 L 416.40039 101.09375 L 434.63281 101.09375 L 434.63281 85.082031 L 443.39844 76.433594 L 463.26562 101.09375 L 485.35547 101.09375 L 456.83789 64.863281 L 483.01758 38.216797 L 461.2793 38.216797 L 434.63281 63.460938 L 434.63281 14.375 L 416.40039 14.375 z M 178.70703 17.880859 C 155.44986 17.880859 144.23047 29.451848 144.23047 43.359375 C 144.23047 73.745642 191.79688 63.227113 191.79688 78.537109 C 191.79688 83.562558 187.23906 87.302734 176.01953 87.302734 C 166.20244 87.302734 155.91682 83.796895 149.02148 78.771484 L 142.59375 93.029297 C 149.83971 98.639061 162.92976 102.49609 175.90234 102.49609 C 199.27638 102.49609 210.61328 90.808567 210.61328 77.134766 C 210.61328 47.099126 163.04688 57.500061 163.04688 42.423828 C 163.04688 37.281516 167.37032 33.074219 178.58984 33.074219 C 185.8358 33.074219 193.66709 35.177758 201.26367 39.501953 L 207.10742 25.126953 C 199.51087 20.335268 188.99162 17.880859 178.70703 17.880859 z M 224.59961 24.310547 L 224.59961 39.619141 L 214.89844 39.619141 L 214.89844 53.644531 L 224.59961 53.644531 L 224.59961 79.472656 C 224.59961 94.432026 233.24734 102.02734 248.08984 102.02734 C 253.69961 102.02734 259.1918 100.74269 262.93164 98.054688 L 258.02344 85.199219 C 256.03665 86.718551 253.34816 87.537109 250.66016 87.537109 C 245.75161 87.537109 242.83008 84.614281 242.83008 79.238281 L 242.83008 53.644531 L 258.49219 53.644531 L 258.49219 39.619141 L 242.83008 39.619141 L 242.83008 24.310547 L 224.59961 24.310547 z M 301.14453 37.28125 C 281.15975 37.28125 266.55078 50.721321 266.55078 69.654297 C 266.55078 88.587273 281.15975 102.02734 301.14453 102.02734 C 321.12935 102.02734 335.62109 88.587273 335.62109 69.654297 C 335.62109 50.721321 321.12935 37.28125 301.14453 37.28125 z M 378.08008 37.28125 C 357.62781 37.28125 343.01953 50.721321 343.01953 69.654297 C 343.01953 88.587273 357.62781 102.02734 378.08008 102.02734 C 391.28639 102.02734 401.68813 96.185587 406.24609 86.134766 L 392.10547 78.419922 C 388.71622 84.497175 383.68952 87.068359 377.96289 87.068359 C 368.73015 87.068359 361.48438 80.640098 361.48438 69.654297 C 361.48438 58.668496 368.73015 52.242188 377.96289 52.242188 C 383.68952 52.242188 388.71622 54.930235 392.10547 60.890625 L 406.24609 53.292969 C 401.68813 43.008421 391.28639 37.28125 378.08008 37.28125 z M 517.77344 37.28125 C 507.72262 37.28125 497.55549 39.970358 490.66016 44.878906 L 497.20508 57.617188 C 501.763 53.994208 508.65675 51.773438 515.31836 51.773438 C 525.13546 51.773438 529.81055 56.331798 529.81055 64.162109 L 515.31836 64.162109 C 496.15166 64.162109 488.32227 71.875851 488.32227 82.978516 C 488.32227 93.847416 497.08686 102.02734 511.8125 102.02734 C 521.04524 102.02734 527.59122 98.990336 530.98047 93.263672 L 530.98047 101.09375 L 548.04297 101.09375 L 548.04297 65.214844 C 548.04297 46.165005 536.94014 37.28125 517.77344 37.28125 z M 301.14453 52.242188 C 310.26041 52.242188 317.15625 58.785359 317.15625 69.654297 C 317.15625 80.523235 310.26041 87.068359 301.14453 87.068359 C 292.02865 87.068359 285.01758 80.523235 285.01758 69.654297 C 285.01758 58.785359 292.02865 52.242188 301.14453 52.242188 z M 517.30664 74.796875 L 529.81055 74.796875 L 529.81055 81.224609 C 527.70686 86.951236 522.44835 89.757812 516.37109 89.757812 C 509.94321 89.757812 506.08594 86.718115 506.08594 82.160156 C 506.08594 77.952824 508.77511 74.796875 517.30664 74.796875 z "
         transform="matrix(0.26458334,0,0,0.26458334,736.52575,216.76745)" />
      <path
         inkscape:export-ydpi="96"
         inkscape:export-xdpi="96"
         id="path906"
         style="fill:#1b8381;fill-opacity:1;stroke:none;stroke-width:0.132292;stroke-linecap:round;stroke-linejoin:round"
         d="m 751.82973,216.76785 a 15.46101,15.46101 0 0 0 -15.30398,15.46102 15.46101,15.46101 0 0 0 7.68672,13.36533 c 0.40639,-0.35648 0.73941,-0.65608 1.21091,-1.06145 1.84492,-1.58605 3.3449,-2.9776 3.41833,-3.1707 0.11009,-0.28954 -0.0822,-0.90916 -1.21393,-3.90602 -0.73981,-1.95904 -1.34479,-3.69364 -1.34378,-3.8562 0.003,-0.38991 0.1316,-0.48718 5.22413,-3.89244 4.97635,-3.32754 4.77287,-3.0971 3.93622,-4.45257 -0.35221,-0.57062 -0.45654,-0.85099 -0.35633,-0.95121 0.10022,-0.10021 1.03358,-0.0605 3.1677,0.13733 1.66445,0.15426 3.11406,0.28078 3.22205,0.28078 0.10799,0 0.25866,0.11482 0.33368,0.25507 0.0202,0.0377 0.0295,0.092 0.0257,0.17063 -0.0169,0.34036 -0.28242,1.13584 -0.98141,3.00916 -0.60032,1.60884 -1.14578,2.99846 -1.21243,3.08614 -0.19353,0.25478 -0.42474,0.0792 -0.84401,-0.63867 -0.46222,-0.79142 -0.84154,-0.94417 -1.45098,-0.58432 -0.22997,0.13586 -1.81825,1.17209 -3.53006,2.30255 -2.21526,1.46293 -3.13398,2.1444 -3.18884,2.36295 -0.0514,0.20482 0.37443,1.50463 1.27886,3.89998 0.92629,2.45323 1.33133,3.69244 1.27735,3.90754 -0.0726,0.28925 -3.95851,3.62591 -5.34795,4.62924 a 15.46101,15.46101 0 0 0 4.14911,0.5677 15.46101,15.46101 0 0 0 15.46102,-15.46102 15.46101,15.46101 0 0 0 -15.46102,-15.46102 15.46101,15.46101 0 0 0 -0.15701,0 z" />
    </g>
  </g>
</svg>
