<?xml version="1.0" encoding="UTF-8" standalone="no"?>
<svg
   xmlns:dc="http://purl.org/dc/elements/1.1/"
   xmlns:cc="http://creativecommons.org/ns#"
   xmlns:rdf="http://www.w3.org/1999/02/22-rdf-syntax-ns#"
   xmlns:svg="http://www.w3.org/2000/svg"
   xmlns="http://www.w3.org/2000/svg"
   xmlns:sodipodi="http://sodipodi.sourceforge.net/DTD/sodipodi-0.dtd"
   xmlns:inkscape="http://www.inkscape.org/namespaces/inkscape"
   sodipodi:docname="logo.svg"
   width="30.92206mm"
   height="30.922239mm"
   viewBox="0 0 30.922059 30.922239"
   version="1.1"
   id="svg8"
   inkscape:version="1.0 (4035a4fb49, 2020-05-01)">
  <defs
     id="defs2" />
  <sodipodi:namedview
     inkscape:window-maximized="0"
     inkscape:window-y="0"
     inkscape:window-x="0"
     inkscape:window-height="730"
     inkscape:window-width="1344"
     inkscape:snap-global="false"
     id="base"
     pagecolor="#ffffff"
     bordercolor="#666666"
     borderopacity="1.0"
     inkscape:pageopacity="0.0"
     inkscape:pageshadow="2"
     inkscape:zoom="0.175"
     inkscape:cx="-677.1045"
     inkscape:cy="292.90804"
     inkscape:document-units="px"
     inkscape:current-layer="layer1"
     inkscape:document-rotation="0"
     showgrid="false"
     inkscape:pagecheckerboard="true"
     showborder="true"
     fit-margin-top="0"
     fit-margin-left="0"
     fit-margin-right="0"
     fit-margin-bottom="0" />
  <metadata
     id="metadata5">
    <rdf:RDF>
      <cc:Work
         rdf:about="">
        <dc:format>image/svg+xml</dc:format>
        <dc:type
           rdf:resource="http://purl.org/dc/dcmitype/StillImage" />
        <dc:title />
      </cc:Work>
    </rdf:RDF>
  </metadata>
  <g
     inkscape:label="Layer 1"
     inkscape:groupmode="layer"
     id="layer1"
     transform="translate(-525.61503,-327.1365)">
    <path
       d="m 540.91901,327.1369 a 15.46101,15.46101 0 0 0 -15.30398,15.46102 15.46101,15.46101 0 0 0 7.68672,13.36533 c 0.40639,-0.35648 0.73941,-0.65608 1.21091,-1.06145 1.84492,-1.58605 3.3449,-2.9776 3.41833,-3.1707 0.11009,-0.28954 -0.0822,-0.90916 -1.21393,-3.90602 -0.73981,-1.95904 -1.34479,-3.69364 -1.34378,-3.8562 0.003,-0.38991 0.1316,-0.48718 5.22413,-3.89244 4.97635,-3.32754 4.77287,-3.0971 3.93622,-4.45257 -0.35221,-0.57062 -0.45654,-0.85099 -0.35633,-0.95121 0.10022,-0.10021 1.03358,-0.0605 3.1677,0.13733 1.66445,0.15426 3.11406,0.28078 3.22205,0.28078 0.10799,0 0.25866,0.11482 0.33368,0.25507 0.0202,0.0377 0.0295,0.092 0.0257,0.17063 -0.0169,0.34036 -0.28242,1.13584 -0.98141,3.00916 -0.60032,1.60884 -1.14578,2.99846 -1.21243,3.08614 -0.19353,0.25478 -0.42474,0.0792 -0.84401,-0.63867 -0.46222,-0.79142 -0.84154,-0.94417 -1.45098,-0.58432 -0.22997,0.13586 -1.81825,1.17209 -3.53006,2.30255 -2.21526,1.46293 -3.13398,2.1444 -3.18884,2.36295 -0.0514,0.20482 0.37443,1.50463 1.27886,3.89998 0.92629,2.45323 1.33133,3.69244 1.27735,3.90754 -0.0726,0.28925 -3.95851,3.62591 -5.34795,4.62924 a 15.46101,15.46101 0 0 0 4.14911,0.5677 15.46101,15.46101 0 0 0 15.46102,-15.46102 15.46101,15.46101 0 0 0 -15.46102,-15.46102 15.46101,15.46101 0 0 0 -0.15701,0 z"
       style="fill:#1b8381;fill-opacity:1;stroke:none;stroke-width:0.132292;stroke-linecap:round;stroke-linejoin:round"
       id="path837"
       inkscape:export-xdpi="96"
       inkscape:export-ydpi="96" />
  </g>
</svg>
